<svg xmlns="http://www.w3.org/2000/svg" xmlns:xlink="http://www.w3.org/1999/xlink" width="90" height="90" viewBox="0 0 90 90">
  <defs>
    <clipPath id="clip-path">
      <rect id="Rectangle_412229" data-name="Rectangle 412229" width="60" height="61" transform="translate(770.755 7687.999)" fill="#fff" stroke="#707070" stroke-width="1"/>
    </clipPath>
  </defs>
  <g id="Group_1204182" data-name="Group 1204182" transform="translate(-755.505 -7673.499)">
    <g id="Path_1276284" data-name="Path 1276284" transform="translate(755.505 7673.499)" fill="#caedb8">
      <path d="M 75 88.5 L 15 88.5 C 11.39401245117188 88.5 8.003874778747559 87.09574890136719 5.454062461853027 84.54593658447266 C 2.904249906539917 81.99612426757812 1.5 78.60598754882812 1.5 75 L 1.5 15 C 1.5 11.39401245117188 2.904249906539917 8.003874778747559 5.454062461853027 5.454062461853027 C 8.003874778747559 2.904249906539917 11.39401245117188 1.5 15 1.5 L 75 1.5 C 78.60598754882812 1.5 81.99612426757812 2.904249906539917 84.54593658447266 5.454062461853027 C 87.09574890136719 8.003874778747559 88.5 11.39401245117188 88.5 15 L 88.5 75 C 88.5 78.60598754882812 87.09574890136719 81.99612426757812 84.54593658447266 84.54593658447266 C 81.99612426757812 87.09574890136719 78.60598754882812 88.5 75 88.5 Z" stroke="none"/>
      <path d="M 15 3 C 11.79468536376953 3 8.781211853027344 4.248214721679688 6.514717102050781 6.514717102050781 C 4.248214721679688 8.781211853027344 3 11.79468536376953 3 15 L 3 75 C 3 78.20531463623047 4.248214721679688 81.21878814697266 6.514717102050781 83.48528289794922 C 8.781211853027344 85.75178527832031 11.79468536376953 87 15 87 L 75 87 C 78.20531463623047 87 81.21878814697266 85.75178527832031 83.48528289794922 83.48528289794922 C 85.75178527832031 81.21878814697266 87 78.20531463623047 87 75 L 87 15 C 87 11.79468536376953 85.75178527832031 8.781211853027344 83.48528289794922 6.514717102050781 C 81.21878814697266 4.248214721679688 78.20531463623047 3 75 3 L 15 3 M 15 0 L 75 0 C 83.28427124023438 0 90 6.715728759765625 90 15 L 90 75 C 90 83.28427124023438 83.28427124023438 90 75 90 L 15 90 C 6.715728759765625 90 0 83.28427124023438 0 75 L 0 15 C 0 6.715728759765625 6.715728759765625 0 15 0 Z" stroke="none" fill="#569338"/>
    </g>
    <g id="Mask_Group_1200929" data-name="Mask Group 1200929" clip-path="url(#clip-path)">
      <g id="_x36_90_x2C__Analysis_x2C__development_x2C__optimize_x2C__web" transform="translate(768.255 7685.519)">
        <g id="Group_1204175" data-name="Group 1204175">
          <path id="Path_1276661" data-name="Path 1276661" d="M3.75,25V56.25a4.709,4.709,0,0,0,4.709,4.709H56.541A4.709,4.709,0,0,0,61.25,56.25V25Z" fill="#ecf0f1"/>
          <path id="Path_1276662" data-name="Path 1276662" d="M28.75,48.75l-7.5,3.75,7.5,3.75H40v-7.5Z" fill="#65b2fe"/>
          <path id="Path_1276663" data-name="Path 1276663" d="M28.75,41.25,21.25,45l7.5,3.75H40v-7.5Z" fill="#64e1db"/>
          <path id="Path_1276664" data-name="Path 1276664" d="M28.75,33.75l-7.5,3.75,7.5,3.75H40v-7.5Z" fill="#ffd24d"/>
          <path id="Path_1276665" data-name="Path 1276665" d="M13.75,5a2.5,2.5,0,1,1-2.5,2.5A2.5,2.5,0,0,1,13.75,5Z" fill="#313a52"/>
          <path id="Path_1276666" data-name="Path 1276666" d="M54.375,6.25A1.875,1.875,0,1,1,52.5,8.125,1.876,1.876,0,0,1,54.375,6.25Z" fill="#313a52"/>
          <path id="Path_1276667" data-name="Path 1276667" d="M56.541,15H8.459A4.708,4.708,0,0,0,3.75,19.709V25h57.5V19.709A4.708,4.708,0,0,0,56.541,15Z" fill="#74829c"/>
          <path id="Path_1276668" data-name="Path 1276668" d="M56.25,31.25h2.5V55h-2.5Z"/>
          <path id="Path_1276669" data-name="Path 1276669" d="M56.25,27.5h2.5V30h-2.5Z"/>
          <path id="Path_1276670" data-name="Path 1276670" d="M55.884,19.116A1.249,1.249,0,1,1,55,18.75,1.246,1.246,0,0,1,55.884,19.116Z"/>
          <path id="Path_1276671" data-name="Path 1276671" d="M10,27.5H55V30H10Z"/>
          <path id="Path_1276672" data-name="Path 1276672" d="M45.884,7.866A1.249,1.249,0,1,1,45,7.5,1.246,1.246,0,0,1,45.884,7.866Z"/>
          <path id="Path_1276673" data-name="Path 1276673" d="M33.75,51.25h2.5v2.5h-2.5Z"/>
          <path id="Path_1276674" data-name="Path 1276674" d="M33.75,43.75h2.5v2.5h-2.5Z"/>
          <path id="Path_1276675" data-name="Path 1276675" d="M33.75,36.25h2.5v2.5h-2.5Z"/>
          <path id="Path_1276676" data-name="Path 1276676" d="M34.634,5.366A1.249,1.249,0,1,1,33.75,5,1.246,1.246,0,0,1,34.634,5.366Z"/>
          <path id="Path_1276677" data-name="Path 1276677" d="M30,51.25h2.5v2.5H30Z"/>
          <path id="Path_1276678" data-name="Path 1276678" d="M30,43.75h2.5v2.5H30Z"/>
          <path id="Path_1276679" data-name="Path 1276679" d="M30,36.25h2.5v2.5H30Z"/>
          <path id="Path_1276680" data-name="Path 1276680" d="M24.634,9.116a1.249,1.249,0,1,1-.884-.366A1.246,1.246,0,0,1,24.634,9.116Z"/>
          <path id="Path_1276681" data-name="Path 1276681" d="M16.25,18.75h2.5v2.5h-2.5Z"/>
          <path id="Path_1276682" data-name="Path 1276682" d="M18.384,36.616a1.249,1.249,0,1,1-.884-.366A1.247,1.247,0,0,1,18.384,36.616Z"/>
          <path id="Path_1276683" data-name="Path 1276683" d="M18.384,44.116a1.249,1.249,0,1,1-.884-.366A1.247,1.247,0,0,1,18.384,44.116Z"/>
          <path id="Path_1276684" data-name="Path 1276684" d="M18.384,51.616a1.249,1.249,0,1,1-.884-.366A1.247,1.247,0,0,1,18.384,51.616Z"/>
          <path id="Path_1276685" data-name="Path 1276685" d="M12.5,18.75H15v2.5H12.5Z"/>
          <path id="Path_1276686" data-name="Path 1276686" d="M14.634,36.616a1.249,1.249,0,1,1-.884-.366A1.247,1.247,0,0,1,14.634,36.616Z"/>
          <path id="Path_1276687" data-name="Path 1276687" d="M14.634,44.116a1.249,1.249,0,1,1-.884-.366A1.247,1.247,0,0,1,14.634,44.116Z"/>
          <path id="Path_1276688" data-name="Path 1276688" d="M14.634,51.616a1.249,1.249,0,1,1-.884-.366A1.247,1.247,0,0,1,14.634,51.616Z"/>
          <path id="Path_1276689" data-name="Path 1276689" d="M8.75,18.75h2.5v2.5H8.75Z"/>
          <path id="Path_1276690" data-name="Path 1276690" d="M6.25,31.25h2.5V55H6.25Z"/>
          <path id="Path_1276691" data-name="Path 1276691" d="M6.25,27.5h2.5V30H6.25Z"/>
          <path id="Path_1276692" data-name="Path 1276692" d="M61.25,26.25H3.75a1.25,1.25,0,0,1,0-2.5h57.5a1.25,1.25,0,0,1,0,2.5Z"/>
          <path id="Path_1276693" data-name="Path 1276693" d="M51.25,21.25h-25a1.25,1.25,0,0,1,0-2.5h25a1.25,1.25,0,0,1,0,2.5Z"/>
          <path id="Path_1276694" data-name="Path 1276694" d="M56.541,62.209H8.459A5.966,5.966,0,0,1,2.5,56.25V19.709A5.966,5.966,0,0,1,8.459,13.75H56.541A5.966,5.966,0,0,1,62.5,19.709V56.25a5.966,5.966,0,0,1-5.959,5.959ZM8.459,16.25A3.463,3.463,0,0,0,5,19.709V56.25a3.463,3.463,0,0,0,3.459,3.459H56.541A3.463,3.463,0,0,0,60,56.25V19.709a3.463,3.463,0,0,0-3.459-3.459Z"/>
          <path id="Path_1276695" data-name="Path 1276695" d="M13.75,11.25A3.75,3.75,0,1,1,17.5,7.5,3.754,3.754,0,0,1,13.75,11.25Zm0-5A1.25,1.25,0,1,0,15,7.5,1.251,1.251,0,0,0,13.75,6.25Z"/>
          <path id="Path_1276696" data-name="Path 1276696" d="M54.375,11.25A3.125,3.125,0,1,1,57.5,8.125,3.129,3.129,0,0,1,54.375,11.25Zm0-3.75A.625.625,0,1,0,55,8.125.626.626,0,0,0,54.375,7.5Z"/>
          <path id="Path_1276697" data-name="Path 1276697" d="M28.749,42.5a1.244,1.244,0,0,1-.558-.132l-7.5-3.75a1.25,1.25,0,0,1,0-2.236l7.5-3.75a1.251,1.251,0,0,1,.559-.132H40a1.25,1.25,0,0,1,1.25,1.25v7.5a1.25,1.25,0,0,1-2.5,0V35h-9.7l-5,2.5,5.264,2.632a1.25,1.25,0,0,1-.56,2.368Z"/>
          <path id="Path_1276698" data-name="Path 1276698" d="M28.749,50a1.244,1.244,0,0,1-.558-.132l-7.5-3.75a1.25,1.25,0,0,1,0-2.236l7.5-3.75A1.251,1.251,0,0,1,28.75,40H40a1.25,1.25,0,0,1,1.25,1.25v7.5a1.25,1.25,0,0,1-2.5,0V42.5h-9.7l-5,2.5,5.264,2.632A1.25,1.25,0,0,1,28.749,50Z"/>
          <path id="Path_1276699" data-name="Path 1276699" d="M40,57.5H28.75a1.249,1.249,0,0,1-.559-.132l-7.5-3.75a1.25,1.25,0,0,1,0-2.236l7.5-3.75a1.251,1.251,0,0,1,.559-.132H40a1.25,1.25,0,0,1,1.25,1.25v7.5A1.25,1.25,0,0,1,40,57.5ZM29.045,55h9.7V50h-9.7l-5,2.5Z"/>
          <path id="Path_1276700" data-name="Path 1276700" d="M46.25,40.151a1.25,1.25,0,0,1-.884-.366L43.6,38.018a1.25,1.25,0,1,1,1.768-1.768l.87.87,4.116-4.241a1.25,1.25,0,0,1,1.794,1.741l-5,5.151a1.25,1.25,0,0,1-.888.379H46.25Z"/>
          <path id="Path_1276701" data-name="Path 1276701" d="M46.25,48.9a1.25,1.25,0,0,1-.884-.366L43.6,46.768A1.25,1.25,0,1,1,45.366,45l.87.87,4.116-4.241a1.25,1.25,0,0,1,1.794,1.741l-5,5.151a1.25,1.25,0,0,1-.888.379H46.25Z"/>
          <path id="Path_1276702" data-name="Path 1276702" d="M46.25,57.651a1.25,1.25,0,0,1-.884-.366L43.6,55.518a1.25,1.25,0,1,1,1.768-1.768l.87.87,4.116-4.241a1.25,1.25,0,0,1,1.794,1.741l-5,5.151a1.25,1.25,0,0,1-.888.379H46.25Z"/>
        </g>
      </g>
    </g>
  </g>
</svg>
