<svg xmlns="http://www.w3.org/2000/svg" xmlns:xlink="http://www.w3.org/1999/xlink" width="100" height="100" viewBox="0 0 100 100">
  <defs>
    <clipPath id="clip-path">
      <rect id="Rectangle_412183" data-name="Rectangle 412183" width="100" height="100" transform="translate(805.883 1970.102)" fill="#fff" stroke="#707070" stroke-width="1"/>
    </clipPath>
  </defs>
  <g id="Mask_Group_1200903" data-name="Mask Group 1200903" transform="translate(-805.883 -1970.102)" clip-path="url(#clip-path)">
    <g id="Path_1276179" data-name="Path 1276179" transform="translate(805.781 1970)" fill="#ffc94a">
      <path d="M 83.50260162353516 98.70313262939453 L 16.70051956176758 98.70313262939453 C 12.64031982421875 98.70313262939453 8.82313346862793 97.12200164794922 5.952134132385254 94.25100708007812 C 3.081133842468262 91.3800048828125 1.50000536441803 87.56282043457031 1.50000536441803 83.50260162353516 L 1.50000536441803 16.70051956176758 C 1.50000536441803 12.64031982421875 3.081133842468262 8.82313346862793 5.952134132385254 5.952134132385254 C 8.82313346862793 3.081133842468262 12.64031982421875 1.50000536441803 16.70051956176758 1.50000536441803 L 83.50260162353516 1.50000536441803 C 87.56282043457031 1.50000536441803 91.3800048828125 3.081133842468262 94.25100708007812 5.952134132385254 C 97.12200164794922 8.82313346862793 98.70313262939453 12.64031982421875 98.70313262939453 16.70051956176758 L 98.70313262939453 83.50260162353516 C 98.70313262939453 87.56280517578125 97.12200164794922 91.3800048828125 94.25100708007812 94.25100708007812 C 91.3800048828125 97.12200164794922 87.56280517578125 98.70313262939453 83.50260162353516 98.70313262939453 Z" stroke="none"/>
      <path d="M 16.70051574707031 2.999992370605469 C 13.04097747802734 2.999992370605469 9.600486755371094 4.425102233886719 7.012794494628906 7.012794494628906 C 4.425102233886719 9.600486755371094 2.999992370605469 13.04097747802734 2.999992370605469 16.70051574707031 L 2.999992370605469 83.50259399414062 C 2.999992370605469 87.16213226318359 4.425102233886719 90.60263824462891 7.012794494628906 93.19033050537109 C 9.600471496582031 95.77800750732422 13.04097747802734 97.20311737060547 16.70051574707031 97.20311737060547 L 83.50259399414062 97.20311737060547 C 87.16213226318359 97.20311737060547 90.60263824462891 95.77800750732422 93.19033050537109 93.19033050537109 C 95.77800750732422 90.60263824462891 97.20311737060547 87.16213226318359 97.20311737060547 83.50259399414062 L 97.20311737060547 16.70051574707031 C 97.20311737060547 13.04097747802734 95.77800750732422 9.600471496582031 93.19033050537109 7.012794494628906 C 90.60263824462891 4.425102233886719 87.16213226318359 2.999992370605469 83.50259399414062 2.999992370605469 L 16.70051574707031 2.999992370605469 M 16.70051574707031 -7.62939453125e-06 L 83.50259399414062 -7.62939453125e-06 C 92.72603607177734 -7.62939453125e-06 100.2031173706055 7.477088928222656 100.2031173706055 16.70051574707031 L 100.2031173706055 83.50259399414062 C 100.2031173706055 92.72603607177734 92.72603607177734 100.2031173706055 83.50259399414062 100.2031173706055 L 16.70051574707031 100.2031173706055 C 7.477088928222656 100.2031173706055 -7.62939453125e-06 92.72603607177734 -7.62939453125e-06 83.50259399414062 L -7.62939453125e-06 16.70051574707031 C -7.62939453125e-06 7.477088928222656 7.477088928222656 -7.62939453125e-06 16.70051574707031 -7.62939453125e-06 Z" stroke="none" fill="#b18c32"/>
    </g>
    <g id="cash-flow_15537965" transform="translate(818.979 1983.246)">
      <g id="Group_1204048" data-name="Group 1204048" transform="translate(0.864 0.858)">
        <path id="Path_1276180" data-name="Path 1276180" d="M157.008,50.863h47.265a1.758,1.758,0,0,1,1.757,1.757v62.514a1.758,1.758,0,0,1-1.757,1.757H155.251V52.621A1.758,1.758,0,0,1,157.008,50.863Z" transform="translate(-133.965 -44.918)" fill="#906f65"/>
        <rect id="Rectangle_412178" data-name="Rectangle 412178" width="50.78" height="66.028" rx="12" transform="translate(21.286 5.946)" fill="#906f65"/>
        <path id="Path_1276181" data-name="Path 1276181" d="M155.25,88.2V147a1.757,1.757,0,0,0,1.757,1.757h13.27a5.247,5.247,0,0,0,.3-1.757v-2.017a5.263,5.263,0,0,0,1.87-4.025v-2.527a5.263,5.263,0,0,0-1.87-4.025V132.9a5.263,5.263,0,0,0,1.87-4.025v-2.527a5.278,5.278,0,0,0-4.837-5.253A20.046,20.046,0,0,0,155.25,88.2Z" transform="translate(-133.964 -76.783)" fill="#75544c"/>
        <path id="Path_1276182" data-name="Path 1276182" d="M228.257,128.859V82.089a1.757,1.757,0,0,0-1.757-1.757H188.441a1.757,1.757,0,0,0-1.757,1.757v55.64h32.7Z" transform="translate(-160.795 -70.071)" fill="#ebf7ff"/>
        <path id="Path_1276183" data-name="Path 1276183" d="M186.684,96.633v55.01h11.277a5.249,5.249,0,0,0,1.319-3.483v-2.527a5.263,5.263,0,0,0-1.87-4.025V140.1a5.263,5.263,0,0,0,1.87-4.025v-2.527a5.278,5.278,0,0,0-4.837-5.253,20.043,20.043,0,0,0-7.759-31.665Z" transform="translate(-160.795 -83.985)" fill="#cce6f2"/>
        <g id="Group_1204046" data-name="Group 1204046" transform="translate(39.809 26.237)">
          <path id="Path_1276184" data-name="Path 1276184" d="M323.264,257.768v-5.561a1.072,1.072,0,0,0-1.072-1.072h-5.585l.023,3.129v3.5h0a1.072,1.072,0,0,0-.766,1.821l3.317,3.391a1.072,1.072,0,0,0,1.532,0l3.317-3.391a1.072,1.072,0,0,0-.766-1.821Z" transform="translate(-310.604 -242.097)" fill="#fe5358"/>
          <path id="Path_1276185" data-name="Path 1276185" d="M285.36,189.743l-3.317,3.391a1.072,1.072,0,0,0,.766,1.821h0v5.562a1.072,1.072,0,0,0,1.072,1.072h5.561v-6.633h0a1.072,1.072,0,0,0,.766-1.821l-3.317-3.391A1.072,1.072,0,0,0,285.36,189.743Z" transform="translate(-281.736 -189.42)" fill="#91cd00"/>
        </g>
        <path id="Path_1276186" data-name="Path 1276186" d="M418.866,411.7H410v8.87Z" transform="translate(-351.404 -352.908)" fill="#cce6f2"/>
        <path id="Path_1276187" data-name="Path 1276187" d="M274.191,14.052a3.788,3.788,0,1,0-7.576,0h-2.757a4.484,4.484,0,0,0-4.484,4.484v2.678a1.757,1.757,0,0,0,1.757,1.757h18.543a1.757,1.757,0,0,0,1.757-1.757V18.535a4.484,4.484,0,0,0-4.484-4.484Z" transform="translate(-222.84 -10.264)" fill="#f9bd46"/>
        <g id="Group_1204047" data-name="Group 1204047" transform="translate(0.015 47.809)">
          <rect id="Rectangle_412179" data-name="Rectangle 412179" width="33.086" height="6.041" rx="3.021" transform="translate(1.87 0)" fill="#ffd300"/>
          <path id="Path_1276188" data-name="Path 1276188" d="M0,0H2.526V29.571H0Z" transform="translate(33.199 1.757) rotate(90)" fill="#ffee93"/>
          <rect id="Rectangle_412180" data-name="Rectangle 412180" width="33.086" height="6.041" rx="3.021" transform="translate(1.87 12.082)" fill="#ffd300"/>
          <path id="Path_1276189" data-name="Path 1276189" d="M0,0H2.526V29.571H0Z" transform="translate(33.199 13.84) rotate(90)" fill="#ffee93"/>
          <rect id="Rectangle_412181" data-name="Rectangle 412181" width="33.086" height="6.041" rx="3.021" transform="translate(0 6.041)" fill="#ffa400"/>
          <path id="Path_1276190" data-name="Path 1276190" d="M0,0H2.526V29.571H0Z" transform="translate(31.329 7.798) rotate(90)" fill="#ffd300"/>
          <rect id="Rectangle_412182" data-name="Rectangle 412182" width="33.086" height="6.041" rx="3.021" transform="translate(0 18.124)" fill="#ffa400"/>
          <path id="Path_1276191" data-name="Path 1276191" d="M0,0H2.526V29.571H0Z" transform="translate(31.329 19.881) rotate(90)" fill="#ffd300"/>
        </g>
        <circle id="Ellipse_12472" data-name="Ellipse 12472" cx="16.543" cy="16.543" r="16.543" transform="translate(1.885 14.723)" fill="#ffa400"/>
        <circle id="Ellipse_12473" data-name="Ellipse 12473" cx="13.028" cy="13.028" r="13.028" transform="translate(0 31.264) rotate(-45)" fill="#ffd300"/>
      </g>
      <g id="Group_1204049" data-name="Group 1204049" transform="translate(0 0)">
        <path id="Path_1276192" data-name="Path 1276192" d="M107.1,157.344h1.019a2.562,2.562,0,0,1,2.559,2.559.879.879,0,1,0,1.757,0,4.322,4.322,0,0,0-3.947-4.3v-1.3a.879.879,0,0,0-1.757,0v1.3c-5.85.8-4.838,9.022.879,9a3.073,3.073,0,0,1,3.069,3.094,2.409,2.409,0,0,1-2.406,2.406h-1.324a2.409,2.409,0,0,1-2.406-2.406.879.879,0,0,0-1.757,0,4.169,4.169,0,0,0,3.947,4.158v1.292a.879.879,0,0,0,1.757,0v-1.292a4.169,4.169,0,0,0,3.947-4.184,4.837,4.837,0,0,0-4.953-4.826c-3.546-.064-4.11-5.258-.382-5.5Z" transform="translate(-88.314 -131.599)"/>
        <path id="Path_1276193" data-name="Path 1276193" d="M290.194,199.323v-4.891a1.953,1.953,0,0,0-1.95-1.95h-3v-1.955a1.96,1.96,0,0,0,.515-3.106l-3.316-3.391a1.959,1.959,0,0,0-2.789,0l-3.316,3.391a1.961,1.961,0,0,0,.515,3.106v4.891a1.953,1.953,0,0,0,1.95,1.95h3v1.955a1.96,1.96,0,0,0-.515,3.106l3.317,3.391a1.959,1.959,0,0,0,2.788,0l3.317-3.391A1.96,1.96,0,0,0,290.194,199.323Zm-11.586-3.905v-5.561a.879.879,0,0,0-.879-.879.193.193,0,0,1-.138-.328l3.316-3.391h0a.193.193,0,0,1,.276,0l3.317,3.391a.193.193,0,0,1-.138.328.879.879,0,0,0-.879.879c0,1.292,0,4.3,0,5.561a.193.193,0,0,1-.193.193H278.8A.193.193,0,0,1,278.608,195.418Zm10.845,5.782-3.317,3.391a.193.193,0,0,1-.276,0l-3.317-3.391a.193.193,0,0,1,.138-.328.879.879,0,0,0,.879-.879v-2.625h.8a.879.879,0,0,0,.879-.879c0-.558,0-1.691,0-2.251h3a.193.193,0,0,1,.193.193v5.562a.879.879,0,0,0,.879.879A.193.193,0,0,1,289.453,201.2Z" transform="translate(-235.982 -157.227)"/>
        <path id="Path_1276194" data-name="Path 1276194" d="M75.172,10.328h-11.9a5.358,5.358,0,0,0-4.3-2.158H57.011a4.672,4.672,0,0,0-9.167,0H45.882a5.358,5.358,0,0,0-4.3,2.158H27.907a2.639,2.639,0,0,0-2.636,2.636v6.254c-19.6-1.813-26.923,24.179-9.6,32.973H8.506A2.639,2.639,0,0,0,5.87,54.828v2.527a2.618,2.618,0,0,0,.179.947A2.639,2.639,0,0,0,4,60.869V63.4a2.639,2.639,0,0,0,2.049,2.568,2.618,2.618,0,0,0-.179.947v2.527a2.618,2.618,0,0,0,.179.947A2.639,2.639,0,0,0,4,72.951v2.527a2.639,2.639,0,0,0,2.636,2.636H75.172a2.639,2.639,0,0,0,2.636-2.636V12.964a2.639,2.639,0,0,0-2.636-2.636ZM71.448,63.17H63.456a.879.879,0,0,0-.879.879v7.992h-23.9L38.664,72a2.639,2.639,0,0,0,2.049-2.568V66.91a2.639,2.639,0,0,0-2.049-2.568,2.618,2.618,0,0,0,.179-.947V60.869a2.618,2.618,0,0,0-.179-.947,2.639,2.639,0,0,0,2.049-2.568V54.827a2.639,2.639,0,0,0-2.636-2.636H30.912c12.665-6.121,13.089-24.256.72-30.956V17.28a.88.88,0,0,1,.879-.879h8.016a2.654,2.654,0,0,0,2.279,2.419,2.133,2.133,0,0,0,.35.026H61.7a2.134,2.134,0,0,0,.35-.026A2.655,2.655,0,0,0,64.328,16.4h6.241a.88.88,0,0,1,.879.879Zm-1.243,1.757-5.87,5.87v-5.87ZM7.627,69.436V66.91a.88.88,0,0,1,.879-.879H38.077a.88.88,0,0,1,.879.879v2.527a.88.88,0,0,1-.879.879H8.506A.88.88,0,0,1,7.627,69.436ZM45.882,9.928h2.757a.879.879,0,0,0,.879-.879,2.909,2.909,0,0,1,5.818,0,.879.879,0,0,0,.879.879h2.757a3.607,3.607,0,0,1,3.151,1.855,3.564,3.564,0,0,1,.442,1.464c.036.132,0,2.088.012,2.275,0,0,0,.688,0,.688a.88.88,0,0,1-.879.879H43.156a.88.88,0,0,1-.879-.879v-.688a20.627,20.627,0,0,1,.08-2.743,3.613,3.613,0,0,1,3.525-2.852ZM27.028,12.964a.88.88,0,0,1,.879-.879H40.718a9.1,9.1,0,0,0-.2,2.558H32.51a2.639,2.639,0,0,0-2.636,2.636V20.4a17.272,17.272,0,0,0-2.846-.888ZM7.627,36.527A15.682,15.682,0,0,1,23.292,20.863c20.781.86,20.775,30.471,0,31.329A15.682,15.682,0,0,1,7.627,36.527Zm0,18.3a.88.88,0,0,1,.879-.879H38.077a.88.88,0,0,1,.879.879v2.527a.88.88,0,0,1-.879.879H8.506a.88.88,0,0,1-.879-.879ZM5.757,63.4V60.869a.88.88,0,0,1,.879-.879H36.207a.88.88,0,0,1,.879.879V63.4a.88.88,0,0,1-.879.879H6.636a.88.88,0,0,1-.879-.879Zm30.45,12.961H6.636a.88.88,0,0,1-.879-.879V72.951a.88.88,0,0,1,.879-.879H36.207a.88.88,0,0,1,.879.879v2.527A.88.88,0,0,1,36.207,76.356Zm39.844-.879a.88.88,0,0,1-.879.879H38.689a9.655,9.655,0,0,0,.154-2.558H63.456a.879.879,0,0,0,.365-.08.87.87,0,0,0,.257-.177l8.87-8.87a.89.89,0,0,0,.257-.621s0-46.769,0-46.769a2.639,2.639,0,0,0-2.636-2.636H64.335a9.1,9.1,0,0,0-.2-2.558H75.172a.88.88,0,0,1,.879.879Z" transform="translate(-4 -4.403)"/>
      </g>
    </g>
  </g>
</svg>
