<svg xmlns="http://www.w3.org/2000/svg" xmlns:xlink="http://www.w3.org/1999/xlink" width="90" height="90" viewBox="0 0 90 90">
  <defs>
    <clipPath id="clip-path">
      <rect id="Rectangle_412223" data-name="Rectangle 412223" width="60" height="61" transform="translate(1244.653 6660.857)" fill="#fff" stroke="#707070" stroke-width="1"/>
    </clipPath>
  </defs>
  <g id="Group_1204310" data-name="Group 1204310" transform="translate(-1229.386 -6646.317)">
    <g id="Path_1276281" data-name="Path 1276281" transform="translate(1229.386 6646.317)" fill="#ffc94a">
      <path d="M 75 88.5 L 15 88.5 C 11.39401245117188 88.5 8.003874778747559 87.09574890136719 5.454062461853027 84.54593658447266 C 2.904249906539917 81.99612426757812 1.5 78.60598754882812 1.5 75 L 1.5 15 C 1.5 11.39401245117188 2.904249906539917 8.003874778747559 5.454062461853027 5.454062461853027 C 8.003874778747559 2.904249906539917 11.39401245117188 1.5 15 1.5 L 75 1.5 C 78.60598754882812 1.5 81.99612426757812 2.904249906539917 84.54593658447266 5.454062461853027 C 87.09574890136719 8.003874778747559 88.5 11.39401245117188 88.5 15 L 88.5 75 C 88.5 78.60598754882812 87.09574890136719 81.99612426757812 84.54593658447266 84.54593658447266 C 81.99612426757812 87.09574890136719 78.60598754882812 88.5 75 88.5 Z" stroke="none"/>
      <path d="M 15 3 C 11.79468536376953 3 8.781211853027344 4.248214721679688 6.514717102050781 6.514717102050781 C 4.248214721679688 8.781211853027344 3 11.79468536376953 3 15 L 3 75 C 3 78.20531463623047 4.248214721679688 81.21878814697266 6.514717102050781 83.48528289794922 C 8.781211853027344 85.75178527832031 11.79468536376953 87 15 87 L 75 87 C 78.20531463623047 87 81.21878814697266 85.75178527832031 83.48528289794922 83.48528289794922 C 85.75178527832031 81.21878814697266 87 78.20531463623047 87 75 L 87 15 C 87 11.79468536376953 85.75178527832031 8.781211853027344 83.48528289794922 6.514717102050781 C 81.21878814697266 4.248214721679688 78.20531463623047 3 75 3 L 15 3 M 15 0 L 75 0 C 83.28427124023438 0 90 6.715728759765625 90 15 L 90 75 C 90 83.28427124023438 83.28427124023438 90 75 90 L 15 90 C 6.715728759765625 90 0 83.28427124023438 0 75 L 0 15 C 0 6.715728759765625 6.715728759765625 0 15 0 Z" stroke="none" fill="#b18c32"/>
    </g>
    <g id="Mask_Group_1200951" data-name="Mask Group 1200951" clip-path="url(#clip-path)">
      <g id="profit_9504598" transform="translate(1244.094 6660.798)">
        <g id="Group_1204309" data-name="Group 1204309">
          <g id="Group_1204306" data-name="Group 1204306">
            <path id="Path_1277136" data-name="Path 1277136" d="M22.376,24.721h3.459A1.076,1.076,0,0,1,26.91,25.8v7.431A1.076,1.076,0,0,1,25.836,34.3H22.376A1.076,1.076,0,0,1,21.3,33.226V25.8A1.076,1.076,0,0,1,22.376,24.721Z" fill="#eb3b48" fill-rule="evenodd"/>
            <path id="Path_1277137" data-name="Path 1277137" d="M32.17,19.587h3.459A1.076,1.076,0,0,1,36.7,20.661V33.226A1.076,1.076,0,0,1,35.629,34.3H32.17A1.076,1.076,0,0,1,31.1,33.226V20.661a1.076,1.076,0,0,1,1.074-1.074Z" fill="#ffe600" fill-rule="evenodd"/>
            <path id="Path_1277138" data-name="Path 1277138" d="M41.963,14.453h3.459A1.076,1.076,0,0,1,46.5,15.528v17.7A1.076,1.076,0,0,1,45.422,34.3H41.963a1.076,1.076,0,0,1-1.074-1.074v-17.7a1.076,1.076,0,0,1,1.074-1.074Z" fill="#22c269" fill-rule="evenodd"/>
            <path id="Path_1277139" data-name="Path 1277139" d="M51.756,9.32h3.459a1.076,1.076,0,0,1,1.074,1.074V33.226A1.076,1.076,0,0,1,55.216,34.3H51.756a1.076,1.076,0,0,1-1.074-1.074V10.394A1.076,1.076,0,0,1,51.756,9.32Z" fill="#4294ff" fill-rule="evenodd"/>
          </g>
          <g id="Group_1204307" data-name="Group 1204307">
            <path id="Path_1277140" data-name="Path 1277140" d="M19.156,2.4h4.293V4.552a10.86,10.86,0,0,1,3.907,1.619l1.524-1.524,3.035,3.035L30.39,9.206a10.858,10.858,0,0,1,1.619,3.907h2.154v4.292H32.01a10.857,10.857,0,0,1-1.619,3.907l1.524,1.524-3.035,3.035-1.524-1.524a10.858,10.858,0,0,1-3.907,1.619v2.154H19.156V25.967a10.857,10.857,0,0,1-3.907-1.619l-1.524,1.524L10.69,22.836l1.524-1.524a10.859,10.859,0,0,1-1.619-3.907H8.441V13.113h2.154a10.857,10.857,0,0,1,1.619-3.907L10.69,7.683l3.035-3.035,1.524,1.524a10.858,10.858,0,0,1,3.907-1.619Z" fill="#29343f" fill-rule="evenodd"/>
            <circle id="Ellipse_12542" data-name="Ellipse 12542" cx="6.687" cy="6.687" r="6.687" transform="translate(13.626 9.731) rotate(-9.208)" fill="#eff4f7"/>
          </g>
          <g id="Group_1204308" data-name="Group 1204308">
            <path id="Path_1277141" data-name="Path 1277141" d="M36.932,45.926a4.176,4.176,0,0,0-2.921-5.106L20,37.005A6.582,6.582,0,0,0,14.96,38.35L9.43,42.584l4,14.913c2.78-2.678,5.249-3.212,7.946-2.593l8.027,1.84a6.864,6.864,0,0,0,5.17-.681L54.641,44.475a3.76,3.76,0,0,0-3.76-6.513L36.9,46.032Q36.917,45.979,36.932,45.926Z" fill="#ffd6bd" fill-rule="evenodd"/>
            <path id="Path_1277142" data-name="Path 1277142" d="M31.826,48.847a4.172,4.172,0,0,0,5.106-2.921q.029-.108.052-.216a4.174,4.174,0,0,1-4.339,1.416L25.16,45.089a.938.938,0,1,0-.493,1.81Z" fill="#f9c6aa" fill-rule="evenodd"/>
            <path id="Path_1277143" data-name="Path 1277143" d="M9.567,40.127,14.4,58.168a.831.831,0,0,1-.586,1.014l-3.334.893a.83.83,0,0,1-1.014-.586L4.633,41.449a.831.831,0,0,1,.586-1.014l3.334-.893A.831.831,0,0,1,9.567,40.127Z" fill="#4294ff" fill-rule="evenodd"/>
          </g>
        </g>
        <path id="Path_1277144" data-name="Path 1277144" d="M21.3,9.527a5.733,5.733,0,1,1-5.731,5.734A5.736,5.736,0,0,1,21.3,9.527Zm0,13.376a7.643,7.643,0,1,0-7.64-7.642A7.652,7.652,0,0,0,21.3,22.9ZM9.4,14.07v2.382h1.194a.96.96,0,0,1,.94.769A9.8,9.8,0,0,0,13,20.783a.956.956,0,0,1-.118,1.205l-.85.849,1.689,1.684.845-.849a.956.956,0,0,1,1.2-.118,9.869,9.869,0,0,0,3.564,1.477.959.959,0,0,1,.771.936v1.2h2.382v-1.2a.954.954,0,0,1,.766-.936,9.887,9.887,0,0,0,3.564-1.477.955.955,0,0,1,1.2.118l.85.849,1.683-1.684-.85-.849a.956.956,0,0,1-.118-1.205,9.832,9.832,0,0,0,1.481-3.563.954.954,0,0,1,.935-.769h1.2V14.07h-1.2a.954.954,0,0,1-.935-.769,9.921,9.921,0,0,0-1.481-3.563.956.956,0,0,1,.118-1.205l.85-.849L28.876,6l-.85.849a.952.952,0,0,1-1.2.119,9.874,9.874,0,0,0-3.564-1.478.954.954,0,0,1-.766-.936v-1.2H20.109v1.2a.959.959,0,0,1-.771.936,9.888,9.888,0,0,0-3.564,1.477.954.954,0,0,1-1.2-.118L13.725,6,12.036,7.683l.85.849A.955.955,0,0,1,13,9.737,9.822,9.822,0,0,0,11.529,13.3a.96.96,0,0,1-.94.769Zm26.349,6.473v12.8h-3.7V24.051l.541-.539a.957.957,0,0,0,0-1.35l-.991-.989q.186-.312.338-.63h3.812Zm-13.49,12.8V29.077h1.194a.955.955,0,0,0,.952-.955v-1.4a11.884,11.884,0,0,0,1.554-.538v7.159h-3.7ZM8.438,18.361h1.4A11.612,11.612,0,0,0,11,21.173l-.991.989a.957.957,0,0,0,0,1.35l3.04,3.035a.949.949,0,0,0,1.346,0l.991-.988A11.8,11.8,0,0,0,18.2,26.725v1.4a.956.956,0,0,0,.957.955h1.194V34.3a.954.954,0,0,0,.952.955h5.608a.956.956,0,0,0,.957-.955V26.209l.338.338a.956.956,0,0,0,1.351,0l.586-.586V34.3a.955.955,0,0,0,.957.955H36.7a.954.954,0,0,0,.952-.955V19.588a.954.954,0,0,0-.952-.955H32.687c.023-.091.051-.18.073-.272h1.4a.954.954,0,0,0,.952-.955V13.115a.95.95,0,0,0-.388-.768L49.048,4.079l-.788,2.31a.955.955,0,1,0,1.807.616l1.6-4.715a.948.948,0,0,0-.715-1.244L46.07.078A.955.955,0,0,0,45.7,1.952l2.393.474L32.535,11.409a11.684,11.684,0,0,0-.94-2.062l.991-.989a.956.956,0,0,0,0-1.35L29.551,3.973a.956.956,0,0,0-1.351,0l-.991.988A11.681,11.681,0,0,0,24.4,3.8V2.4a.955.955,0,0,0-.952-.955h-4.3A.956.956,0,0,0,18.2,2.4V3.8a11.686,11.686,0,0,0-2.809,1.165l-.991-.988a.949.949,0,0,0-1.346,0l-3.04,3.036a.963.963,0,0,0,0,1.35L11,9.347a11.61,11.61,0,0,0-1.165,2.812h-1.4a.956.956,0,0,0-.957.955v4.291a.955.955,0,0,0,.957.955Zm43.194-8.085h3.7v23.07h-3.7Zm-1.909-.955a.954.954,0,0,1,.952-.955h5.613a.954.954,0,0,1,.952.955V34.3a.954.954,0,0,1-.952.955H50.675a.954.954,0,0,1-.952-.955ZM45.535,33.346H41.842V15.409h3.693ZM40.885,13.5h5.608a.956.956,0,0,1,.957.955V34.3a.955.955,0,0,1-.957.955H40.885a.956.956,0,0,1-.957-.955V14.454a.956.956,0,0,1,.957-.955Zm13.276,30.15L34.089,55.238a5.937,5.937,0,0,1-4.482.577l-8.023-1.841a8.43,8.43,0,0,0-6.976,1.3L11.174,42.451l4.363-3.341a5.58,5.58,0,0,1,4.268-1.164l13.952,3.8a3.2,3.2,0,1,1-1.683,6.185L24.585,45.89a.955.955,0,0,0-.5,1.842l7.488,2.038a5.107,5.107,0,0,0,6.109-3.087l13.67-7.893a2.807,2.807,0,0,1,2.809,4.859ZM10.352,59.121l3.091-.828L8.674,40.5l-3.091.828ZM56.841,38.862A4.728,4.728,0,0,0,50.4,37.135L38,44.294A5.125,5.125,0,0,0,34.258,39.9L20.245,36.086a.884.884,0,0,0-.124-.027,7.516,7.516,0,0,0-5.743,1.534l-3.738,2.862-.152-.573A1.786,1.786,0,0,0,8.3,38.62l-3.333.894A1.785,1.785,0,0,0,3.709,41.7L8.539,59.738a1.792,1.792,0,0,0,1.723,1.321A1.809,1.809,0,0,0,10.724,61l3.333-.893a1.789,1.789,0,0,0,1.261-2.185l-.18-.687a6.748,6.748,0,0,1,6.019-1.4l8.023,1.839a9.123,9.123,0,0,0,2.032.24,7.526,7.526,0,0,0,3.828-1.025L55.112,45.3a4.72,4.72,0,0,0,1.728-6.44Z" fill-rule="evenodd"/>
      </g>
    </g>
  </g>
</svg>
