<svg xmlns="http://www.w3.org/2000/svg" xmlns:xlink="http://www.w3.org/1999/xlink" width="90" height="90" viewBox="0 0 90 90">
  <defs>
    <clipPath id="clip-path">
      <rect id="Rectangle_412249" data-name="Rectangle 412249" width="60" height="61" transform="translate(7154.5 -7061.281)" fill="#fff" stroke="#707070" stroke-width="1"/>
    </clipPath>
  </defs>
  <g id="Group_1204172" data-name="Group 1204172" transform="translate(-7137.398 7075.781)">
    <g id="Path_1276272" data-name="Path 1276272" transform="translate(7137.398 -7075.781)" fill="#ffc94a">
      <path d="M 75 88.5 L 15 88.5 C 11.39401245117188 88.5 8.003874778747559 87.09574890136719 5.454062461853027 84.54593658447266 C 2.904249906539917 81.99612426757812 1.5 78.60598754882812 1.5 75 L 1.5 15 C 1.5 11.39401245117188 2.904249906539917 8.003874778747559 5.454062461853027 5.454062461853027 C 8.003874778747559 2.904249906539917 11.39401245117188 1.5 15 1.5 L 75 1.5 C 78.60598754882812 1.5 81.99612426757812 2.904249906539917 84.54593658447266 5.454062461853027 C 87.09574890136719 8.003874778747559 88.5 11.39401245117188 88.5 15 L 88.5 75 C 88.5 78.60598754882812 87.09574890136719 81.99612426757812 84.54593658447266 84.54593658447266 C 81.99612426757812 87.09574890136719 78.60598754882812 88.5 75 88.5 Z" stroke="none"/>
      <path d="M 15 3 C 11.79468536376953 3 8.781211853027344 4.248214721679688 6.514717102050781 6.514717102050781 C 4.248214721679688 8.781211853027344 3 11.79468536376953 3 15 L 3 75 C 3 78.20531463623047 4.248214721679688 81.21878814697266 6.514717102050781 83.48528289794922 C 8.781211853027344 85.75178527832031 11.79468536376953 87 15 87 L 75 87 C 78.20531463623047 87 81.21878814697266 85.75178527832031 83.48528289794922 83.48528289794922 C 85.75178527832031 81.21878814697266 87 78.20531463623047 87 75 L 87 15 C 87 11.79468536376953 85.75178527832031 8.781211853027344 83.48528289794922 6.514717102050781 C 81.21878814697266 4.248214721679688 78.20531463623047 3 75 3 L 15 3 M 15 0 L 75 0 C 83.28427124023438 0 90 6.715728759765625 90 15 L 90 75 C 90 83.28427124023438 83.28427124023438 90 75 90 L 15 90 C 6.715728759765625 90 0 83.28427124023438 0 75 L 0 15 C 0 6.715728759765625 6.715728759765625 0 15 0 Z" stroke="none" fill="#b18c32"/>
    </g>
    <g id="Mask_Group_1200926" data-name="Mask Group 1200926" clip-path="url(#clip-path)">
      <g id="Artboard331" transform="translate(7153.326 -7061.956)">
        <g id="Group_1204171" data-name="Group 1204171">
          <g id="Group_1204170" data-name="Group 1204170">
            <g id="Group_1204167" data-name="Group 1204167">
              <g id="Group_1204163" data-name="Group 1204163">
                <g id="CorelEMF">
                  <path id="Path_1276628" data-name="Path 1276628" d="M2.982,1.828H31.947a1.067,1.067,0,0,1,.781.323l5.256,5.256a1.068,1.068,0,0,1,.323.781V47.941a1.1,1.1,0,0,1-1.1,1.1H2.982a1.1,1.1,0,0,1-1.1-1.1V2.932a1.107,1.107,0,0,1,1.1-1.1Z" fill="#eceff1" fill-rule="evenodd"/>
                  <path id="Path_1276629" data-name="Path 1276629" d="M32.4,1.923V7.179a.553.553,0,0,0,.552.552h5.256a1.106,1.106,0,0,0-.229-.323L32.727,2.152a1.159,1.159,0,0,0-.323-.229Z" fill="#a79ba7" fill-rule="evenodd"/>
                  <path id="Path_1276630" data-name="Path 1276630" d="M2.982,1.828h1.1V49.042h-1.1a1.1,1.1,0,0,1-1.1-1.1V2.932a1.107,1.107,0,0,1,1.1-1.1Z" fill="#d1d1d6" fill-rule="evenodd"/>
                </g>
              </g>
              <g id="Group_1204164" data-name="Group 1204164">
                <path id="Path_1276631" data-name="Path 1276631" d="M9.512,10.709h6.162a.806.806,0,0,1,.8.8v6.162a.806.806,0,0,1-.8.8H9.512a.806.806,0,0,1-.8-.8V11.513a.806.806,0,0,1,.8-.8Z" fill="#8ac9fe" fill-rule="evenodd"/>
                <path id="Path_1276632" data-name="Path 1276632" d="M14.452,10.709h1.223a.806.806,0,0,1,.8.8v6.162a.806.806,0,0,1-.8.8H14.452a.806.806,0,0,0,.8-.8V11.513a.806.806,0,0,0-.8-.8Z" fill="#60b7ff" fill-rule="evenodd"/>
              </g>
              <g id="Group_1204165" data-name="Group 1204165">
                <path id="Path_1276633" data-name="Path 1276633" d="M9.512,21.8h6.162a.806.806,0,0,1,.8.8v6.162a.806.806,0,0,1-.8.8H9.512a.806.806,0,0,1-.8-.8V22.6a.806.806,0,0,1,.8-.8Z" fill="#6cf5c2" fill-rule="evenodd"/>
                <path id="Path_1276634" data-name="Path 1276634" d="M14.452,21.8h1.223a.806.806,0,0,1,.8.8v6.162a.806.806,0,0,1-.8.8H14.452a.806.806,0,0,0,.8-.8V22.6A.806.806,0,0,0,14.452,21.8Z" fill="#00e499" fill-rule="evenodd"/>
              </g>
              <g id="Group_1204166" data-name="Group 1204166">
                <path id="Path_1276635" data-name="Path 1276635" d="M9.512,32.891h6.162a.808.808,0,0,1,.8.807V39.86a.806.806,0,0,1-.8.8H9.512a.806.806,0,0,1-.8-.8V33.7a.808.808,0,0,1,.8-.807Z" fill="#ffe177" fill-rule="evenodd"/>
                <path id="Path_1276636" data-name="Path 1276636" d="M14.452,32.891h1.223a.808.808,0,0,1,.8.807V39.86a.806.806,0,0,1-.8.8H14.452a.806.806,0,0,0,.8-.8V33.7A.808.808,0,0,0,14.452,32.891Z" fill="#ffd064" fill-rule="evenodd"/>
              </g>
            </g>
            <g id="Group_1204168" data-name="Group 1204168">
              <path id="Path_1276637" data-name="Path 1276637" d="M43.22,28.3a12.574,12.574,0,0,1,3.686,1.528l2.4-1.063,2.822,2.822-1.063,2.4a12.574,12.574,0,0,1,1.528,3.686l2.444.941V42.6l-2.444.941a12.584,12.584,0,0,1-1.528,3.685l1.063,2.4L49.3,52.444l-2.4-1.064a12.575,12.575,0,0,1-3.686,1.53l-.941,2.442H38.286l-.941-2.444a12.586,12.586,0,0,1-3.685-1.528l-2.4,1.064L28.441,49.62l1.064-2.394a12.616,12.616,0,0,1-1.53-3.686L25.534,42.6V38.606l2.442-.941a12.575,12.575,0,0,1,1.53-3.686l-1.064-2.4,2.824-2.822,2.394,1.063A12.615,12.615,0,0,1,37.345,28.3l.941-2.444h3.993Z" fill="#837683" fill-rule="evenodd"/>
              <path id="Path_1276638" data-name="Path 1276638" d="M48.5,29.118l.8-.357,2.822,2.822-1.063,2.4a12.574,12.574,0,0,1,1.528,3.686l2.444.941V42.6l-2.444.941a12.584,12.584,0,0,1-1.528,3.685l1.063,2.4L49.3,52.444l-.8-.357,2.467-2.467-1.064-2.4a12.584,12.584,0,0,0,1.528-3.685l2.444-.941V38.606l-2.444-.941A12.574,12.574,0,0,0,49.9,33.979l1.064-2.4Zm-17.589,0,.357-.357,2.394,1.063c-.169.094-.336.192-.5.294ZM43.22,28.3a12.574,12.574,0,0,1,3.686,1.528l-.66.294A16.453,16.453,0,0,0,42.058,28.3l-.941-2.444h1.162ZM33.661,51.379l-2.4,1.064-.357-.357,2.251-1q.246.152.5.293Zm13.245,0a12.575,12.575,0,0,1-3.686,1.53l-.941,2.442H41.117l.941-2.442a16.486,16.486,0,0,0,4.19-1.822Z" fill="#544854" fill-rule="evenodd"/>
            </g>
            <g id="Group_1204169" data-name="Group 1204169">
              <path id="Path_1276639" data-name="Path 1276639" d="M40.279,48.322A7.726,7.726,0,1,0,32.551,40.6,7.741,7.741,0,0,0,40.279,48.322Z" fill="#ffc338" fill-rule="evenodd"/>
              <path id="Path_1276640" data-name="Path 1276640" d="M33.474,40.6a7.727,7.727,0,0,1,7.265-7.713c-.152-.008-.306-.013-.46-.013a7.726,7.726,0,1,0,0,15.453c.154,0,.308,0,.46-.013A7.727,7.727,0,0,1,33.474,40.6Z" fill="#f5b829" fill-rule="evenodd"/>
            </g>
          </g>
          <path id="Path_1276641" data-name="Path 1276641" d="M21.632,50.02H2.152a.978.978,0,0,1-.978-.978V1.834A.978.978,0,0,1,2.152.856H32.674a.978.978,0,0,1,.692.286l5.9,5.9a.978.978,0,0,1,.286.692v11.98a21.089,21.089,0,0,1,2.913.1,20.783,20.783,0,0,1,9.42,3.4l-.185-.648a.978.978,0,0,1,1.881-.537l1.008,3.533a.978.978,0,0,1-.905,1.246l-3.672.132A.978.978,0,1,1,49.945,25l1.016-.037A18.938,18.938,0,0,0,23.907,50.112a.978.978,0,1,1-1.691.984q-.308-.528-.585-1.075ZM37.6,19.874V8.715H32.674a.978.978,0,0,1-.978-.978V2.812H3.13V48.064H20.764a20.92,20.92,0,0,1,2.654-19.807h-2.03a.978.978,0,1,1,0-1.956h3.656q.6-.643,1.26-1.233H21.389a.978.978,0,1,1,0-1.956h7.457A20.819,20.819,0,0,1,37.6,19.874ZM36.216,6.759,33.652,4.195V6.759ZM9.512,31.913h6.162A1.79,1.79,0,0,1,17.456,33.7V39.86a1.786,1.786,0,0,1-1.782,1.782H9.512A1.786,1.786,0,0,1,7.73,39.86V33.7a1.79,1.79,0,0,1,1.782-1.785Zm.174,1.956v5.817H15.5V33.869Zm.827,3.467a.978.978,0,1,1,1.382-1.385l.376.375.949-1.173a.978.978,0,1,1,1.521,1.23L13.109,38.4a.978.978,0,0,1-1.451.077Zm10.876-20.17a.978.978,0,0,1,0-1.956h6.567a.978.978,0,0,1,0,1.956ZM9.512,9.731h6.162a1.786,1.786,0,0,1,1.782,1.782v6.162a1.787,1.787,0,0,1-1.782,1.782H9.512A1.786,1.786,0,0,1,7.73,17.675V11.513A1.786,1.786,0,0,1,9.512,9.731Zm.174,7.77H15.5V11.687H9.686Zm.827-2.35a.978.978,0,0,1,1.382-1.385l.376.375.949-1.173A.978.978,0,1,1,14.74,14.2l-1.631,2.017a.978.978,0,0,1-1.451.077Zm10.876-1.174a.978.978,0,1,1,0-1.956H31.476a.978.978,0,0,1,0,1.956ZM9.512,20.822h6.162A1.787,1.787,0,0,1,17.456,22.6v6.162a1.787,1.787,0,0,1-1.782,1.782H9.512A1.786,1.786,0,0,1,7.73,28.766V22.6a1.786,1.786,0,0,1,1.782-1.782Zm.174,1.956v5.814H15.5V22.778Zm.826,3.464A.978.978,0,1,1,11.9,24.859l.376.376.948-1.172a.978.978,0,1,1,1.521,1.23L13.109,27.31a.978.978,0,0,1-1.452.077Zm18.16,31.732.185.648a.978.978,0,1,1-1.881.537l-1.008-3.533a.978.978,0,0,1,.905-1.246l3.672-.132a.978.978,0,0,1,.07,1.955l-1.017.037A18.938,18.938,0,0,0,56.654,31.086a.978.978,0,1,1,1.69-.985A20.9,20.9,0,0,1,28.673,57.974Zm15.278-30.5a13.526,13.526,0,0,1,3.017,1.25l1.936-.861a.978.978,0,0,1,1.089.2l2.822,2.822a.978.978,0,0,1,.2,1.088l-.858,1.936a13.5,13.5,0,0,1,1.251,3.022l1.974.76a.978.978,0,0,1,.627.913V42.6a.978.978,0,0,1-.627.913l-1.975.76a13.639,13.639,0,0,1-1.251,3.017l.858,1.937a.978.978,0,0,1-.2,1.088l-2.822,2.822a.978.978,0,0,1-1.088.2l-1.936-.857a13.49,13.49,0,0,1-3.018,1.25l-.76,1.974a.978.978,0,0,1-.913.627H38.287a.978.978,0,0,1-.913-.627l-.76-1.974a13.613,13.613,0,0,1-3.021-1.251l-1.937.858a.978.978,0,0,1-1.088-.2l-2.822-2.822a.978.978,0,0,1-.2-1.089l.86-1.935a13.6,13.6,0,0,1-1.253-3.017l-1.976-.76a.978.978,0,0,1-.627-.913V38.605a.978.978,0,0,1,.627-.913l1.975-.76a13.615,13.615,0,0,1,1.253-3.021l-.861-1.936a.978.978,0,0,1,.2-1.089l2.822-2.822a.978.978,0,0,1,1.089-.2l1.935.861a13.531,13.531,0,0,1,3.018-1.25l.764-1.979a.978.978,0,0,1,.912-.626h3.992a.978.978,0,0,1,.913.627Zm-1.645,1.172-.7-1.821H38.958l-.7,1.822a.978.978,0,0,1-.686.6,11.578,11.578,0,0,0-3.4,1.409.978.978,0,0,1-.91.061l-1.782-.792L29.6,31.8l.792,1.782a.978.978,0,0,1-.061.91,11.675,11.675,0,0,0-1.413,3.405.978.978,0,0,1-.6.685l-1.817.7v2.648l1.817.7a.978.978,0,0,1,.6.684,11.645,11.645,0,0,0,1.413,3.4.978.978,0,0,1,.062.912L29.6,49.4l1.872,1.872,1.783-.79a.978.978,0,0,1,.907.06,11.662,11.662,0,0,0,3.4,1.41.978.978,0,0,1,.687.6l.7,1.817h2.648l.7-1.817a.978.978,0,0,1,.687-.6,11.531,11.531,0,0,0,3.4-1.408.978.978,0,0,1,.91-.062l1.783.79L50.957,49.4l-.79-1.782a.978.978,0,0,1,.06-.907,11.684,11.684,0,0,0,1.41-3.4.978.978,0,0,1,.6-.687l1.817-.7V39.277l-1.817-.7a.978.978,0,0,1-.6-.687,11.559,11.559,0,0,0-1.408-3.4.978.978,0,0,1-.062-.909l.79-1.783-1.873-1.872-1.782.792a.978.978,0,0,1-.91-.061,11.578,11.578,0,0,0-3.4-1.409.978.978,0,0,1-.687-.6ZM40.281,49.306A8.707,8.707,0,1,1,48.988,40.6a8.725,8.725,0,0,1-8.707,8.707Zm0-1.956A6.751,6.751,0,1,0,33.529,40.6a6.765,6.765,0,0,0,6.751,6.751ZM39.3,35.959v-.252a.978.978,0,1,1,1.956,0v.242a3.254,3.254,0,0,1,2.2,1.922.978.978,0,0,1-1.8.758,1.505,1.505,0,0,0-1.98-.735.876.876,0,0,0-.639.839.713.713,0,0,0,.476.6,3.416,3.416,0,0,0,.934.269c1.469.24,3.059.936,3.272,2.683h0a2.774,2.774,0,0,1-2.46,2.977v.223a.978.978,0,1,1-1.956,0v-.237a3.224,3.224,0,0,1-2.45-2.339.978.978,0,0,1,1.9-.473,1.489,1.489,0,0,0,1.607.977,2.373,2.373,0,0,0,.967-.22.66.66,0,0,0,.451-.673.9.9,0,0,0-.611-.706,4.154,4.154,0,0,0-1.035-.282h0c-1.445-.238-2.963-.991-3.047-2.709h0a2.771,2.771,0,0,1,1.876-2.753,3.487,3.487,0,0,1,.344-.115Z" fill-rule="evenodd"/>
        </g>
      </g>
    </g>
  </g>
</svg>
