<svg xmlns="http://www.w3.org/2000/svg" xmlns:xlink="http://www.w3.org/1999/xlink" width="90" height="90" viewBox="0 0 90 90">
  <defs>
    <clipPath id="clip-path">
      <rect id="Rectangle_412103" data-name="Rectangle 412103" width="60" height="61" transform="translate(7202.326 -3919.266)" fill="#fff" stroke="#707070" stroke-width="1"/>
    </clipPath>
  </defs>
  <g id="Group_1204193" data-name="Group 1204193" transform="translate(-7187.076 3933.766)">
    <g id="Path_1275952" data-name="Path 1275952" transform="translate(7187.076 -3933.766)" fill="#caedb8">
      <path d="M 75 88.5 L 15 88.5 C 11.39401245117188 88.5 8.003874778747559 87.09574890136719 5.454062461853027 84.54593658447266 C 2.904249906539917 81.99612426757812 1.5 78.60598754882812 1.5 75 L 1.5 15 C 1.5 11.39401245117188 2.904249906539917 8.003874778747559 5.454062461853027 5.454062461853027 C 8.003874778747559 2.904249906539917 11.39401245117188 1.5 15 1.5 L 75 1.5 C 78.60598754882812 1.5 81.99612426757812 2.904249906539917 84.54593658447266 5.454062461853027 C 87.09574890136719 8.003874778747559 88.5 11.39401245117188 88.5 15 L 88.5 75 C 88.5 78.60598754882812 87.09574890136719 81.99612426757812 84.54593658447266 84.54593658447266 C 81.99612426757812 87.09574890136719 78.60598754882812 88.5 75 88.5 Z" stroke="none"/>
      <path d="M 15 3 C 11.79468536376953 3 8.781211853027344 4.248214721679688 6.514717102050781 6.514717102050781 C 4.248214721679688 8.781211853027344 3 11.79468536376953 3 15 L 3 75 C 3 78.20531463623047 4.248214721679688 81.21878814697266 6.514717102050781 83.48528289794922 C 8.781211853027344 85.75178527832031 11.79468536376953 87 15 87 L 75 87 C 78.20531463623047 87 81.21878814697266 85.75178527832031 83.48528289794922 83.48528289794922 C 85.75178527832031 81.21878814697266 87 78.20531463623047 87 75 L 87 15 C 87 11.79468536376953 85.75178527832031 8.781211853027344 83.48528289794922 6.514717102050781 C 81.21878814697266 4.248214721679688 78.20531463623047 3 75 3 L 15 3 M 15 0 L 75 0 C 83.28427124023438 0 90 6.715728759765625 90 15 L 90 75 C 90 83.28427124023438 83.28427124023438 90 75 90 L 15 90 C 6.715728759765625 90 0 83.28427124023438 0 75 L 0 15 C 0 6.715728759765625 6.715728759765625 0 15 0 Z" stroke="none" fill="#569338"/>
    </g>
    <g id="Mask_Group_1200931" data-name="Mask Group 1200931" clip-path="url(#clip-path)">
      <g id="ftp_2653512" transform="translate(7201.358 -3919.734)">
        <g id="Group_1204191" data-name="Group 1204191">
          <g id="Group_1204184" data-name="Group 1204184">
            <path id="Path_1276719" data-name="Path 1276719" d="M58.065,1.935V15.484H43.548l-1.4-2.8a1.935,1.935,0,0,0-1.732-1.074H32.9V1.935Z" fill="#e6e9ed"/>
          </g>
          <g id="Group_1204185" data-name="Group 1204185">
            <path id="Path_1276720" data-name="Path 1276720" d="M30.968,19.355V13.548A1.941,1.941,0,0,1,32.9,11.613h7.51a1.936,1.936,0,0,1,1.732,1.074l1.4,2.8H58.065A1.941,1.941,0,0,1,60,17.419V29.032a1.941,1.941,0,0,1-1.935,1.935H42.581v-2.9l-1.548-.552a11.205,11.205,0,0,0-.513-1.219l.716-1.481L37.123,20.7l-1.481.716a11.2,11.2,0,0,0-1.219-.513l-.552-1.548Z" fill="#ff826e"/>
          </g>
          <g id="Group_1204186" data-name="Group 1204186">
            <path id="Path_1276721" data-name="Path 1276721" d="M8.71,56.129H22.258V60H8.71Z" fill="#ccd1d9"/>
          </g>
          <g id="Group_1204187" data-name="Group 1204187">
            <path id="Path_1276722" data-name="Path 1276722" d="M29.032,52.258v1.935A1.941,1.941,0,0,1,27.1,56.129H3.871a1.941,1.941,0,0,1-1.935-1.935V52.258Z" fill="#ccd1d9"/>
          </g>
          <g id="Group_1204188" data-name="Group 1204188">
            <path id="Path_1276723" data-name="Path 1276723" d="M29.032,42.581v9.677H1.935V38.71a1.941,1.941,0,0,1,1.935-1.935H20.865l-.165.348,4.113,4.113,1.481-.716a11.2,11.2,0,0,0,1.219.513l.552,1.548Z" fill="#69d6f4"/>
          </g>
          <g id="Group_1204189" data-name="Group 1204189">
            <path id="Path_1276724" data-name="Path 1276724" d="M42.581,30.968v2.9l-1.548.552a11.205,11.205,0,0,1-.513,1.219l.716,1.481-4.113,4.113-1.481-.716a11.2,11.2,0,0,1-1.219.513l-.552,1.548H28.065l-.552-1.548a11.206,11.206,0,0,1-1.219-.513l-1.481.716L20.7,37.123l.165-.348h.01l.542-1.132a11.2,11.2,0,0,1-.513-1.219l-1.548-.552V28.065l1.548-.552a11.2,11.2,0,0,1,.513-1.219L20.7,24.813,24.813,20.7l1.481.716a11.2,11.2,0,0,1,1.219-.513l.552-1.548h5.806l.552,1.548a11.2,11.2,0,0,1,1.219.513l1.481-.716,4.113,4.113-.716,1.481a11.2,11.2,0,0,1,.513,1.219l1.548.552Zm-4.839,0a6.774,6.774,0,1,0-6.774,6.774A6.769,6.769,0,0,0,37.742,30.968Z" fill="#ffc729"/>
          </g>
          <g id="Group_1204190" data-name="Group 1204190">
            <path id="Path_1276725" data-name="Path 1276725" d="M30.968,24.194a6.774,6.774,0,1,1-6.774,6.774A6.769,6.769,0,0,1,30.968,24.194Zm2.9,6.774a2.9,2.9,0,1,0-2.9,2.9A2.9,2.9,0,0,0,33.871,30.968Z" fill="#fcd770"/>
          </g>
        </g>
        <g id="Group_1204192" data-name="Group 1204192">
          <path id="Path_1276726" data-name="Path 1276726" d="M30.968,23.226a7.742,7.742,0,1,0,7.742,7.742A7.751,7.751,0,0,0,30.968,23.226Zm0,13.548a5.806,5.806,0,1,1,5.806-5.806A5.812,5.812,0,0,1,30.968,36.774Z"/>
          <path id="Path_1276727" data-name="Path 1276727" d="M30.968,27.1a3.871,3.871,0,1,0,3.871,3.871A3.875,3.875,0,0,0,30.968,27.1Zm0,5.806A1.935,1.935,0,1,1,32.9,30.968,1.937,1.937,0,0,1,30.968,32.9Z"/>
          <path id="Path_1276728" data-name="Path 1276728" d="M59.032,14.694V.968h-27.1v9.855A2.9,2.9,0,0,0,30,13.548v4.839H27.379l-.623,1.767q-.229.09-.456.19l-1.693-.809L19.535,24.61l.809,1.692c-.067.152-.131.3-.19.456l-1.767.622v7.177l1.767.623q.09.228.19.456l-.081.171H3.871a2.907,2.907,0,0,0-2.9,2.9V54.194a2.907,2.907,0,0,0,2.9,2.9H7.742v1.935H5.806v1.935H25.161V59.032H23.226V57.1H27.1a2.907,2.907,0,0,0,2.9-2.9V43.548h4.556l.623-1.767q.228-.09.456-.19l1.693.809L42.4,37.328l-.809-1.693c.067-.151.131-.3.19-.456l1.767-.623V31.935H58.065a2.907,2.907,0,0,0,2.9-2.9V17.419a2.9,2.9,0,0,0-1.935-2.725ZM57.1,2.9V14.516H44.146L43.013,12.25a2.887,2.887,0,0,0-2.6-1.6H33.871V2.9ZM21.29,59.032H9.677V57.1H21.29ZM27.1,55.161H3.871a.968.968,0,0,1-.968-.968v-.968H28.065v.968A.968.968,0,0,1,27.1,55.161Zm.968-3.871H2.9V38.71a.968.968,0,0,1,.968-.968H19.95L24.608,42.4l1.693-.809c.151.067.3.131.456.19l.623,1.768h.685Zm13.548-18.1-1.348.475-.151.444a9.333,9.333,0,0,1-.462,1.108l-.207.422.618,1.292-3.137,3.137-1.292-.618-.422.207a9.332,9.332,0,0,1-1.108.462l-.444.151-.474,1.347H28.75l-.475-1.348-.444-.151a9.333,9.333,0,0,1-1.108-.462l-.422-.207-1.292.618-3.137-3.137.618-1.292-.207-.422a9.332,9.332,0,0,1-.462-1.108l-.151-.444-1.347-.474V28.75l1.348-.475.151-.443a9.523,9.523,0,0,1,.462-1.109l.207-.421-.618-1.291,3.137-3.137,1.292.617.422-.207a9.427,9.427,0,0,1,1.109-.462l.443-.152.474-1.347h4.436l.475,1.347.443.152a9.428,9.428,0,0,1,1.109.462l.422.207,1.292-.617,3.137,3.137L39.446,26.3l.207.421a9.522,9.522,0,0,1,.462,1.109l.151.443,1.347.475Zm17.419-4.154a.969.969,0,0,1-.968.968H43.548V27.379l-1.767-.624q-.09-.228-.19-.456l.809-1.692-5.073-5.075-1.693.809c-.15-.067-.3-.13-.456-.19l-.623-1.765H31.935V13.548a.969.969,0,0,1,.968-.968h7.514a.964.964,0,0,1,.866.535l1.667,3.336H58.065a.969.969,0,0,1,.968.968Z"/>
          <path id="Path_1276729" data-name="Path 1276729" d="M37.742,14.516h1.935v1.935H37.742Z"/>
          <path id="Path_1276730" data-name="Path 1276730" d="M33.871,14.516h1.935v1.935H33.871Z"/>
          <path id="Path_1276731" data-name="Path 1276731" d="M35.806,4.839h5.806V6.774H35.806Z"/>
          <path id="Path_1276732" data-name="Path 1276732" d="M43.548,4.839H55.161V6.774H43.548Z"/>
          <path id="Path_1276733" data-name="Path 1276733" d="M45.484,8.71h9.677v1.935H45.484Z"/>
          <path id="Path_1276734" data-name="Path 1276734" d="M53.226,48.387H33.47l5.523,5.523,1.368-1.368-2.219-2.219H55.161v-8.71H53.226Z"/>
          <path id="Path_1276735" data-name="Path 1276735" d="M53.226,33.871h1.935v1.935H53.226Z"/>
          <path id="Path_1276736" data-name="Path 1276736" d="M53.226,37.742h1.935v1.935H53.226Z"/>
          <path id="Path_1276737" data-name="Path 1276737" d="M49.355,37.742v6.774H38.71v1.935H51.29v-8.71Z"/>
          <path id="Path_1276738" data-name="Path 1276738" d="M8.71,13.548H28.465L22.942,8.025,21.574,9.394l2.219,2.219H6.774v8.71H8.71Z"/>
          <path id="Path_1276739" data-name="Path 1276739" d="M6.774,26.129H8.71v1.935H6.774Z"/>
          <path id="Path_1276740" data-name="Path 1276740" d="M6.774,22.258H8.71v1.935H6.774Z"/>
          <path id="Path_1276741" data-name="Path 1276741" d="M12.581,24.194V17.419H23.226V15.484H10.645v8.71Z"/>
        </g>
      </g>
    </g>
  </g>
</svg>
