<svg xmlns="http://www.w3.org/2000/svg" xmlns:xlink="http://www.w3.org/1999/xlink" width="90" height="90" viewBox="0 0 90 90">
  <defs>
    <clipPath id="clip-path">
      <rect id="Rectangle_412221" data-name="Rectangle 412221" width="60" height="61" transform="translate(929.653 6660.857)" fill="#fff" stroke="#707070" stroke-width="1"/>
    </clipPath>
  </defs>
  <g id="Group_1204311" data-name="Group 1204311" transform="translate(-914.386 -6646.317)">
    <g id="Path_1276280" data-name="Path 1276280" transform="translate(914.386 6646.317)" fill="#ffc94a">
      <path d="M 75 88.5 L 15 88.5 C 11.39401245117188 88.5 8.003874778747559 87.09574890136719 5.454062461853027 84.54593658447266 C 2.904249906539917 81.99612426757812 1.5 78.60598754882812 1.5 75 L 1.5 15 C 1.5 11.39401245117188 2.904249906539917 8.003874778747559 5.454062461853027 5.454062461853027 C 8.003874778747559 2.904249906539917 11.39401245117188 1.5 15 1.5 L 75 1.5 C 78.60598754882812 1.5 81.99612426757812 2.904249906539917 84.54593658447266 5.454062461853027 C 87.09574890136719 8.003874778747559 88.5 11.39401245117188 88.5 15 L 88.5 75 C 88.5 78.60598754882812 87.09574890136719 81.99612426757812 84.54593658447266 84.54593658447266 C 81.99612426757812 87.09574890136719 78.60598754882812 88.5 75 88.5 Z" stroke="none"/>
      <path d="M 15 3 C 11.79468536376953 3 8.781211853027344 4.248214721679688 6.514717102050781 6.514717102050781 C 4.248214721679688 8.781211853027344 3 11.79468536376953 3 15 L 3 75 C 3 78.20531463623047 4.248214721679688 81.21878814697266 6.514717102050781 83.48528289794922 C 8.781211853027344 85.75178527832031 11.79468536376953 87 15 87 L 75 87 C 78.20531463623047 87 81.21878814697266 85.75178527832031 83.48528289794922 83.48528289794922 C 85.75178527832031 81.21878814697266 87 78.20531463623047 87 75 L 87 15 C 87 11.79468536376953 85.75178527832031 8.781211853027344 83.48528289794922 6.514717102050781 C 81.21878814697266 4.248214721679688 78.20531463623047 3 75 3 L 15 3 M 15 0 L 75 0 C 83.28427124023438 0 90 6.715728759765625 90 15 L 90 75 C 90 83.28427124023438 83.28427124023438 90 75 90 L 15 90 C 6.715728759765625 90 0 83.28427124023438 0 75 L 0 15 C 0 6.715728759765625 6.715728759765625 0 15 0 Z" stroke="none" fill="#b18c32"/>
    </g>
    <g id="Mask_Group_1200950" data-name="Mask Group 1200950" clip-path="url(#clip-path)">
      <g id="accounting_2910293" transform="translate(928.686 6660.39)">
        <g id="Group_1204304" data-name="Group 1204304">
          <g id="Group_1204288" data-name="Group 1204288">
            <path id="Path_1277112" data-name="Path 1277112" d="M25.161,7.742H5.806a3.87,3.87,0,0,0-3.871,3.871v32.9a3.87,3.87,0,0,0,3.871,3.871H6a9.668,9.668,0,0,1,17.212-3.87h5.819v-32.9a3.87,3.87,0,0,0-3.871-3.871Z" fill="#969faa"/>
          </g>
          <g id="Group_1204289" data-name="Group 1204289">
            <path id="Path_1277113" data-name="Path 1277113" d="M25.161,26.129v1.935a.971.971,0,0,1-.968.968H22.258a.971.971,0,0,1-.968-.968V26.129a.971.971,0,0,1,.968-.968h1.935A.971.971,0,0,1,25.161,26.129Z" fill="#e6e9ed"/>
          </g>
          <g id="Group_1204290" data-name="Group 1204290">
            <path id="Path_1277114" data-name="Path 1277114" d="M25.161,33.871v1.935a.971.971,0,0,1-.968.968H22.258a.971.971,0,0,1-.968-.968V33.871a.971.971,0,0,1,.968-.968h1.935A.971.971,0,0,1,25.161,33.871Z" fill="#e6e9ed"/>
          </g>
          <g id="Group_1204291" data-name="Group 1204291">
            <path id="Path_1277115" data-name="Path 1277115" d="M17.419,33.871v1.935a.971.971,0,0,1-.968.968H14.516a.971.971,0,0,1-.968-.968V33.871a.971.971,0,0,1,.968-.968h1.935A.971.971,0,0,1,17.419,33.871Z" fill="#e6e9ed"/>
          </g>
          <g id="Group_1204292" data-name="Group 1204292">
            <path id="Path_1277116" data-name="Path 1277116" d="M17.419,26.129v1.935a.971.971,0,0,1-.968.968H14.516a.971.971,0,0,1-.968-.968V26.129a.971.971,0,0,1,.968-.968h1.935A.971.971,0,0,1,17.419,26.129Z" fill="#e6e9ed"/>
          </g>
          <g id="Group_1204293" data-name="Group 1204293">
            <path id="Path_1277117" data-name="Path 1277117" d="M9.677,26.129v1.935a.971.971,0,0,1-.968.968H6.774a.971.971,0,0,1-.968-.968V26.129a.971.971,0,0,1,.968-.968H8.71A.971.971,0,0,1,9.677,26.129Z" fill="#e6e9ed"/>
          </g>
          <g id="Group_1204294" data-name="Group 1204294">
            <path id="Path_1277118" data-name="Path 1277118" d="M9.677,33.871v1.935a.971.971,0,0,1-.968.968H6.774a.971.971,0,0,1-.968-.968V33.871a.971.971,0,0,1,.968-.968H8.71A.971.971,0,0,1,9.677,33.871Z" fill="#e6e9ed"/>
          </g>
          <g id="Group_1204295" data-name="Group 1204295">
            <path id="Path_1277119" data-name="Path 1277119" d="M9.677,42.59a9.084,9.084,0,0,0-1.926,1.926H6.774a.971.971,0,0,1-.968-.968V41.613a.971.971,0,0,1,.968-.968H8.71a.971.971,0,0,1,.968.968Z" fill="#e6e9ed"/>
          </g>
          <g id="Group_1204296" data-name="Group 1204296">
            <path id="Path_1277120" data-name="Path 1277120" d="M25.161,12.581v7.742a.971.971,0,0,1-.968.968H6.774a.971.971,0,0,1-.968-.968V12.581a.971.971,0,0,1,.968-.968H24.194A.971.971,0,0,1,25.161,12.581Z" fill="#69d6f4"/>
          </g>
          <g id="Group_1204297" data-name="Group 1204297">
            <path id="Path_1277121" data-name="Path 1277121" d="M35.806,26.129a2.9,2.9,0,0,1,2.9,2.9,2.835,2.835,0,0,1-.213,1.074A2.9,2.9,0,0,1,33.8,31.132a2.9,2.9,0,0,1,2-5Z" fill="#ff826e"/>
          </g>
          <g id="Group_1204298" data-name="Group 1204298">
            <path id="Path_1277122" data-name="Path 1277122" d="M50.323,30.968a3.871,3.871,0,1,1-3.871,3.871,3.741,3.741,0,0,1,.281-1.432A3.866,3.866,0,0,1,50.323,30.968Z" fill="#ff826e"/>
          </g>
          <g id="Group_1204299" data-name="Group 1204299">
            <path id="Path_1277123" data-name="Path 1277123" d="M59.139,48.919a1.574,1.574,0,0,1,0,2.806l-8.816,4.4-1.935-2.9,1.935-2.913-1.935-2.894,1.935-2.9Z" fill="#aab2bd"/>
          </g>
          <g id="Group_1204300" data-name="Group 1204300">
            <circle id="Ellipse_12540" data-name="Ellipse 12540" cx="9.677" cy="9.677" r="9.677" transform="translate(5.806 40.645)" fill="#fcd770"/>
          </g>
          <g id="Group_1204301" data-name="Group 1204301">
            <path id="Path_1277124" data-name="Path 1277124" d="M50.323,50.313l-1.935,2.913,1.935,2.9H23.216a9.614,9.614,0,0,0,1.945-5.806v-.01Z" fill="#69d6f4"/>
          </g>
          <g id="Group_1204302" data-name="Group 1204302">
            <path id="Path_1277125" data-name="Path 1277125" d="M50.323,44.516l-1.935,2.9,1.935,2.894H25.161a9.585,9.585,0,0,0-1.945-5.8H50.323Z" fill="#b4dd7f"/>
          </g>
          <g id="Group_1204303" data-name="Group 1204303">
            <circle id="Ellipse_12541" data-name="Ellipse 12541" cx="9.677" cy="9.677" r="9.677" transform="translate(40.645 1.935)" fill="#fcd770"/>
          </g>
        </g>
        <g id="Group_1204305" data-name="Group 1204305">
          <path id="Path_1277126" data-name="Path 1277126" d="M16.452,43.548H14.516v1.935a2.9,2.9,0,1,0,0,5.806h1.935a.968.968,0,0,1,0,1.935h-2.9v-.968H11.613v2.9h2.9V57.1h1.935V55.161a2.9,2.9,0,1,0,0-5.806H14.516a.968.968,0,0,1,0-1.935h2.9v.968h1.935v-2.9h-2.9Z"/>
          <path id="Path_1277127" data-name="Path 1277127" d="M51.29,18.387V16.452a2.9,2.9,0,0,0,0-5.806H49.355a.968.968,0,1,1,0-1.935h2.9v.968h1.935v-2.9h-2.9V4.839H49.355V6.774a2.9,2.9,0,1,0,0,5.806H51.29a.968.968,0,1,1,0,1.935h-2.9v-.968H46.452v2.9h2.9v1.935Z"/>
          <path id="Path_1277128" data-name="Path 1277128" d="M59.567,48.056l-9.016-4.508H30V36.517L33.931,32.4a3.8,3.8,0,0,0,4.983-1.08l6.656,2.663a4.9,4.9,0,0,0-.086.857A4.839,4.839,0,1,0,51.29,30.1V22.209a10.645,10.645,0,1,0-1.935,0V30.1a4.841,4.841,0,0,0-3.069,2.085l-6.658-2.663a3.863,3.863,0,1,0-7.1,1.546L30,33.713v-22.1a4.844,4.844,0,0,0-4.839-4.839H5.806A4.844,4.844,0,0,0,.968,11.613v32.9a4.842,4.842,0,0,0,3.924,4.746c-.034.349-.053.7-.053,1.061A10.641,10.641,0,0,0,23.689,57.1H50.551l9.016-4.508a2.534,2.534,0,0,0,0-4.533ZM41.613,11.613a8.71,8.71,0,1,1,8.71,8.71A8.72,8.72,0,0,1,41.613,11.613Zm8.71,20.323a2.9,2.9,0,1,1-2.9,2.9A2.907,2.907,0,0,1,50.323,31.935ZM35.806,27.1a1.935,1.935,0,1,1-1.935,1.935A1.937,1.937,0,0,1,35.806,27.1ZM26.08,49.35a10.554,10.554,0,0,0-1.125-3.866H48.513l-1.29,1.933,1.29,1.934Zm1.985-5.8H23.689c-.062-.075-.132-.142-.2-.215l4.571-4.789ZM2.9,44.516v-32.9a2.907,2.907,0,0,1,2.9-2.9H25.161a2.907,2.907,0,0,1,2.9,2.9V35.742L22.1,42a10.592,10.592,0,0,0-11.585-1.078,1.935,1.935,0,0,0-1.8-1.24H6.774a1.937,1.937,0,0,0-1.935,1.935v1.935a1.935,1.935,0,0,0,1.24,1.8,10.558,10.558,0,0,0-.813,2.016A2.906,2.906,0,0,1,2.9,44.516Zm4.375-.968h-.5V41.613H8.71v.5A10.871,10.871,0,0,0,7.278,43.548Zm8.205,15.484a8.71,8.71,0,1,1,8.71-8.71A8.72,8.72,0,0,1,15.484,59.032Zm10.6-7.747H48.515l-1.291,1.937,1.291,1.938H24.954a10.567,10.567,0,0,0,1.126-3.876ZM58.7,50.858l-8.047,4.024-1.1-1.658,1.935-2.905-1.935-2.9,1.1-1.653L58.7,49.788a.6.6,0,0,1,0,1.069Z"/>
          <path id="Path_1277129" data-name="Path 1277129" d="M6.774,22.258H24.194a1.937,1.937,0,0,0,1.935-1.935V12.581a1.937,1.937,0,0,0-1.935-1.935H6.774a1.937,1.937,0,0,0-1.935,1.935v7.742A1.937,1.937,0,0,0,6.774,22.258Zm0-9.677H24.194v7.742H6.774Z"/>
          <path id="Path_1277130" data-name="Path 1277130" d="M6.774,30H8.71a1.937,1.937,0,0,0,1.935-1.935V26.129A1.937,1.937,0,0,0,8.71,24.194H6.774a1.937,1.937,0,0,0-1.935,1.935v1.935A1.937,1.937,0,0,0,6.774,30Zm0-3.871H8.71v1.935H6.774Z"/>
          <path id="Path_1277131" data-name="Path 1277131" d="M16.452,24.194H14.516a1.937,1.937,0,0,0-1.935,1.935v1.935A1.937,1.937,0,0,0,14.516,30h1.935a1.937,1.937,0,0,0,1.935-1.935V26.129A1.937,1.937,0,0,0,16.452,24.194Zm-1.935,3.871V26.129h1.935v1.935Z"/>
          <path id="Path_1277132" data-name="Path 1277132" d="M24.194,24.194H22.258a1.937,1.937,0,0,0-1.935,1.935v1.935A1.937,1.937,0,0,0,22.258,30h1.935a1.937,1.937,0,0,0,1.935-1.935V26.129A1.937,1.937,0,0,0,24.194,24.194Zm-1.935,3.871V26.129h1.935v1.935Z"/>
          <path id="Path_1277133" data-name="Path 1277133" d="M6.774,37.742H8.71a1.937,1.937,0,0,0,1.935-1.935V33.871A1.937,1.937,0,0,0,8.71,31.935H6.774a1.937,1.937,0,0,0-1.935,1.935v1.935A1.937,1.937,0,0,0,6.774,37.742Zm0-3.871H8.71v1.935H6.774Z"/>
          <path id="Path_1277134" data-name="Path 1277134" d="M16.452,31.935H14.516a1.937,1.937,0,0,0-1.935,1.935v1.935a1.937,1.937,0,0,0,1.935,1.935h1.935a1.937,1.937,0,0,0,1.935-1.935V33.871A1.937,1.937,0,0,0,16.452,31.935Zm-1.935,3.871V33.871h1.935v1.935Z"/>
          <path id="Path_1277135" data-name="Path 1277135" d="M24.194,31.935H22.258a1.937,1.937,0,0,0-1.935,1.935v1.935a1.937,1.937,0,0,0,1.935,1.935h1.935a1.937,1.937,0,0,0,1.935-1.935V33.871A1.937,1.937,0,0,0,24.194,31.935Zm-1.935,3.871V33.871h1.935v1.935Z"/>
        </g>
      </g>
    </g>
  </g>
</svg>
