<svg xmlns="http://www.w3.org/2000/svg" xmlns:xlink="http://www.w3.org/1999/xlink" width="90" height="90" viewBox="0 0 90 90">
  <defs>
    <clipPath id="clip-path">
      <rect id="Rectangle_412234" data-name="Rectangle 412234" width="60" height="61" transform="translate(404.969 8742.736)" fill="#fff" stroke="#707070" stroke-width="1"/>
    </clipPath>
  </defs>
  <g id="Group_1204315" data-name="Group 1204315" transform="translate(-390 -8728.236)">
    <g id="Path_1276285" data-name="Path 1276285" transform="translate(390 8728.236)" fill="#caedb8">
      <path d="M 75 88.5 L 15 88.5 C 11.39401245117188 88.5 8.003874778747559 87.09574890136719 5.454062461853027 84.54593658447266 C 2.904249906539917 81.99612426757812 1.5 78.60598754882812 1.5 75 L 1.5 15 C 1.5 11.39401245117188 2.904249906539917 8.003874778747559 5.454062461853027 5.454062461853027 C 8.003874778747559 2.904249906539917 11.39401245117188 1.5 15 1.5 L 75 1.5 C 78.60598754882812 1.5 81.99612426757812 2.904249906539917 84.54593658447266 5.454062461853027 C 87.09574890136719 8.003874778747559 88.5 11.39401245117188 88.5 15 L 88.5 75 C 88.5 78.60598754882812 87.09574890136719 81.99612426757812 84.54593658447266 84.54593658447266 C 81.99612426757812 87.09574890136719 78.60598754882812 88.5 75 88.5 Z" stroke="none"/>
      <path d="M 15 3 C 11.79468536376953 3 8.781211853027344 4.248214721679688 6.514717102050781 6.514717102050781 C 4.248214721679688 8.781211853027344 3 11.79468536376953 3 15 L 3 75 C 3 78.20531463623047 4.248214721679688 81.21878814697266 6.514717102050781 83.48528289794922 C 8.781211853027344 85.75178527832031 11.79468536376953 87 15 87 L 75 87 C 78.20531463623047 87 81.21878814697266 85.75178527832031 83.48528289794922 83.48528289794922 C 85.75178527832031 81.21878814697266 87 78.20531463623047 87 75 L 87 15 C 87 11.79468536376953 85.75178527832031 8.781211853027344 83.48528289794922 6.514717102050781 C 81.21878814697266 4.248214721679688 78.20531463623047 3 75 3 L 15 3 M 15 0 L 75 0 C 83.28427124023438 0 90 6.715728759765625 90 15 L 90 75 C 90 83.28427124023438 83.28427124023438 90 75 90 L 15 90 C 6.715728759765625 90 0 83.28427124023438 0 75 L 0 15 C 0 6.715728759765625 6.715728759765625 0 15 0 Z" stroke="none" fill="#569338"/>
    </g>
    <g id="Mask_Group_1200952" data-name="Mask Group 1200952" clip-path="url(#clip-path)">
      <g id="screen_14144431" transform="translate(402.969 8741.237)">
        <path id="Path_1277145" data-name="Path 1277145" d="M50,37.23v4.03H14V37.23" fill="#606060"/>
        <path id="Path_1277146" data-name="Path 1277146" d="M50,37.23v4.03H14V37.23" fill="#ddd"/>
        <path id="Path_1277147" data-name="Path 1277147" d="M3,33.2H61v4.03H3Z" fill="#f2f2f2"/>
        <path id="Path_1277148" data-name="Path 1277148" d="M5,33.2V3.01H59V33.2" fill="#bad9f7"/>
        <ellipse id="Ellipse_12543" data-name="Ellipse 12543" cx="4" cy="4.03" rx="4" ry="4.03" transform="translate(47 14.08)" fill="#e5a653"/>
        <path id="Path_1277149" data-name="Path 1277149" d="M9,17.1h4V29.18H9Z" fill="#7fdb8a"/>
        <path id="Path_1277150" data-name="Path 1277150" d="M17,12.07h4V29.18H17Z" fill="#f49898"/>
        <path id="Path_1277151" data-name="Path 1277151" d="M25,7.03h4V29.18H25Z" fill="#f2ea8c"/>
        <path id="Path_1277152" data-name="Path 1277152" d="M61,32.2H60V3a1,1,0,0,0-1-1H5A1,1,0,0,0,4,3V32.2H3a1,1,0,0,0-1,1v4a1,1,0,0,0,1,1H13v3a1,1,0,0,0,1,1H29.6l-14,18.52L17.17,62,31,43.74V61.39h2V43.74L46.83,62l1.59-1.22-14-18.52H50a1,1,0,0,0,1-1v-3H61a1,1,0,0,0,1-1v-4a1,1,0,0,0-1-1.06ZM6,4H58V32.2H6ZM49,40.25H15v-2H49Zm11-4H4v-2H60Z"/>
        <path id="Path_1277153" data-name="Path 1277153" d="M13,16.09H9a1,1,0,0,0-1,1V29.18a1,1,0,0,0,1,1h4a1,1,0,0,0,1-1V17.1a1,1,0,0,0-1-1.01ZM12,28.17H10V18.11h2Z"/>
        <path id="Path_1277154" data-name="Path 1277154" d="M21,11.06H17a1,1,0,0,0-1,1V29.18a1,1,0,0,0,1,1h4a1,1,0,0,0,1-1V12.07a1,1,0,0,0-1-1.01ZM20,28.17H18V13.07h2Z"/>
        <path id="Path_1277155" data-name="Path 1277155" d="M29,6H25a1,1,0,0,0-1,1V29.18a1,1,0,0,0,1,1h4a1,1,0,0,0,1-1V7A1,1,0,0,0,29,6ZM28,28.17H26V8h2Z"/>
        <path id="Path_1277156" data-name="Path 1277156" d="M51,13.07a5,5,0,0,0-3,1H42V7a1,1,0,0,0-1-1H34V8h6v7.05a1,1,0,0,0,1,1h5.42a5,5,0,0,0,0,4H41a1,1,0,0,0-1,1v7H34v2h7a1,1,0,0,0,1-1v-7h6a4.92,4.92,0,0,0,3,1,5.035,5.035,0,0,0,0-10.07Zm0,8.06a3,3,0,1,1,3-3A3,3,0,0,1,51,21.13Z"/>
      </g>
    </g>
  </g>
</svg>
