<svg xmlns="http://www.w3.org/2000/svg" xmlns:xlink="http://www.w3.org/1999/xlink" width="90" height="90" viewBox="0 0 90 90">
  <defs>
    <clipPath id="clip-path">
      <rect id="Rectangle_412213" data-name="Rectangle 412213" width="60" height="61" transform="translate(929.653 5634.314)" fill="#fff" stroke="#707070" stroke-width="1"/>
    </clipPath>
    <clipPath id="clip-path-2">
      <path id="path4578" d="M0-60H60V0H0Z"/>
    </clipPath>
  </defs>
  <g id="Group_1204258" data-name="Group 1204258" transform="translate(-914.386 -5619.774)">
    <g id="Path_1276276" data-name="Path 1276276" transform="translate(914.386 5619.774)" fill="#ffc94a">
      <path d="M 75 88.5 L 15 88.5 C 11.39401245117188 88.5 8.003874778747559 87.09574890136719 5.454062461853027 84.54593658447266 C 2.904249906539917 81.99612426757812 1.5 78.60598754882812 1.5 75 L 1.5 15 C 1.5 11.39401245117188 2.904249906539917 8.003874778747559 5.454062461853027 5.454062461853027 C 8.003874778747559 2.904249906539917 11.39401245117188 1.5 15 1.5 L 75 1.5 C 78.60598754882812 1.5 81.99612426757812 2.904249906539917 84.54593658447266 5.454062461853027 C 87.09574890136719 8.003874778747559 88.5 11.39401245117188 88.5 15 L 88.5 75 C 88.5 78.60598754882812 87.09574890136719 81.99612426757812 84.54593658447266 84.54593658447266 C 81.99612426757812 87.09574890136719 78.60598754882812 88.5 75 88.5 Z" stroke="none"/>
      <path d="M 15 3 C 11.79468536376953 3 8.781211853027344 4.248214721679688 6.514717102050781 6.514717102050781 C 4.248214721679688 8.781211853027344 3 11.79468536376953 3 15 L 3 75 C 3 78.20531463623047 4.248214721679688 81.21878814697266 6.514717102050781 83.48528289794922 C 8.781211853027344 85.75178527832031 11.79468536376953 87 15 87 L 75 87 C 78.20531463623047 87 81.21878814697266 85.75178527832031 83.48528289794922 83.48528289794922 C 85.75178527832031 81.21878814697266 87 78.20531463623047 87 75 L 87 15 C 87 11.79468536376953 85.75178527832031 8.781211853027344 83.48528289794922 6.514717102050781 C 81.21878814697266 4.248214721679688 78.20531463623047 3 75 3 L 15 3 M 15 0 L 75 0 C 83.28427124023438 0 90 6.715728759765625 90 15 L 90 75 C 90 83.28427124023438 83.28427124023438 90 75 90 L 15 90 C 6.715728759765625 90 0 83.28427124023438 0 75 L 0 15 C 0 6.715728759765625 6.715728759765625 0 15 0 Z" stroke="none" fill="#b18c32"/>
    </g>
    <g id="Mask_Group_1200945" data-name="Mask Group 1200945" clip-path="url(#clip-path)">
      <g id="g4572" transform="translate(929.653 5694.814)">
        <g id="g4574">
          <g id="g4576" clip-path="url(#clip-path-2)">
            <g id="g4582" transform="translate(41.942 -50.399)">
              <path id="path4584" d="M0,0A24.143,24.143,0,0,1,2.717,11.163a24.522,24.522,0,0,1-.143,2.645" fill="#fff" stroke="#000" stroke-linecap="round" stroke-linejoin="round" stroke-miterlimit="10" stroke-width="2.344"/>
            </g>
            <g id="g4586" transform="translate(39.279 -38.164)">
              <path id="path4588" d="M0,0V-2.315A1.822,1.822,0,0,0-1.822-4.137h0a1.827,1.827,0,0,1-1.756-1.34A15.783,15.783,0,0,0-5-8.914a1.83,1.83,0,0,1,.294-2.19,1.822,1.822,0,0,0,0-2.576l-1.637-1.637a1.822,1.822,0,0,0-2.576,0,1.829,1.829,0,0,1-2.19.294,15.785,15.785,0,0,0-3.437-1.419,1.827,1.827,0,0,1-1.34-1.756v0a1.822,1.822,0,0,0-1.822-1.822h-2.315A1.822,1.822,0,0,0-21.847-18.2v0a1.827,1.827,0,0,1-1.34,1.756,15.789,15.789,0,0,0-3.438,1.419,1.829,1.829,0,0,1-2.19-.294h0a1.822,1.822,0,0,0-2.576,0l-1.637,1.637a1.821,1.821,0,0,0,0,2.576,1.83,1.83,0,0,1,.294,2.19,15.777,15.777,0,0,0-1.419,3.437,1.827,1.827,0,0,1-1.756,1.34h0a1.822,1.822,0,0,0-1.822,1.822V0a1.822,1.822,0,0,0,1.822,1.822h0a1.827,1.827,0,0,1,1.756,1.34A15.781,15.781,0,0,0-32.734,6.6a1.829,1.829,0,0,1-.294,2.19,1.821,1.821,0,0,0,0,2.576L-31.391,13a1.821,1.821,0,0,0,2.576,0h0a1.83,1.83,0,0,1,2.19-.294,15.789,15.789,0,0,0,3.438,1.419,1.827,1.827,0,0,1,1.34,1.756v0a1.822,1.822,0,0,0,1.822,1.822h2.315a1.822,1.822,0,0,0,1.822-1.822v0a1.827,1.827,0,0,1,1.34-1.756,15.789,15.789,0,0,0,3.438-1.419A1.829,1.829,0,0,1-8.921,13a1.821,1.821,0,0,0,2.576,0l1.637-1.637a1.822,1.822,0,0,0,0-2.576A1.829,1.829,0,0,1-5,6.6,15.787,15.787,0,0,0-3.582,3.162a1.827,1.827,0,0,1,1.756-1.34h0A1.822,1.822,0,0,0,0,0" fill="#a2d5f2"/>
            </g>
            <g id="g4590" transform="translate(39.279 -38.164)">
              <path id="path4592" d="M0,0V-2.315A1.822,1.822,0,0,0-1.822-4.137h0a1.827,1.827,0,0,1-1.756-1.34A15.783,15.783,0,0,0-5-8.914a1.83,1.83,0,0,1,.294-2.19,1.822,1.822,0,0,0,0-2.576l-1.637-1.637a1.822,1.822,0,0,0-2.576,0,1.829,1.829,0,0,1-2.19.294,15.785,15.785,0,0,0-3.437-1.419,1.827,1.827,0,0,1-1.34-1.756v0a1.822,1.822,0,0,0-1.822-1.822h-2.315A1.822,1.822,0,0,0-21.847-18.2v0a1.827,1.827,0,0,1-1.34,1.756,15.789,15.789,0,0,0-3.438,1.419,1.829,1.829,0,0,1-2.19-.294h0a1.822,1.822,0,0,0-2.576,0l-1.637,1.637a1.821,1.821,0,0,0,0,2.576,1.83,1.83,0,0,1,.294,2.19,15.777,15.777,0,0,0-1.419,3.437,1.827,1.827,0,0,1-1.756,1.34h0a1.822,1.822,0,0,0-1.822,1.822V0a1.822,1.822,0,0,0,1.822,1.822h0a1.827,1.827,0,0,1,1.756,1.34A15.781,15.781,0,0,0-32.734,6.6a1.829,1.829,0,0,1-.294,2.19,1.821,1.821,0,0,0,0,2.576L-31.391,13a1.821,1.821,0,0,0,2.576,0h0a1.83,1.83,0,0,1,2.19-.294,15.789,15.789,0,0,0,3.438,1.419,1.827,1.827,0,0,1,1.34,1.756v0a1.822,1.822,0,0,0,1.822,1.822h2.315a1.822,1.822,0,0,0,1.822-1.822v0a1.827,1.827,0,0,1,1.34-1.756,15.789,15.789,0,0,0,3.438-1.419A1.829,1.829,0,0,1-8.921,13a1.821,1.821,0,0,0,2.576,0l1.637-1.637a1.822,1.822,0,0,0,0-2.576A1.829,1.829,0,0,1-5,6.6,15.787,15.787,0,0,0-3.582,3.162a1.827,1.827,0,0,1,1.756-1.34h0A1.822,1.822,0,0,0,0,0Z" fill="none" stroke="#000" stroke-linecap="round" stroke-linejoin="round" stroke-miterlimit="10" stroke-width="2.344"/>
            </g>
            <g id="g4594" transform="translate(31.394 -39.237)">
              <path id="path4596" d="M0,0A11,11,0,0,1-11,11a11,11,0,0,1-11-11A11,11,0,0,1-11-11,11,11,0,0,1,0,0" fill="#fff"/>
            </g>
            <g id="g4598" transform="translate(16.427 -28.976)">
              <path id="path4600" d="M0,0A11.008,11.008,0,0,1-7.02-10.26a11,11,0,0,1,11-11,11,11,0,0,1,11,11A11,11,0,0,1,9.032-.481" fill="none" stroke="#000" stroke-linecap="round" stroke-linejoin="round" stroke-miterlimit="10" stroke-width="2.344"/>
            </g>
            <g id="g4602" transform="translate(58.695 -18.435)">
              <path id="path4604" d="M0,0-1.076-2.719A.674.674,0,0,0-1.952-3.1L-3-2.683a.677.677,0,0,1-.8-.245A11.322,11.322,0,0,0-6.277-5.489.678.678,0,0,1-6.5-6.3l.445-1.028A.674.674,0,0,0-6.4-8.215L-9.086-9.376a.674.674,0,0,0-.887.351L-10.417-8a.678.678,0,0,1-.742.4,11.323,11.323,0,0,0-3.562-.052.677.677,0,0,1-.728-.418l-.414-1.045a.674.674,0,0,0-.875-.379l-2.719,1.076a.674.674,0,0,0-.379.875l.414,1.045a.677.677,0,0,1-.245.8,11.32,11.32,0,0,0-2.561,2.477.678.678,0,0,1-.811.22l-1.028-.445a.674.674,0,0,0-.887.351L-26.114-.409a.674.674,0,0,0,.351.886l1.028.445a.678.678,0,0,1,.4.742,11.318,11.318,0,0,0-.052,3.562.677.677,0,0,1-.418.728l-1.045.414a.674.674,0,0,0-.379.875l1.076,2.719a.674.674,0,0,0,.875.379l1.045-.414a.677.677,0,0,1,.8.245,11.319,11.319,0,0,0,2.477,2.561.678.678,0,0,1,.22.811l-.445,1.028a.674.674,0,0,0,.351.887l2.683,1.161a.674.674,0,0,0,.887-.351l.445-1.028a.678.678,0,0,1,.742-.4,11.321,11.321,0,0,0,3.562.052.677.677,0,0,1,.729.418l.414,1.045a.674.674,0,0,0,.875.379l2.719-1.076a.674.674,0,0,0,.379-.875l-.414-1.045a.677.677,0,0,1,.245-.8,11.322,11.322,0,0,0,2.561-2.477.678.678,0,0,1,.811-.22l1.028.445a.674.674,0,0,0,.887-.351L-.12,7.653a.674.674,0,0,0-.351-.887L-1.5,6.321a.678.678,0,0,1-.4-.742,11.324,11.324,0,0,0,.052-3.562.677.677,0,0,1,.418-.729L-.379.875A.674.674,0,0,0,0,0" fill="#bebebe"/>
            </g>
            <g id="g4606" transform="translate(58.695 -18.435)">
              <path id="path4608" d="M0,0-1.076-2.719A.674.674,0,0,0-1.952-3.1L-3-2.683a.677.677,0,0,1-.8-.245A11.322,11.322,0,0,0-6.277-5.489.678.678,0,0,1-6.5-6.3l.445-1.028A.674.674,0,0,0-6.4-8.215L-9.086-9.376a.674.674,0,0,0-.887.351L-10.417-8a.678.678,0,0,1-.742.4,11.323,11.323,0,0,0-3.562-.052.677.677,0,0,1-.728-.418l-.414-1.045a.674.674,0,0,0-.875-.379l-2.719,1.076a.674.674,0,0,0-.379.875l.414,1.045a.677.677,0,0,1-.245.8,11.32,11.32,0,0,0-2.561,2.477.678.678,0,0,1-.811.22l-1.028-.445a.674.674,0,0,0-.887.351L-26.114-.409a.674.674,0,0,0,.351.886l1.028.445a.678.678,0,0,1,.4.742,11.318,11.318,0,0,0-.052,3.562.677.677,0,0,1-.418.728l-1.045.414a.674.674,0,0,0-.379.875l1.076,2.719a.674.674,0,0,0,.875.379l1.045-.414a.677.677,0,0,1,.8.245,11.319,11.319,0,0,0,2.477,2.561.678.678,0,0,1,.22.811l-.445,1.028a.674.674,0,0,0,.351.887l2.683,1.161a.674.674,0,0,0,.887-.351l.445-1.028a.678.678,0,0,1,.742-.4,11.321,11.321,0,0,0,3.562.052.677.677,0,0,1,.729.418l.414,1.045a.674.674,0,0,0,.875.379l2.719-1.076a.674.674,0,0,0,.379-.875l-.414-1.045a.677.677,0,0,1,.245-.8,11.322,11.322,0,0,0,2.561-2.477.678.678,0,0,1,.811-.22l1.028.445a.674.674,0,0,0,.887-.351L-.12,7.653a.674.674,0,0,0-.351-.887L-1.5,6.321a.678.678,0,0,1-.4-.742,11.324,11.324,0,0,0,.052-3.562.677.677,0,0,1,.418-.729L-.379.875A.674.674,0,0,0,0,0Z" fill="none" stroke="#000" stroke-linecap="round" stroke-linejoin="round" stroke-miterlimit="10" stroke-width="2.344"/>
            </g>
            <g id="g4610" transform="translate(52.324 -17.419)">
              <path id="path4612" d="M0,0A7.232,7.232,0,0,1-4.061,9.386a7.231,7.231,0,0,1-9.386-4.061A7.231,7.231,0,0,1-9.386-4.061,7.231,7.231,0,0,1,0,0" fill="#a5dc69"/>
            </g>
            <g id="g4614" transform="translate(52.324 -17.419)">
              <path id="path4616" d="M0,0A7.232,7.232,0,0,1-4.061,9.386a7.231,7.231,0,0,1-9.386-4.061A7.231,7.231,0,0,1-9.386-4.061,7.231,7.231,0,0,1,0,0Z" fill="none" stroke="#000" stroke-linecap="round" stroke-linejoin="round" stroke-miterlimit="10" stroke-width="2.344"/>
            </g>
            <g id="g4618" transform="translate(22.195 -39.749)">
              <path id="path4620" d="M0,0A3.065,3.065,0,0,1,2.776,3.051V4.879A1.435,1.435,0,0,1,1.341,6.314H-4.828A1.435,1.435,0,0,1-6.263,4.879V3.051A3.065,3.065,0,0,1-3.49,0" fill="#ff9155" stroke="#000" stroke-linecap="round" stroke-linejoin="round" stroke-miterlimit="10" stroke-width="2.344"/>
            </g>
            <g id="g4622" transform="translate(23.876 -42.705)">
              <path id="path4624" d="M0,0A3.424,3.424,0,0,1-3.424,3.424,3.424,3.424,0,0,1-6.848,0,3.424,3.424,0,0,1-3.424-3.424,3.424,3.424,0,0,1,0,0" fill="#ffcdac"/>
            </g>
            <g id="g4626" transform="translate(23.876 -42.705)">
              <path id="path4628" d="M0,0A3.424,3.424,0,0,1-3.424,3.424,3.424,3.424,0,0,1-6.848,0,3.424,3.424,0,0,1-3.424-3.424,3.424,3.424,0,0,1,0,0Z" fill="none" stroke="#000" stroke-linecap="round" stroke-linejoin="round" stroke-miterlimit="10" stroke-width="2.344"/>
            </g>
            <g id="g4630" transform="translate(43.381 -12.848)">
              <path id="path4632" d="M0,0A2.429,2.429,0,0,0,1.011,2.066,2.38,2.38,0,0,0,4.632.2a2.138,2.138,0,0,0-.912-1.68,5,5,0,0,0-1.965-.656,2.088,2.088,0,0,1-1.4-1.3A1.936,1.936,0,0,1,1.184-5.7,1.917,1.917,0,0,1,4.221-4.221" fill="none" stroke="#000" stroke-linecap="round" stroke-linejoin="round" stroke-miterlimit="10" stroke-width="2.344"/>
            </g>
            <g id="g4634" transform="translate(45.697 -18.885)">
              <path id="path4636" d="M0,0V-3.1" fill="none" stroke="#000" stroke-linecap="round" stroke-linejoin="round" stroke-miterlimit="10" stroke-width="2.344"/>
            </g>
            <g id="g4638" transform="translate(45.697 -7.671)">
              <path id="path4640" d="M0,0V-2.754" fill="none" stroke="#000" stroke-linecap="round" stroke-linejoin="round" stroke-miterlimit="10" stroke-width="2.344"/>
            </g>
            <g id="g4642" transform="translate(39.405 -54.392)">
              <path id="path4644" d="M0,0-.018-.045" fill="none" stroke="#000" stroke-linecap="round" stroke-linejoin="round" stroke-miterlimit="10" stroke-width="2.344"/>
            </g>
            <g id="g4646" transform="translate(20.995 -28.477)">
              <path id="path4648" d="M0,0-.018-.045" fill="none" stroke="#000" stroke-linecap="round" stroke-linejoin="round" stroke-miterlimit="10" stroke-width="2.344"/>
            </g>
          </g>
        </g>
      </g>
    </g>
  </g>
</svg>
