<svg xmlns="http://www.w3.org/2000/svg" xmlns:xlink="http://www.w3.org/1999/xlink" width="90" height="90" viewBox="0 0 90 90">
  <defs>
    <clipPath id="clip-path">
      <rect id="Rectangle_412022" data-name="Rectangle 412022" width="60" height="61" transform="translate(1035.27 939)" fill="#fff" stroke="#707070" stroke-width="1"/>
    </clipPath>
  </defs>
  <g id="Group_1204092" data-name="Group 1204092" transform="translate(-1020 -924.46)">
    <g id="Path_1275811" data-name="Path 1275811" transform="translate(1020 924.46)" fill="#caedb8">
      <path d="M 75 88.5 L 15 88.5 C 11.39401245117188 88.5 8.003874778747559 87.09574890136719 5.454062461853027 84.54593658447266 C 2.904249906539917 81.99612426757812 1.5 78.60598754882812 1.5 75 L 1.5 15 C 1.5 11.39401245117188 2.904249906539917 8.003874778747559 5.454062461853027 5.454062461853027 C 8.003874778747559 2.904249906539917 11.39401245117188 1.5 15 1.5 L 75 1.5 C 78.60598754882812 1.5 81.99612426757812 2.904249906539917 84.54593658447266 5.454062461853027 C 87.09574890136719 8.003874778747559 88.5 11.39401245117188 88.5 15 L 88.5 75 C 88.5 78.60598754882812 87.09574890136719 81.99612426757812 84.54593658447266 84.54593658447266 C 81.99612426757812 87.09574890136719 78.60598754882812 88.5 75 88.5 Z" stroke="none"/>
      <path d="M 15 3 C 11.79468536376953 3 8.781211853027344 4.248214721679688 6.514717102050781 6.514717102050781 C 4.248214721679688 8.781211853027344 3 11.79468536376953 3 15 L 3 75 C 3 78.20531463623047 4.248214721679688 81.21878814697266 6.514717102050781 83.48528289794922 C 8.781211853027344 85.75178527832031 11.79468536376953 87 15 87 L 75 87 C 78.20531463623047 87 81.21878814697266 85.75178527832031 83.48528289794922 83.48528289794922 C 85.75178527832031 81.21878814697266 87 78.20531463623047 87 75 L 87 15 C 87 11.79468536376953 85.75178527832031 8.781211853027344 83.48528289794922 6.514717102050781 C 81.21878814697266 4.248214721679688 78.20531463623047 3 75 3 L 15 3 M 15 0 L 75 0 C 83.28427124023438 0 90 6.715728759765625 90 15 L 90 75 C 90 83.28427124023438 83.28427124023438 90 75 90 L 15 90 C 6.715728759765625 90 0 83.28427124023438 0 75 L 0 15 C 0 6.715728759765625 6.715728759765625 0 15 0 Z" stroke="none" fill="#569338"/>
    </g>
    <g id="Mask_Group_1200907" data-name="Mask Group 1200907" clip-path="url(#clip-path)">
      <g id="_16_Hardisk_Computer_Hardware" data-name="16 Hardisk, Computer, Hardware" transform="translate(1030.984 935.214)">
        <path id="Path_1276290" data-name="Path 1276290" d="M42.857,11.786V61.071a1.071,1.071,0,0,1-1.071,1.071H9.643a5.357,5.357,0,0,1-5.357-5.357v-45A5.357,5.357,0,0,1,9.643,6.429H37.5A5.357,5.357,0,0,1,42.857,11.786Z" fill="#4d679c"/>
        <path id="Path_1276291" data-name="Path 1276291" d="M38.571,25.714a15,15,0,1,1-15-15,15,15,0,0,1,15,15Z" fill="#fff"/>
        <path id="Path_1276292" data-name="Path 1276292" d="M22.5,52.5v4.286a1.071,1.071,0,0,1-1.071,1.071H11.786a3.214,3.214,0,0,1-3.214-3.214V43.929a1.071,1.071,0,0,1,1.071-1.071h4.286A1.071,1.071,0,0,1,15,43.929v7.5h6.429A1.071,1.071,0,0,1,22.5,52.5Z" fill="#f9d266"/>
        <path id="Path_1276293" data-name="Path 1276293" d="M28.929,25.714a5.357,5.357,0,1,1-5.357-5.357A5.357,5.357,0,0,1,28.929,25.714Z" fill="#d23f34"/>
        <rect id="Rectangle_412241" data-name="Rectangle 412241" width="8.571" height="10.714" rx="1.071" transform="translate(39.643 51.429)" fill="#686868"/>
        <path id="Path_1276294" data-name="Path 1276294" d="M64.286,24.643V46.071a1.071,1.071,0,0,1-1.071,1.071H24.643a1.071,1.071,0,0,1-1.071-1.071V24.643a5.357,5.357,0,0,1,5.357-5.357h30A5.357,5.357,0,0,1,64.286,24.643Z" fill="#686868"/>
        <path id="Path_1276295" data-name="Path 1276295" d="M60,24.643V46.071a1.071,1.071,0,0,1-1.071,1.071h-30a1.071,1.071,0,0,1-1.071-1.071V24.643a1.071,1.071,0,0,1,1.071-1.071h30A1.071,1.071,0,0,1,60,24.643Z" fill="#fff"/>
        <path id="Path_1276296" data-name="Path 1276296" d="M40.714,28.929v4.286a1.071,1.071,0,0,1-1.071,1.071H33.214a1.071,1.071,0,0,1-1.071-1.071V28.929a1.071,1.071,0,0,1,1.071-1.071h6.429A1.071,1.071,0,0,1,40.714,28.929Z" fill="#d23f34"/>
        <path id="Path_1276297" data-name="Path 1276297" d="M64.286,45v3.214a5.357,5.357,0,0,1-5.357,5.357h-30a5.357,5.357,0,0,1-5.357-5.357V45Z" fill="#686868"/>
        <path id="Path_1276298" data-name="Path 1276298" d="M9.643,60H34.286v2.143H9.643a5.357,5.357,0,0,1-5.357-5.357v-45A5.357,5.357,0,0,1,9.643,6.429H37.5a5.357,5.357,0,0,1,5.357,5.357v5.357H40.714V11.786A3.214,3.214,0,0,0,37.5,8.571H9.643a3.214,3.214,0,0,0-3.214,3.214v45A3.214,3.214,0,0,0,9.643,60ZM34.007,18.214h2.55A15,15,0,1,0,22.5,40.714V38.571A12.857,12.857,0,1,1,34.007,18.214ZM22.843,22.586l1.275-2.143a4.671,4.671,0,0,0-.546-.086A5.357,5.357,0,0,0,22.5,30.964V28.736a3.214,3.214,0,0,1,.343-6.15ZM15,43.929v7.5h6.429A1.071,1.071,0,0,1,22.5,52.5v4.286a1.071,1.071,0,0,1-1.071,1.071H11.786a3.214,3.214,0,0,1-3.214-3.214V43.929a1.071,1.071,0,0,1,1.071-1.071h4.286A1.071,1.071,0,0,1,15,43.929Zm-1.071,9.643A1.071,1.071,0,0,1,12.857,52.5V45H10.714v9.643a1.071,1.071,0,0,0,1.071,1.071h8.571V53.571ZM8.571,10.714v2.143h2.143V10.714Zm30,0H36.429v2.143h2.143ZM64.286,24.643V48.214a5.357,5.357,0,0,1-5.357,5.357H48.214V60h3.214v2.143h-15V60h3.214V53.571H28.929a5.357,5.357,0,0,1-5.357-5.357V24.643a5.357,5.357,0,0,1,5.357-5.357h30A5.357,5.357,0,0,1,64.286,24.643Zm-38.571,0V45h2.143V24.643a1.071,1.071,0,0,1,1.071-1.071h30A1.071,1.071,0,0,1,60,24.643V45h2.143V24.643a3.214,3.214,0,0,0-3.214-3.214h-30A3.214,3.214,0,0,0,25.714,24.643Zm32.143,1.071H30V45H57.857ZM46.071,53.571H41.786V60h4.286Zm16.071-5.357V47.143H25.714v1.071a3.214,3.214,0,0,0,3.214,3.214h30A3.214,3.214,0,0,0,62.143,48.214Zm-6.429,2.143h3.214V48.214H55.714Zm-5.357,0h3.214V48.214H50.357Zm-25.714,7.5h9.643V55.714H24.643Zm7.5-24.643V28.929a1.071,1.071,0,0,1,1.071-1.071h6.429a1.071,1.071,0,0,1,1.071,1.071v4.286a1.071,1.071,0,0,1-1.071,1.071H33.214A1.071,1.071,0,0,1,32.143,33.214Zm2.143-1.071h4.286V30H34.286Zm21.429-4.286H42.857V30H55.714Zm0,4.286H42.857v2.143H55.714Zm0,4.286H32.143v2.143H55.714Zm0,4.286H32.143v2.143H55.714Z"/>
      </g>
    </g>
  </g>
</svg>
