<svg xmlns="http://www.w3.org/2000/svg" xmlns:xlink="http://www.w3.org/1999/xlink" width="90" height="90" viewBox="0 0 90 90">
  <defs>
    <clipPath id="clip-path">
      <rect id="Rectangle_410895" data-name="Rectangle 410895" width="90" height="90" transform="translate(805.781 1970)" fill="#fff" stroke="#707070" stroke-width="1"/>
    </clipPath>
  </defs>
  <g id="Mask_Group_1200850" data-name="Mask Group 1200850" transform="translate(-805.781 -1970)" clip-path="url(#clip-path)">
    <g id="Path_1243272" data-name="Path 1243272" transform="translate(805.781 1970)" fill="#caedb8">
      <path d="M 75 88.5 L 15 88.5 C 11.39401245117188 88.5 8.003874778747559 87.09574890136719 5.454062461853027 84.54593658447266 C 2.904249906539917 81.99612426757812 1.5 78.60598754882812 1.5 75 L 1.5 15 C 1.5 11.39401245117188 2.904249906539917 8.003874778747559 5.454062461853027 5.454062461853027 C 8.003874778747559 2.904249906539917 11.39401245117188 1.5 15 1.5 L 75 1.5 C 78.60598754882812 1.5 81.99612426757812 2.904249906539917 84.54593658447266 5.454062461853027 C 87.09574890136719 8.003874778747559 88.5 11.39401245117188 88.5 15 L 88.5 75 C 88.5 78.60598754882812 87.09574890136719 81.99612426757812 84.54593658447266 84.54593658447266 C 81.99612426757812 87.09574890136719 78.60598754882812 88.5 75 88.5 Z" stroke="none"/>
      <path d="M 15 3 C 11.79468536376953 3 8.781211853027344 4.248214721679688 6.514717102050781 6.514717102050781 C 4.248214721679688 8.781211853027344 3 11.79468536376953 3 15 L 3 75 C 3 78.20531463623047 4.248214721679688 81.21878814697266 6.514717102050781 83.48528289794922 C 8.781211853027344 85.75178527832031 11.79468536376953 87 15 87 L 75 87 C 78.20531463623047 87 81.21878814697266 85.75178527832031 83.48528289794922 83.48528289794922 C 85.75178527832031 81.21878814697266 87 78.20531463623047 87 75 L 87 15 C 87 11.79468536376953 85.75178527832031 8.781211853027344 83.48528289794922 6.514717102050781 C 81.21878814697266 4.248214721679688 78.20531463623047 3 75 3 L 15 3 M 15 0 L 75 0 C 83.28427124023438 0 90 6.715728759765625 90 15 L 90 75 C 90 83.28427124023438 83.28427124023438 90 75 90 L 15 90 C 6.715728759765625 90 0 83.28427124023438 0 75 L 0 15 C 0 6.715728759765625 6.715728759765625 0 15 0 Z" stroke="none" fill="#569338"/>
    </g>
    <g id="Brain" transform="translate(815.315 1978.534)">
      <path id="Path_1243273" data-name="Path 1243273" d="M35.35,21.6V14.909h-.089a7.809,7.809,0,0,0-15.378-2.634A8.918,8.918,0,0,0,9.878,26.58,10.029,10.029,0,0,0,6.793,43.956a5.585,5.585,0,0,0,6.253,7.654c0,.038-.006.075-.006.112a6.693,6.693,0,0,0,6.693,6.693c.112,0,.223-.011.335-.017A7.818,7.818,0,1,0,35.261,59.53h.089V50.606a14.5,14.5,0,1,0,0-29Z" transform="translate(0.115 0.362)" fill="#ffcd00"/>
      <path id="Path_1243274" data-name="Path 1243274" d="M53.429,24.392l6.18-6.18L50.138,8.741l-6.18,6.18a24.045,24.045,0,0,0-5.265-2.186V4H32V21.848a14.5,14.5,0,1,1,0,29V68.7h6.693V59.966a24.045,24.045,0,0,0,5.265-2.186l6.18,6.18,9.471-9.471-6.18-6.18a24.046,24.046,0,0,0,2.186-5.265H64.35V29.657H55.616a24.045,24.045,0,0,0-2.186-5.265Z" transform="translate(3.466 0.116)" fill="#006df0"/>
      <circle id="Ellipse_12448" data-name="Ellipse 12448" cx="10" cy="10" r="10" transform="translate(25.466 26.466)" fill="#ed1c24"/>
      <path id="Path_1243275" data-name="Path 1243275" d="M32.116,24A9.968,9.968,0,0,0,31,24.066a10.04,10.04,0,0,1,0,19.948A10.04,10.04,0,1,0,32.116,24Z" transform="translate(3.35 2.426)" fill="#d51920"/>
      <path id="Path_1243276" data-name="Path 1243276" d="M48.733,34.733A16.733,16.733,0,0,0,32,18v2.231a14.5,14.5,0,0,1,0,29v2.231A16.733,16.733,0,0,0,48.733,34.733Z" transform="translate(3.466 1.733)" fill="#0062d8"/>
      <g id="Group_1203799" data-name="Group 1203799" transform="translate(2 3)">
        <path id="Path_1243277" data-name="Path 1243277" d="M33.578,40.5V39.275c1.942-.365,3.347-1.648,3.347-3.235,0-1.876-1.96-3.347-4.462-3.347-1.362,0-2.231-.66-2.231-1.116s.869-1.116,2.231-1.116,2.231.66,2.231,1.116a1.116,1.116,0,1,0,2.231,0c0-1.585-1.4-2.868-3.347-3.235V27.116a1.116,1.116,0,0,0-2.231,0v1.227C29.4,28.707,28,29.99,28,31.578c0,1.876,1.96,3.347,4.462,3.347,1.362,0,2.231.66,2.231,1.116s-.869,1.116-2.231,1.116-2.231-.66-2.231-1.116a1.116,1.116,0,1,0-2.231,0c0,1.585,1.4,2.868,3.347,3.235V40.5a1.116,1.116,0,0,0,2.231,0Z" transform="translate(1.004 -0.343)" fill="#231f20"/>
        <path id="Path_1243278" data-name="Path 1243278" d="M67.816,28.657H59.907a24.541,24.541,0,0,0-1.64-3.949l5.6-5.589a1.152,1.152,0,0,0,.324-.792,1.174,1.174,0,0,0-.324-.792L54.4,8.064a1.124,1.124,0,0,0-1.584,0l-5.589,5.6a24.542,24.542,0,0,0-3.949-1.64V4.116A1.116,1.116,0,0,0,42.159,3H35.466A1.116,1.116,0,0,0,34.35,4.116V8.276a8.9,8.9,0,0,0-15.1,2.923,9.888,9.888,0,0,0-2.744-.39A10.027,10.027,0,0,0,8.2,26.482,11.155,11.155,0,0,0,2,36.466a11.027,11.027,0,0,0,3.614,8.188A6.673,6.673,0,0,0,12.04,53.2c.033,0,.056-.011.089-.011a7.783,7.783,0,0,0,6.693,6.626,8.6,8.6,0,0,0-.089,1.194A8.91,8.91,0,0,0,34.35,66.886v1.93a1.116,1.116,0,0,0,1.116,1.116h6.693a1.116,1.116,0,0,0,1.116-1.116V60.907a24.541,24.541,0,0,0,3.949-1.64l5.589,5.6a1.124,1.124,0,0,0,1.584,0L63.867,55.4a1.124,1.124,0,0,0,0-1.584l-5.6-5.589a24.541,24.541,0,0,0,1.64-3.949h7.909a1.116,1.116,0,0,0,1.116-1.116V29.773A1.116,1.116,0,0,0,67.816,28.657ZM34.35,50.968v10.04a6.693,6.693,0,1,1-13.386,0,7.5,7.5,0,0,1,.123-1.227,7.809,7.809,0,0,0,6.57-7.7,1.116,1.116,0,0,1,2.231,0V53.2a1.116,1.116,0,1,0,2.231,0V52.083a3.347,3.347,0,0,0-6.693,0,5.578,5.578,0,0,1-11.155-.167,5.77,5.77,0,0,1,5.857-5.41h1.952a1.116,1.116,0,1,0,0-2.231H20.127a8.061,8.061,0,0,0-8,6.682c-.033,0-.056.011-.089.011a4.462,4.462,0,1,1,0-8.924,1.116,1.116,0,0,0,0-2.231,6.67,6.67,0,0,0-5.388,2.744,8.818,8.818,0,0,1-2.421-6.091A8.939,8.939,0,0,1,10.355,28c.022-.011.033-.011.056-.022a8.944,8.944,0,0,1,2.744-.435,8.851,8.851,0,0,1,6.08,2.4,1.121,1.121,0,1,0,1.528-1.64,11.13,11.13,0,0,0-7.608-2.99,10.989,10.989,0,0,0-2.789.368,7.815,7.815,0,0,1,8.411-12.3c-.022.257-.045.524-.045.781a8.936,8.936,0,0,0,8.924,8.924h1.116a1.116,1.116,0,1,0,0-2.231H27.657a6.693,6.693,0,1,1,6.693-6.693v7.809a1.116,1.116,0,0,0,1.116,1.116,13.386,13.386,0,1,1,0,26.773,1.116,1.116,0,0,0-1.116,1.116ZM66.7,42.043H59.082a1.116,1.116,0,0,0-1.071.814,23.132,23.132,0,0,1-2.086,5.02,1.131,1.131,0,0,0,.178,1.339L61.5,54.6l-7.9,7.9-5.388-5.4a1.131,1.131,0,0,0-1.339-.178,23.131,23.131,0,0,1-5.02,2.086,1.116,1.116,0,0,0-.814,1.071V67.7H36.581V52.039a15.617,15.617,0,0,0,0-31.146V5.231h4.462V12.85a1.116,1.116,0,0,0,.814,1.071,23.131,23.131,0,0,1,5.02,2.086,1.131,1.131,0,0,0,1.339-.178l5.388-5.4,7.9,7.9-5.4,5.388a1.131,1.131,0,0,0-.178,1.339,23.131,23.131,0,0,1,2.086,5.02,1.116,1.116,0,0,0,1.071.814H66.7Z" transform="translate(-2 -3)" fill="#231f20"/>
        <path id="Path_1243279" data-name="Path 1243279" d="M14.462,29A4.462,4.462,0,0,0,10,33.462a1.116,1.116,0,0,0,2.231,0,2.231,2.231,0,1,1,2.231,2.231,1.116,1.116,0,1,0,0,2.231,4.462,4.462,0,1,0,0-8.924Z" transform="translate(-1.076 0.004)" fill="#231f20"/>
        <path id="Path_1243280" data-name="Path 1243280" d="M15.578,14A5.584,5.584,0,0,0,10,19.578a1.116,1.116,0,0,0,2.231,0,3.347,3.347,0,0,1,3.347-3.347,1.116,1.116,0,0,0,0-2.231Z" transform="translate(-1.076 -1.729)" fill="#231f20"/>
        <path id="Path_1243281" data-name="Path 1243281" d="M28.462,14.578a1.116,1.116,0,0,0,1.116-1.116A4.462,4.462,0,0,0,25.116,9a1.116,1.116,0,1,0,0,2.231,2.231,2.231,0,0,1,2.231,2.231A1.116,1.116,0,0,0,28.462,14.578Z" transform="translate(0.542 -2.307)" fill="#231f20"/>
        <path id="Path_1243282" data-name="Path 1243282" d="M27.462,54a1.116,1.116,0,0,0-1.116,1.116v1.116a1.116,1.116,0,0,1-1.116,1.116H24.116a1.116,1.116,0,1,0,0,2.231h1.116a3.347,3.347,0,0,0,3.347-3.347V55.116A1.116,1.116,0,0,0,27.462,54Z" transform="translate(0.426 2.892)" fill="#231f20"/>
        <path id="Path_1243283" data-name="Path 1243283" d="M44.311,34.155A11.155,11.155,0,1,0,33.155,45.311,11.155,11.155,0,0,0,44.311,34.155Zm-20.079,0a8.924,8.924,0,1,1,8.924,8.924,8.924,8.924,0,0,1-8.924-8.924Z" transform="translate(0.311 -0.689)" fill="#231f20"/>
      </g>
    </g>
  </g>
</svg>
