<svg xmlns="http://www.w3.org/2000/svg" width="76.345" height="76.345" viewBox="0 0 76.345 76.345">
  <g id="Group_1203941" data-name="Group 1203941" transform="translate(-1021.967 -3092.655)">
    <g id="Group_1200255" data-name="Group 1200255">
      <g id="Group_1187152" data-name="Group 1187152">
        <g id="Group_1185946" data-name="Group 1185946" transform="translate(-3.07)">
          <g id="Group_1184280" data-name="Group 1184280">
            <g id="Group_1182168" data-name="Group 1182168">
              <g id="Group_1178877" data-name="Group 1178877">
                <g id="Group_1111311" data-name="Group 1111311">
                  <g id="Group_1098742" data-name="Group 1098742" transform="translate(1025.482 3093.101)">
                    <g id="Rectangle_400898" data-name="Rectangle 400898" transform="translate(-0.445 -0.445)" fill="#7cd351" stroke="#569338" stroke-width="1" opacity="0.859">
                      <rect width="76.345" height="76.345" rx="38.172" stroke="none"/>
                      <rect x="0.5" y="0.5" width="75.345" height="75.345" rx="37.672" fill="none"/>
                    </g>
                    <g id="Rectangle_400907" data-name="Rectangle 400907" transform="translate(-0.446 -0.445)" fill="none" stroke="#569338" stroke-width="1">
                      <rect width="76.345" height="76.345" rx="38.172" stroke="none"/>
                      <rect x="0.5" y="0.5" width="75.345" height="75.345" rx="37.672" fill="none"/>
                    </g>
                  </g>
                </g>
              </g>
            </g>
          </g>
        </g>
      </g>
    </g>
    <g id="financial_14148652" transform="translate(1035.965 3104.103)">
      <path id="Path_1243162" data-name="Path 1243162" d="M37.616,49.13V50.8H3V9.593L9.593,3H37.616V21.157" transform="translate(-0.176 -0.176)" fill="#f4f4f2"/>
      <circle id="Ellipse_12435" data-name="Ellipse 12435" cx="14" cy="14" r="14" transform="translate(22.726 20.725)" fill="#4a8cdd"/>
      <circle id="Ellipse_12436" data-name="Ellipse 12436" cx="9" cy="9" r="9" transform="translate(27.726 25.725)" fill="#5cccbc"/>
      <path id="Path_1243163" data-name="Path 1243163" d="M19.245,46.682A23.77,23.77,0,0,0,32.671,50.8H3V9.593L9.593,3H32.671A23.9,23.9,0,0,0,19.245,46.682Z" transform="translate(-0.176 -0.176)" fill="#e2e2e2"/>
      <path id="Path_1243164" data-name="Path 1243164" d="M31.945,39.011a14.011,14.011,0,0,1,11.539-13.78A14.366,14.366,0,0,0,41.011,25a14.011,14.011,0,0,0,0,28.022,14.365,14.365,0,0,0,2.473-.231,14.011,14.011,0,0,1-11.539-13.78Z" transform="translate(-4.395 -4.044)" fill="#356baa"/>
      <path id="Path_1243165" data-name="Path 1243165" d="M52.608,24.552l-2.934.478L48.1,22.508,54.224,9,55.8,11.522l2.934-.478Z" transform="translate(-8.105 -1.231)" fill="#fccc75"/>
      <path id="Path_1243166" data-name="Path 1243166" d="M37.943,40.066a9.066,9.066,0,0,1,6.593-8.72,9.066,9.066,0,1,0,0,17.44A9.066,9.066,0,0,1,37.943,40.066Z" transform="translate(-5.448 -5.098)" fill="#3eb5a7"/>
      <ellipse id="Ellipse_12437" data-name="Ellipse 12437" cx="3" cy="3.5" rx="3" ry="3.5" transform="translate(33.726 31.725)" fill="#f9715f"/>
      <g id="Group_1203740" data-name="Group 1203740" transform="translate(6.121 32.495)">
        <path id="Path_1243167" data-name="Path 1243167" d="M7,39h6.593v4.945H7Z" transform="translate(-7 -39)" fill="#7e7f7f"/>
        <path id="Path_1243168" data-name="Path 1243168" d="M7,51h6.593v4.945H7Z" transform="translate(-7 -41.11)" fill="#7e7f7f"/>
        <path id="Path_1243169" data-name="Path 1243169" d="M20,39h6.593v4.945H20Z" transform="translate(-9.286 -39)" fill="#7e7f7f"/>
        <path id="Path_1243170" data-name="Path 1243170" d="M20,51h6.593v4.945H20Z" transform="translate(-9.286 -41.11)" fill="#7e7f7f"/>
      </g>
      <ellipse id="Ellipse_12438" data-name="Ellipse 12438" cx="9.5" cy="10" rx="9.5" ry="10" transform="translate(10.726 5.725)" fill="#fccc75"/>
      <path id="Path_1243171" data-name="Path 1243171" d="M24,7V26.78A9.89,9.89,0,1,0,24,7Z" transform="translate(-3.868 -0.879)" fill="#e2a656"/>
      <circle id="Ellipse_12439" data-name="Ellipse 12439" cx="6.5" cy="6.5" r="6.5" transform="translate(13.726 9.725)" fill="#fad55c"/>
      <path id="Path_1243172" data-name="Path 1243172" d="M24,11V24.187A6.593,6.593,0,0,0,24,11Z" transform="translate(-3.868 -1.582)" fill="#edc045"/>
      <path id="Path_1243173" data-name="Path 1243173" d="M9.593,3V9.593H3Z" transform="translate(-0.176 -0.176)" fill="#4a8cdd"/>
      <path id="Path_1243174" data-name="Path 1243174" d="M28.912,13.841a7.418,7.418,0,0,0-1.854-2.192l-1.038,1.286a5.747,5.747,0,0,1-2.778,10.187V21.539h.824a.824.824,0,0,0,.824-.824v-3.3a.824.824,0,0,0-.824-.824H21.593V14.945h3.3V13.3H23.242V11.714a5.992,5.992,0,0,1,1.343.354l.61-1.533A7.533,7.533,0,0,0,22.418,10a7.418,7.418,0,1,0,7.418,7.418,7.335,7.335,0,0,0-.923-3.577ZM16.648,17.418a5.769,5.769,0,0,1,4.945-5.7V13.3h-.824a.824.824,0,0,0-.824.824v3.3a.824.824,0,0,0,.824.824h2.473V19.89h-3.3v1.648h1.648v1.582a5.769,5.769,0,0,1-4.945-5.7Z" transform="translate(-2.286 -1.407)"/>
      <path id="Path_1243175" data-name="Path 1243175" d="M45.509,23.1l5.868-12.948A.824.824,0,0,0,50.5,9l-2.39.4-1.286-2.06a.823.823,0,0,0-1.451.1L39.484,20.412c-.4-.074-.824-.14-1.22-.181V2.824A.824.824,0,0,0,37.44,2H9.418a.824.824,0,0,0-.585.239L2.239,8.832A.824.824,0,0,0,2,9.418V50.627a.824.824,0,0,0,.824.824H37.44a.824.824,0,0,0,.824-.824V49.7a14.835,14.835,0,0,0,7.245-26.6Zm.725-13.591.758,1.22a.824.824,0,0,0,.824.379l1.418-.231L43.935,22.6l-1.953.321-1.047-1.648ZM8.593,4.81V8.593H4.81ZM36.616,48.154a13.311,13.311,0,0,1-3.874-.569,14.118,14.118,0,0,1-1.549-.6l-.692,1.5a16.606,16.606,0,0,0,1.756.676,14.967,14.967,0,0,0,4.36.643H3.648V10.242H9.418a.824.824,0,0,0,.824-.824V3.648H36.616V20.132h-.874a14.835,14.835,0,0,0-7.072,2.3,10.714,10.714,0,1,0-9.363,4.294v1.648H9.418a.824.824,0,0,0-.824.824v2.473H6.121a.824.824,0,0,0-.824.824V37.44a.824.824,0,0,0,.824.824H8.593v3.3H6.121a.824.824,0,0,0-.824.824V47.33a.824.824,0,0,0,.824.824h6.593a.824.824,0,0,0,.824-.824V42.385a.824.824,0,0,0-.824-.824H10.242v-3.3h2.473a.824.824,0,0,0,.824-.824V32.495a.824.824,0,0,0-.824-.824H10.242V30.022h9.066v1.648H16.835a.824.824,0,0,0-.824.824V37.44a.824.824,0,0,0,.824.824h2.473v3.3H16.835a.824.824,0,0,0-.824.824V47.33a.824.824,0,0,0,.824.824h6.593a.824.824,0,0,0,.824-.824v-4.2a14.926,14.926,0,0,0,2.761,3.14,15.4,15.4,0,0,0,1.747,1.286l.874-1.4a12.709,12.709,0,0,1-1.549-1.137,13.228,13.228,0,0,1-4.657-9.272c0-.255,0-.511,0-.775A13.187,13.187,0,0,1,35.841,21.78a13.335,13.335,0,0,1,3.7.3l1.1,1.756L39.814,25.6a9.635,9.635,0,0,0-2.374-.486v-1.69H35.792v1.69a9.89,9.89,0,0,0-9.066,9.066H25.077v1.648h1.648a9.89,9.89,0,0,0,9.066,9.025v1.648H37.44V44.858a9.89,9.89,0,0,0,9.066-9.066h1.648V34.143H46.506a9.89,9.89,0,0,0-5.118-7.854l.824-1.739L44.3,24.2a13.187,13.187,0,0,1-7.681,23.951ZM22.6,43.209v3.3H17.66v-3.3Zm-1.648-1.648v-3.3h1.22a14.514,14.514,0,0,0,1.162,3.3Zm.923-8.242a15.66,15.66,0,0,0-.1,1.648v.874s.058.519.091.775H17.66v-3.3Zm.28-1.648h-1.2V30.022H22.6a14.011,14.011,0,0,0-.445,1.648Zm1.179-3.3H20.956V26.726a10.714,10.714,0,0,0,4.335-1.286,14.712,14.712,0,0,0-1.953,2.934Zm-3.206-3.3A9.066,9.066,0,1,1,29.2,16.011a9.066,9.066,0,0,1-9.066,9.066ZM6.945,36.616v-3.3H11.89v3.3Zm4.945,6.593v3.3H6.945v-3.3ZM37.217,35.4l1.047-2.275a2.469,2.469,0,1,1-1.648-.635h.107L35.717,34.72Zm-.6-4.558a4.121,4.121,0,1,0,2.332.734L40.663,27.8a8.242,8.242,0,0,1,4.2,6.346H43.209v1.648h1.648a8.242,8.242,0,0,1-7.418,7.418V41.561H35.792v1.648a8.242,8.242,0,0,1-7.418-7.418h1.648V34.143H28.374a8.242,8.242,0,0,1,7.418-7.418v1.648H37.44V26.726a8.53,8.53,0,0,1,1.723.363L37.44,30.929A4.583,4.583,0,0,0,36.616,30.846Z" transform="translate(0 0)"/>
      <ellipse id="Ellipse_12440" data-name="Ellipse 12440" cx="2.093" cy="1.03" rx="2.093" ry="1.03" transform="matrix(0.804, -0.595, 0.595, 0.804, 29.733, 30.246)" fill="#f7f7f7"/>
      <circle id="Ellipse_12441" data-name="Ellipse 12441" cx="0.824" cy="0.824" r="0.824" transform="matrix(0.148, -0.989, 0.989, 0.148, 29.423, 33.21)" fill="#f7f7f7"/>
    </g>
  </g>
</svg>
