<svg xmlns="http://www.w3.org/2000/svg" xmlns:xlink="http://www.w3.org/1999/xlink" width="90" height="90" viewBox="0 0 90 90">
  <defs>
    <clipPath id="clip-path">
      <rect id="Rectangle_412103" data-name="Rectangle 412103" width="60" height="61" transform="translate(-561.301 -4547.792)" fill="#fff" stroke="#707070" stroke-width="1"/>
    </clipPath>
  </defs>
  <g id="Group_1204129" data-name="Group 1204129" transform="translate(576.551 4562.292)">
    <g id="Path_1275952" data-name="Path 1275952" transform="translate(-576.551 -4562.292)" fill="#caedb8">
      <path d="M 75 88.5 L 15 88.5 C 11.39401245117188 88.5 8.003874778747559 87.09574890136719 5.454062461853027 84.54593658447266 C 2.904249906539917 81.99612426757812 1.5 78.60598754882812 1.5 75 L 1.5 15 C 1.5 11.39401245117188 2.904249906539917 8.003874778747559 5.454062461853027 5.454062461853027 C 8.003874778747559 2.904249906539917 11.39401245117188 1.5 15 1.5 L 75 1.5 C 78.60598754882812 1.5 81.99612426757812 2.904249906539917 84.54593658447266 5.454062461853027 C 87.09574890136719 8.003874778747559 88.5 11.39401245117188 88.5 15 L 88.5 75 C 88.5 78.60598754882812 87.09574890136719 81.99612426757812 84.54593658447266 84.54593658447266 C 81.99612426757812 87.09574890136719 78.60598754882812 88.5 75 88.5 Z" stroke="none"/>
      <path d="M 15 3 C 11.79468536376953 3 8.781211853027344 4.248214721679688 6.514717102050781 6.514717102050781 C 4.248214721679688 8.781211853027344 3 11.79468536376953 3 15 L 3 75 C 3 78.20531463623047 4.248214721679688 81.21878814697266 6.514717102050781 83.48528289794922 C 8.781211853027344 85.75178527832031 11.79468536376953 87 15 87 L 75 87 C 78.20531463623047 87 81.21878814697266 85.75178527832031 83.48528289794922 83.48528289794922 C 85.75178527832031 81.21878814697266 87 78.20531463623047 87 75 L 87 15 C 87 11.79468536376953 85.75178527832031 8.781211853027344 83.48528289794922 6.514717102050781 C 81.21878814697266 4.248214721679688 78.20531463623047 3 75 3 L 15 3 M 15 0 L 75 0 C 83.28427124023438 0 90 6.715728759765625 90 15 L 90 75 C 90 83.28427124023438 83.28427124023438 90 75 90 L 15 90 C 6.715728759765625 90 0 83.28427124023438 0 75 L 0 15 C 0 6.715728759765625 6.715728759765625 0 15 0 Z" stroke="none" fill="#569338"/>
    </g>
    <g id="Mask_Group_1200916" data-name="Mask Group 1200916" clip-path="url(#clip-path)">
      <g id="money_8065174" transform="translate(-562.268 -4548.265)">
        <path id="Path_1276467" data-name="Path 1276467" d="M29.032,7.742l-2.9-5.806,4.839,1.935,4.839-1.935L32.9,7.742" fill="#98c1d9"/>
        <path id="Path_1276468" data-name="Path 1276468" d="M9.677,40.645H52.258V60H9.677Z" fill="#98c1d9"/>
        <path id="Path_1276469" data-name="Path 1276469" d="M9.677,50.323V40.645H52.258v9.677H60V30.968H36.765a9.648,9.648,0,0,1-11.594,0H1.935V50.323Z" fill="#3d5a80"/>
        <g id="Group_1204128" data-name="Group 1204128">
          <path id="Path_1276470" data-name="Path 1276470" d="M6.774,50.323H1.935V45.484A4.84,4.84,0,0,1,6.774,50.323Z" fill="#e0fbfc"/>
          <path id="Path_1276471" data-name="Path 1276471" d="M60,45.484v4.839H55.161A4.84,4.84,0,0,1,60,45.484Z" fill="#e0fbfc"/>
          <path id="Path_1276472" data-name="Path 1276472" d="M55.161,30.968H60v4.839A4.84,4.84,0,0,1,55.161,30.968Z" fill="#e0fbfc"/>
          <path id="Path_1276473" data-name="Path 1276473" d="M1.935,35.806V30.968H6.774A4.84,4.84,0,0,1,1.935,35.806Z" fill="#e0fbfc"/>
          <path id="Path_1276474" data-name="Path 1276474" d="M14.516,60H9.677V55.161A4.84,4.84,0,0,1,14.516,60Z" fill="#e0fbfc"/>
          <path id="Path_1276475" data-name="Path 1276475" d="M9.677,45.484V40.645h4.839A4.84,4.84,0,0,1,9.677,45.484Z" fill="#e0fbfc"/>
          <path id="Path_1276476" data-name="Path 1276476" d="M47.419,40.645h4.839v4.839A4.84,4.84,0,0,1,47.419,40.645Z" fill="#e0fbfc"/>
          <path id="Path_1276477" data-name="Path 1276477" d="M52.258,55.161V60H47.419A4.84,4.84,0,0,1,52.258,55.161Z" fill="#e0fbfc"/>
        </g>
        <circle id="Ellipse_12494" data-name="Ellipse 12494" cx="7.742" cy="7.742" r="7.742" transform="translate(1.935 11.613)" fill="#98c1d9"/>
        <circle id="Ellipse_12495" data-name="Ellipse 12495" cx="7.742" cy="7.742" r="7.742" transform="translate(44.516 11.613)" fill="#98c1d9"/>
        <path id="Path_1276478" data-name="Path 1276478" d="M34.839,11.129c3.416,2.594,5.806,8.129,5.806,12.1a9.677,9.677,0,1,1-19.355,0c0-3.968,2.39-9.5,5.806-12.1" fill="#98c1d9"/>
        <path id="Path_1276479" data-name="Path 1276479" d="M27.1,7.742h7.742v3.871H27.1Z" fill="#3d5a80"/>
        <path id="Path_1276480" data-name="Path 1276480" d="M8.71,13.548V14.69a2.9,2.9,0,0,0,.968,5.632.968.968,0,1,1-.968.968H6.774A2.913,2.913,0,0,0,8.71,24.019v1.142h1.935V24.019a2.9,2.9,0,0,0-.968-5.632.968.968,0,1,1,.968-.968h1.935a2.913,2.913,0,0,0-1.935-2.729V13.548Z"/>
        <path id="Path_1276481" data-name="Path 1276481" d="M52.258,16.452a.971.971,0,0,1,.968.968h1.935a2.913,2.913,0,0,0-1.935-2.729V13.548H51.29V14.69a2.9,2.9,0,0,0,.968,5.632.968.968,0,1,1-.968.968H49.355a2.913,2.913,0,0,0,1.935,2.729v1.142h1.935V24.019a2.9,2.9,0,0,0-.968-5.632.968.968,0,1,1,0-1.935Z"/>
        <path id="Path_1276482" data-name="Path 1276482" d="M.968,19.355a8.71,8.71,0,1,0,8.71-8.71A8.723,8.723,0,0,0,.968,19.355Zm15.484,0a6.774,6.774,0,1,1-6.774-6.774A6.782,6.782,0,0,1,16.452,19.355Z"/>
        <path id="Path_1276483" data-name="Path 1276483" d="M52.258,10.645a8.71,8.71,0,1,0,8.71,8.71A8.723,8.723,0,0,0,52.258,10.645Zm0,15.484a6.774,6.774,0,1,1,6.774-6.774A6.782,6.782,0,0,1,52.258,26.129Z"/>
        <path id="Path_1276484" data-name="Path 1276484" d="M30.968,47.419a.971.971,0,0,1,.968.968h1.935a2.913,2.913,0,0,0-1.935-2.729V44.516H30v1.142a2.9,2.9,0,0,0,.968,5.632.968.968,0,1,1-.968.968H28.065A2.913,2.913,0,0,0,30,54.987v1.142h1.935V54.987a2.9,2.9,0,0,0-.968-5.632.968.968,0,0,1,0-1.935Z"/>
        <path id="Path_1276485" data-name="Path 1276485" d="M60,30H39.174a10.6,10.6,0,0,0,2.439-6.774,18.078,18.078,0,0,0-5.806-12.552V7.742a.971.971,0,0,0-.968-.968h-.368l2.206-4.4a.955.955,0,0,0-.155-1.084.986.986,0,0,0-1.074-.242l-4.481,1.79-4.481-1.79a.99.99,0,0,0-1.074.242.972.972,0,0,0-.155,1.084l2.206,4.4H27.1a.971.971,0,0,0-.968.968v2.932a18.078,18.078,0,0,0-5.806,12.552A10.6,10.6,0,0,0,22.761,30H1.935a.971.971,0,0,0-.968.968V50.323a.971.971,0,0,0,.968.968H8.71V60a.971.971,0,0,0,.968.968H52.258A.971.971,0,0,0,53.226,60V51.29H60a.971.971,0,0,0,.968-.968V30.968A.971.971,0,0,0,60,30ZM30.61,4.771a.92.92,0,0,0,.716,0L33.8,3.784l-1.5,2.99H29.632l-1.5-2.99ZM28.065,8.71h5.806v1.935H28.065ZM22.258,23.226a16.443,16.443,0,0,1,4.665-10.684.92.92,0,0,0,.174.039h7.742a.565.565,0,0,0,.174-.039,16.375,16.375,0,0,1,4.665,10.684,8.71,8.71,0,1,1-17.419,0ZM2.9,31.935H5.671A3.871,3.871,0,0,1,2.9,34.7Zm0,17.419V46.587a3.871,3.871,0,0,1,2.768,2.768Zm7.742,9.677V56.265a3.871,3.871,0,0,1,2.768,2.768Zm40.645,0H48.523a3.871,3.871,0,0,1,2.768-2.768Zm0-4.752a5.8,5.8,0,0,0-4.752,4.752H15.4a5.8,5.8,0,0,0-4.752-4.752V46.365A5.8,5.8,0,0,0,15.4,41.613H46.539a5.8,5.8,0,0,0,4.752,4.752Zm-40.645-9.9V41.613h2.768A3.871,3.871,0,0,1,10.645,44.381Zm40.645,0a3.871,3.871,0,0,1-2.768-2.768H51.29Zm7.742,4.974H56.265a3.871,3.871,0,0,1,2.768-2.768Zm0-4.752a5.8,5.8,0,0,0-4.752,4.752H53.226v-8.71a.971.971,0,0,0-.968-.968H9.677a.971.971,0,0,0-.968.968v8.71H7.655A5.8,5.8,0,0,0,2.9,44.6V36.687a5.8,5.8,0,0,0,4.752-4.752H24.871a10.57,10.57,0,0,0,12.194,0H54.281a5.8,5.8,0,0,0,4.752,4.752Zm0-9.9a3.871,3.871,0,0,1-2.768-2.768h2.768Z"/>
        <path id="Path_1276486" data-name="Path 1276486" d="M30.968,25.161A.971.971,0,0,1,30,24.194H28.065A2.913,2.913,0,0,0,30,26.923v1.142h1.935V26.923a2.9,2.9,0,0,0-.968-5.632.968.968,0,1,1,.968-.968h1.935a2.913,2.913,0,0,0-1.935-2.729V16.452H30v1.142a2.9,2.9,0,0,0,.968,5.632.968.968,0,0,1,0,1.935Z"/>
      </g>
    </g>
  </g>
</svg>
