<svg xmlns="http://www.w3.org/2000/svg" xmlns:xlink="http://www.w3.org/1999/xlink" width="90" height="90" viewBox="0 0 90 90">
  <defs>
    <clipPath id="clip-path">
      <rect id="Rectangle_412067" data-name="Rectangle 412067" width="60" height="61" transform="translate(927.768 2806.079)" fill="#fff" stroke="#707070" stroke-width="1"/>
    </clipPath>
  </defs>
  <g id="Group_1204201" data-name="Group 1204201" transform="translate(-912.5 -2791.539)">
    <g id="Path_1275913" data-name="Path 1275913" transform="translate(912.5 2791.539)" fill="#ffc94a">
      <path d="M 75 88.5 L 15 88.5 C 11.39401245117188 88.5 8.003874778747559 87.09574890136719 5.454062461853027 84.54593658447266 C 2.904249906539917 81.99612426757812 1.5 78.60598754882812 1.5 75 L 1.5 15 C 1.5 11.39401245117188 2.904249906539917 8.003874778747559 5.454062461853027 5.454062461853027 C 8.003874778747559 2.904249906539917 11.39401245117188 1.5 15 1.5 L 75 1.5 C 78.60598754882812 1.5 81.99612426757812 2.904249906539917 84.54593658447266 5.454062461853027 C 87.09574890136719 8.003874778747559 88.5 11.39401245117188 88.5 15 L 88.5 75 C 88.5 78.60598754882812 87.09574890136719 81.99612426757812 84.54593658447266 84.54593658447266 C 81.99612426757812 87.09574890136719 78.60598754882812 88.5 75 88.5 Z" stroke="none"/>
      <path d="M 15 3 C 11.79468536376953 3 8.781211853027344 4.248214721679688 6.514717102050781 6.514717102050781 C 4.248214721679688 8.781211853027344 3 11.79468536376953 3 15 L 3 75 C 3 78.20531463623047 4.248214721679688 81.21878814697266 6.514717102050781 83.48528289794922 C 8.781211853027344 85.75178527832031 11.79468536376953 87 15 87 L 75 87 C 78.20531463623047 87 81.21878814697266 85.75178527832031 83.48528289794922 83.48528289794922 C 85.75178527832031 81.21878814697266 87 78.20531463623047 87 75 L 87 15 C 87 11.79468536376953 85.75178527832031 8.781211853027344 83.48528289794922 6.514717102050781 C 81.21878814697266 4.248214721679688 78.20531463623047 3 75 3 L 15 3 M 15 0 L 75 0 C 83.28427124023438 0 90 6.715728759765625 90 15 L 90 75 C 90 83.28427124023438 83.28427124023438 90 75 90 L 15 90 C 6.715728759765625 90 0 83.28427124023438 0 75 L 0 15 C 0 6.715728759765625 6.715728759765625 0 15 0 Z" stroke="none" fill="#b18c32"/>
    </g>
    <g id="Mask_Group_1200934" data-name="Mask Group 1200934" clip-path="url(#clip-path)">
      <g id="approval_1283177" transform="translate(927.768 2806.579)">
        <path id="Path_1276771" data-name="Path 1276771" d="M45.484,8.71V.968H.968V51.29H45.484Zm0,0" fill="#e6e9ed"/>
        <path id="Path_1276772" data-name="Path 1276772" d="M39.677,39.677V51.29h5.806V6.774a15.474,15.474,0,0,0-3.871,30.458v2.445Zm0,0" fill="#ccd1d9"/>
        <path id="Path_1276773" data-name="Path 1276773" d="M43.548,33.871h3.871v9.677H43.548Zm0,0" fill="#ecc19c"/>
        <path id="Path_1276774" data-name="Path 1276774" d="M59.032,22.258A13.548,13.548,0,1,1,45.484,8.71,13.548,13.548,0,0,1,59.032,22.258Zm0,0" fill="#e6e9ed"/>
        <path id="Path_1276775" data-name="Path 1276775" d="M55.161,22.258a9.677,9.677,0,1,1-9.677-9.677A9.677,9.677,0,0,1,55.161,22.258Zm0,0" fill="#4fc1e9"/>
        <path id="Path_1276776" data-name="Path 1276776" d="M4.839,35.806H18.387V47.419H4.839Zm0,0" fill="#fcd770"/>
        <path id="Path_1276777" data-name="Path 1276777" d="M4.839,17.419H18.387V29.032H4.839Zm0,0" fill="#fcd770"/>
        <path id="Path_1276778" data-name="Path 1276778" d="M43.548,39.677h3.871v1.935H43.548Zm0,0" fill="#dfb28b"/>
        <path id="Path_1276779" data-name="Path 1276779" d="M45.484,59.032a3.871,3.871,0,0,1-3.871-3.871V41.613h7.742V55.161A3.871,3.871,0,0,1,45.484,59.032Zm0,0" fill="#cf9e76"/>
        <path id="Path_1276780" data-name="Path 1276780" d="M46.452,55.161a.968.968,0,1,1-.968-.968A.968.968,0,0,1,46.452,55.161Zm0,0"/>
        <path id="Path_1276781" data-name="Path 1276781" d="M60,22.258A14.522,14.522,0,0,0,46.452,7.791V0H0V52.258H40.645v2.9a4.839,4.839,0,1,0,9.677,0V40.645H48.387V36.482A14.541,14.541,0,0,0,60,22.258Zm-1.935,0A12.581,12.581,0,1,1,45.484,9.677,12.6,12.6,0,0,1,58.065,22.258ZM40.645,40.645v9.677H1.935V1.935H44.516V7.791a14.507,14.507,0,0,0-1.935,28.691v4.163Zm7.742,14.516a2.9,2.9,0,0,1-5.806,0V42.581h5.806ZM46.452,40.645H44.516v-3.92c.321.021.641.049.968.049s.646-.028.968-.049Zm0,0"/>
        <path id="Path_1276782" data-name="Path 1276782" d="M34.839,22.258A10.645,10.645,0,1,0,45.484,11.613,10.658,10.658,0,0,0,34.839,22.258Zm19.355,0a8.71,8.71,0,1,1-8.71-8.71A8.72,8.72,0,0,1,54.194,22.258Zm0,0"/>
        <path id="Path_1276783" data-name="Path 1276783" d="M42.15,24.356l-1.075,1.61,3.816,2.543,5.329-10.658-1.732-.865-4.348,8.7Zm0,0"/>
        <path id="Path_1276784" data-name="Path 1276784" d="M17.345,32.308l-1.786-.745-1.365,3.276H3.871V48.387H19.355V34.839H16.29Zm.075,4.466v9.677H5.806V36.774h7.581l-2.112,5.068L9.395,39.961,8.026,41.329l3.925,3.925,3.532-8.481Zm0,0"/>
        <path id="Path_1276785" data-name="Path 1276785" d="M17.345,13.921l-1.786-.745-1.365,3.276H3.871V30H19.355V16.452H16.29Zm.075,4.466v9.677H5.806V18.387h7.581l-2.112,5.068L9.395,21.574,8.026,22.942l3.925,3.925,3.532-8.481Zm0,0"/>
        <path id="Path_1276786" data-name="Path 1276786" d="M27.1,7.742h1.935V9.677H27.1Zm0,0"/>
        <path id="Path_1276787" data-name="Path 1276787" d="M3.871,7.742h21.29V9.677H3.871Zm0,0"/>
        <path id="Path_1276788" data-name="Path 1276788" d="M21.29,34.839H32.9v1.935H21.29Zm0,0"/>
        <path id="Path_1276789" data-name="Path 1276789" d="M21.29,38.71H32.9v1.935H21.29Zm0,0"/>
        <path id="Path_1276790" data-name="Path 1276790" d="M21.29,42.581H32.9v1.935H21.29Zm0,0"/>
        <path id="Path_1276791" data-name="Path 1276791" d="M21.29,46.452H32.9v1.935H21.29Zm0,0"/>
        <path id="Path_1276792" data-name="Path 1276792" d="M21.29,16.452h7.742v1.935H21.29Zm0,0"/>
        <path id="Path_1276793" data-name="Path 1276793" d="M21.29,20.323h7.742v1.935H21.29Zm0,0"/>
        <path id="Path_1276794" data-name="Path 1276794" d="M21.29,24.194h7.742v1.935H21.29Zm0,0"/>
        <path id="Path_1276795" data-name="Path 1276795" d="M21.29,28.065h7.742V30H21.29Zm0,0"/>
        <path id="Path_1276796" data-name="Path 1276796" d="M3.871,3.871H29.032V5.806H3.871Zm0,0"/>
      </g>
    </g>
  </g>
</svg>
