<svg xmlns="http://www.w3.org/2000/svg" xmlns:xlink="http://www.w3.org/1999/xlink" width="90" height="90" viewBox="0 0 90 90">
  <defs>
    <clipPath id="clip-path">
      <rect id="Rectangle_412102" data-name="Rectangle 412102" width="60" height="61" transform="translate(1137.75 7073.473)" fill="#fff" stroke="#707070" stroke-width="1"/>
    </clipPath>
  </defs>
  <g id="Group_1204127" data-name="Group 1204127" transform="translate(-1122.5 -7058.973)">
    <g id="Path_1275928" data-name="Path 1275928" transform="translate(1122.5 7058.973)" fill="#caedb8">
      <path d="M 75 88.5 L 15 88.5 C 11.39401245117188 88.5 8.003874778747559 87.09574890136719 5.454062461853027 84.54593658447266 C 2.904249906539917 81.99612426757812 1.5 78.60598754882812 1.5 75 L 1.5 15 C 1.5 11.39401245117188 2.904249906539917 8.003874778747559 5.454062461853027 5.454062461853027 C 8.003874778747559 2.904249906539917 11.39401245117188 1.5 15 1.5 L 75 1.5 C 78.60598754882812 1.5 81.99612426757812 2.904249906539917 84.54593658447266 5.454062461853027 C 87.09574890136719 8.003874778747559 88.5 11.39401245117188 88.5 15 L 88.5 75 C 88.5 78.60598754882812 87.09574890136719 81.99612426757812 84.54593658447266 84.54593658447266 C 81.99612426757812 87.09574890136719 78.60598754882812 88.5 75 88.5 Z" stroke="none"/>
      <path d="M 15 3 C 11.79468536376953 3 8.781211853027344 4.248214721679688 6.514717102050781 6.514717102050781 C 4.248214721679688 8.781211853027344 3 11.79468536376953 3 15 L 3 75 C 3 78.20531463623047 4.248214721679688 81.21878814697266 6.514717102050781 83.48528289794922 C 8.781211853027344 85.75178527832031 11.79468536376953 87 15 87 L 75 87 C 78.20531463623047 87 81.21878814697266 85.75178527832031 83.48528289794922 83.48528289794922 C 85.75178527832031 81.21878814697266 87 78.20531463623047 87 75 L 87 15 C 87 11.79468536376953 85.75178527832031 8.781211853027344 83.48528289794922 6.514717102050781 C 81.21878814697266 4.248214721679688 78.20531463623047 3 75 3 L 15 3 M 15 0 L 75 0 C 83.28427124023438 0 90 6.715728759765625 90 15 L 90 75 C 90 83.28427124023438 83.28427124023438 90 75 90 L 15 90 C 6.715728759765625 90 0 83.28427124023438 0 75 L 0 15 C 0 6.715728759765625 6.715728759765625 0 15 0 Z" stroke="none" fill="#569338"/>
    </g>
    <g id="Mask_Group_1200915" data-name="Mask Group 1200915" clip-path="url(#clip-path)">
      <g id="market-research_18508869" transform="translate(1135.75 7071.974)">
        <g id="Group_1204124" data-name="Group 1204124">
          <path id="Path_1276446" data-name="Path 1276446" d="M54.7,54.961l.117,3.9a2.849,2.849,0,0,1-2.946,2.707,3.43,3.43,0,0,1-2.111-.625A2.442,2.442,0,0,1,48.72,59v-.044l-.125-3.991H37.508a6.675,6.675,0,0,0,.447,2.916,4.5,4.5,0,0,0,1.986,2.179.8.8,0,0,1-.354,1.514H21.577a.8.8,0,0,1-.357-1.512q2.581-1.47,2.436-5.1H2.8a.8.8,0,0,1-.8-.8V16.683a.8.8,0,0,1,.8-.8H14.78V3.226a.8.8,0,0,1,.8-.8h24.49a.792.792,0,0,1,.569.239l5.506,5.5a.8.8,0,0,1,.239.584v7.133H58.372a.8.8,0,0,1,.8.8V28.267A11.085,11.085,0,0,1,62,35.349V35.4A11.009,11.009,0,0,1,59.66,42.46q-.236.3-.492.587V54.161a.8.8,0,0,1-.8.8Z" fill-rule="evenodd"/>
          <path id="Path_1276447" data-name="Path 1276447" d="M53.082,54.247v-.135l-.074-2.455a.887.887,0,0,0-.391-.689,1.825,1.825,0,0,0-1.089-.315h-.081a1.625,1.625,0,0,0-1.01.389.945.945,0,0,0-.342.657v.07l.069,2.292a.767.767,0,0,1,.006.092V54.2l.141,4.7a.732.732,0,0,1,0,.091.889.889,0,0,0,.39.666,1.821,1.821,0,0,0,1.087.315h.082a1.625,1.625,0,0,0,1.01-.389.945.945,0,0,0,.342-.657.655.655,0,0,1,0-.07Z" fill="#07718b" fill-rule="evenodd"/>
          <path id="Path_1276448" data-name="Path 1276448" d="M54.647,53.362h2.917V50.307h-3.4a2.375,2.375,0,0,1,.43,1.315Z" fill="#3d7dbd" fill-rule="evenodd"/>
          <path id="Path_1276449" data-name="Path 1276449" d="M52.409,49.168l-.085-3.4a.8.8,0,0,1,.625-.859,9.432,9.432,0,0,0,4.8-2.671.865.865,0,0,1,.087-.091q.3-.319.57-.664a9.423,9.423,0,0,0,2-6.045v-.087a9.424,9.424,0,0,0-2.574-6.183.839.839,0,0,1-.072-.076q-.159-.165-.326-.322a9.434,9.434,0,0,0-6.711-2.571h-.086a9.422,9.422,0,0,0-4.581,1.355.924.924,0,0,1-.1.059,9.518,9.518,0,0,0-3.711,4.273.8.8,0,0,1-.04.095,9.418,9.418,0,0,0-.741,3.9.665.665,0,0,1,0,.086,9.416,9.416,0,0,0,1.219,4.347.993.993,0,0,1,.05.087,9.451,9.451,0,0,0,1.181,1.614,9.6,9.6,0,0,0,1.687,1.47.727.727,0,0,1,.089.059,9.384,9.384,0,0,0,4.015,1.5.8.8,0,0,1,.722.774l.084,3.4a3.423,3.423,0,0,1,.9-.149h.072a3.731,3.731,0,0,1,.916.1Zm-1.7-21.081h.07a7.574,7.574,0,0,1,.382,15.143h-.07a7.573,7.573,0,0,1-7.727-7.346v-.07a7.573,7.573,0,0,1,7.346-7.727Z" fill="#0c9198" fill-rule="evenodd"/>
          <path id="Path_1276450" data-name="Path 1276450" d="M48.957,50.318v-.011H3.6v3.055H48.547l-.05-1.586v-.059a2.419,2.419,0,0,1,.459-1.4Zm-18.5,2.315a.8.8,0,0,1,0-1.6h.017a.8.8,0,1,1,0,1.6Z" fill="#0a5f80" fill-rule="evenodd"/>
          <path id="Path_1276451" data-name="Path 1276451" d="M57.564,26.806V17.479H46.38v8.1A11.052,11.052,0,0,1,50.6,24.6h.066a11.012,11.012,0,0,1,6.895,2.2Z" fill="#f2f2f2" fill-rule="evenodd"/>
          <path id="Path_1276452" data-name="Path 1276452" d="M44.782,26.467V9.537H40.066a.8.8,0,0,1-.8-.8V4.022H16.374v39.35H43.016c-.092-.095-.182-.191-.271-.289a11.044,11.044,0,0,1-1.169-1.537h-3.7a.8.8,0,0,1-.8-.8c0-.024,0-.046,0-.07V28.442a.792.792,0,0,1,.3-.625q.994-.781,1.856-1.56.892-.809,1.687-1.637a.794.794,0,0,1,1.367.549v3.58c.186-.232.375-.456.585-.674a11.149,11.149,0,0,1,1.9-1.61ZM29.158,10.184V6.356a.8.8,0,0,1,.8-.8A8.446,8.446,0,0,1,38.4,14a.8.8,0,0,1-.8.8h-3.83a.8.8,0,0,1-.8-.8,3.017,3.017,0,0,0-3.017-3.017.8.8,0,0,1-.8-.8ZM27.9,9.1v3.83a.8.8,0,0,1-.8.8,3.017,3.017,0,1,0,3.012,3.022.8.8,0,0,1,.8-.8h3.834a.8.8,0,0,1,.8.8A8.445,8.445,0,1,1,27.1,8.306a.8.8,0,0,1,.8.8ZM38.57,20.061a.8.8,0,1,1-.212-1.577l3.4-.459a.8.8,0,0,1,.9.777l.136,3.412a.8.8,0,1,1-1.591.062l-.05-1.267A34.8,34.8,0,0,1,32.3,28.727a34.9,34.9,0,0,1-13.024,4.588.8.8,0,1,1-.231-1.579,33.306,33.306,0,0,0,12.432-4.375,33.341,33.341,0,0,0,8.562-7.5l-1.47.2ZM36.06,30.324V40.753a.8.8,0,0,1-.8.8H31.637a.795.795,0,0,1-.795-.8V32.517a.8.8,0,0,1,.426-.775q.97-.5,1.817-1,.885-.52,1.719-1.067a.8.8,0,0,1,1.25.651ZM24.6,40.748v-5.68a.8.8,0,0,1,.615-.776q.859-.281,1.727-.61.925-.349,1.766-.715a.795.795,0,0,1,1.11.73v7.051a.8.8,0,0,1-.795.8H25.4a.8.8,0,0,1-.8-.8ZM23.577,35.86v4.887a.8.8,0,0,1-.795.8H19.158a.8.8,0,0,1-.8-.8V36.532a.8.8,0,0,1,.684-.787c.582-.084,1.174-.185,1.77-.3s1.2-.25,1.776-.395a.8.8,0,0,1,.964.582.777.777,0,0,1,.025.236Z" fill="#d8d8d8" fill-rule="evenodd"/>
          <path id="Path_1276453" data-name="Path 1276453" d="M44.976,44.974h-29.4a.8.8,0,0,1-.8-.8v-26.7H3.6V48.711H48.917l-.055-2.191a11,11,0,0,1-3.886-1.546ZM6.011,39.15a.8.8,0,0,1,0-1.6h6.352a.8.8,0,1,1,0,1.6Zm0-3.542a.8.8,0,0,1,0-1.6h6.352a.8.8,0,1,1,0,1.6Zm0-3.544a.8.8,0,0,1,0-1.6h5.016a.8.8,0,1,1,0,1.6Zm0-3.542a.8.8,0,1,1,0-1.6H8.9a.8.8,0,1,1,0,1.6Zm.476-8.282h5.4a.8.8,0,0,1,.8.8v3.3a.8.8,0,0,1-.8.8h-5.4a.8.8,0,0,1-.8-.8v-3.3a.8.8,0,0,1,.8-.8Z" fill="#f2f2f2" fill-rule="evenodd"/>
          <path id="Path_1276454" data-name="Path 1276454" d="M57.564,44.509a11,11,0,0,1-3.635,1.8l.06,2.4h3.575Z" fill="#f2f2f2" fill-rule="evenodd"/>
          <path id="Path_1276455" data-name="Path 1276455" d="M43.654,7.941l-2.789-2.79v2.79Z" fill="#3d7dbd" fill-rule="evenodd"/>
          <path id="Path_1276456" data-name="Path 1276456" d="M35.912,54.958H25.249a7.141,7.141,0,0,1-1.456,5.012h13.58a6.013,6.013,0,0,1-.886-1.474A8.171,8.171,0,0,1,35.912,54.958Z" fill="#919091" fill-rule="evenodd"/>
        </g>
        <path id="Path_1276457" data-name="Path 1276457" d="M7.286,21.837h3.8v1.706h-3.8Z" fill="#378fef"/>
        <path id="Path_1276458" data-name="Path 1276458" d="M30.748,7.2V9.456a4.617,4.617,0,0,1,3.75,3.75h2.25a6.85,6.85,0,0,0-6-6Z" fill="#eeb61c" fill-rule="evenodd"/>
        <path id="Path_1276459" data-name="Path 1276459" d="M23.009,22.235l1.125-1.954c-.1-.087-.2-.179-.3-.275a4.6,4.6,0,0,1-1.282-2.465H20.3a6.831,6.831,0,0,0,1.959,4.044,7.019,7.019,0,0,0,.75.65Z" fill="#ef6262" fill-rule="evenodd"/>
        <path id="Path_1276460" data-name="Path 1276460" d="M25.516,21.079l-1.125,1.954A6.848,6.848,0,0,0,33.9,17.541h-2.25a4.618,4.618,0,0,1-6.125,3.537Z" fill="#0a5f80" fill-rule="evenodd"/>
        <path id="Path_1276461" data-name="Path 1276461" d="M20.3,15.945h2.25A4.625,4.625,0,0,1,26.3,12.2V9.946a6.846,6.846,0,0,0-6,6Z" fill="#378fef" fill-rule="evenodd"/>
        <path id="Path_1276462" data-name="Path 1276462" d="M52.282,34.062a.8.8,0,0,1-.481-1.516l1.967-.625a.8.8,0,0,1,1.066.577l.45,2.066a.8.8,0,1,1-1.559.336l-.011-.051-1.625,2.82a.8.8,0,0,1-1.089.29L48.992,36.8l-.937,1.625a.795.795,0,1,1-1.375-.792l1.336-2.315a.8.8,0,0,1,1.085-.292l2.006,1.159,1.231-2.132-.055.018Zm2.75-2.76a5.971,5.971,0,0,0-4.219-1.625.665.665,0,0,1-.086,0,5.985,5.985,0,0,0-5.777,6.1v.086a5.985,5.985,0,0,0,6.1,5.777h.087a5.981,5.981,0,0,0,3.9-10.334Z" fill="#ace5fa" fill-rule="evenodd"/>
        <path id="Path_1276463" data-name="Path 1276463" d="M40.748,39.955a11.056,11.056,0,0,1-.86-3.966v-.07a11,11,0,0,1,.82-4.458v-4.39c-.131.125-.262.244-.4.364q-.807.729-1.634,1.394V39.953Z" fill="#378fef" fill-rule="evenodd"/>
        <path id="Path_1276464" data-name="Path 1276464" d="M21.987,39.955V36.823q-.436.1-.866.181-.577.115-1.167.211v2.74Z" fill="#82bbf5" fill-rule="evenodd"/>
        <path id="Path_1276465" data-name="Path 1276465" d="M34.465,39.955V31.769q-.287.175-.575.344-.742.436-1.459.819v7.023Z" fill="#4f9df1" fill-rule="evenodd"/>
        <path id="Path_1276466" data-name="Path 1276466" d="M26.2,35.642v4.313h2.03V34.89c-.242.1-.485.192-.724.282q-.641.244-1.306.469Z" fill="#67aaf3" fill-rule="evenodd"/>
      </g>
    </g>
  </g>
</svg>
