<svg xmlns="http://www.w3.org/2000/svg" xmlns:xlink="http://www.w3.org/1999/xlink" width="100.203" height="100.203" viewBox="0 0 100.203 100.203">
  <defs>
    <clipPath id="clip-path">
      <rect id="Rectangle_412099" data-name="Rectangle 412099" width="60" height="61" transform="translate(1190 8086.76)" fill="#fff" stroke="#707070" stroke-width="1"/>
    </clipPath>
  </defs>
  <g id="Group_1204133" data-name="Group 1204133" transform="translate(-1169.898 -8067.623)">
    <g id="Path_1275989" data-name="Path 1275989" transform="translate(1169.898 8067.623)" fill="#ffc94a">
      <path d="M 83.50260162353516 98.70313262939453 L 16.70051956176758 98.70313262939453 C 12.64031982421875 98.70313262939453 8.82313346862793 97.12200164794922 5.952134132385254 94.25100708007812 C 3.081133842468262 91.3800048828125 1.50000536441803 87.56282043457031 1.50000536441803 83.50260162353516 L 1.50000536441803 16.70051956176758 C 1.50000536441803 12.64031982421875 3.081133842468262 8.82313346862793 5.952134132385254 5.952134132385254 C 8.82313346862793 3.081133842468262 12.64031982421875 1.50000536441803 16.70051956176758 1.50000536441803 L 83.50260162353516 1.50000536441803 C 87.56282043457031 1.50000536441803 91.3800048828125 3.081133842468262 94.25100708007812 5.952134132385254 C 97.12200164794922 8.82313346862793 98.70313262939453 12.64031982421875 98.70313262939453 16.70051956176758 L 98.70313262939453 83.50260162353516 C 98.70313262939453 87.56280517578125 97.12200164794922 91.3800048828125 94.25100708007812 94.25100708007812 C 91.3800048828125 97.12200164794922 87.56280517578125 98.70313262939453 83.50260162353516 98.70313262939453 Z" stroke="none"/>
      <path d="M 16.70051574707031 2.999992370605469 C 13.04097747802734 2.999992370605469 9.600486755371094 4.425102233886719 7.012794494628906 7.012794494628906 C 4.425102233886719 9.600486755371094 2.999992370605469 13.04097747802734 2.999992370605469 16.70051574707031 L 2.999992370605469 83.50259399414062 C 2.999992370605469 87.16213226318359 4.425102233886719 90.60263824462891 7.012794494628906 93.19033050537109 C 9.600471496582031 95.77800750732422 13.04097747802734 97.20311737060547 16.70051574707031 97.20311737060547 L 83.50259399414062 97.20311737060547 C 87.16213226318359 97.20311737060547 90.60263824462891 95.77800750732422 93.19033050537109 93.19033050537109 C 95.77800750732422 90.60263824462891 97.20311737060547 87.16213226318359 97.20311737060547 83.50259399414062 L 97.20311737060547 16.70051574707031 C 97.20311737060547 13.04097747802734 95.77800750732422 9.600471496582031 93.19033050537109 7.012794494628906 C 90.60263824462891 4.425102233886719 87.16213226318359 2.999992370605469 83.50259399414062 2.999992370605469 L 16.70051574707031 2.999992370605469 M 16.70051574707031 -7.62939453125e-06 L 83.50259399414062 -7.62939453125e-06 C 92.72603607177734 -7.62939453125e-06 100.2031173706055 7.477088928222656 100.2031173706055 16.70051574707031 L 100.2031173706055 83.50259399414062 C 100.2031173706055 92.72603607177734 92.72603607177734 100.2031173706055 83.50259399414062 100.2031173706055 L 16.70051574707031 100.2031173706055 C 7.477088928222656 100.2031173706055 -7.62939453125e-06 92.72603607177734 -7.62939453125e-06 83.50259399414062 L -7.62939453125e-06 16.70051574707031 C -7.62939453125e-06 7.477088928222656 7.477088928222656 -7.62939453125e-06 16.70051574707031 -7.62939453125e-06 Z" stroke="none" fill="#b18c32"/>
    </g>
    <g id="Mask_Group_1200918" data-name="Mask Group 1200918" clip-path="url(#clip-path)">
      <g id="budgeting_10983151" transform="translate(1185.987 8083.239)">
        <g id="Group_1204132" data-name="Group 1204132">
          <path id="Path_1276502" data-name="Path 1276502" d="M36.077,11.1H51.159a2.484,2.484,0,0,1,2.472,2.472V26.736a2.484,2.484,0,0,1-2.472,2.472H36.077a2.484,2.484,0,0,1-2.472-2.472V13.567A2.484,2.484,0,0,1,36.077,11.1Z" fill="#f6851f" fill-rule="evenodd"/>
          <path id="Path_1276503" data-name="Path 1276503" d="M41.326,15.627h4.6v6.179h-4.6Z" fill="#fedc97" fill-rule="evenodd"/>
          <path id="Path_1276504" data-name="Path 1276504" d="M7.3,46.92c-2.126-32.383,34.3-33.074,32.875,0h.571c2.113,0,2.312,3.056.518,3.3-12.424,1.661-21.327,2.126-35.014,0-1.82-.279-1.634-3.3.492-3.3Z" fill="#718446" fill-rule="evenodd"/>
          <path id="Path_1276505" data-name="Path 1276505" d="M9.767,31.865c7.388-15.228,28.357-12.252,30.3,9.833a17.3,17.3,0,0,1-13.328,6.1c-9.328,0-16.9-7.122-16.969-15.932Z" fill="#9bb561" fill-rule="evenodd"/>
          <path id="Path_1276506" data-name="Path 1276506" d="M29.978,9.182c-.319,5.129-2.99,9.129-6.245,9.129s-5.926-4-6.245-9.129a3.345,3.345,0,0,0,.89.12A3.494,3.494,0,0,0,21.062,8,3.417,3.417,0,0,0,26.43,8a3.5,3.5,0,0,0,2.684,1.3,3.152,3.152,0,0,0,.864-.12Z" fill="#9bb561" fill-rule="evenodd"/>
          <path id="Path_1276507" data-name="Path 1276507" d="M22.045,22.643h3.388a2.638,2.638,0,1,0,0-5.275H22.045a2.638,2.638,0,0,0,0,5.275Z" fill="#dd6e42" fill-rule="evenodd"/>
          <path id="Path_1276508" data-name="Path 1276508" d="M32.7,56.421H50.4l7.441-7.441V27.586a2.1,2.1,0,0,0-2.1-2.1H32.7a2.1,2.1,0,0,0-2.1,2.1V54.308A2.107,2.107,0,0,0,32.7,56.421Z" fill="#7362ab" fill-rule="evenodd"/>
          <path id="Path_1276509" data-name="Path 1276509" d="M36.037,60.036h17.7l7.441-7.441V31.2a2.1,2.1,0,0,0-2.1-2.1H36.037a2.1,2.1,0,0,0-2.1,2.1V57.936a2.1,2.1,0,0,0,2.1,2.1Z" fill="#b5a5d0" fill-rule="evenodd"/>
          <path id="Path_1276510" data-name="Path 1276510" d="M61.178,52.594H55.837a2.1,2.1,0,0,0-2.1,2.1v5.342Z" fill="#7362ab" fill-rule="evenodd"/>
          <path id="Path_1276511" data-name="Path 1276511" d="M38.456,33.871H43.08V38.5H38.456Z" fill="#fff" fill-rule="evenodd"/>
          <path id="Path_1276512" data-name="Path 1276512" d="M38.456,41.738H43.08v4.624H38.456Z" fill="#fff" fill-rule="evenodd"/>
          <path id="Path_1276513" data-name="Path 1276513" d="M38.456,49.6H43.08v4.624H38.456Z" fill="#fff" fill-rule="evenodd"/>
          <path id="Path_1276514" data-name="Path 1276514" d="M58.694,14.5l4.332,1.156L56.86,38.708l-4.066,6.325-.279-7.494Z" fill="#ed2024" fill-rule="evenodd"/>
          <path id="Path_1276515" data-name="Path 1276515" d="M14.989,29.9H16.57a1.123,1.123,0,0,1,1.116,1.116v4.837a1.123,1.123,0,0,1-1.116,1.116H14.989a1.123,1.123,0,0,1-1.116-1.116V31.014A1.123,1.123,0,0,1,14.989,29.9Z" fill="#c3d3a2" fill-rule="evenodd"/>
          <path id="Path_1276516" data-name="Path 1276516" d="M14.683,41.073h2.193a.814.814,0,0,0,.811-.811V39.12a.805.805,0,0,0-.811-.811H14.683a.814.814,0,0,0-.811.811v1.143a.823.823,0,0,0,.811.811Z" fill="#c3d3a2" fill-rule="evenodd"/>
        </g>
        <path id="Path_1276517" data-name="Path 1276517" d="M58.946,13.527l4.332,1.156a.994.994,0,0,1,.7,1.209L60.607,28.5a3.1,3.1,0,0,1,1.555,2.684V52.581a1,1,0,0,1-.292.7l-7.441,7.441a.988.988,0,0,1-.691.292h-17.7a3.108,3.108,0,0,1-3.1-3.1V57.4H32.7a3.1,3.1,0,0,1-3.1-3.083v-1.9a103.969,103.969,0,0,1-23.52-1.236c-2.857-.439-2.724-4.784.173-5.222-.332-8.026,1.688-14.125,4.917-18.231a16.409,16.409,0,0,1,8.345-5.78,2.945,2.945,0,0,1,.664-4.053C17.926,15.972,16.7,12.544,16.5,9.235a.991.991,0,0,1,1.289-1A2.494,2.494,0,0,0,20.3,7.375a.979.979,0,0,1,1.515.013,2.436,2.436,0,0,0,3.84-.013.979.979,0,0,1,1.515.013,2.454,2.454,0,0,0,2.538.85.99.99,0,0,1,1.249,1.01c-.213,3.322-1.422,6.737-3.681,8.664a2.948,2.948,0,0,1,.625,4.119,15.511,15.511,0,0,1,4.7,2.365V13.554A3.465,3.465,0,0,1,36.064,10.1h15.1a3.465,3.465,0,0,1,3.455,3.455V24.49h.372l2.751-10.258a.994.994,0,0,1,1.209-.7Zm1.09,17.1L57.8,38.947a.99.99,0,0,1-.146.319L54.6,44.037H55.81a.983.983,0,1,1,0,1.967H46.123a.983.983,0,0,1,0-1.967H51.77l-.213-5.608H46.123a.983.983,0,1,1,0-1.967h5.661L53.5,30.084H36.037A1.123,1.123,0,0,0,34.921,31.2V57.936a1.123,1.123,0,0,0,1.116,1.116h16.7V54.707a3.108,3.108,0,0,1,3.1-3.1h4.345V31.187A1.165,1.165,0,0,0,60.036,30.629ZM54.016,28.1l.439-1.648H32.7a1.123,1.123,0,0,0-1.116,1.116V54.308A1.123,1.123,0,0,0,32.7,55.425h.239V31.187a3.1,3.1,0,0,1,3.1-3.083Zm7.8-11.76-2.432-.651L53.5,37.645l.159,4.186,2.272-3.548ZM46.123,53.578a.981.981,0,0,1-.983-.983.992.992,0,0,1,.983-1h4.305a1,1,0,0,1,1,1,.984.984,0,0,1-1,.983Zm-7.667-4.97H43.08a.992.992,0,0,1,1,.983v4.624a1,1,0,0,1-1,1H38.456a.984.984,0,0,1-.983-1V49.591A.981.981,0,0,1,38.456,48.608Zm3.628,1.967H39.439v2.644h2.644Zm-3.628-9.833H43.08a.992.992,0,0,1,1,.983v4.624a1,1,0,0,1-1,1H38.456a.984.984,0,0,1-.983-1V41.725A.981.981,0,0,1,38.456,40.741Zm3.628,1.967H39.439v2.644h2.644Zm-3.628-9.833H43.08a.992.992,0,0,1,1,.983v4.624a1,1,0,0,1-1,1H38.456a.984.984,0,0,1-.983-1V33.858a.981.981,0,0,1,.983-.983Zm3.628,1.967H39.439v2.644h2.644Zm16.7,18.736h-2.95a1.123,1.123,0,0,0-1.116,1.116v2.963ZM29.606,50.442V27.586a3.093,3.093,0,0,1,.943-2.219,13.068,13.068,0,0,0-7.774-1.98,14.047,14.047,0,0,0-10.059,5.554c-3.07,3.92-4.943,9.873-4.438,17.846A.987.987,0,0,1,7.3,47.9c-.492,0-.983-.08-1.209.332-.186.319-.159.93.292,1a102.106,102.106,0,0,0,23.228,1.209ZM34.589,24.49H52.647V18.936h-5.74v2.857a.984.984,0,0,1-1,.983H41.326a.981.981,0,0,1-.983-.983V18.936H34.6V24.49Zm-9.86,18.524v1.169a.99.99,0,1,1-1.98,0V43.014a4.045,4.045,0,0,1-3.056-3.92.981.981,0,0,1,.983-.983.992.992,0,0,1,1,.983,2.066,2.066,0,0,0,4.133,0c0-1.541-1.143-1.82-2.3-2.086-1.9-.452-3.814-.9-3.814-4.013a4.042,4.042,0,0,1,3.056-3.92V27.9a.99.99,0,0,1,1.98,0v1.169a4.045,4.045,0,0,1,3.056,3.92.983.983,0,0,1-1.967,0,2.06,2.06,0,1,0-4.119,0c0,1.541,1.143,1.82,2.286,2.086,1.9.452,3.814.9,3.814,4.013A4.1,4.1,0,0,1,24.729,43.014ZM21.939,21.248h3.588a.983.983,0,0,0,.691-1.674,1,1,0,0,0-.691-.292H21.939a.983.983,0,0,0-.691,1.674A.965.965,0,0,0,21.939,21.248Zm5.2-6.113a11.355,11.355,0,0,0,1.754-4.85,4.329,4.329,0,0,1-2.458-.917,4.331,4.331,0,0,1-5.355,0,4.329,4.329,0,0,1-2.458.917,11.355,11.355,0,0,0,1.754,4.85C22.337,18.045,25.141,18.045,27.134,15.135Zm14.192-.5h4.6a.992.992,0,0,1,1,.983v1.342h5.74v-3.4a1.494,1.494,0,0,0-1.488-1.488h-15.1A1.483,1.483,0,0,0,34.6,13.554v3.4h5.74V15.613A.973.973,0,0,1,41.326,14.63Zm3.6,1.98H42.309v4.2h2.618Z" fill="#010101"/>
      </g>
    </g>
  </g>
</svg>
