<svg xmlns="http://www.w3.org/2000/svg" xmlns:xlink="http://www.w3.org/1999/xlink" width="90" height="90" viewBox="0 0 90 90">
  <defs>
    <clipPath id="clip-path">
      <rect id="Rectangle_412058" data-name="Rectangle 412058" width="60" height="61" transform="translate(792.782 1571)" fill="#fff" stroke="#707070" stroke-width="1"/>
    </clipPath>
  </defs>
  <g id="Group_1204102" data-name="Group 1204102" transform="translate(-777.513 -1556.46)">
    <g id="Path_1275908" data-name="Path 1275908" transform="translate(777.513 1556.46)" fill="#caedb8">
      <path d="M 75 88.5 L 15 88.5 C 11.39401245117188 88.5 8.003874778747559 87.09574890136719 5.454062461853027 84.54593658447266 C 2.904249906539917 81.99612426757812 1.5 78.60598754882812 1.5 75 L 1.5 15 C 1.5 11.39401245117188 2.904249906539917 8.003874778747559 5.454062461853027 5.454062461853027 C 8.003874778747559 2.904249906539917 11.39401245117188 1.5 15 1.5 L 75 1.5 C 78.60598754882812 1.5 81.99612426757812 2.904249906539917 84.54593658447266 5.454062461853027 C 87.09574890136719 8.003874778747559 88.5 11.39401245117188 88.5 15 L 88.5 75 C 88.5 78.60598754882812 87.09574890136719 81.99612426757812 84.54593658447266 84.54593658447266 C 81.99612426757812 87.09574890136719 78.60598754882812 88.5 75 88.5 Z" stroke="none"/>
      <path d="M 15 3 C 11.79468536376953 3 8.781211853027344 4.248214721679688 6.514717102050781 6.514717102050781 C 4.248214721679688 8.781211853027344 3 11.79468536376953 3 15 L 3 75 C 3 78.20531463623047 4.248214721679688 81.21878814697266 6.514717102050781 83.48528289794922 C 8.781211853027344 85.75178527832031 11.79468536376953 87 15 87 L 75 87 C 78.20531463623047 87 81.21878814697266 85.75178527832031 83.48528289794922 83.48528289794922 C 85.75178527832031 81.21878814697266 87 78.20531463623047 87 75 L 87 15 C 87 11.79468536376953 85.75178527832031 8.781211853027344 83.48528289794922 6.514717102050781 C 81.21878814697266 4.248214721679688 78.20531463623047 3 75 3 L 15 3 M 15 0 L 75 0 C 83.28427124023438 0 90 6.715728759765625 90 15 L 90 75 C 90 83.28427124023438 83.28427124023438 90 75 90 L 15 90 C 6.715728759765625 90 0 83.28427124023438 0 75 L 0 15 C 0 6.715728759765625 6.715728759765625 0 15 0 Z" stroke="none" fill="#569338"/>
    </g>
    <g id="Mask_Group_1200909" data-name="Mask Group 1200909" clip-path="url(#clip-path)">
      <g id="report_1149150" transform="translate(792.782 1571.715)">
        <path id="Path_1276324" data-name="Path 1276324" d="M.882,5.4V52.61A5.993,5.993,0,0,0,6.874,58.6H45.617V2.041a1.1,1.1,0,0,0-1.1-1.1H1.984a1.1,1.1,0,0,0-1.1,1.1Zm0,0" fill="#ffc14f"/>
        <path id="Path_1276325" data-name="Path 1276325" d="M9.035,9.153V58.477c0,.043,0,.085,0,.126h36.58V4.494H10.187A1.148,1.148,0,0,0,9.039,5.642Zm0,0" fill="#ffb52d"/>
        <path id="Path_1276326" data-name="Path 1276326" d="M51.421,9.111V52.834A5.784,5.784,0,0,1,45.655,58.6H6.894l.6-.043a5.786,5.786,0,0,0,5.062-5.723V9.111a1.1,1.1,0,0,1,1.095-1.1H50.322a1.1,1.1,0,0,1,1.1,1.1Zm0,0" fill="#ffe1aa"/>
        <path id="Path_1276327" data-name="Path 1276327" d="M51.421,9.111V52.834A5.784,5.784,0,0,1,45.655,58.6H11.864l.6-.043a5.786,5.786,0,0,0,5.062-5.723V9.111a1.1,1.1,0,0,1,1.087-1.1H50.322a1.1,1.1,0,0,1,1.1,1.1Zm0,0" fill="#ffe7c0"/>
        <path id="Path_1276328" data-name="Path 1276328" d="M25.552,29.72V37.6h-4.61a.406.406,0,0,1-.406-.406V29.72a.658.658,0,0,1,.658-.658h3.7a.658.658,0,0,1,.658.658Zm0,0" fill="#0a66ea"/>
        <path id="Path_1276329" data-name="Path 1276329" d="M30.569,25.641V37.6H25.552V25.641a.658.658,0,0,1,.658-.658h3.7a.658.658,0,0,1,.658.658Zm0,0" fill="#1ed688"/>
        <path id="Path_1276330" data-name="Path 1276330" d="M35.587,21.577V37.6H30.569V21.577a.562.562,0,0,1,.593-.525h3.831a.562.562,0,0,1,.593.525Zm0,0" fill="#f44545"/>
        <path id="Path_1276331" data-name="Path 1276331" d="M40.6,17.347V37.6H35.586V17.347a.562.562,0,0,1,.592-.525H40.01a.562.562,0,0,1,.593.525Zm0,0" fill="#ffa90b"/>
        <path id="Path_1276332" data-name="Path 1276332" d="M45.62,13.118V37.6H40.6V13.118a.562.562,0,0,1,.593-.525h3.831A.562.562,0,0,1,45.62,13.118Zm0,0" fill="#5596fb"/>
        <path id="Path_1276333" data-name="Path 1276333" d="M51.1,41.465a.856.856,0,0,0,.453.6,8.818,8.818,0,0,1,4.771,7.812v3.933a2.812,2.812,0,0,1-2.8,2.8H41.537a2.812,2.812,0,0,1-2.8-2.8V49.881a8.816,8.816,0,0,1,4.77-7.812.854.854,0,0,0,.446-.569.863.863,0,0,0-.446-.974c-.05-.026-.1-.053-.152-.082a8.806,8.806,0,0,1-4.618-7.73V28.781a2.812,2.812,0,0,1,2.8-2.8H53.519a2.812,2.812,0,0,1,2.8,2.8v3.932a8.817,8.817,0,0,1-4.771,7.812.859.859,0,0,0-.453.939Zm0,0" fill="#d2d2d7"/>
        <path id="Path_1276334" data-name="Path 1276334" d="M51.1,41.465a.856.856,0,0,0,.453.6,8.818,8.818,0,0,1,4.771,7.812v3.933a2.812,2.812,0,0,1-2.8,2.8H45.065a2.812,2.812,0,0,1-2.8-2.8V49.881a8.817,8.817,0,0,1,4.77-7.812.868.868,0,0,0,0-1.543c-.05-.026-.1-.053-.152-.082a8.807,8.807,0,0,1-4.619-7.73V28.781a2.812,2.812,0,0,1,2.8-2.8h8.454a2.812,2.812,0,0,1,2.8,2.8v3.932a8.817,8.817,0,0,1-4.771,7.812.859.859,0,0,0-.453.939Zm0,0" fill="#ebebf0"/>
        <path id="Path_1276335" data-name="Path 1276335" d="M56.185,34.262a8.848,8.848,0,0,1-4.634,6.264.867.867,0,0,0-.124.076l-3.435,1.833a.963.963,0,0,1-.905,0l-3.734-1.992a8.833,8.833,0,0,1-4.481-6.181Zm0,0" fill="#35e298"/>
        <path id="Path_1276336" data-name="Path 1276336" d="M54.948,54.229H39.566a20.491,20.491,0,0,1,2.7-2.563,16.322,16.322,0,0,1,2.786-1.787,5.184,5.184,0,0,1,4.723.036,15,15,0,0,1,5.177,4.314Zm0,0" fill="#35e298"/>
        <path id="Path_1276337" data-name="Path 1276337" d="M47.478,41.5a.856.856,0,0,1-.446.569c-.1.054-.209.11-.311.172l-3.368-1.8a8.833,8.833,0,0,1-4.481-6.181H42.4a8.832,8.832,0,0,0,4.481,6.181c.05.029.1.056.152.082a.863.863,0,0,1,.446.974Zm0,0" fill="#1ed688"/>
        <path id="Path_1276338" data-name="Path 1276338" d="M42.292,54.229H39.566a20.492,20.492,0,0,1,2.7-2.563v2.148a2.9,2.9,0,0,0,.031.415Zm0,0" fill="#1ed688"/>
        <path id="Path_1276339" data-name="Path 1276339" d="M59.157,26.335A2.373,2.373,0,0,1,56.789,28.7H38.266a2.368,2.368,0,0,1,0-4.735H56.789A2.374,2.374,0,0,1,59.157,26.335Zm0,0" fill="#ae583e"/>
        <path id="Path_1276340" data-name="Path 1276340" d="M59.157,26.335H41.1a2.375,2.375,0,0,1-2.368-2.368H56.789A2.374,2.374,0,0,1,59.157,26.335Zm0,0" fill="#c0694e"/>
        <path id="Path_1276341" data-name="Path 1276341" d="M59.157,56.261a2.375,2.375,0,0,1-2.368,2.368H38.266a2.368,2.368,0,0,1,0-4.736H56.789a2.375,2.375,0,0,1,2.243,1.613A2.335,2.335,0,0,1,59.157,56.261Zm0,0" fill="#ae583e"/>
        <path id="Path_1276342" data-name="Path 1276342" d="M59.157,56.261a2.375,2.375,0,0,1-2.368,2.368H38.859A2.372,2.372,0,0,1,41.1,55.506h17.93A2.335,2.335,0,0,1,59.157,56.261Zm0,0" fill="#c0694e"/>
        <path id="Path_1276343" data-name="Path 1276343" d="M16.569,42.378H39.144a.882.882,0,1,0,0-1.764H16.569a.882.882,0,1,0,0,1.764Zm0,0"/>
        <path id="Path_1276344" data-name="Path 1276344" d="M36.78,45.724a.882.882,0,0,0-.882-.882H16.569a.882.882,0,1,0,0,1.764H35.9A.881.881,0,0,0,36.78,45.724Zm0,0"/>
        <path id="Path_1276345" data-name="Path 1276345" d="M34.872,49.07h-18.3a.882.882,0,1,0,0,1.764h18.3a.882.882,0,0,0,0-1.764Zm0,0"/>
        <path id="Path_1276346" data-name="Path 1276346" d="M33.383,53.3H16.569a.882.882,0,1,0,0,1.764H33.383a.882.882,0,0,0,0-1.764Zm0,0"/>
        <path id="Path_1276347" data-name="Path 1276347" d="M57.165,53.038V49.881A9.651,9.651,0,0,0,52.478,41.6a.353.353,0,0,1,0-.606,9.619,9.619,0,0,0,4.536-6.554,29.6,29.6,0,0,0,.155-4.883A3.253,3.253,0,0,0,60,26.387a3.309,3.309,0,0,0-3.32-3.3H52.3V9.111A1.981,1.981,0,0,0,50.323,7.13H46.5V2.041A1.983,1.983,0,0,0,44.517.059H32.887a.9.9,0,0,0-.9.767.883.883,0,0,0,.875,1H44.518a.218.218,0,0,1,.217.217V7.13H13.651A1.985,1.985,0,0,0,11.67,9.111V52.834c0,4.7-4.987,4.984-4.8,4.887A5.112,5.112,0,0,1,1.764,52.61c0-53.338,0-50.413,0-50.569a.218.218,0,0,1,.219-.219H29.293a.906.906,0,0,0,.918-.854.882.882,0,0,0-.882-.91H1.985A1.986,1.986,0,0,0,0,2.04c0,.013,0,50.552,0,50.57a6.883,6.883,0,0,0,6.875,6.875c60.584-.005-10.782-.006,49.875.026a3.25,3.25,0,0,0,.415-6.473ZM55.4,49.881v3.13h-.322a14.949,14.949,0,0,0-2.774-2.547,0,0,0,0,1,0,0A.882.882,0,0,0,51.276,51.9a14.3,14.3,0,0,1,1.371,1.114H41.99A16.256,16.256,0,0,1,45.4,50.667a4.372,4.372,0,0,1,3.065-.307.882.882,0,1,0,.466-1.7,6.11,6.11,0,0,0-4.32.43,19.146,19.146,0,0,0-5.037,3.78V49.881a7.9,7.9,0,0,1,4.293-7.029,1.744,1.744,0,0,0,.735-.72l1.962,1.046v1.232a.882.882,0,0,0,1.764,0V43.233c.088-.045,1.13-.6,2.045-1.09h0a1.742,1.742,0,0,0,.729.708,7.906,7.906,0,0,1,4.3,7.03Zm-7.863-8.224a.081.081,0,0,1-.076,0c-3.493-1.859-6.31-2.823-7.5-6.513h15.06c-1.176,3.627-4.026,4.673-7.48,6.513Zm7.834-8.277H39.605c-.048-.561-.02-.695-.028-3.8H55.4c-.008,3.112.019,3.236-.028,3.8Zm1.377-8.532a1.486,1.486,0,1,1,0,2.971c-20.176,0-18.741.086-19.232-.181a1.486,1.486,0,0,1,.709-2.791ZM38.682,36.72H36.433V29.043a3.229,3.229,0,0,0,1.381.514c.035,2.867-.266,4.677.869,7.163ZM36.433,23.627V17.7h3.253v5.381C38.353,23.1,37.488,22.926,36.433,23.627Zm5.017-.542v-9.61H44.7v9.61ZM35.324,57.718H11.292a6.642,6.642,0,0,0,2.142-4.884l0-43.942H50.322a.218.218,0,0,1,.218.217V23.084H46.466V13.117a1.443,1.443,0,0,0-1.474-1.406H41.161a1.443,1.443,0,0,0-1.474,1.406V15.94H36.144a1.443,1.443,0,0,0-1.474,1.407V20.17H31.128a1.444,1.444,0,0,0-1.475,1.406V24.1H26.188a1.554,1.554,0,0,0-1.552,1.552v2.527h-3.31a1.709,1.709,0,0,0-1.707,1.707V37.6a.882.882,0,0,0,.882.882H39.727a9.768,9.768,0,0,0,3.31,2.814,9.661,9.661,0,0,0-5.223,8.584v3.157a3.252,3.252,0,0,0-2.489,4.681Zm-.655-35.785V36.72H31.416V21.934Zm-5.017,3.931V36.72H26.4V25.865Zm-5.016,4.079V36.72H21.383V29.943Zm32.114,27.8c-.193,0,2.248.006-18.808-.028a1.487,1.487,0,0,1,.005-2.917H57.031a1.486,1.486,0,0,1-.281,2.945Zm0,0"/>
      </g>
    </g>
  </g>
</svg>
