<svg xmlns="http://www.w3.org/2000/svg" xmlns:xlink="http://www.w3.org/1999/xlink" width="90" height="90" viewBox="0 0 90 90">
  <defs>
    <clipPath id="clip-path">
      <rect id="Rectangle_412065" data-name="Rectangle 412065" width="60" height="61" transform="translate(612.768 2806.079)" fill="#fff" stroke="#707070" stroke-width="1"/>
    </clipPath>
  </defs>
  <g id="Group_1204202" data-name="Group 1204202" transform="translate(-597.5 -2791.539)">
    <g id="Path_1275912" data-name="Path 1275912" transform="translate(597.5 2791.539)" fill="#ffc94a">
      <path d="M 75 88.5 L 15 88.5 C 11.39401245117188 88.5 8.003874778747559 87.09574890136719 5.454062461853027 84.54593658447266 C 2.904249906539917 81.99612426757812 1.5 78.60598754882812 1.5 75 L 1.5 15 C 1.5 11.39401245117188 2.904249906539917 8.003874778747559 5.454062461853027 5.454062461853027 C 8.003874778747559 2.904249906539917 11.39401245117188 1.5 15 1.5 L 75 1.5 C 78.60598754882812 1.5 81.99612426757812 2.904249906539917 84.54593658447266 5.454062461853027 C 87.09574890136719 8.003874778747559 88.5 11.39401245117188 88.5 15 L 88.5 75 C 88.5 78.60598754882812 87.09574890136719 81.99612426757812 84.54593658447266 84.54593658447266 C 81.99612426757812 87.09574890136719 78.60598754882812 88.5 75 88.5 Z" stroke="none"/>
      <path d="M 15 3 C 11.79468536376953 3 8.781211853027344 4.248214721679688 6.514717102050781 6.514717102050781 C 4.248214721679688 8.781211853027344 3 11.79468536376953 3 15 L 3 75 C 3 78.20531463623047 4.248214721679688 81.21878814697266 6.514717102050781 83.48528289794922 C 8.781211853027344 85.75178527832031 11.79468536376953 87 15 87 L 75 87 C 78.20531463623047 87 81.21878814697266 85.75178527832031 83.48528289794922 83.48528289794922 C 85.75178527832031 81.21878814697266 87 78.20531463623047 87 75 L 87 15 C 87 11.79468536376953 85.75178527832031 8.781211853027344 83.48528289794922 6.514717102050781 C 81.21878814697266 4.248214721679688 78.20531463623047 3 75 3 L 15 3 M 15 0 L 75 0 C 83.28427124023438 0 90 6.715728759765625 90 15 L 90 75 C 90 83.28427124023438 83.28427124023438 90 75 90 L 15 90 C 6.715728759765625 90 0 83.28427124023438 0 75 L 0 15 C 0 6.715728759765625 6.715728759765625 0 15 0 Z" stroke="none" fill="#b18c32"/>
    </g>
    <g id="Mask_Group_1200933" data-name="Mask Group 1200933" clip-path="url(#clip-path)">
      <g id="transition_11333993" transform="translate(611.8 2805.611)">
        <g id="Group_1204198" data-name="Group 1204198">
          <g id="Group_1204195" data-name="Group 1204195">
            <path id="Path_1276760" data-name="Path 1276760" d="M44.291,5.186a16.739,16.739,0,0,1,4.9,2.032L52.378,5.8l3.754,3.754-1.414,3.184a16.737,16.737,0,0,1,2.033,4.9L60,18.9V24.2l-3.25,1.251a16.739,16.739,0,0,1-2.032,4.9l1.415,3.185L52.378,37.3l-3.184-1.414a16.733,16.733,0,0,1-4.9,2.032l-1.251,3.25H37.732l-1.251-3.25a16.742,16.742,0,0,1-4.9-2.032L28.394,37.3,24.64,33.543l1.414-3.184a16.74,16.74,0,0,1-2.033-4.9L20.772,24.2V18.9l3.25-1.251a16.739,16.739,0,0,1,2.032-4.9L24.639,9.558,28.393,5.8l3.185,1.415a16.739,16.739,0,0,1,4.9-2.032l1.251-3.25H43.04Z" fill="#a79ba7" fill-rule="evenodd"/>
            <path id="Path_1276761" data-name="Path 1276761" d="M31.579,35.882,28.393,37.3l-.49-.49,2.986-1.326q.34.209.689.4Zm12.713-30.7a16.739,16.739,0,0,1,4.9,2.032l-.905.4A22.076,22.076,0,0,0,42.7,5.186l-1.251-3.25H43.04Zm4.9,30.7a16.733,16.733,0,0,1-4.9,2.032l-1.251,3.25H41.446l1.251-3.25a22.071,22.071,0,0,0,5.592-2.435ZM27.9,6.294l.49-.49,3.185,1.415q-.349.193-.689.4Zm23.371,0,1.1-.49,3.754,3.754-1.414,3.184a16.737,16.737,0,0,1,2.033,4.9L60,18.9V24.2l-3.25,1.251a16.739,16.739,0,0,1-2.032,4.9l1.415,3.185L52.378,37.3l-1.1-.49,3.264-3.264-1.415-3.185a16.743,16.743,0,0,0,2.032-4.9l3.25-1.251V18.9l-3.25-1.251a16.737,16.737,0,0,0-2.032-4.9l1.414-3.184Z" fill="#837683" fill-rule="evenodd"/>
            <ellipse id="Ellipse_12509" data-name="Ellipse 12509" cx="13.182" cy="13.182" rx="13.182" ry="13.182" transform="translate(21.737 21.552) rotate(-45)" fill="#eceff1"/>
            <path id="Path_1276762" data-name="Path 1276762" d="M40.386,8.367a13.184,13.184,0,0,0,0,26.367q.529,0,1.049-.041a13.184,13.184,0,0,1,0-26.284q-.519-.041-1.049-.041Z" fill="#d1d1d6" fill-rule="evenodd"/>
          </g>
          <g id="Group_1204196" data-name="Group 1204196">
            <path id="Path_1276763" data-name="Path 1276763" d="M25.455,24.022a16.739,16.739,0,0,1,4.9,2.032l3.185-1.415L37.3,28.394l-1.414,3.184a16.737,16.737,0,0,1,2.033,4.9l3.25,1.251v5.309l-3.25,1.251a16.74,16.74,0,0,1-2.032,4.9L37.3,52.379l-3.754,3.754-3.184-1.414a16.733,16.733,0,0,1-4.9,2.032L24.2,60H18.9l-1.251-3.25a16.742,16.742,0,0,1-4.9-2.032L9.558,56.133,5.8,52.379l1.414-3.184a16.741,16.741,0,0,1-2.032-4.9l-3.25-1.251V37.732l3.25-1.251a16.739,16.739,0,0,1,2.032-4.9L5.8,28.394,9.557,24.64l3.185,1.415a16.739,16.739,0,0,1,4.9-2.032l1.251-3.25H24.2Z" fill="#ffe177" fill-rule="evenodd"/>
            <path id="Path_1276764" data-name="Path 1276764" d="M12.743,54.718,9.557,56.133l-.49-.49,2.986-1.326q.34.209.689.4Zm12.713-30.7a16.739,16.739,0,0,1,4.9,2.032l-.905.4a22.076,22.076,0,0,0-5.591-2.434l-1.251-3.25H24.2Zm4.9,30.7a16.733,16.733,0,0,1-4.9,2.032L24.2,60H22.61l1.251-3.25a22.071,22.071,0,0,0,5.592-2.435ZM9.067,25.13l.49-.49,3.185,1.415q-.349.193-.689.4Zm23.371,0,1.1-.49L37.3,28.394l-1.414,3.184a16.737,16.737,0,0,1,2.033,4.9l3.25,1.251v5.309l-3.25,1.251a16.74,16.74,0,0,1-2.032,4.9L37.3,52.379l-3.754,3.754-1.1-.49L35.7,52.379l-1.415-3.185a16.743,16.743,0,0,0,2.032-4.9l3.25-1.251V37.732l-3.25-1.251a16.737,16.737,0,0,0-2.032-4.9L35.7,28.394Z" fill="#ffd064" fill-rule="evenodd"/>
            <circle id="Ellipse_12510" data-name="Ellipse 12510" cx="13.182" cy="13.182" r="13.182" transform="translate(2.901 40.384) rotate(-45)" fill="#eceff1"/>
            <path id="Path_1276765" data-name="Path 1276765" d="M21.55,27.2a13.184,13.184,0,0,0,0,26.367q.529,0,1.049-.041a13.184,13.184,0,0,1,0-26.284Q22.08,27.2,21.55,27.2Z" fill="#d1d1d6" fill-rule="evenodd"/>
          </g>
          <g id="Group_1204197" data-name="Group 1204197">
            <path id="Path_1276766" data-name="Path 1276766" d="M41.637,13.131,40.579,21.1a.363.363,0,0,1-.616.209l-1.144-1.144a.364.364,0,0,0-.513,0l-10.95,10.95a.364.364,0,0,1-.513,0l-3.6-3.6a.364.364,0,0,1,0-.513l10.95-10.95a.364.364,0,0,0,0-.513L33.048,14.4a.363.363,0,0,1,.209-.616l7.972-1.058a.363.363,0,0,1,.407.407Z" fill="#8ac9fe" fill-rule="evenodd"/>
            <path id="Path_1276767" data-name="Path 1276767" d="M41.637,13.131l-.069.519h0a.352.352,0,0,0-.3-.1L33.29,14.6l-.031.005-.211-.211a.363.363,0,0,1,.209-.616l7.972-1.058a.363.363,0,0,1,.407.407ZM23.413,27.689l-.171-.171a.364.364,0,0,1,0-.513L34.277,15.921l.171.171a.364.364,0,0,1,0,.513Z" fill="#60b7ff" fill-rule="evenodd"/>
            <path id="Path_1276768" data-name="Path 1276768" d="M21.03,47.955l1.058-7.972a.363.363,0,0,1,.616-.209l1.144,1.144a.364.364,0,0,0,.513,0l10.95-10.95a.364.364,0,0,1,.513,0l3.6,3.6a.364.364,0,0,1,0,.513l-10.95,10.95a.364.364,0,0,0,0,.513l1.144,1.144a.363.363,0,0,1-.209.616l-7.972,1.058a.363.363,0,0,1-.407-.407Z" fill="#fe646f" fill-rule="evenodd"/>
            <path id="Path_1276769" data-name="Path 1276769" d="M21.03,47.955l.064-.478,7.8-1.035a.354.354,0,0,0,.278-.2l.445.445a.363.363,0,0,1-.209.616l-7.972,1.058a.363.363,0,0,1-.407-.408ZM38.979,33.122l.446.446a.364.364,0,0,1,0,.513L28.438,45.168a.369.369,0,0,0-.068.1l-.446-.446a.364.364,0,0,1,0-.513L38.911,33.217a.366.366,0,0,0,.068-.1Z" fill="#fd4755" fill-rule="evenodd"/>
          </g>
        </g>
        <path id="Path_1276770" data-name="Path 1276770" d="M40.005,25.275a.969.969,0,0,1,0-1.369l2.51-2.509a.968.968,0,0,1,1.368,1.368l-2.51,2.51a.967.967,0,0,1-1.368,0Zm4.113,2.744a.968.968,0,0,0,1.368,1.369L48,26.878a.968.968,0,0,0-1.368-1.369Zm-.174-1.2a.968.968,0,0,0-1.369-1.368L39.524,28.5a.968.968,0,0,0,1.368,1.369ZM22.662,35.81a.968.968,0,0,1,0,1.368l-2.51,2.51a.967.967,0,1,1-1.368-1.368l2.509-2.51A.968.968,0,0,1,22.662,35.81Zm-4.113-2.745A.967.967,0,0,0,17.181,31.7l-2.51,2.51a.967.967,0,1,0,1.368,1.368Zm.174,1.2a.968.968,0,0,0,1.368,1.369l3.052-3.052a.967.967,0,0,0-1.368-1.368ZM59.032,23.54V19.559L56.4,18.548a.971.971,0,0,1-.594-.68,15.742,15.742,0,0,0-1.915-4.62.969.969,0,0,1-.061-.9l1.146-2.577L52.164,6.958,49.586,8.1a.967.967,0,0,1-.9-.06,15.754,15.754,0,0,0-4.619-1.915.963.963,0,0,1-.679-.594L42.376,2.9H38.4l-1.012,2.63a.967.967,0,0,1-.68.594,15.757,15.757,0,0,0-4.618,1.915.968.968,0,0,1-.9.06L28.607,6.958,25.794,9.772l1.144,2.578a.969.969,0,0,1-.061.9,15.769,15.769,0,0,0-1.915,4.619.97.97,0,0,1-.594.68l-2.63,1.011V19.8H24.2a.969.969,0,0,1,.9.621l.929,2.416.237-.236c-.027-.351-.04-.7-.04-1.053A14.151,14.151,0,1,1,40.386,35.7c-.388,0-.779-.017-1.166-.048l-.212.212,2.5.964a.966.966,0,0,1,.621.9V40.2h.244l1.011-2.63a.968.968,0,0,1,.68-.594,15.736,15.736,0,0,0,4.62-1.915.967.967,0,0,1,.9-.061l2.577,1.144,2.815-2.814L53.833,30.75a.968.968,0,0,1,.061-.9,15.766,15.766,0,0,0,1.915-4.619.969.969,0,0,1,.594-.68ZM43.417,30.088a.968.968,0,0,1,0,1.368l-2.286,2.286A12.216,12.216,0,1,0,28.2,20.677l4.88-4.88-1.237-1.237a.968.968,0,0,1,.557-1.644l9.17-1.216a.966.966,0,0,1,1.086,1.086l-1.216,9.17a.968.968,0,0,1-1.644.556l-1.237-1.236-7.8,7.8a12.221,12.221,0,0,0,2.027,2.044l2.091-2.09h0l3.052-3.052a.968.968,0,0,1,1.368,1.369l-2.367,2.367,2.743,2.745,2.367-2.367a.967.967,0,0,1,1.369,0ZM27.533,44.6l9.517-9.516.006-.006,1.129-1.129.005-.005.124-.124L35.569,31.08,24.79,41.859a.967.967,0,0,1-1.369,0l-.535-.535L22.094,47.3l5.974-.793-.535-.535a.968.968,0,0,1,0-1.368Zm-.772-19.75-2.407,2.408L27.1,30,28.3,28.8l0,0,9.57-9.57a.969.969,0,0,1,1.368,0l.536.535.792-5.974-5.976.794.536.535a.968.968,0,0,1,0,1.368l-8.371,8.37s0,0,0,0ZM19.25,31a.968.968,0,0,1,0-1.368L20.677,28.2a12.216,12.216,0,1,0,13.066,12.93l-4.156,4.155,1.237,1.236a.968.968,0,0,1-.557,1.644L21.1,49.384A.967.967,0,0,1,20.009,48.3l1.216-9.17a.968.968,0,0,1,1.644-.558l1.237,1.236,7.013-7.013a12.233,12.233,0,0,0-2.042-2.027l-1.293,1.292h0L24.73,35.11a.968.968,0,1,1-1.368-1.369l2.367-2.367L22.986,28.63,20.618,31a.969.969,0,0,1-1.368,0ZM40.2,42.376V38.4l-2.629-1.012-.052-.024-1.861,1.86c.031.387.048.778.048,1.166A14.151,14.151,0,1,1,21.551,26.234c.351,0,.7.015,1.053.04l1.937-1.936-1-2.6H19.56L18.548,24.37a.967.967,0,0,1-.68.593,15.768,15.768,0,0,0-4.619,1.915.965.965,0,0,1-.9.06L9.772,25.794,6.958,28.608,8.1,31.185a.97.97,0,0,1-.06.9A15.745,15.745,0,0,0,6.127,36.7a.97.97,0,0,1-.594.68L2.9,38.4v3.98l2.63,1.011a.97.97,0,0,1,.594.68,15.741,15.741,0,0,0,1.915,4.62.97.97,0,0,1,.06.9L6.958,52.164l2.814,2.815,2.578-1.146a.968.968,0,0,1,.9.06,15.78,15.78,0,0,0,4.619,1.915.968.968,0,0,1,.68.594l1.012,2.63h3.98l1.011-2.63a.968.968,0,0,1,.68-.594,15.708,15.708,0,0,0,4.619-1.915.968.968,0,0,1,.9-.06l2.577,1.146,2.814-2.815L35,49.586a.97.97,0,0,1,.06-.9,15.768,15.768,0,0,0,1.915-4.619.964.964,0,0,1,.594-.679ZM60.347,17.993l-2.782-1.072a17.714,17.714,0,0,0-1.759-4.245l1.211-2.727a.967.967,0,0,0-.2-1.076L53.062,5.119a.969.969,0,0,0-1.077-.2L49.258,6.131a17.645,17.645,0,0,0-4.244-1.76L43.943,1.589a.968.968,0,0,0-.9-.621H37.731a.967.967,0,0,0-.9.621L35.757,4.371a17.677,17.677,0,0,0-4.244,1.76L28.787,4.918a.97.97,0,0,0-1.078.2L23.955,8.873a.967.967,0,0,0-.2,1.076l1.212,2.728a17.666,17.666,0,0,0-1.76,4.244l-2.782,1.072a.965.965,0,0,0-.621.9V19.8h-.909a.968.968,0,0,0-.9.621l-1.072,2.783a17.674,17.674,0,0,0-4.244,1.76L9.951,23.755a.97.97,0,0,0-1.078.2L5.119,27.709a.97.97,0,0,0-.2,1.078L6.13,31.513a17.637,17.637,0,0,0-1.76,4.244L1.588,36.829a.967.967,0,0,0-.62.9v5.31a.969.969,0,0,0,.62.9l2.783,1.07a17.691,17.691,0,0,0,1.759,4.245L4.918,51.985a.969.969,0,0,0,.2,1.077l3.754,3.753a.969.969,0,0,0,1.078.2L12.677,55.8a17.665,17.665,0,0,0,4.244,1.76l1.072,2.782a.967.967,0,0,0,.9.621H24.2a.968.968,0,0,0,.9-.621l1.07-2.782a17.7,17.7,0,0,0,4.245-1.759l2.727,1.211a.968.968,0,0,0,1.077-.2l3.753-3.753a.968.968,0,0,0,.2-1.077l-1.212-2.727a17.63,17.63,0,0,0,1.76-4.244l2.783-1.072a.965.965,0,0,0,.621-.9v-.909h.908a.968.968,0,0,0,.9-.621l1.071-2.782a17.7,17.7,0,0,0,4.245-1.759l2.726,1.211a.967.967,0,0,0,1.077-.2l3.754-3.753a.969.969,0,0,0,.2-1.078l-1.211-2.727a17.708,17.708,0,0,0,1.759-4.244l2.782-1.072a.966.966,0,0,0,.621-.9V18.9a.965.965,0,0,0-.621-.9Z" fill="#242222" fill-rule="evenodd"/>
      </g>
    </g>
  </g>
</svg>
