<svg xmlns="http://www.w3.org/2000/svg" xmlns:xlink="http://www.w3.org/1999/xlink" width="90" height="90" viewBox="0 0 90 90">
  <defs>
    <clipPath id="clip-path">
      <rect id="Rectangle_412100" data-name="Rectangle 412100" width="60" height="61" transform="translate(402.25 7073.473)" fill="#fff" stroke="#707070" stroke-width="1"/>
    </clipPath>
  </defs>
  <g id="Group_1204125" data-name="Group 1204125" transform="translate(-387.281 -7058.973)">
    <g id="Path_1275916" data-name="Path 1275916" transform="translate(387.281 7058.973)" fill="#caedb8">
      <path d="M 75 88.5 L 15 88.5 C 11.39401245117188 88.5 8.003874778747559 87.09574890136719 5.454062461853027 84.54593658447266 C 2.904249906539917 81.99612426757812 1.5 78.60598754882812 1.5 75 L 1.5 15 C 1.5 11.39401245117188 2.904249906539917 8.003874778747559 5.454062461853027 5.454062461853027 C 8.003874778747559 2.904249906539917 11.39401245117188 1.5 15 1.5 L 75 1.5 C 78.60598754882812 1.5 81.99612426757812 2.904249906539917 84.54593658447266 5.454062461853027 C 87.09574890136719 8.003874778747559 88.5 11.39401245117188 88.5 15 L 88.5 75 C 88.5 78.60598754882812 87.09574890136719 81.99612426757812 84.54593658447266 84.54593658447266 C 81.99612426757812 87.09574890136719 78.60598754882812 88.5 75 88.5 Z" stroke="none"/>
      <path d="M 15 3 C 11.79468536376953 3 8.781211853027344 4.248214721679688 6.514717102050781 6.514717102050781 C 4.248214721679688 8.781211853027344 3 11.79468536376953 3 15 L 3 75 C 3 78.20531463623047 4.248214721679688 81.21878814697266 6.514717102050781 83.48528289794922 C 8.781211853027344 85.75178527832031 11.79468536376953 87 15 87 L 75 87 C 78.20531463623047 87 81.21878814697266 85.75178527832031 83.48528289794922 83.48528289794922 C 85.75178527832031 81.21878814697266 87 78.20531463623047 87 75 L 87 15 C 87 11.79468536376953 85.75178527832031 8.781211853027344 83.48528289794922 6.514717102050781 C 81.21878814697266 4.248214721679688 78.20531463623047 3 75 3 L 15 3 M 15 0 L 75 0 C 83.28427124023438 0 90 6.715728759765625 90 15 L 90 75 C 90 83.28427124023438 83.28427124023438 90 75 90 L 15 90 C 6.715728759765625 90 0 83.28427124023438 0 75 L 0 15 C 0 6.715728759765625 6.715728759765625 0 15 0 Z" stroke="none" fill="#569338"/>
    </g>
    <g id="Mask_Group_1200913" data-name="Mask Group 1200913" clip-path="url(#clip-path)">
      <g id="analytics_1754958" transform="translate(402.25 7073.973)">
        <path id="Path_1276391" data-name="Path 1276391" d="M45.5,50.9,37.28,59.119H.881V.881H45.5Zm0,0" fill="#e4e8ed"/>
        <path id="Path_1276392" data-name="Path 1276392" d="M45.5,49.379V6.09a17.018,17.018,0,1,0-8.256,31.884q.815,0,1.625-.079Zm0,0" fill="#c8d1da"/>
        <path id="Path_1276393" data-name="Path 1276393" d="M42.105,32.934l3.05-1.761,2.973,5.148-3.051,1.761Zm0,0" fill="#58575b"/>
        <path id="Path_1276394" data-name="Path 1276394" d="M19.315,28h-4.7V19.9h4.7Zm0,0" fill="#ed9c87"/>
        <path id="Path_1276395" data-name="Path 1276395" d="M10.274,28h-4.7V8.161h4.7Zm0,0" fill="#faef93"/>
        <path id="Path_1276396" data-name="Path 1276396" d="M26.712,43.855A10.567,10.567,0,1,1,16.145,33.288,10.567,10.567,0,0,1,26.712,43.855Zm0,0" fill="#cfdbfa"/>
        <path id="Path_1276397" data-name="Path 1276397" d="M16.145,33.288V43.855l7.473,7.473a10.568,10.568,0,0,0-7.473-18.04Zm0,0" fill="#c7efbc"/>
        <path id="Path_1276398" data-name="Path 1276398" d="M43.972,32.644A13.5,13.5,0,1,1,48.914,14.2a13.518,13.518,0,0,1-4.942,18.446Zm0,0" fill="#faef93"/>
        <path id="Path_1276399" data-name="Path 1276399" d="M45.862,15.96A9.98,9.98,0,1,0,42.21,29.593,9.98,9.98,0,0,0,45.862,15.96Zm0,0" fill="#cfdbfa"/>
        <path id="Path_1276400" data-name="Path 1276400" d="M57.357,55.829a3.522,3.522,0,0,1-4.812-1.29L43.27,38.473l6.1-3.522,9.276,16.066a3.522,3.522,0,0,1-1.29,4.812Zm0,0" fill="#ed9c87"/>
        <path id="Path_1276401" data-name="Path 1276401" d="M42.211,26.072A9.985,9.985,0,0,1,27.4,19.2a9.98,9.98,0,1,0,19.648-.018A9.959,9.959,0,0,1,42.211,26.072Zm0,0" fill="#9eb6f4"/>
        <path id="Path_1276402" data-name="Path 1276402" d="M54.542,51.956,45.885,36.963l-2.616,1.51,9.276,16.066a3.522,3.522,0,0,0,6.518-1.144,3.523,3.523,0,0,1-4.522-1.439Zm0,0" fill="#e46a4a"/>
        <path id="Path_1276403" data-name="Path 1276403" d="M.881,55.6v3.522h36.4L40.8,55.6Zm0,0" fill="#c8d1da"/>
        <path id="Path_1276404" data-name="Path 1276404" d="M37.28,59.119V50.9H45.5Zm0,0" fill="#faef93"/>
        <path id="Path_1276405" data-name="Path 1276405" d="M48.045,14.458l1.511-.906a14.481,14.481,0,0,0-1.066-1.542L47.11,13.1a12.667,12.667,0,0,1,.935,1.354Zm0,0"/>
        <path id="Path_1276406" data-name="Path 1276406" d="M40.031,10.459A10.861,10.861,0,0,0,34.41,31.442a10.914,10.914,0,0,0,2.829.375A10.864,10.864,0,0,0,40.031,10.46ZM46.01,23.306a9.1,9.1,0,1,1-8.8-11.459,9.147,9.147,0,0,1,2.37.314A9.1,9.1,0,0,1,46.01,23.306Zm0,0"/>
        <path id="Path_1276407" data-name="Path 1276407" d="M59.41,50.577l-6.348-11-1.525.881,6.348,11A2.642,2.642,0,1,1,53.308,54.1L44.473,38.8l4.576-2.642,1.607,2.783,1.525-.881-2.487-4.308-1.525.881L46.576,31.87A14.461,14.461,0,0,0,51.6,20.928a14.221,14.221,0,0,0-1.188-5.709l-1.615.7a12.473,12.473,0,0,1,1.041,5.006,12.611,12.611,0,1,1-3.834-9.042l1.225-1.265A14.54,14.54,0,0,0,37.2,6.57,14.381,14.381,0,1,0,42,34.514l1.591,2.756-1.525.881L51.783,54.98a4.4,4.4,0,1,0,7.626-4.4Zm-15-17.17q.383-.221.748-.465l1.482,2.567-1.525.88-1.482-2.566c.262-.131.522-.269.776-.416Zm0,0"/>
        <path id="Path_1276408" data-name="Path 1276408" d="M22.6,36.636l1.175-1.312a11.44,11.44,0,1,0,1.309,1.383l-1.375,1.1a9.677,9.677,0,0,1-.127,12.242l-6.56-6.56V34.209A9.664,9.664,0,0,1,22.6,36.636ZM22.34,51.3A9.684,9.684,0,1,1,15.264,34.21V44.22Zm0,0"/>
        <path id="Path_1276409" data-name="Path 1276409" d="M13.738,28.884H20.2V19.021H13.738Zm1.761-8.1h2.936v6.34H15.5Zm0,0"/>
        <path id="Path_1276410" data-name="Path 1276410" d="M11.155,7.28H4.7v21.6h6.458ZM9.393,27.123H6.458V9.041H9.393Zm0,0"/>
        <path id="Path_1276411" data-name="Path 1276411" d="M1.761,1.761H30.118V0H0V39.745H1.762Zm0,0"/>
        <path id="Path_1276412" data-name="Path 1276412" d="M44.618,6.517H46.38V0h-14.5V1.761H44.618Zm0,0"/>
        <path id="Path_1276413" data-name="Path 1276413" d="M44.618,50.019H36.4v8.219H1.761V41.506H0V60H37.645l8.735-8.735v-2.83H44.618Zm-6.458,6.974V51.781h5.213Zm0,0"/>
        <path id="Path_1276414" data-name="Path 1276414" d="M38.822,21.079l-3.181-2.356-4.528,4.928,1.3,1.192,3.456-3.761,3.16,2.341,4.881-5.145-1.278-1.212Zm0,0"/>
        <path id="Path_1276415" data-name="Path 1276415" d="M30.822,41.213h1.761v1.761H30.822Zm0,0"/>
        <path id="Path_1276416" data-name="Path 1276416" d="M34.345,41.213h5.871v1.761H34.345Zm0,0"/>
        <path id="Path_1276417" data-name="Path 1276417" d="M34.345,44.736h5.871V46.5H34.345Zm0,0"/>
        <path id="Path_1276418" data-name="Path 1276418" d="M30.822,44.736h1.761V46.5H30.822Zm0,0"/>
        <g id="Group_1204103" data-name="Group 1204103">
          <path id="Path_1276419" data-name="Path 1276419" d="M23.083,13.163l-1.544-.847a18.088,18.088,0,0,1,.973-1.575l1.448,1a16.169,16.169,0,0,0-.877,1.42Zm1.9-2.741L23.643,9.275a17.675,17.675,0,0,1,1.278-1.341l1.209,1.28a16.118,16.118,0,0,0-1.151,1.208ZM27.4,8.133l-1.07-1.4a18.031,18.031,0,0,1,1.527-1.047l.92,1.5a16.366,16.366,0,0,0-1.376.944Zm0,0" fill="#fff"/>
          <path id="Path_1276420" data-name="Path 1276420" d="M54.188,52.1l-.881-1.525,1.525-.88.881,1.525Zm-1.761-3.051-.881-1.525,1.525-.88.881,1.525ZM50.665,46l-.881-1.525,1.525-.881.881,1.525Zm0,0" fill="#fff"/>
        </g>
      </g>
    </g>
  </g>
</svg>
