<svg xmlns="http://www.w3.org/2000/svg" xmlns:xlink="http://www.w3.org/1999/xlink" width="90" height="90" viewBox="0 0 90 90">
  <defs>
    <clipPath id="clip-path">
      <rect id="Rectangle_412092" data-name="Rectangle 412092" width="60" height="61" transform="translate(612.768 8934.615)" fill="#fff" stroke="#707070" stroke-width="1"/>
    </clipPath>
  </defs>
  <g id="Group_1204228" data-name="Group 1204228" transform="translate(-597.5 -8920.075)">
    <g id="Path_1275991" data-name="Path 1275991" transform="translate(597.5 8920.075)" fill="#ffc94a">
      <path d="M 75 88.5 L 15 88.5 C 11.39401245117188 88.5 8.003874778747559 87.09574890136719 5.454062461853027 84.54593658447266 C 2.904249906539917 81.99612426757812 1.5 78.60598754882812 1.5 75 L 1.5 15 C 1.5 11.39401245117188 2.904249906539917 8.003874778747559 5.454062461853027 5.454062461853027 C 8.003874778747559 2.904249906539917 11.39401245117188 1.5 15 1.5 L 75 1.5 C 78.60598754882812 1.5 81.99612426757812 2.904249906539917 84.54593658447266 5.454062461853027 C 87.09574890136719 8.003874778747559 88.5 11.39401245117188 88.5 15 L 88.5 75 C 88.5 78.60598754882812 87.09574890136719 81.99612426757812 84.54593658447266 84.54593658447266 C 81.99612426757812 87.09574890136719 78.60598754882812 88.5 75 88.5 Z" stroke="none"/>
      <path d="M 15 3 C 11.79468536376953 3 8.781211853027344 4.248214721679688 6.514717102050781 6.514717102050781 C 4.248214721679688 8.781211853027344 3 11.79468536376953 3 15 L 3 75 C 3 78.20531463623047 4.248214721679688 81.21878814697266 6.514717102050781 83.48528289794922 C 8.781211853027344 85.75178527832031 11.79468536376953 87 15 87 L 75 87 C 78.20531463623047 87 81.21878814697266 85.75178527832031 83.48528289794922 83.48528289794922 C 85.75178527832031 81.21878814697266 87 78.20531463623047 87 75 L 87 15 C 87 11.79468536376953 85.75178527832031 8.781211853027344 83.48528289794922 6.514717102050781 C 81.21878814697266 4.248214721679688 78.20531463623047 3 75 3 L 15 3 M 15 0 L 75 0 C 83.28427124023438 0 90 6.715728759765625 90 15 L 90 75 C 90 83.28427124023438 83.28427124023438 90 75 90 L 15 90 C 6.715728759765625 90 0 83.28427124023438 0 75 L 0 15 C 0 6.715728759765625 6.715728759765625 0 15 0 Z" stroke="none" fill="#b18c32"/>
    </g>
    <g id="Mask_Group_1200937" data-name="Mask Group 1200937" clip-path="url(#clip-path)">
      <g id="taxable_6140324" transform="translate(611.8 8934.147)">
        <path id="Path_1276862" data-name="Path 1276862" d="M46.452,60H1.935V1.935H38.71l7.742,7.742Z" fill="#e2e7f6"/>
        <path id="Path_1276863" data-name="Path 1276863" d="M1.935,54.194H42.581V5.806L38.71,1.935H1.935Z" fill="#f2f2f2"/>
        <path id="Path_1276864" data-name="Path 1276864" d="M42.581,9.677v9.677H5.806V5.806h32.9Z" fill="#c8cded"/>
        <path id="Path_1276865" data-name="Path 1276865" d="M38.71,1.935V9.677h7.742" fill="#9da1bf"/>
        <circle id="Ellipse_12511" data-name="Ellipse 12511" cx="10.645" cy="10.645" r="10.645" transform="translate(13.548 11.613)" fill="#4c6cb5"/>
        <path id="Path_1276866" data-name="Path 1276866" d="M24.194,11.613a10.633,10.633,0,0,0-8.425,17.135A10.633,10.633,0,0,0,30.683,13.833a10.587,10.587,0,0,0-6.49-2.22Z" fill="#5e87ca"/>
        <path id="Path_1276867" data-name="Path 1276867" d="M17.348,21.287H31.032v1.935H17.348Z" transform="translate(-8.653 23.626) rotate(-45)" fill="#e2e7f6"/>
        <circle id="Ellipse_12512" data-name="Ellipse 12512" cx="1.935" cy="1.935" r="1.935" transform="translate(19.355 16.452)" fill="#e2e7f6"/>
        <circle id="Ellipse_12513" data-name="Ellipse 12513" cx="1.935" cy="1.935" r="1.935" transform="translate(25.161 24.194)" fill="#e2e7f6"/>
        <path id="Path_1276868" data-name="Path 1276868" d="M23.226,40.645H60V60H23.226Z" fill="#559b2d"/>
        <ellipse id="Ellipse_12514" data-name="Ellipse 12514" cx="5.8" cy="5.806" rx="5.8" ry="5.806" transform="translate(35.791 44.516)" fill="#e2e7f6"/>
        <path id="Path_1276869" data-name="Path 1276869" d="M35.792,50.323a5.806,5.806,0,0,0,2.567,4.821c.114.007.227.017.344.017a5.806,5.806,0,0,0,3.231-10.628c-.114-.007-.227-.017-.344-.017A5.806,5.806,0,0,0,35.792,50.323Z" fill="#f2f2f2"/>
        <g id="Group_1204205" data-name="Group 1204205">
          <path id="Path_1276870" data-name="Path 1276870" d="M33.858,57.1H27.1a.968.968,0,0,1-.968-.968V44.516a.968.968,0,0,1,.968-.968h6.766v1.935h-5.8v9.677h5.8Z" fill="#6bc13b"/>
          <path id="Path_1276871" data-name="Path 1276871" d="M29.992,49.355h2.9V51.29h-2.9Z" fill="#6bc13b"/>
          <path id="Path_1276872" data-name="Path 1276872" d="M56.134,57.1H49.367V55.161h5.8V45.484h-5.8V43.548h6.766a.968.968,0,0,1,.968.968V56.129A.968.968,0,0,1,56.134,57.1Z" fill="#6bc13b"/>
          <path id="Path_1276873" data-name="Path 1276873" d="M50.323,49.355h2.9V51.29h-2.9Z" fill="#6bc13b"/>
        </g>
        <path id="Path_1276874" data-name="Path 1276874" d="M5.806,36.774h5.806v5.806H5.806Z" fill="#78a0d4"/>
        <path id="Path_1276875" data-name="Path 1276875" d="M7.506,35.8h8.21v1.935H7.506Z" transform="translate(-22.602 18.982) rotate(-45)" fill="#686868"/>
        <path id="Path_1276876" data-name="Path 1276876" d="M5.806,48.387h5.806v5.806H5.806Z" fill="#78a0d4"/>
        <path id="Path_1276877" data-name="Path 1276877" d="M7.506,47.412h8.21v1.935H7.506Z" transform="translate(-30.814 22.384) rotate(-45)" fill="#686868"/>
        <path id="Path_1276878" data-name="Path 1276878" d="M14.516,40.645h5.806v1.935H14.516Z" fill="#c8cded"/>
        <path id="Path_1276879" data-name="Path 1276879" d="M14.516,52.258h5.806v1.935H14.516Z" fill="#c8cded"/>
        <path id="Path_1276880" data-name="Path 1276880" d="M17.348,21.287H31.032v1.935H17.348Z" transform="translate(-8.653 23.626) rotate(-45)"/>
        <path id="Path_1276881" data-name="Path 1276881" d="M21.29,21.29a2.9,2.9,0,1,0-2.9-2.9A2.9,2.9,0,0,0,21.29,21.29Zm0-3.871a.968.968,0,1,1-.968.968A.968.968,0,0,1,21.29,17.419Z"/>
        <path id="Path_1276882" data-name="Path 1276882" d="M27.1,23.226a2.9,2.9,0,1,0,2.9,2.9,2.9,2.9,0,0,0-2.9-2.9Zm0,3.871a.968.968,0,1,1,.968-.968A.968.968,0,0,1,27.1,27.1Z"/>
        <path id="Path_1276883" data-name="Path 1276883" d="M60,39.677H47.419v-30a.968.968,0,0,0-.283-.684L39.394,1.251A.968.968,0,0,0,38.71.968H1.935a.968.968,0,0,0-.968.968V60a.968.968,0,0,0,.968.968H60A.968.968,0,0,0,60.968,60V40.645A.968.968,0,0,0,60,39.677ZM24.194,10.645a11.623,11.623,0,0,0-10.935,7.742H6.774V6.774H37.742v2.9a.968.968,0,0,0,.968.968h2.9v7.742H35.129a11.623,11.623,0,0,0-10.935-7.742Zm9.677,11.613a9.677,9.677,0,1,1-9.677-9.677,9.677,9.677,0,0,1,9.677,9.677ZM39.677,8.71V4.272L44.115,8.71ZM22.258,40.645V59.032H2.9V2.9H37.742V4.839H5.806a.968.968,0,0,0-.968.968V19.355a.968.968,0,0,0,.968.968h6.949a11.613,11.613,0,1,0,22.875,0h6.949a.968.968,0,0,0,.968-.968v-8.71h1.935V39.677H23.226A.968.968,0,0,0,22.258,40.645ZM59.032,59.032H24.194V41.613H59.032Z"/>
        <path id="Path_1276884" data-name="Path 1276884" d="M41.592,57.1a6.774,6.774,0,1,0-6.768-6.774A6.774,6.774,0,0,0,41.592,57.1Zm0-11.613a4.839,4.839,0,1,1-4.833,4.839,4.839,4.839,0,0,1,4.833-4.839Z"/>
        <path id="Path_1276885" data-name="Path 1276885" d="M27.1,57.1h6.766V55.161h-5.8V45.484h5.8V43.548H27.1a.968.968,0,0,0-.968.968V56.129A.968.968,0,0,0,27.1,57.1Z"/>
        <path id="Path_1276886" data-name="Path 1276886" d="M29.992,49.355h2.9V51.29h-2.9Z"/>
        <path id="Path_1276887" data-name="Path 1276887" d="M57.1,56.129V44.516a.968.968,0,0,0-.968-.968H49.367v1.935h5.8v9.677h-5.8V57.1h6.766A.968.968,0,0,0,57.1,56.129Z"/>
        <path id="Path_1276888" data-name="Path 1276888" d="M50.323,49.355h2.9V51.29h-2.9Z"/>
        <path id="Path_1276889" data-name="Path 1276889" d="M5.806,43.548h5.806a.968.968,0,0,0,.968-.968V37.175l2.62-2.62-1.368-1.368-2.62,2.62H5.806a.968.968,0,0,0-.968.968v5.806a.968.968,0,0,0,.968.968Zm.968-5.806h2.5L8.025,38.993l1.368,1.368,1.251-1.251v2.5H6.774Z"/>
        <path id="Path_1276890" data-name="Path 1276890" d="M15.2,46.168,13.832,44.8l-2.62,2.62H5.806a.968.968,0,0,0-.968.968v5.806a.968.968,0,0,0,.968.968h5.806a.968.968,0,0,0,.968-.968V48.788Zm-4.555,7.058H6.774V49.355h2.5L8.025,50.606l1.368,1.368,1.251-1.251Z"/>
        <path id="Path_1276891" data-name="Path 1276891" d="M14.516,40.645h5.806v1.935H14.516Z"/>
        <path id="Path_1276892" data-name="Path 1276892" d="M14.516,52.258h5.806v1.935H14.516Z"/>
      </g>
    </g>
  </g>
</svg>
