<svg xmlns="http://www.w3.org/2000/svg" xmlns:xlink="http://www.w3.org/1999/xlink" width="90" height="90" viewBox="0 0 90 90">
  <defs>
    <clipPath id="clip-path">
      <rect id="Rectangle_412168" data-name="Rectangle 412168" width="60" height="61" transform="translate(928.899 6819.004)" fill="#fff" stroke="#707070" stroke-width="1"/>
    </clipPath>
  </defs>
  <g id="Group_1204251" data-name="Group 1204251" transform="translate(-913.631 -6804.464)">
    <g id="Path_1276175" data-name="Path 1276175" transform="translate(913.631 6804.464)" fill="#ffc94a">
      <path d="M 75 88.5 L 15 88.5 C 11.39401245117188 88.5 8.003874778747559 87.09574890136719 5.454062461853027 84.54593658447266 C 2.904249906539917 81.99612426757812 1.5 78.60598754882812 1.5 75 L 1.5 15 C 1.5 11.39401245117188 2.904249906539917 8.003874778747559 5.454062461853027 5.454062461853027 C 8.003874778747559 2.904249906539917 11.39401245117188 1.5 15 1.5 L 75 1.5 C 78.60598754882812 1.5 81.99612426757812 2.904249906539917 84.54593658447266 5.454062461853027 C 87.09574890136719 8.003874778747559 88.5 11.39401245117188 88.5 15 L 88.5 75 C 88.5 78.60598754882812 87.09574890136719 81.99612426757812 84.54593658447266 84.54593658447266 C 81.99612426757812 87.09574890136719 78.60598754882812 88.5 75 88.5 Z" stroke="none"/>
      <path d="M 15 3 C 11.79468536376953 3 8.781211853027344 4.248214721679688 6.514717102050781 6.514717102050781 C 4.248214721679688 8.781211853027344 3 11.79468536376953 3 15 L 3 75 C 3 78.20531463623047 4.248214721679688 81.21878814697266 6.514717102050781 83.48528289794922 C 8.781211853027344 85.75178527832031 11.79468536376953 87 15 87 L 75 87 C 78.20531463623047 87 81.21878814697266 85.75178527832031 83.48528289794922 83.48528289794922 C 85.75178527832031 81.21878814697266 87 78.20531463623047 87 75 L 87 15 C 87 11.79468536376953 85.75178527832031 8.781211853027344 83.48528289794922 6.514717102050781 C 81.21878814697266 4.248214721679688 78.20531463623047 3 75 3 L 15 3 M 15 0 L 75 0 C 83.28427124023438 0 90 6.715728759765625 90 15 L 90 75 C 90 83.28427124023438 83.28427124023438 90 75 90 L 15 90 C 6.715728759765625 90 0 83.28427124023438 0 75 L 0 15 C 0 6.715728759765625 6.715728759765625 0 15 0 Z" stroke="none" fill="#b18c32"/>
    </g>
    <g id="Mask_Group_1200943" data-name="Mask Group 1200943" clip-path="url(#clip-path)">
      <g id="Icon" transform="translate(925.795 6816.401)">
        <g id="Group_1204249" data-name="Group 1204249">
          <path id="Path_1276999" data-name="Path 1276999" d="M31.333,54.31H4.138a.517.517,0,0,1-.517-.517V4.138a.517.517,0,0,1,.517-.517H41.379a.517.517,0,0,1,.517.517v26.8A17.6,17.6,0,0,0,31.333,54.31Z" fill="#fce4ec" fill-rule="evenodd"/>
          <path id="Path_1277000" data-name="Path 1277000" d="M3.621,7.241V5.69A1.034,1.034,0,0,1,4.655,4.655H40.862A1.034,1.034,0,0,1,41.9,5.69V7.241H32.5L30.731,9.007a1.035,1.035,0,0,1-.731.3H15.517a1.035,1.035,0,0,1-.731-.3L13.02,7.241Z" fill="#207de7" fill-rule="evenodd"/>
          <path id="Path_1277001" data-name="Path 1277001" d="M31.333,54.31H4.887a.811.811,0,0,1-.749-.862V43.966H30.374a17.653,17.653,0,0,0,.959,10.345Z" fill="#207de7" fill-rule="evenodd"/>
          <path id="Path_1277002" data-name="Path 1277002" d="M33.367,37.241H19.138a.517.517,0,0,1-.517-.517V18.1a.517.517,0,0,1,.517-.517h33.1a.517.517,0,0,1,.517.517V30.774a17.6,17.6,0,0,0-19.392,6.467Z" fill="#81c784" fill-rule="evenodd"/>
          <path id="Path_1277003" data-name="Path 1277003" d="M36.259,34.138H25.747a.518.518,0,0,1-.5-.4,4.146,4.146,0,0,0-3.115-3.115.518.518,0,0,1-.4-.5v-5.4a.518.518,0,0,1,.4-.5,4.146,4.146,0,0,0,3.115-3.115.518.518,0,0,1,.5-.4H45.633a.518.518,0,0,1,.5.4,4.146,4.146,0,0,0,3.115,3.115.518.518,0,0,1,.4.5v5.408A17.744,17.744,0,0,0,47.586,30,17.512,17.512,0,0,0,36.259,34.138Z" fill="#c8e6c9" fill-rule="evenodd"/>
          <circle id="Ellipse_12527" data-name="Ellipse 12527" cx="3.621" cy="3.621" r="3.621" transform="translate(32.069 23.793)" fill="#fff9c4"/>
          <path id="Path_1277004" data-name="Path 1277004" d="M24.828,46.552A1.552,1.552,0,0,1,26.379,48.1v2.069a1.552,1.552,0,0,1-1.552,1.552H20.69a1.552,1.552,0,0,1-1.552-1.552V48.1a1.552,1.552,0,0,1,1.552-1.552Z" fill="#104f96" fill-rule="evenodd"/>
          <circle id="Ellipse_12528" data-name="Ellipse 12528" cx="15" cy="15" r="15" transform="translate(32.586 32.586)" fill="#fee36d"/>
          <circle id="Ellipse_12529" data-name="Ellipse 12529" cx="9.31" cy="9.31" r="9.31" transform="translate(38.276 38.276)" fill="#2eaffd"/>
          <path id="Path_1277005" data-name="Path 1277005" d="M31.557,54.828H4.138A1.034,1.034,0,0,1,3.1,53.793V4.138A1.034,1.034,0,0,1,4.138,3.1H41.379a1.034,1.034,0,0,1,1.034,1.034V17.069h9.828A1.034,1.034,0,0,1,53.276,18.1V30.942a17.413,17.413,0,0,0-2.069-.568V19.138H20.172V35.69H34.639A17.7,17.7,0,0,0,33,37.759H19.138A1.034,1.034,0,0,1,18.1,36.724V18.1a1.034,1.034,0,0,1,1.034-1.034H40.345V8.276H32.5l-1.766,1.766a1.035,1.035,0,0,1-.731.3H15.517a1.035,1.035,0,0,1-.731-.3L13.02,8.276H5.172V43.448H30.49a17.6,17.6,0,0,0-.37,2.069H5.172v7.241h25.6a17.465,17.465,0,0,0,.783,2.069ZM40.345,6.207V5.172H5.172V6.207h8.276a1.035,1.035,0,0,1,.731.3l1.766,1.766H29.572L31.338,6.51a1.035,1.035,0,0,1,.731-.3ZM22.759,5.69a1.034,1.034,0,1,1-1.034,1.034A1.035,1.035,0,0,1,22.759,5.69ZM35.672,34.655H25.747a1.035,1.035,0,0,1-1.009-.805,3.627,3.627,0,0,0-2.725-2.725,1.035,1.035,0,0,1-.805-1.009v-5.4a1.035,1.035,0,0,1,.805-1.009,3.627,3.627,0,0,0,2.725-2.725,1.035,1.035,0,0,1,1.009-.805H45.633a1.035,1.035,0,0,1,1.009.805A3.627,3.627,0,0,0,49.367,23.7a1.035,1.035,0,0,1,.805,1.009v5.4c0,.025,0,.049,0,.073A17.729,17.729,0,0,0,47.586,30q-.353,0-.7.014a5.681,5.681,0,0,1,1.221-.659V25.474a5.714,5.714,0,0,1-3.232-3.232H26.508a5.712,5.712,0,0,1-3.232,3.232v3.881a5.714,5.714,0,0,1,3.232,3.232h11.9a17.655,17.655,0,0,0-2.735,2.069Zm.018-11.9a4.655,4.655,0,1,1-4.655,4.655A4.658,4.658,0,0,1,35.69,22.759Zm0,2.069a2.586,2.586,0,1,0,2.586,2.586A2.587,2.587,0,0,0,35.69,24.828ZM24.828,46.034A2.069,2.069,0,0,1,26.9,48.1v2.069a2.069,2.069,0,0,1-2.069,2.069H20.69a2.069,2.069,0,0,1-2.069-2.069V48.1a2.069,2.069,0,0,1,2.069-2.069ZM20.69,50.172h4.138V48.1H20.69ZM7.759,51.724a1.034,1.034,0,0,1,0-2.069h5.172a1.034,1.034,0,1,1,0,2.069Zm0-3.1a1.034,1.034,0,0,1,0-2.069h5.172a1.034,1.034,0,1,1,0,2.069ZM47.586,32.069A15.517,15.517,0,1,1,32.069,47.586,15.525,15.525,0,0,1,47.586,32.069Zm0,2.069A13.448,13.448,0,1,0,61.034,47.586,13.455,13.455,0,0,0,47.586,34.138Zm0,3.621a9.828,9.828,0,1,1-9.828,9.828A9.832,9.832,0,0,1,47.586,37.759Zm0,2.069a7.759,7.759,0,1,0,7.759,7.759A7.762,7.762,0,0,0,47.586,39.828ZM42.269,48.9a1.034,1.034,0,1,1,1.324-1.589l2.315,1.929L50.934,43.3a1.035,1.035,0,1,1,1.58,1.337l-5.69,6.724a1.034,1.034,0,0,1-1.452.126Z" fill-rule="evenodd"/>
        </g>
      </g>
    </g>
  </g>
</svg>
