<svg xmlns="http://www.w3.org/2000/svg" xmlns:xlink="http://www.w3.org/1999/xlink" width="90" height="90" viewBox="0 0 90 90">
  <defs>
    <clipPath id="clip-path">
      <rect id="Rectangle_412164" data-name="Rectangle 412164" width="60" height="61" transform="translate(298.899 6819.004)" fill="#fff" stroke="#707070" stroke-width="1"/>
    </clipPath>
  </defs>
  <g id="Group_1204253" data-name="Group 1204253" transform="translate(-283.631 -6804.464)">
    <g id="Path_1276173" data-name="Path 1276173" transform="translate(283.631 6804.464)" fill="#ffc94a">
      <path d="M 75 88.5 L 15 88.5 C 11.39401245117188 88.5 8.003874778747559 87.09574890136719 5.454062461853027 84.54593658447266 C 2.904249906539917 81.99612426757812 1.5 78.60598754882812 1.5 75 L 1.5 15 C 1.5 11.39401245117188 2.904249906539917 8.003874778747559 5.454062461853027 5.454062461853027 C 8.003874778747559 2.904249906539917 11.39401245117188 1.5 15 1.5 L 75 1.5 C 78.60598754882812 1.5 81.99612426757812 2.904249906539917 84.54593658447266 5.454062461853027 C 87.09574890136719 8.003874778747559 88.5 11.39401245117188 88.5 15 L 88.5 75 C 88.5 78.60598754882812 87.09574890136719 81.99612426757812 84.54593658447266 84.54593658447266 C 81.99612426757812 87.09574890136719 78.60598754882812 88.5 75 88.5 Z" stroke="none"/>
      <path d="M 15 3 C 11.79468536376953 3 8.781211853027344 4.248214721679688 6.514717102050781 6.514717102050781 C 4.248214721679688 8.781211853027344 3 11.79468536376953 3 15 L 3 75 C 3 78.20531463623047 4.248214721679688 81.21878814697266 6.514717102050781 83.48528289794922 C 8.781211853027344 85.75178527832031 11.79468536376953 87 15 87 L 75 87 C 78.20531463623047 87 81.21878814697266 85.75178527832031 83.48528289794922 83.48528289794922 C 85.75178527832031 81.21878814697266 87 78.20531463623047 87 75 L 87 15 C 87 11.79468536376953 85.75178527832031 8.781211853027344 83.48528289794922 6.514717102050781 C 81.21878814697266 4.248214721679688 78.20531463623047 3 75 3 L 15 3 M 15 0 L 75 0 C 83.28427124023438 0 90 6.715728759765625 90 15 L 90 75 C 90 83.28427124023438 83.28427124023438 90 75 90 L 15 90 C 6.715728759765625 90 0 83.28427124023438 0 75 L 0 15 C 0 6.715728759765625 6.715728759765625 0 15 0 Z" stroke="none" fill="#b18c32"/>
    </g>
    <g id="Mask_Group_1200940" data-name="Mask Group 1200940" clip-path="url(#clip-path)">
      <g id="financial-report_3958212" transform="translate(298.899 6819.504)">
        <g id="Group_1204245" data-name="Group 1204245">
          <g id="Group_1204230" data-name="Group 1204230">
            <path id="Path_1276944" data-name="Path 1276944" d="M26.129,41.613V55.161H.968V41.613H26.129Z" fill="#b4dd7f"/>
          </g>
          <g id="Group_1204231" data-name="Group 1204231">
            <path id="Path_1276945" data-name="Path 1276945" d="M31.935,42.581V54.194a.971.971,0,0,1-.968.968H26.129V41.613h4.839A.971.971,0,0,1,31.935,42.581Z" fill="#8cc152"/>
          </g>
          <g id="Group_1204232" data-name="Group 1204232">
            <path id="Path_1276946" data-name="Path 1276946" d="M14.516,1.065V8.71H6.871a.786.786,0,0,1,.184-.281l7.181-7.181a.786.786,0,0,1,.281-.184Z" fill="#fcd770"/>
          </g>
          <g id="Group_1204233" data-name="Group 1204233">
            <path id="Path_1276947" data-name="Path 1276947" d="M39.677,11.952a13.549,13.549,0,0,0,5.806,25.79h-5a9.965,9.965,0,0,0-8.545,4.839.971.971,0,0,0-.968-.968H6.774V37.5a7.973,7.973,0,0,0,1.935.242,7.742,7.742,0,1,0,0-15.484,7.973,7.973,0,0,0-1.935.242V9.106a.947.947,0,0,1,.087-.4h7.655V1.055a.947.947,0,0,1,.4-.087h23.8a.971.971,0,0,1,.968.968Z" fill="#e6e9ed"/>
          </g>
          <g id="Group_1204234" data-name="Group 1204234">
            <path id="Path_1276948" data-name="Path 1276948" d="M48.958,41.555l.01.1a1.943,1.943,0,0,0-.977.532,1.892,1.892,0,0,0-.571,1.365,1.941,1.941,0,0,0,1.935,1.935,1.95,1.95,0,0,0-1.935,1.935,1.941,1.941,0,0,0,1.935,1.935,1.95,1.95,0,0,0-1.935,1.935,1.941,1.941,0,0,0,1.935,1.935,1.95,1.95,0,0,0-1.935,1.935A1.941,1.941,0,0,0,49.355,57.1a1.941,1.941,0,0,1-1.935,1.935H45.484A1.941,1.941,0,0,1,43.548,57.1V43.723a6.71,6.71,0,0,0,1.935-2.11h2.9a2.787,2.787,0,0,0,.571-.058Z" fill="#b27946"/>
          </g>
          <g id="Group_1204235" data-name="Group 1204235">
            <path id="Path_1276949" data-name="Path 1276949" d="M43.548,52.258V57.1H38.942a9.919,9.919,0,0,1-7.006-2.9V42.581a9.965,9.965,0,0,1,8.545-4.839h9.842a.971.971,0,0,1,.968.968,2.9,2.9,0,0,1-.852,2.052,2.845,2.845,0,0,1-1.481.794,2.787,2.787,0,0,1-.571.058h-2.9a6.71,6.71,0,0,1-1.935,2.11Z" fill="#f0d0b4"/>
          </g>
          <g id="Group_1204236" data-name="Group 1204236">
            <path id="Path_1276950" data-name="Path 1276950" d="M51.29,41.613a1.941,1.941,0,0,1,1.935,1.935,1.95,1.95,0,0,1-1.935,1.935H49.355a1.941,1.941,0,0,1-1.935-1.935,1.892,1.892,0,0,1,.571-1.365,1.943,1.943,0,0,1,.977-.532,1.7,1.7,0,0,1,.387-.039Z" fill="#f0d0b4"/>
          </g>
          <g id="Group_1204237" data-name="Group 1204237">
            <path id="Path_1276951" data-name="Path 1276951" d="M51.29,45.484a1.941,1.941,0,0,1,1.935,1.935,1.95,1.95,0,0,1-1.935,1.935H49.355a1.941,1.941,0,0,1-1.935-1.935,1.95,1.95,0,0,1,1.935-1.935Z" fill="#f0d0b4"/>
          </g>
          <g id="Group_1204238" data-name="Group 1204238">
            <path id="Path_1276952" data-name="Path 1276952" d="M51.29,53.226a1.941,1.941,0,0,1,1.935,1.935A1.95,1.95,0,0,1,51.29,57.1H49.355a1.941,1.941,0,0,1-1.935-1.935,1.95,1.95,0,0,1,1.935-1.935Z" fill="#f0d0b4"/>
          </g>
          <g id="Group_1204239" data-name="Group 1204239">
            <path id="Path_1276953" data-name="Path 1276953" d="M51.29,49.355a1.941,1.941,0,0,1,1.935,1.935,1.95,1.95,0,0,1-1.935,1.935H49.355a1.941,1.941,0,0,1-1.935-1.935,1.95,1.95,0,0,1,1.935-1.935Z" fill="#f0d0b4"/>
          </g>
          <g id="Group_1204240" data-name="Group 1204240">
            <path id="Path_1276954" data-name="Path 1276954" d="M14.187,24.523A7.746,7.746,0,0,1,8.71,37.742V30Z" fill="#ef7385"/>
          </g>
          <g id="Group_1204241" data-name="Group 1204241">
            <path id="Path_1276955" data-name="Path 1276955" d="M14.187,24.523,8.71,30,3.232,24.523A7.86,7.86,0,0,1,6.774,22.5a7.973,7.973,0,0,1,1.935-.242A7.756,7.756,0,0,1,14.187,24.523Z" fill="#b4dd7f"/>
          </g>
          <g id="Group_1204242" data-name="Group 1204242">
            <path id="Path_1276956" data-name="Path 1276956" d="M8.71,30v7.742A7.973,7.973,0,0,1,6.774,37.5,7.75,7.75,0,0,1,3.232,24.523Z" fill="#ffeaa7"/>
          </g>
          <g id="Group_1204243" data-name="Group 1204243">
            <path id="Path_1276957" data-name="Path 1276957" d="M45.484,10.645a13.546,13.546,0,1,1-5.806,1.306A13.551,13.551,0,0,1,45.484,10.645Zm9.677,13.548a9.677,9.677,0,1,0-9.677,9.677A9.681,9.681,0,0,0,55.161,24.194Z" fill="#ffeaa7"/>
          </g>
          <g id="Group_1204244" data-name="Group 1204244">
            <circle id="Ellipse_12521" data-name="Ellipse 12521" cx="9.677" cy="9.677" r="9.677" transform="translate(35.806 14.516)" fill="#fcd770"/>
          </g>
        </g>
        <g id="Group_1204246" data-name="Group 1204246">
          <path id="Path_1276958" data-name="Path 1276958" d="M46.452,19.533V17.419H44.516v1.935H42.581v2.9a2.907,2.907,0,0,0,2.9,2.9.969.969,0,0,1,.968.968V27.1h-.968a.969.969,0,0,1-.968-.968v-.968H42.581v.968a2.9,2.9,0,0,0,1.935,2.725v2.114h1.935V29.032h1.935v-2.9a2.907,2.907,0,0,0-2.9-2.9.969.969,0,0,1-.968-.968V21.29h.968a.969.969,0,0,1,.968.968v.968h1.935v-.968A2.9,2.9,0,0,0,46.452,19.533Z"/>
          <path id="Path_1276959" data-name="Path 1276959" d="M45.484,13.548A10.645,10.645,0,1,0,56.129,24.194,10.658,10.658,0,0,0,45.484,13.548Zm0,19.355a8.71,8.71,0,1,1,8.71-8.71A8.72,8.72,0,0,1,45.484,32.9Z"/>
          <path id="Path_1276960" data-name="Path 1276960" d="M60,24.194A14.476,14.476,0,0,0,40.645,10.524V1.935A1.937,1.937,0,0,0,38.71,0H14.917a1.922,1.922,0,0,0-1.368.567L6.374,7.742A1.922,1.922,0,0,0,5.806,9.11V21.8a8.7,8.7,0,0,0,0,16.4v2.444H.968v1.935H25.161V54.194H.968v1.935h30a1.913,1.913,0,0,0,1.207-.435,10.788,10.788,0,0,0,6.77,2.37H42.76A2.9,2.9,0,0,0,45.485,60H47.42a2.9,2.9,0,0,0,2.725-1.935H51.29a2.891,2.891,0,0,0,2.148-4.839,2.859,2.859,0,0,0,0-3.871,2.859,2.859,0,0,0,0-3.871,2.88,2.88,0,0,0-1.741-4.8,3.831,3.831,0,0,0,.56-1.976,1.927,1.927,0,0,0-.6-1.4A14.521,14.521,0,0,0,60,24.194ZM13.548,3.3V7.742H9.11ZM9.677,30.4l4.45-4.45A6.753,6.753,0,0,1,9.677,36.7ZM8.71,28.632,4.661,24.583a6.72,6.72,0,0,1,8.1,0ZM1.935,30a6.728,6.728,0,0,1,1.357-4.049l4.45,4.45v6.3A6.779,6.779,0,0,1,1.935,30ZM30.968,54.194H27.1V42.581h3.871ZM7.742,40.645V38.653a8.71,8.71,0,1,0,0-17.305V9.677h7.742V1.935H38.71v9.43a14.5,14.5,0,0,0-.123,25.6,11.01,11.01,0,0,0-6.664,3.945,1.912,1.912,0,0,0-.955-.262ZM47.419,58.065H45.484a.969.969,0,0,1-.968-.968V44.228a6.1,6.1,0,0,0,1.532-1.647h.582a2.814,2.814,0,0,0,.577,2.9,2.859,2.859,0,0,0,0,3.871,2.859,2.859,0,0,0,0,3.871,2.875,2.875,0,0,0,.9,4.546.963.963,0,0,1-.69.292Zm4.839-10.645a.969.969,0,0,1-.968.968H49.355a.968.968,0,0,1,0-1.935H51.29A.969.969,0,0,1,52.258,47.419Zm0,3.871a.969.969,0,0,1-.968.968H49.355a.968.968,0,0,1,0-1.935H51.29A.969.969,0,0,1,52.258,51.29Zm-.968,4.839H49.355a.968.968,0,0,1,0-1.935H51.29a.968.968,0,0,1,0,1.935Zm.968-12.581a.969.969,0,0,1-.968.968H49.355a.968.968,0,0,1,0-1.935H51.29A.969.969,0,0,1,52.258,43.548ZM50.323,38.71a1.937,1.937,0,0,1-1.935,1.935h-3.5l-.267.535a4.227,4.227,0,0,1-2.461,2.135l-.851.284.613,1.835.661-.221v4.365a9.93,9.93,0,0,0-3.565-2.109L38.4,49.3a8,8,0,0,1,4.1,3.133l.076.115v3.578H38.945A8.876,8.876,0,0,1,32.9,53.767V42.88a9.039,9.039,0,0,1,7.578-4.17Zm-4.839-1.935A12.581,12.581,0,1,1,58.065,24.194,12.6,12.6,0,0,1,45.484,36.774Z"/>
          <path id="Path_1276961" data-name="Path 1276961" d="M19.355,36.774H21.29V38.71H19.355Z"/>
          <path id="Path_1276962" data-name="Path 1276962" d="M23.226,36.774h1.935V38.71H23.226Z"/>
          <path id="Path_1276963" data-name="Path 1276963" d="M27.1,36.774h1.935V38.71H27.1Z"/>
          <path id="Path_1276964" data-name="Path 1276964" d="M19.355,32.9h9.677v1.935H19.355Z"/>
          <path id="Path_1276965" data-name="Path 1276965" d="M19.355,29.032h9.677v1.935H19.355Z"/>
          <path id="Path_1276966" data-name="Path 1276966" d="M19.355,25.161h3.871V27.1H19.355Z"/>
          <path id="Path_1276967" data-name="Path 1276967" d="M25.161,25.161h3.871V27.1H25.161Z"/>
          <path id="Path_1276968" data-name="Path 1276968" d="M19.355,5.806h3.871V7.742H19.355Z"/>
          <path id="Path_1276969" data-name="Path 1276969" d="M25.161,5.806h9.677V7.742H25.161Z"/>
          <path id="Path_1276970" data-name="Path 1276970" d="M21.29,9.677H34.839v1.935H21.29Z"/>
          <path id="Path_1276971" data-name="Path 1276971" d="M11.613,13.548H32.9v1.935H11.613Z"/>
          <path id="Path_1276972" data-name="Path 1276972" d="M11.613,17.419H30.968v1.935H11.613Z"/>
        </g>
      </g>
    </g>
  </g>
</svg>
