<svg xmlns="http://www.w3.org/2000/svg" xmlns:xlink="http://www.w3.org/1999/xlink" width="90" height="90" viewBox="0 0 90 90">
  <defs>
    <clipPath id="clip-path">
      <rect id="Rectangle_412069" data-name="Rectangle 412069" width="60" height="61" transform="translate(1242.768 2806.079)" fill="#fff" stroke="#707070" stroke-width="1"/>
    </clipPath>
  </defs>
  <g id="Group_1204200" data-name="Group 1204200" transform="translate(-1227.5 -2791.539)">
    <g id="Path_1275914" data-name="Path 1275914" transform="translate(1227.5 2791.539)" fill="#ffc94a">
      <path d="M 75 88.5 L 15 88.5 C 11.39401245117188 88.5 8.003874778747559 87.09574890136719 5.454062461853027 84.54593658447266 C 2.904249906539917 81.99612426757812 1.5 78.60598754882812 1.5 75 L 1.5 15 C 1.5 11.39401245117188 2.904249906539917 8.003874778747559 5.454062461853027 5.454062461853027 C 8.003874778747559 2.904249906539917 11.39401245117188 1.5 15 1.5 L 75 1.5 C 78.60598754882812 1.5 81.99612426757812 2.904249906539917 84.54593658447266 5.454062461853027 C 87.09574890136719 8.003874778747559 88.5 11.39401245117188 88.5 15 L 88.5 75 C 88.5 78.60598754882812 87.09574890136719 81.99612426757812 84.54593658447266 84.54593658447266 C 81.99612426757812 87.09574890136719 78.60598754882812 88.5 75 88.5 Z" stroke="none"/>
      <path d="M 15 3 C 11.79468536376953 3 8.781211853027344 4.248214721679688 6.514717102050781 6.514717102050781 C 4.248214721679688 8.781211853027344 3 11.79468536376953 3 15 L 3 75 C 3 78.20531463623047 4.248214721679688 81.21878814697266 6.514717102050781 83.48528289794922 C 8.781211853027344 85.75178527832031 11.79468536376953 87 15 87 L 75 87 C 78.20531463623047 87 81.21878814697266 85.75178527832031 83.48528289794922 83.48528289794922 C 85.75178527832031 81.21878814697266 87 78.20531463623047 87 75 L 87 15 C 87 11.79468536376953 85.75178527832031 8.781211853027344 83.48528289794922 6.514717102050781 C 81.21878814697266 4.248214721679688 78.20531463623047 3 75 3 L 15 3 M 15 0 L 75 0 C 83.28427124023438 0 90 6.715728759765625 90 15 L 90 75 C 90 83.28427124023438 83.28427124023438 90 75 90 L 15 90 C 6.715728759765625 90 0 83.28427124023438 0 75 L 0 15 C 0 6.715728759765625 6.715728759765625 0 15 0 Z" stroke="none" fill="#b18c32"/>
    </g>
    <g id="Mask_Group_1200935" data-name="Mask Group 1200935" clip-path="url(#clip-path)">
      <g id="quality_1472009" transform="translate(1242.768 2806.579)">
        <path id="Path_1276797" data-name="Path 1276797" d="M28.065,6.774v3.871a1.941,1.941,0,0,1-1.935,1.935H14.516a1.941,1.941,0,0,1-1.935-1.935V6.774a1.941,1.941,0,0,1,1.935-1.935h1.935a3.871,3.871,0,1,1,7.742,0h1.935a1.941,1.941,0,0,1,1.935,1.935Zm0,0" fill="#b4dd7f"/>
        <path id="Path_1276798" data-name="Path 1276798" d="M39.677,35.739a7.9,7.9,0,0,1-.832.048H35.806V10.645H28.065V6.774h9.677A1.941,1.941,0,0,1,39.677,8.71Zm0,0" fill="#cf9e76"/>
        <path id="Path_1276799" data-name="Path 1276799" d="M39.677,47.4v9.7a1.941,1.941,0,0,1-1.935,1.935H2.9A1.941,1.941,0,0,1,.968,57.1V8.71A1.941,1.941,0,0,1,2.9,6.774h9.677v3.871H4.839V55.161H35.806V47.4Zm0,0" fill="#cf9e76"/>
        <path id="Path_1276800" data-name="Path 1276800" d="M28.065,10.645a1.941,1.941,0,0,1-1.935,1.935H14.516a1.941,1.941,0,0,1-1.935-1.935H4.839V55.161H35.806V10.645Zm0,0" fill="#e6e9ed"/>
        <path id="Path_1276801" data-name="Path 1276801" d="M26.129,16.452H30V30H26.129Zm0,0" fill="#ffeaa7"/>
        <path id="Path_1276802" data-name="Path 1276802" d="M18.387,24.194h3.871V30H18.387Zm0,0" fill="#ffeaa7"/>
        <path id="Path_1276803" data-name="Path 1276803" d="M10.645,20.323h3.871V30H10.645Zm0,0" fill="#ffeaa7"/>
        <path id="Path_1276804" data-name="Path 1276804" d="M30,38.71V49.335H24.194V33.852H30Zm0,0" fill="#b4dd7f"/>
        <path id="Path_1276805" data-name="Path 1276805" d="M33.871,47.4v1.935H30V33.852h3.871Zm0,0" fill="#fcd770"/>
        <g id="Group_1204199" data-name="Group 1204199">
          <path id="Path_1276806" data-name="Path 1276806" d="M33.871,35.787h1.935V47.4H33.871Zm0,0" fill="#f0d0b4"/>
          <path id="Path_1276807" data-name="Path 1276807" d="M57.1,34.819a1.941,1.941,0,0,1,1.935,1.935A1.949,1.949,0,0,1,57.1,38.69H51.29a1.941,1.941,0,0,1-1.935-1.935l-.039-.029a5.489,5.489,0,0,0,.706-1.432.01.01,0,0,0,.01-.01,1.918,1.918,0,0,1,1.258-.464Zm0,0" fill="#f0d0b4"/>
          <path id="Path_1276808" data-name="Path 1276808" d="M57.1,38.69a1.941,1.941,0,0,1,1.935,1.935A1.949,1.949,0,0,1,57.1,42.561H51.29a1.941,1.941,0,0,1-1.935-1.935A1.949,1.949,0,0,1,51.29,38.69Zm0,0" fill="#f0d0b4"/>
          <path id="Path_1276809" data-name="Path 1276809" d="M57.1,42.561A1.941,1.941,0,0,1,59.032,44.5,1.949,1.949,0,0,1,57.1,46.432H51.29A1.941,1.941,0,0,1,49.355,44.5a1.949,1.949,0,0,1,1.935-1.935Zm0,0" fill="#f0d0b4"/>
          <path id="Path_1276810" data-name="Path 1276810" d="M57.1,46.432a1.941,1.941,0,0,1,1.935,1.935A1.949,1.949,0,0,1,57.1,50.3H51.29a1.941,1.941,0,0,1-1.935-1.935,1.949,1.949,0,0,1,1.935-1.935Zm0,0" fill="#f0d0b4"/>
          <path id="Path_1276811" data-name="Path 1276811" d="M49.355,36.755A1.941,1.941,0,0,0,51.29,38.69a1.949,1.949,0,0,0-1.935,1.935,1.941,1.941,0,0,0,1.935,1.935A1.949,1.949,0,0,0,49.355,44.5a1.941,1.941,0,0,0,1.935,1.935,1.949,1.949,0,0,0-1.935,1.935A1.941,1.941,0,0,0,51.29,50.3H46.858a5.915,5.915,0,0,1-2.6-.61L39.677,47.4H35.806V35.787h3.039a7.9,7.9,0,0,0,.832-.048,7.524,7.524,0,0,0,2.574-.755,7.6,7.6,0,0,0,4.2-6.8V23.206a3.866,3.866,0,0,1,3.871,3.871v6.387a6.017,6.017,0,0,1-.29,1.819.01.01,0,0,1-.01.01,5.489,5.489,0,0,1-.706,1.432Zm0,0" fill="#f0d0b4"/>
        </g>
        <path id="Path_1276812" data-name="Path 1276812" d="M50.778,10.665c.493.851,4.384.881,4.384,1.935s-3.89,1.084-4.384,1.935c-.513.881,1.393,4.258.513,4.771-.851.493-2.816-2.836-3.871-2.836S44.4,19.8,43.548,19.307c-.881-.513,1.026-3.89.513-4.771-.493-.851-4.384-.881-4.384-1.935s3.89-1.084,4.384-1.935c.513-.881-1.393-4.258-.513-4.771.851-.493,2.816,2.836,3.871,2.836S50.439,5.4,51.29,5.893c.881.513-1.026,3.89-.513,4.771Zm0,0" fill="#fcd770"/>
        <path id="Path_1276813" data-name="Path 1276813" d="M59.245,38.69A2.891,2.891,0,0,0,57.1,33.852H51.29l-.025,0c.008-.129.025-.257.025-.387V27.077a4.844,4.844,0,0,0-4.839-4.839h-.968v5.947a6.555,6.555,0,0,1-4.839,6.374V16.452H38.71V34.819H34.839V32.884H23.226V50.3H34.839V48.368H38.71V57.1a.969.969,0,0,1-.968.968H2.9a.969.969,0,0,1-.968-.968V8.71A.969.969,0,0,1,2.9,7.742h8.71V9.678H3.871V56.129h32.9V52.383H34.839v1.811H5.806V11.613h5.985a2.9,2.9,0,0,0,2.725,1.935H26.129a2.9,2.9,0,0,0,2.725-1.935h5.985V30.968h1.935V9.678H29.032V7.742h8.71a.969.969,0,0,1,.968.968h1.935a2.907,2.907,0,0,0-2.9-2.9H28.854a2.9,2.9,0,0,0-2.725-1.935H25.064a4.839,4.839,0,0,0-9.482,0H14.516a2.9,2.9,0,0,0-2.725,1.935H2.9A2.907,2.907,0,0,0,0,8.71V57.1A2.907,2.907,0,0,0,2.9,60H37.742a2.907,2.907,0,0,0,2.9-2.9V48.966l3.18,1.59a6.825,6.825,0,0,0,3.029.715H57.1a2.891,2.891,0,0,0,2.149-4.839,2.859,2.859,0,0,0,0-3.871,2.859,2.859,0,0,0,0-3.871ZM13.548,6.774a.969.969,0,0,1,.968-.968h2.9V4.839a2.9,2.9,0,1,1,5.806,0v.968h2.9a.969.969,0,0,1,.968.968v3.871a.969.969,0,0,1-.968.968H14.516a.969.969,0,0,1-.968-.968ZM58.065,44.5a.969.969,0,0,1-.968.968H51.29a.968.968,0,0,1,0-1.935H57.1A.97.97,0,0,1,58.065,44.5Zm-6.774-2.9a.968.968,0,0,1,0-1.935H57.1a.968.968,0,0,1,0,1.935Zm0-5.806H57.1a.968.968,0,0,1,0,1.935H51.29a.957.957,0,0,1-.941-.834,6.888,6.888,0,0,0,.468-.961A.96.96,0,0,1,51.29,35.787ZM32.9,48.368H30.968V38.71H29.032v9.658H25.161V34.819h3.871v1.955h1.935V34.819H32.9Zm11.787.457-4.785-2.392H34.839V36.755H38.85a8.61,8.61,0,0,0,3.833-.907,8.517,8.517,0,0,0,4.736-7.663V24.34a2.909,2.909,0,0,1,1.935,2.738v6.39A4.861,4.861,0,0,1,47,37.616l-2.02,1.213,1,1.66L48,39.276a6.7,6.7,0,0,0,1-.754c.045.058.091.115.139.169a2.859,2.859,0,0,0,0,3.871,2.859,2.859,0,0,0,0,3.871,2.814,2.814,0,0,0-.576,2.9H46.853a4.881,4.881,0,0,1-2.163-.512Zm12.406.511H51.29a.968.968,0,1,1,0-1.935H57.1a.968.968,0,1,1,0,1.935Zm0,0"/>
        <path id="Path_1276814" data-name="Path 1276814" d="M38.71,12.6c0,1.345,1.544,1.7,3.036,2.052a10.5,10.5,0,0,1,1.438.4,10.353,10.353,0,0,1-.378,1.506c-.432,1.438-.878,2.925.256,3.583,1.117.644,2.159-.464,3.17-1.533a9.366,9.366,0,0,1,1.188-1.132,9.482,9.482,0,0,1,1.187,1.131c.8.851,1.629,1.725,2.492,1.725a1.336,1.336,0,0,0,.677-.19c1.135-.657.688-2.144.257-3.584a10.385,10.385,0,0,1-.378-1.506,10.7,10.7,0,0,1,1.437-.4c1.492-.348,3.036-.707,3.036-2.052s-1.544-1.7-3.036-2.051a10.858,10.858,0,0,1-1.438-.4,10.445,10.445,0,0,1,.378-1.506c.432-1.438.878-2.926-.256-3.583-1.118-.645-2.159.464-3.17,1.533a9.274,9.274,0,0,1-1.187,1.13A9.414,9.414,0,0,1,46.232,6.59c-1.01-1.069-2.056-2.179-3.169-1.534-1.135.657-.688,2.144-.257,3.584a10.385,10.385,0,0,1,.378,1.506,10.716,10.716,0,0,1-1.438.4c-1.492.347-3.036.706-3.036,2.052ZM44.9,11.15c.446-.771.127-1.835-.243-3.068-.043-.142-.094-.313-.144-.489.112.116.219.228.31.325.9.953,1.677,1.777,2.595,1.777s1.694-.824,2.6-1.777c.091-.1.2-.209.309-.325-.05.177-.1.345-.144.49-.37,1.231-.69,2.295-.243,3.067.434.751,1.493,1,2.718,1.282.2.046.445.1.689.166-.244.063-.491.121-.69.167-1.225.285-2.283.532-2.718,1.282-.446.771-.127,1.835.243,3.068.043.142.094.311.144.488-.112-.116-.219-.228-.31-.325-.9-.953-1.678-1.776-2.595-1.776s-1.694.824-2.6,1.777c-.091.1-.2.209-.309.325.05-.176.1-.344.144-.489.37-1.231.69-2.295.244-3.067-.435-.751-1.493-1-2.719-1.283-.2-.046-.444-.1-.688-.166.244-.062.491-.12.689-.166,1.224-.284,2.283-.532,2.718-1.283Zm0,0"/>
        <path id="Path_1276815" data-name="Path 1276815" d="M7.742,50.323H9.677v1.935H7.742Zm0,0"/>
        <path id="Path_1276816" data-name="Path 1276816" d="M11.613,50.323H21.29v1.935H11.613Zm0,0"/>
        <path id="Path_1276817" data-name="Path 1276817" d="M7.742,46.452H9.677v1.935H7.742Zm0,0"/>
        <path id="Path_1276818" data-name="Path 1276818" d="M11.613,46.452H21.29v1.935H11.613Zm0,0"/>
        <path id="Path_1276819" data-name="Path 1276819" d="M7.742,42.581H9.677v1.935H7.742Zm0,0"/>
        <path id="Path_1276820" data-name="Path 1276820" d="M11.613,42.581H21.29v1.935H11.613Zm0,0"/>
        <path id="Path_1276821" data-name="Path 1276821" d="M7.742,38.71H9.677v1.935H7.742Zm0,0"/>
        <path id="Path_1276822" data-name="Path 1276822" d="M11.613,38.71H21.29v1.935H11.613Zm0,0"/>
        <path id="Path_1276823" data-name="Path 1276823" d="M7.742,34.839H9.677v1.935H7.742Zm0,0"/>
        <path id="Path_1276824" data-name="Path 1276824" d="M11.613,34.839H21.29v1.935H11.613Zm0,0"/>
        <path id="Path_1276825" data-name="Path 1276825" d="M32.9,29.032H30.968V15.484H25.161V29.032H23.226V23.226H17.419v5.806H15.484V19.355H9.677v9.677H7.742v1.935H32.9ZM27.1,17.419h1.935V29.032H27.1Zm-7.742,7.742H21.29v3.871H19.355ZM11.613,21.29h1.935v7.742H11.613Zm0,0"/>
        <path id="Path_1276826" data-name="Path 1276826" d="M15.484,7.742h1.935V9.677H15.484Zm0,0"/>
        <path id="Path_1276827" data-name="Path 1276827" d="M23.226,7.742h1.935V9.677H23.226Zm0,0"/>
      </g>
    </g>
  </g>
</svg>
