<svg xmlns="http://www.w3.org/2000/svg" xmlns:xlink="http://www.w3.org/1999/xlink" width="100.203" height="100.203" viewBox="0 0 100.203 100.203">
  <defs>
    <clipPath id="clip-path">
      <rect id="Rectangle_412097" data-name="Rectangle 412097" width="60" height="61" transform="translate(347.525 8086.76)" fill="#fff" stroke="#707070" stroke-width="1"/>
    </clipPath>
  </defs>
  <g id="Group_1204138" data-name="Group 1204138" transform="translate(-331.424 -8067.521)">
    <g id="Path_1275957" data-name="Path 1275957" transform="translate(331.424 8067.521)" fill="#ffc94a">
      <path d="M 83.50260162353516 98.70313262939453 L 16.70051956176758 98.70313262939453 C 12.64031982421875 98.70313262939453 8.82313346862793 97.12200164794922 5.952134132385254 94.25100708007812 C 3.081133842468262 91.3800048828125 1.50000536441803 87.56282043457031 1.50000536441803 83.50260162353516 L 1.50000536441803 16.70051956176758 C 1.50000536441803 12.64031982421875 3.081133842468262 8.82313346862793 5.952134132385254 5.952134132385254 C 8.82313346862793 3.081133842468262 12.64031982421875 1.50000536441803 16.70051956176758 1.50000536441803 L 83.50260162353516 1.50000536441803 C 87.56282043457031 1.50000536441803 91.3800048828125 3.081133842468262 94.25100708007812 5.952134132385254 C 97.12200164794922 8.82313346862793 98.70313262939453 12.64031982421875 98.70313262939453 16.70051956176758 L 98.70313262939453 83.50260162353516 C 98.70313262939453 87.56280517578125 97.12200164794922 91.3800048828125 94.25100708007812 94.25100708007812 C 91.3800048828125 97.12200164794922 87.56280517578125 98.70313262939453 83.50260162353516 98.70313262939453 Z" stroke="none"/>
      <path d="M 16.70051574707031 2.999992370605469 C 13.04097747802734 2.999992370605469 9.600486755371094 4.425102233886719 7.012794494628906 7.012794494628906 C 4.425102233886719 9.600486755371094 2.999992370605469 13.04097747802734 2.999992370605469 16.70051574707031 L 2.999992370605469 83.50259399414062 C 2.999992370605469 87.16213226318359 4.425102233886719 90.60263824462891 7.012794494628906 93.19033050537109 C 9.600471496582031 95.77800750732422 13.04097747802734 97.20311737060547 16.70051574707031 97.20311737060547 L 83.50259399414062 97.20311737060547 C 87.16213226318359 97.20311737060547 90.60263824462891 95.77800750732422 93.19033050537109 93.19033050537109 C 95.77800750732422 90.60263824462891 97.20311737060547 87.16213226318359 97.20311737060547 83.50259399414062 L 97.20311737060547 16.70051574707031 C 97.20311737060547 13.04097747802734 95.77800750732422 9.600471496582031 93.19033050537109 7.012794494628906 C 90.60263824462891 4.425102233886719 87.16213226318359 2.999992370605469 83.50259399414062 2.999992370605469 L 16.70051574707031 2.999992370605469 M 16.70051574707031 -7.62939453125e-06 L 83.50259399414062 -7.62939453125e-06 C 92.72603607177734 -7.62939453125e-06 100.2031173706055 7.477088928222656 100.2031173706055 16.70051574707031 L 100.2031173706055 83.50259399414062 C 100.2031173706055 92.72603607177734 92.72603607177734 100.2031173706055 83.50259399414062 100.2031173706055 L 16.70051574707031 100.2031173706055 C 7.477088928222656 100.2031173706055 -7.62939453125e-06 92.72603607177734 -7.62939453125e-06 83.50259399414062 L -7.62939453125e-06 16.70051574707031 C -7.62939453125e-06 7.477088928222656 7.477088928222656 -7.62939453125e-06 16.70051574707031 -7.62939453125e-06 Z" stroke="none" fill="#b18c32"/>
    </g>
    <g id="Mask_Group_1200919" data-name="Mask Group 1200919" clip-path="url(#clip-path)">
      <g id="ipo_12208014" transform="translate(346.557 8086.292)">
        <g id="Group_1204137" data-name="Group 1204137">
          <g id="Group_1204134" data-name="Group 1204134">
            <path id="Path_1276518" data-name="Path 1276518" d="M22.273,45.555l4.092-2.37a2.9,2.9,0,0,1,2.393-.487A28.772,28.772,0,0,0,32.8,43.941a1.137,1.137,0,0,1,.786,1.362,1.1,1.1,0,0,1-1.362.786l.548.088a2.551,2.551,0,0,0,1.754-.305l3.934-2.291c3.058-1.781,3.507.959,2.49,1.585l-7.139,4.4a2.618,2.618,0,0,1-2.12.3l-5.178-1.388L24.6,49.58a.775.775,0,0,1-1.056-.283l-1.551-2.686A.775.775,0,0,1,22.273,45.555Z" fill="#f6dccd" fill-rule="evenodd"/>
            <path id="Path_1276519" data-name="Path 1276519" d="M33.5,45.548a1.122,1.122,0,0,1-1.268.541c-.848-.224-1.7-.454-2.543-.681a.425.425,0,0,1,.22-.822Z" fill="#f1cbbc" fill-rule="evenodd"/>
            <path id="Path_1276520" data-name="Path 1276520" d="M22.273,45.555l4.092-2.37a2.9,2.9,0,0,1,2.393-.487c.5.163,1.177.427,1.935.68l-7.926,4.576-.776-1.343A.775.775,0,0,1,22.273,45.555Z" fill="#f1cbbc" fill-rule="evenodd"/>
            <path id="Path_1276521" data-name="Path 1276521" d="M22.681,44.264,25.926,50a.581.581,0,0,1-.219.789l-1.1.625a.581.581,0,0,1-.789-.219l-3.245-5.734a.581.581,0,0,1,.219-.789l1.1-.625A.581.581,0,0,1,22.681,44.264Z" fill="#d1d1d6" fill-rule="evenodd"/>
            <path id="Path_1276522" data-name="Path 1276522" d="M24.388,48.2l.574,1.015.568,1a.581.581,0,0,1-.217.788l.394-.223A.581.581,0,0,0,25.926,50l-.57-1.007-1.144-2.022-1.146-2.024-.385-.681A.582.582,0,0,0,22.007,44l.667,1.178L23.818,47.2l.57,1.007Z" fill="#b1b1b5" fill-rule="evenodd"/>
          </g>
          <g id="Group_1204135" data-name="Group 1204135">
            <path id="Path_1276523" data-name="Path 1276523" d="M48.845,20.086h5.8V55.979h-5.8Zm-41.554,0h5.8V55.979h-5.8Z" fill="#8192a5" fill-rule="evenodd"/>
            <path id="Path_1276524" data-name="Path 1276524" d="M53.436,20.086h1.21V55.979h-1.21Zm-41.554,0h1.21V55.979h-1.21Z" fill="#65788e" fill-rule="evenodd"/>
            <path id="Path_1276525" data-name="Path 1276525" d="M30.968,3.2,60,20.086v2.12a1.262,1.262,0,0,1-1.259,1.259H3.2a1.262,1.262,0,0,1-1.259-1.259v-2.12Z" fill="#685e68" fill-rule="evenodd"/>
            <path id="Path_1276526" data-name="Path 1276526" d="M30.968,3.2,60,20.086v2.12a1.262,1.262,0,0,1-1.259,1.259h-1.21a1.262,1.262,0,0,0,1.259-1.259v-2.12L30.363,3.549Z" fill="#544854" fill-rule="evenodd"/>
            <path id="Path_1276527" data-name="Path 1276527" d="M30.968,3.2,60,20.086H1.936Z" fill="#837683" fill-rule="evenodd"/>
            <path id="Path_1276528" data-name="Path 1276528" d="M30.968,3.2,60,20.086h-1.21L30.363,3.549Z" fill="#685e68" fill-rule="evenodd"/>
            <path id="Path_1276529" data-name="Path 1276529" d="M6.113,54.378h8.156a1.5,1.5,0,0,1,1.49,1.49v1.38a1.5,1.5,0,0,1-1.49,1.49H6.113a1.5,1.5,0,0,1-1.49-1.49v-1.38a1.5,1.5,0,0,1,1.49-1.49Z" fill="#837683" fill-rule="evenodd"/>
            <path id="Path_1276530" data-name="Path 1276530" d="M14.791,54.473a1.5,1.5,0,0,1,.968,1.4v1.38a1.5,1.5,0,0,1-1.49,1.49H6.113a1.5,1.5,0,0,1-1.333-.826,1.475,1.475,0,0,0,.522.1h8.156a1.5,1.5,0,0,0,1.49-1.49v-1.38a1.475,1.475,0,0,0-.157-.664Z" fill="#685e68" fill-rule="evenodd"/>
            <path id="Path_1276531" data-name="Path 1276531" d="M47.667,54.378h8.156a1.5,1.5,0,0,1,1.49,1.49v1.38a1.5,1.5,0,0,1-1.49,1.49H47.667a1.5,1.5,0,0,1-1.49-1.49v-1.38A1.5,1.5,0,0,1,47.667,54.378Z" fill="#837683" fill-rule="evenodd"/>
            <path id="Path_1276532" data-name="Path 1276532" d="M56.31,54.46a1.5,1.5,0,0,1,1,1.408v1.38a1.5,1.5,0,0,1-1.49,1.49H47.667a1.491,1.491,0,0,1-1.2-.614,1.476,1.476,0,0,0,.487.082h8.156a1.5,1.5,0,0,0,1.49-1.49v-1.38A1.48,1.48,0,0,0,56.31,54.46Z" fill="#685e68" fill-rule="evenodd"/>
            <circle id="Ellipse_12496" data-name="Ellipse 12496" cx="3.589" cy="3.589" r="3.589" transform="translate(26.645 10.208) rotate(-13.3)" fill="#ffe177"/>
            <path id="Path_1276533" data-name="Path 1276533" d="M30.968,9.3a3.616,3.616,0,0,1,.512.037,3.59,3.59,0,0,0,0,7.106A3.59,3.59,0,1,1,30.968,9.3Z" fill="#ffd064" fill-rule="evenodd"/>
          </g>
          <g id="Group_1204136" data-name="Group 1204136">
            <path id="Path_1276534" data-name="Path 1276534" d="M34.039,31.954h5.634a.3.3,0,0,1,.258.446l-1.41,2.456,1.41,2.456a.3.3,0,0,1-.258.446H34.039Z" fill="#ffe177" fill-rule="evenodd"/>
          </g>
        </g>
        <path id="Path_1276535" data-name="Path 1276535" d="M37.206,35.32l.569.99H35.245V33.365h2.529l-.569.991A.969.969,0,0,0,37.206,35.32Zm3.079-3.408a.968.968,0,0,0-.838-.482H34.277a.967.967,0,0,0-.968.967v9.915a.968.968,0,1,0,1.936,0V38.246h4.2a.968.968,0,0,0,.839-1.451l-1.125-1.958,1.125-1.958a.97.97,0,0,0,0-.968ZM24.466,50.378,21.6,45.319l.428-.242,2.862,5.059Zm2.382-6.355-2.4,1.392,1.337,2.363.247-.142a.967.967,0,0,1,.734-.1l5.179,1.388a1.655,1.655,0,0,0,1.362-.187l7.126-4.389a.362.362,0,0,0,0-.342c-.068-.082-.543-.137-1.48.41l-3.935,2.291a3.525,3.525,0,0,1-2.393.425l-.491-.08-.019,0-.019,0c-.634-.129-1.239-.3-1.824-.469-.272-.078-.549-.158-.835-.234a.967.967,0,1,1,.5-1.869c.3.079.583.161.866.242.561.159,1.092.311,1.639.425a.346.346,0,0,0,.184-.017.2.2,0,0,0,.031-.07.168.168,0,0,0-.113-.176,21.154,21.154,0,0,1-3.267-.972c-.315-.114-.585-.212-.815-.287-.421-.137-.872-.023-1.61.4Zm-.663,7.606-1.1.624a1.549,1.549,0,0,1-2.108-.584l-3.244-5.734a1.549,1.549,0,0,1,.583-2.108l1.1-.624a1.546,1.546,0,0,1,2.075.529l2.389-1.384a3.848,3.848,0,0,1,3.177-.569c.26.084.559.192.876.307a19.261,19.261,0,0,0,3.043.9.992.992,0,0,1,.126.031,2.141,2.141,0,0,1,1.47,1.707l3.405-1.984c2.792-1.626,3.927-.051,4.125.282a2.221,2.221,0,0,1-.64,2.964l-7.14,4.4a3.561,3.561,0,0,1-1.887.543,3.807,3.807,0,0,1-.991-.133l-4.66-1.249a1.548,1.548,0,0,1-.6,2.081Zm-7.7-4.511A13.518,13.518,0,0,1,30.968,28.431a13.678,13.678,0,0,1,2.06.155.969.969,0,0,0,1.035,1.37l2.613-.438a.968.968,0,0,0,.586-1.57L35.577,25.9a.968.968,0,0,0-1.681.868A15.454,15.454,0,0,0,16.7,47.86a.967.967,0,1,0,1.787-.743Zm27.932-5.176a15.351,15.351,0,0,0-1.176-5.919.968.968,0,1,0-1.787.743A13.517,13.517,0,0,1,30.968,55.452a13.578,13.578,0,0,1-2.256-.186A.968.968,0,0,0,27.73,53.7l-2.56.686A.968.968,0,0,0,24.736,56l1.873,1.874a.967.967,0,0,0,1.651-.725A15.464,15.464,0,0,0,46.416,41.941ZM30.968,10.265a2.621,2.621,0,1,1-2.621,2.621,2.624,2.624,0,0,1,2.621-2.621Zm0,7.178a4.557,4.557,0,1,0-4.557-4.557,4.562,4.562,0,0,0,4.557,4.557ZM58.741,22.5H3.194a.3.3,0,0,1-.291-.293V21.054H59.033v1.152A.3.3,0,0,1,58.741,22.5ZM53.677,53.41H49.812V24.434h3.865Zm2.669,2.458v1.38a.53.53,0,0,1-.523.523H47.667a.53.53,0,0,1-.522-.523v-1.38a.53.53,0,0,1,.522-.523h8.156A.53.53,0,0,1,56.346,55.868ZM12.123,53.41H8.258V24.434h3.865Zm2.669,2.458v1.38a.53.53,0,0,1-.523.523H6.113a.529.529,0,0,1-.523-.523v-1.38a.529.529,0,0,1,.523-.523h8.156A.53.53,0,0,1,14.792,55.868ZM30.968,4.317,5.523,19.118H56.412ZM60.96,19.97c0-.011,0-.021,0-.031-.005-.029-.011-.059-.018-.087,0-.01,0-.019-.007-.028a1.052,1.052,0,0,0-.035-.105s0,0,0,0a.8.8,0,0,0-.052-.105c0-.007-.009-.014-.012-.022-.016-.026-.033-.049-.049-.074l-.019-.025a.819.819,0,0,0-.067-.077l-.009-.009a.819.819,0,0,0-.085-.075.269.269,0,0,0-.024-.018c-.024-.018-.05-.035-.076-.052l-.014-.009L31.454,2.361a.964.964,0,0,0-.972,0L1.449,19.25l-.015.009c-.026.016-.052.034-.076.052l-.024.018a.949.949,0,0,0-.085.075l-.007.009a.748.748,0,0,0-.068.077l-.018.025a.664.664,0,0,0-.05.074.238.238,0,0,0-.014.022,1.051,1.051,0,0,0-.052.105,0,0,0,0,1,0,0A.9.9,0,0,0,1,19.824L1,19.851c-.007.028-.014.058-.018.087,0,.011,0,.02,0,.031a.955.955,0,0,0-.008.116v2.119a2.23,2.23,0,0,0,2.226,2.229H6.323V53.41h-.21a2.461,2.461,0,0,0-2.458,2.458v1.38a2.46,2.46,0,0,0,2.458,2.458h8.156a2.46,2.46,0,0,0,2.458-2.458v-1.38a2.461,2.461,0,0,0-2.458-2.458h-.211V24.434H47.876V53.41h-.21a2.461,2.461,0,0,0-2.458,2.458v1.38a2.46,2.46,0,0,0,2.458,2.458h8.156a2.461,2.461,0,0,0,2.459-2.458v-1.38a2.462,2.462,0,0,0-2.459-2.458h-.211V24.434h3.129a2.23,2.23,0,0,0,2.227-2.229V20.086a.868.868,0,0,0-.007-.116Z" fill="#242222" fill-rule="evenodd"/>
      </g>
    </g>
  </g>
</svg>
