<svg xmlns="http://www.w3.org/2000/svg" xmlns:xlink="http://www.w3.org/1999/xlink" width="90" height="90" viewBox="0 0 90 90">
  <defs>
    <clipPath id="clip-path">
      <rect id="Rectangle_412230" data-name="Rectangle 412230" width="60" height="61" transform="translate(1138.505 7687.999)" fill="#fff" stroke="#707070" stroke-width="1"/>
    </clipPath>
  </defs>
  <g id="Group_1204183" data-name="Group 1204183" transform="translate(-1123.255 -7673.499)">
    <g id="Path_1276283" data-name="Path 1276283" transform="translate(1123.255 7673.499)" fill="#caedb8">
      <path d="M 75 88.5 L 15 88.5 C 11.39401245117188 88.5 8.003874778747559 87.09574890136719 5.454062461853027 84.54593658447266 C 2.904249906539917 81.99612426757812 1.5 78.60598754882812 1.5 75 L 1.5 15 C 1.5 11.39401245117188 2.904249906539917 8.003874778747559 5.454062461853027 5.454062461853027 C 8.003874778747559 2.904249906539917 11.39401245117188 1.5 15 1.5 L 75 1.5 C 78.60598754882812 1.5 81.99612426757812 2.904249906539917 84.54593658447266 5.454062461853027 C 87.09574890136719 8.003874778747559 88.5 11.39401245117188 88.5 15 L 88.5 75 C 88.5 78.60598754882812 87.09574890136719 81.99612426757812 84.54593658447266 84.54593658447266 C 81.99612426757812 87.09574890136719 78.60598754882812 88.5 75 88.5 Z" stroke="none"/>
      <path d="M 15 3 C 11.79468536376953 3 8.781211853027344 4.248214721679688 6.514717102050781 6.514717102050781 C 4.248214721679688 8.781211853027344 3 11.79468536376953 3 15 L 3 75 C 3 78.20531463623047 4.248214721679688 81.21878814697266 6.514717102050781 83.48528289794922 C 8.781211853027344 85.75178527832031 11.79468536376953 87 15 87 L 75 87 C 78.20531463623047 87 81.21878814697266 85.75178527832031 83.48528289794922 83.48528289794922 C 85.75178527832031 81.21878814697266 87 78.20531463623047 87 75 L 87 15 C 87 11.79468536376953 85.75178527832031 8.781211853027344 83.48528289794922 6.514717102050781 C 81.21878814697266 4.248214721679688 78.20531463623047 3 75 3 L 15 3 M 15 0 L 75 0 C 83.28427124023438 0 90 6.715728759765625 90 15 L 90 75 C 90 83.28427124023438 83.28427124023438 90 75 90 L 15 90 C 6.715728759765625 90 0 83.28427124023438 0 75 L 0 15 C 0 6.715728759765625 6.715728759765625 0 15 0 Z" stroke="none" fill="#569338"/>
    </g>
    <g id="Mask_Group_1200930" data-name="Mask Group 1200930" clip-path="url(#clip-path)">
      <g id="listing_16934370" transform="translate(1137.885 7687.879)">
        <g id="Group_1204180" data-name="Group 1204180">
          <g id="Group_1204177" data-name="Group 1204177">
            <path id="Path_1276703" data-name="Path 1276703" d="M4.15,6.226h40a2.381,2.381,0,0,1,2.38,2.38V56.4a2.382,2.382,0,0,1-2.38,2.38h-40a2.382,2.382,0,0,1-2.38-2.38V8.607a2.381,2.381,0,0,1,2.38-2.38Z" fill="#b4d2d7"/>
            <g id="Group_1204176" data-name="Group 1204176">
              <path id="Path_1276704" data-name="Path 1276704" d="M44.148,6.226a2.385,2.385,0,0,1,2.38,2.38V56.4a2.385,2.385,0,0,1-2.38,2.38H41.812a2.385,2.385,0,0,0,2.38-2.38V8.607a2.385,2.385,0,0,0-2.38-2.38h2.336Z" fill="#9bb9c3" fill-rule="evenodd"/>
              <path id="Path_1276705" data-name="Path 1276705" d="M5.648,10.572v43.86a.468.468,0,0,0,.467.467H36.953l5.7-5.7V10.572a.468.468,0,0,0-.467-.467H6.116a.468.468,0,0,0-.467.467Z" fill="#eff4f7" fill-rule="evenodd"/>
              <path id="Path_1276706" data-name="Path 1276706" d="M5.648,10.572v43.86a.468.468,0,0,0,.467.467H8.143a.468.468,0,0,1-.467-.467V10.572a.468.468,0,0,1,.467-.467H6.115A.468.468,0,0,0,5.648,10.572Z" fill="#e2e3e3" fill-rule="evenodd"/>
              <path id="Path_1276707" data-name="Path 1276707" d="M36.953,49.2v5.7l5.7-5.7Z" fill="#e2e3e3" fill-rule="evenodd"/>
              <path id="Path_1276708" data-name="Path 1276708" d="M32.387,6.226H26.42L28.794,2.87a1.135,1.135,0,0,0-.928-1.793H20.432A1.135,1.135,0,0,0,19.5,2.87l2.374,3.357H15.911a.466.466,0,0,0-.457.566l.807,3.734a1.39,1.39,0,0,0,1.37,1.106H30.667a1.389,1.389,0,0,0,1.37-1.106l.807-3.734a.466.466,0,0,0-.457-.566Z" fill="#da8c36" fill-rule="evenodd"/>
              <path id="Path_1276709" data-name="Path 1276709" d="M22,1.077h-1.57A1.135,1.135,0,0,0,19.5,2.87l2.374,3.357h1.57L21.074,2.87A1.135,1.135,0,0,1,22,1.077Zm-4.521,5.15a.466.466,0,0,0-.457.566l.807,3.734a1.389,1.389,0,0,0,1.37,1.106h-1.57a1.389,1.389,0,0,1-1.37-1.106l-.807-3.734a.466.466,0,0,1,.457-.566h1.57Z" fill="#c97629" fill-rule="evenodd"/>
              <path id="Path_1276710" data-name="Path 1276710" d="M11.8,44.16h5.745a.516.516,0,0,1,.515.515V50.42a.516.516,0,0,1-.515.515H11.8a.516.516,0,0,1-.515-.515V44.675a.516.516,0,0,1,.515-.515Zm0-29.135h5.745a.516.516,0,0,1,.515.515v5.745a.516.516,0,0,1-.515.515H11.8a.516.516,0,0,1-.515-.515V15.54a.516.516,0,0,1,.515-.515Zm0,9.712h5.745a.516.516,0,0,1,.515.515V31a.516.516,0,0,1-.515.515H11.8A.516.516,0,0,1,11.284,31V25.252a.516.516,0,0,1,.515-.515Zm0,9.712h5.745a.516.516,0,0,1,.515.515v5.745a.516.516,0,0,1-.515.515H11.8a.516.516,0,0,1-.515-.515V34.963a.516.516,0,0,1,.515-.515Z" fill="#64b5f6" fill-rule="evenodd"/>
              <path id="Path_1276711" data-name="Path 1276711" d="M11.8,44.16h.681v5.064a.516.516,0,0,0,.515.515h5.064v.681a.516.516,0,0,1-.515.515H11.8a.516.516,0,0,1-.515-.515V44.675a.516.516,0,0,1,.515-.515Zm0-29.135h.681v5.064a.516.516,0,0,0,.515.515h5.064v.681a.516.516,0,0,1-.515.515H11.8a.516.516,0,0,1-.515-.515V15.54a.516.516,0,0,1,.515-.515Zm0,9.712h.681V29.8a.516.516,0,0,0,.515.515h5.064V31a.516.516,0,0,1-.515.515H11.8A.516.516,0,0,1,11.284,31V25.252a.516.516,0,0,1,.515-.515Zm0,9.712h.681v5.064a.516.516,0,0,0,.515.515h5.064v.681a.516.516,0,0,1-.515.515H11.8a.516.516,0,0,1-.515-.515V34.963a.516.516,0,0,1,.515-.515Z" fill="#42a5f5" fill-rule="evenodd"/>
            </g>
          </g>
          <g id="Group_1204178" data-name="Group 1204178">
            <rect id="Rectangle_412251" data-name="Rectangle 412251" width="4.419" height="17.514" rx="0.359" transform="translate(26.589 42.649)" fill="#fc685b"/>
            <path id="Path_1276712" data-name="Path 1276712" d="M26.947,42.649h.837V58.967h3.223V59.8a.36.36,0,0,1-.359.359h-3.7a.36.36,0,0,1-.359-.359v-16.8a.36.36,0,0,1,.359-.359Z" fill="#fb4737" fill-rule="evenodd"/>
            <rect id="Rectangle_412252" data-name="Rectangle 412252" width="4.419" height="20.516" rx="0.359" transform="translate(36.076 39.647)" fill="#ffda2d"/>
            <path id="Path_1276713" data-name="Path 1276713" d="M36.435,39.647h.837v19.32H40.5V59.8a.36.36,0,0,1-.359.359h-3.7a.36.36,0,0,1-.359-.359v-19.8A.36.36,0,0,1,36.435,39.647Z" fill="#ffc700" fill-rule="evenodd"/>
            <rect id="Rectangle_412253" data-name="Rectangle 412253" width="4.419" height="23.162" rx="0.359" transform="translate(45.563 37.001)" fill="#72d561"/>
            <path id="Path_1276714" data-name="Path 1276714" d="M45.922,37h.837V58.967h3.223V59.8a.36.36,0,0,1-.359.359h-3.7a.36.36,0,0,1-.359-.359V37.36A.36.36,0,0,1,45.922,37Z" fill="#42c345" fill-rule="evenodd"/>
            <rect id="Rectangle_412254" data-name="Rectangle 412254" width="4.419" height="26.153" rx="0.359" transform="translate(55.051 34.01)" fill="#64b5f6"/>
            <path id="Path_1276715" data-name="Path 1276715" d="M55.41,34.01h.837V58.967H59.47V59.8a.36.36,0,0,1-.359.359h-3.7a.36.36,0,0,1-.359-.359V34.369A.36.36,0,0,1,55.41,34.01Z" fill="#42a5f5" fill-rule="evenodd"/>
          </g>
          <g id="Group_1204179" data-name="Group 1204179">
            <path id="Path_1276716" data-name="Path 1276716" d="M26.559,36.676,50.765,25.737l-.876-1.781,3.515.234,3.515.234-1.96,2.927L53,30.278,52.123,28.5,27.917,39.437Z" fill="#ffd6bd" fill-rule="evenodd"/>
            <path id="Path_1276717" data-name="Path 1276717" d="M55.007,24.3l1.912.127-1.96,2.927L53,30.278l-.846-1.719,1.61-2.4Zm-3.382,4.425L27.917,39.437l-.7-1.421L50.926,27.3Z" fill="#f9c6aa" fill-rule="evenodd"/>
          </g>
        </g>
        <path id="Path_1276718" data-name="Path 1276718" d="M55.2,25.269l-3.722-.248.144.293a.958.958,0,0,1-.464,1.295l-23.3,10.532.513,1.043L51.728,27.625a.958.958,0,0,1,1.253.45l.143.293Zm-9.63,7.239v3.536h-.008a.957.957,0,0,0-.957.957V57.745a1.427,1.427,0,0,1-.458.076h-2.7V51.754l1.875-1.875a.955.955,0,0,0,.28-.677V33.4l1.965-.888Zm3.453,5.45V59.206h-2.5V37.958ZM39.537,40.6h-2.5v18.6h2.5ZM35.119,57.821V55.856H31.964v1.965ZM30.05,43.607h-2.5v15.6h2.5ZM25.632,57.821V55.856H5.648a.957.957,0,0,1-.957-.957V10.1a.958.958,0,0,1,.957-.957h9.337L14.56,7.183H4.15A1.426,1.426,0,0,0,2.725,8.607V56.4A1.426,1.426,0,0,0,4.15,57.821ZM16.518,7.183h5.361a.958.958,0,0,0,.781-1.51L20.286,2.317a.178.178,0,0,1,.146-.284h7.435a.169.169,0,0,1,.161.1.173.173,0,0,1-.014.187L25.639,5.674a.956.956,0,0,0,.781,1.51h5.36L31.1,10.324a.43.43,0,0,1-.434.351H17.631a.432.432,0,0,1-.435-.351l-.678-3.141ZM41.452,39.647a.957.957,0,0,0-.957-.957H36.077a.955.955,0,0,0-.621.229H31.386l10.307-4.659V48.806l-.241.241v-9.4Zm-3.481-9.482a.957.957,0,0,0-.957-.957H22.505a.957.957,0,0,0,0,1.914H36.527L28.3,34.839h-5.8a.957.957,0,1,0,0,1.913h3.1a.977.977,0,0,0,.093.345l.9,1.821h-4.09a.957.957,0,0,0,0,1.913H35.119v13.11H31.964v-3.4H33.51a.957.957,0,0,0,0-1.914H31.964V46.465h.2a.957.957,0,1,0,0-1.913h-.2v-1.9a.957.957,0,0,0-.957-.957H26.589a.957.957,0,0,0-.957.957v1.9H22.505a.957.957,0,1,0,0,1.913h3.126v2.166H22.505a.957.957,0,0,0,0,1.914h3.126v3.4H6.605V11.062h8.82a2.339,2.339,0,0,0,2.207,1.526H30.668a2.338,2.338,0,0,0,2.205-1.526h8.82V28.786L37.911,30.5a.955.955,0,0,0,.06-.332ZM44.149,7.183a1.425,1.425,0,0,1,1.423,1.423V27.034l-1.965.888V10.1a.957.957,0,0,0-.957-.957H33.315l.425-1.965ZM57.714,24.957l-3.92,5.854a.957.957,0,0,1-1.654-.11l-.468-.95-4.186,1.893v4.4h2.5a.957.957,0,0,1,.957.957V60.163a.957.957,0,0,1-.957.957H45.563a.957.957,0,0,1-.957-.957V59.7a3.333,3.333,0,0,1-.458.033h-2.7v.428a.957.957,0,0,1-.957.957H36.077a.957.957,0,0,1-.957-.957v-.428H31.964v.428a.957.957,0,0,1-.957.957H26.589a.957.957,0,0,1-.957-.957v-.428H4.15A3.341,3.341,0,0,1,.812,56.4V8.607A3.342,3.342,0,0,1,4.15,5.27H20.029L18.722,3.422A2.092,2.092,0,0,1,20.432.12h7.435a2.092,2.092,0,0,1,1.709,3.3L28.268,5.27h15.88a3.342,3.342,0,0,1,3.337,3.337V26.169l1.984-.9-.44-.894A.957.957,0,0,1,49.952,23l7.031.468a.957.957,0,0,1,.731,1.487Zm.8,10.01H56.008V59.206h2.506Zm1.914-.957V60.163a.957.957,0,0,1-.957.957H55.051a.957.957,0,0,1-.957-.957V34.01a.957.957,0,0,1,.957-.957H59.47a.958.958,0,0,1,.957.957ZM22.505,17.33a.957.957,0,0,1,0-1.914h9.656a.957.957,0,0,1,0,1.914ZM37.014,19.5a.957.957,0,0,1,0,1.913H22.505a.957.957,0,0,1,0-1.913Zm-4.853,5.632a.957.957,0,1,1,0,1.913H22.505a.957.957,0,0,1,0-1.913ZM17.1,15.982v4.861H12.241V15.982Zm1.913-.442v5.745a1.473,1.473,0,0,1-1.471,1.472H11.8a1.473,1.473,0,0,1-1.472-1.472V15.54A1.474,1.474,0,0,1,11.8,14.068h5.744a1.473,1.473,0,0,1,1.471,1.472ZM13.64,19.927l-.915-.893a.956.956,0,1,1,1.335-1.37l.237.23.974-.983a.957.957,0,1,1,1.36,1.347l-1.642,1.657a.958.958,0,0,1-1.348.012ZM17.1,25.694v4.861H12.241V25.694Zm1.913-.442V31a1.473,1.473,0,0,1-1.471,1.472H11.8A1.473,1.473,0,0,1,10.327,31V25.252A1.474,1.474,0,0,1,11.8,23.78h5.744a1.473,1.473,0,0,1,1.471,1.472ZM13.64,29.638l-.915-.893a.956.956,0,1,1,1.335-1.37l.237.23.974-.983a.957.957,0,1,1,1.36,1.347l-1.642,1.657a.956.956,0,0,1-1.348.012ZM17.1,35.406v4.861H12.241V35.406Zm1.913-.442v5.745a1.473,1.473,0,0,1-1.471,1.472H11.8a1.474,1.474,0,0,1-1.472-1.472V34.964A1.473,1.473,0,0,1,11.8,33.492h5.744A1.473,1.473,0,0,1,19.015,34.964ZM13.64,39.35l-.915-.892a.956.956,0,1,1,1.335-1.37l.237.23.974-.983a.957.957,0,0,1,1.36,1.347l-1.642,1.657a.956.956,0,0,1-1.348.012ZM17.1,45.117v4.861H12.241V45.117Zm1.913-.442v5.745a1.473,1.473,0,0,1-1.471,1.471H11.8a1.473,1.473,0,0,1-1.472-1.471V44.676A1.473,1.473,0,0,1,11.8,43.2h5.744A1.473,1.473,0,0,1,19.015,44.676Zm-6.29,3.493A.956.956,0,1,1,14.06,46.8l.237.23.974-.983a.957.957,0,0,1,1.36,1.347L14.988,49.05a.956.956,0,0,1-1.348.012Z" fill-rule="evenodd"/>
      </g>
    </g>
  </g>
</svg>
