<svg xmlns="http://www.w3.org/2000/svg" xmlns:xlink="http://www.w3.org/1999/xlink" width="100.203" height="100.203" viewBox="0 0 100.203 100.203">
  <defs>
    <clipPath id="clip-path">
      <rect id="Rectangle_412098" data-name="Rectangle 412098" width="60" height="61" transform="translate(770 8086.76)" fill="#fff" stroke="#707070" stroke-width="1"/>
    </clipPath>
  </defs>
  <g id="Group_1204131" data-name="Group 1204131" transform="translate(-749.898 -8067.521)">
    <g id="Path_1275973" data-name="Path 1275973" transform="translate(749.898 8067.521)" fill="#ffc94a">
      <path d="M 83.50260162353516 98.70313262939453 L 16.70051956176758 98.70313262939453 C 12.64031982421875 98.70313262939453 8.82313346862793 97.12200164794922 5.952134132385254 94.25100708007812 C 3.081133842468262 91.3800048828125 1.50000536441803 87.56282043457031 1.50000536441803 83.50260162353516 L 1.50000536441803 16.70051956176758 C 1.50000536441803 12.64031982421875 3.081133842468262 8.82313346862793 5.952134132385254 5.952134132385254 C 8.82313346862793 3.081133842468262 12.64031982421875 1.50000536441803 16.70051956176758 1.50000536441803 L 83.50260162353516 1.50000536441803 C 87.56282043457031 1.50000536441803 91.3800048828125 3.081133842468262 94.25100708007812 5.952134132385254 C 97.12200164794922 8.82313346862793 98.70313262939453 12.64031982421875 98.70313262939453 16.70051956176758 L 98.70313262939453 83.50260162353516 C 98.70313262939453 87.56280517578125 97.12200164794922 91.3800048828125 94.25100708007812 94.25100708007812 C 91.3800048828125 97.12200164794922 87.56280517578125 98.70313262939453 83.50260162353516 98.70313262939453 Z" stroke="none"/>
      <path d="M 16.70051574707031 2.999992370605469 C 13.04097747802734 2.999992370605469 9.600486755371094 4.425102233886719 7.012794494628906 7.012794494628906 C 4.425102233886719 9.600486755371094 2.999992370605469 13.04097747802734 2.999992370605469 16.70051574707031 L 2.999992370605469 83.50259399414062 C 2.999992370605469 87.16213226318359 4.425102233886719 90.60263824462891 7.012794494628906 93.19033050537109 C 9.600471496582031 95.77800750732422 13.04097747802734 97.20311737060547 16.70051574707031 97.20311737060547 L 83.50259399414062 97.20311737060547 C 87.16213226318359 97.20311737060547 90.60263824462891 95.77800750732422 93.19033050537109 93.19033050537109 C 95.77800750732422 90.60263824462891 97.20311737060547 87.16213226318359 97.20311737060547 83.50259399414062 L 97.20311737060547 16.70051574707031 C 97.20311737060547 13.04097747802734 95.77800750732422 9.600471496582031 93.19033050537109 7.012794494628906 C 90.60263824462891 4.425102233886719 87.16213226318359 2.999992370605469 83.50259399414062 2.999992370605469 L 16.70051574707031 2.999992370605469 M 16.70051574707031 -7.62939453125e-06 L 83.50259399414062 -7.62939453125e-06 C 92.72603607177734 -7.62939453125e-06 100.2031173706055 7.477088928222656 100.2031173706055 16.70051574707031 L 100.2031173706055 83.50259399414062 C 100.2031173706055 92.72603607177734 92.72603607177734 100.2031173706055 83.50259399414062 100.2031173706055 L 16.70051574707031 100.2031173706055 C 7.477088928222656 100.2031173706055 -7.62939453125e-06 92.72603607177734 -7.62939453125e-06 83.50259399414062 L -7.62939453125e-06 16.70051574707031 C -7.62939453125e-06 7.477088928222656 7.477088928222656 -7.62939453125e-06 16.70051574707031 -7.62939453125e-06 Z" stroke="none" fill="#b18c32"/>
    </g>
    <g id="Mask_Group_1200917" data-name="Mask Group 1200917" clip-path="url(#clip-path)">
      <g id="financial-statements_18553406" transform="translate(766.393 8083.654)">
        <path id="Path_1276487" data-name="Path 1276487" d="M62.008,26.186H59.984V53.719a.8.8,0,0,1-.064.312l-2.788,8.778a.8.8,0,0,1-1.518,0l-2.787-8.776a.8.8,0,0,1-.064-.312V23.8a.8.8,0,0,1,.8-.8h.223V20.917a.966.966,0,0,1-.962-.965V16.384a.966.966,0,0,1,.965-.965h5.171a.966.966,0,0,1,.965.965v.986h2.888a.8.8,0,0,1,.8.8V33.833a.8.8,0,0,1-1.6,0V26.186Zm-2.024-1.6h2.024V18.966H59.924v.987a.966.966,0,0,1-.962.965V23h.223a.8.8,0,0,1,.8.8Z" fill-rule="evenodd"/>
        <path id="Path_1276488" data-name="Path 1276488" d="M8.718,3.845H50.623A5.11,5.11,0,0,1,51.421,14V60.517a2.858,2.858,0,0,1-2.85,2.85h-37.8a2.858,2.858,0,0,1-2.851-2.85V43.091H6.1A2.494,2.494,0,0,1,3.607,40.6V8.959a5.12,5.12,0,0,1,5.11-5.114Z" fill-rule="evenodd"/>
        <path id="Path_1276489" data-name="Path 1276489" d="M54.36,24.6h4.026V52.919H54.36Z" fill="#30a5cc"/>
        <path id="Path_1276490" data-name="Path 1276490" d="M54.649,54.517l1.725,5.427L58.1,54.517Z" fill="#fe6666" fill-rule="evenodd"/>
        <path id="Path_1276491" data-name="Path 1276491" d="M55.383,20.917h1.982V23H55.383Z" fill="#248696"/>
        <g id="Group_1204130" data-name="Group 1204130">
          <path id="Path_1276492" data-name="Path 1276492" d="M54.581,19.32h3.745v-2.3H54.421v2.3Z" fill="#407297" fill-rule="evenodd"/>
          <path id="Path_1276493" data-name="Path 1276493" d="M49.825,14.067H9.516v46.45a1.262,1.262,0,0,0,1.255,1.255h37.8a1.26,1.26,0,0,0,1.255-1.255V14.067ZM13.239,37.938a.8.8,0,1,1,0-1.6h1.707V26.719a.8.8,0,0,1,.8-.8h3.842v-4a.8.8,0,0,1,.8-.8h4.643a.8.8,0,0,1,.8.8v6.755h3.047V17.126a.8.8,0,0,1,.8-.8h4.643a.8.8,0,0,1,.8.8v4.062h3.845a.8.8,0,0,1,.8.8v2.406H43.6a.8.8,0,0,1,.8.8V36.335H46.1a.8.8,0,0,1,0,1.6ZM16.39,51.471a.8.8,0,0,1-1.6,0v-.394a2.837,2.837,0,0,1-2.035-2.72.8.8,0,1,1,1.6,0,1.238,1.238,0,1,0,1.237-1.237,2.834,2.834,0,0,1-.8-5.553v-.394a.8.8,0,0,1,1.6,0v.394a2.833,2.833,0,0,1,2.035,2.719.8.8,0,1,1-1.6,0,1.238,1.238,0,1,0-1.238,1.238,2.824,2.824,0,0,1,.793,5.541v.394Zm5.217-8.446a.8.8,0,0,1,0-1.6H45.8a.8.8,0,0,1,0,1.6Zm-8.5,15.261a.8.8,0,1,1,0-1.6h33.12a.8.8,0,1,1,0,1.6ZM21.6,48.113a.8.8,0,1,1,0-1.6H45.8a.8.8,0,1,1,0,1.6Zm0,5.087a.8.8,0,0,1,0-1.6H45.8a.8.8,0,0,1,0,1.6Z" fill="#e9e9eb" fill-rule="evenodd"/>
          <path id="Path_1276494" data-name="Path 1276494" d="M13.828,8.955a5.1,5.1,0,0,1-1.4,3.516h38.2a3.514,3.514,0,0,0,0-7.028h-38.2A5.089,5.089,0,0,1,13.828,8.955Z" fill="#d9d9dd" fill-rule="evenodd"/>
          <path id="Path_1276495" data-name="Path 1276495" d="M8.739,12.471A3.51,3.51,0,1,0,5.2,8.957V40.594a.9.9,0,0,0,.9.9H7.92V13.269a.8.8,0,0,1,.819-.8Z" fill="#c4c4c4" fill-rule="evenodd"/>
        </g>
        <path id="Path_1276496" data-name="Path 1276496" d="M39.755,26H42.8V36.341H39.755Z" fill="#407297"/>
        <path id="Path_1276497" data-name="Path 1276497" d="M35.112,22.79h3.046v13.55H35.112Z" fill="#248696"/>
        <path id="Path_1276498" data-name="Path 1276498" d="M30.469,17.929h3.046V36.341H30.469Z" fill="#30a5cc"/>
        <path id="Path_1276499" data-name="Path 1276499" d="M25.825,30.274h3.046v6.066H25.825Z" fill="#4e8de0"/>
        <path id="Path_1276500" data-name="Path 1276500" d="M21.182,22.721h3.046V36.339H21.182Z" fill="#ffc250"/>
        <path id="Path_1276501" data-name="Path 1276501" d="M16.539,27.518h3.046v8.823H16.539Z" fill="#fe6666"/>
      </g>
    </g>
  </g>
</svg>
