<svg xmlns="http://www.w3.org/2000/svg" xmlns:xlink="http://www.w3.org/1999/xlink" width="90" height="90" viewBox="0 0 90 90">
  <defs>
    <clipPath id="clip-path">
      <rect id="Rectangle_412059" data-name="Rectangle 412059" width="60" height="61" transform="translate(1110.032 1571)" fill="#fff" stroke="#707070" stroke-width="1"/>
    </clipPath>
  </defs>
  <g id="Group_1204101" data-name="Group 1204101" transform="translate(-1094.763 -1556.46)">
    <g id="Path_1275909" data-name="Path 1275909" transform="translate(1094.763 1556.46)" fill="#caedb8">
      <path d="M 75 88.5 L 15 88.5 C 11.39401245117188 88.5 8.003874778747559 87.09574890136719 5.454062461853027 84.54593658447266 C 2.904249906539917 81.99612426757812 1.5 78.60598754882812 1.5 75 L 1.5 15 C 1.5 11.39401245117188 2.904249906539917 8.003874778747559 5.454062461853027 5.454062461853027 C 8.003874778747559 2.904249906539917 11.39401245117188 1.5 15 1.5 L 75 1.5 C 78.60598754882812 1.5 81.99612426757812 2.904249906539917 84.54593658447266 5.454062461853027 C 87.09574890136719 8.003874778747559 88.5 11.39401245117188 88.5 15 L 88.5 75 C 88.5 78.60598754882812 87.09574890136719 81.99612426757812 84.54593658447266 84.54593658447266 C 81.99612426757812 87.09574890136719 78.60598754882812 88.5 75 88.5 Z" stroke="none"/>
      <path d="M 15 3 C 11.79468536376953 3 8.781211853027344 4.248214721679688 6.514717102050781 6.514717102050781 C 4.248214721679688 8.781211853027344 3 11.79468536376953 3 15 L 3 75 C 3 78.20531463623047 4.248214721679688 81.21878814697266 6.514717102050781 83.48528289794922 C 8.781211853027344 85.75178527832031 11.79468536376953 87 15 87 L 75 87 C 78.20531463623047 87 81.21878814697266 85.75178527832031 83.48528289794922 83.48528289794922 C 85.75178527832031 81.21878814697266 87 78.20531463623047 87 75 L 87 15 C 87 11.79468536376953 85.75178527832031 8.781211853027344 83.48528289794922 6.514717102050781 C 81.21878814697266 4.248214721679688 78.20531463623047 3 75 3 L 15 3 M 15 0 L 75 0 C 83.28427124023438 0 90 6.715728759765625 90 15 L 90 75 C 90 83.28427124023438 83.28427124023438 90 75 90 L 15 90 C 6.715728759765625 90 0 83.28427124023438 0 75 L 0 15 C 0 6.715728759765625 6.715728759765625 0 15 0 Z" stroke="none" fill="#569338"/>
    </g>
    <g id="Mask_Group_1200910" data-name="Mask Group 1200910" clip-path="url(#clip-path)">
      <g id="currency_4439798" transform="translate(1107.732 1569.201)">
        <path id="Path_1276348" data-name="Path 1276348" d="M32.3,3.183a12.211,12.211,0,0,0-10.219,18.9,12.272,12.272,0,0,1,3.533,3.533A12.213,12.213,0,1,0,32.3,3.183Z" fill="#fcc101"/>
        <path id="Path_1276349" data-name="Path 1276349" d="M25.615,38.985a12.217,12.217,0,1,0-3.533,3.533,12.272,12.272,0,0,1,3.533-3.533Z" fill="#f4dd45"/>
        <path id="Path_1276350" data-name="Path 1276350" d="M38.985,38.985a12.217,12.217,0,1,0,3.533,3.533,12.264,12.264,0,0,1-3.533-3.533Z" fill="#fcc101"/>
        <path id="Path_1276351" data-name="Path 1276351" d="M49.2,20.086a12.152,12.152,0,0,0-6.685,1.994,12.279,12.279,0,0,1-3.533,3.533A12.213,12.213,0,1,0,49.2,20.086Z" fill="#f4dd45"/>
        <circle id="Ellipse_12480" data-name="Ellipse 12480" cx="8.378" cy="8.378" r="8.378" transform="translate(7.018 23.922)" fill="#fcc101"/>
        <circle id="Ellipse_12481" data-name="Ellipse 12481" cx="8.379" cy="8.379" r="8.379" transform="matrix(0.771, -0.637, 0.637, 0.771, 20.513, 14.292)" fill="#f4dd45"/>
        <circle id="Ellipse_12482" data-name="Ellipse 12482" cx="8.382" cy="8.382" r="8.382" transform="matrix(0.968, -0.253, 0.253, 0.968, 22.093, 43.234)" fill="#f4dd45"/>
        <circle id="Ellipse_12483" data-name="Ellipse 12483" cx="8.378" cy="8.378" r="8.378" transform="translate(40.826 23.922)" fill="#fcc101"/>
        <g id="Group_1204093" data-name="Group 1204093">
          <path id="Path_1276352" data-name="Path 1276352" d="M12.476,34.5l-1.031,1.274A5.869,5.869,0,0,0,14.78,37.3v.959h1.3v-.915c2.076-.143,3.264-1.346,3.264-2.992,0-1.746-1.3-2.419-3.264-2.863V28.8a4.687,4.687,0,0,1,2.035,1.074l.973-1.317a5.327,5.327,0,0,0-3.006-1.331v-.887h-1.3v.873a3.056,3.056,0,0,0-2.949,2.949c0,1.689,1.188,2.319,2.949,2.776v2.791a4.892,4.892,0,0,1-2.3-1.229Zm3.607-1.231c1.017.3,1.475.6,1.475,1.262,0,.63-.5,1.174-1.475,1.288ZM13.635,30a1.352,1.352,0,0,1,1.145-1.231v2.376C14.007,30.875,13.635,30.575,13.635,30Z"/>
          <path id="Path_1276353" data-name="Path 1276353" d="M7.458,23.9a.88.88,0,0,0,.574-.212,11.365,11.365,0,0,1,1.692-1.2.883.883,0,0,0-.886-1.528,13.122,13.122,0,0,0-1.954,1.385A.883.883,0,0,0,7.458,23.9Z"/>
          <path id="Path_1276354" data-name="Path 1276354" d="M15.4,41.561A9.261,9.261,0,1,0,6.134,32.3,9.261,9.261,0,0,0,15.4,41.561Zm0-16.755A7.5,7.5,0,1,1,7.9,32.3a7.5,7.5,0,0,1,7.5-7.495Z"/>
          <path id="Path_1276355" data-name="Path 1276355" d="M32.3,6.135A9.261,9.261,0,1,0,41.561,15.4,9.261,9.261,0,0,0,32.3,6.135Zm0,16.755a7.495,7.495,0,1,1,7.5-7.495,7.494,7.494,0,0,1-7.5,7.495Z"/>
          <path id="Path_1276356" data-name="Path 1276356" d="M32.3,39.943A9.261,9.261,0,1,0,41.561,49.2,9.261,9.261,0,0,0,32.3,39.943Zm0,16.755a7.495,7.495,0,1,1,7.5-7.495A7.494,7.494,0,0,1,32.3,56.7Z"/>
          <path id="Path_1276357" data-name="Path 1276357" d="M51.966,27.382l-2.749,4.452-2.706-4.452h-2.1l3.292,5.2H45.668v1.074H48.3v.988H45.668v1.073H48.3v1.5H50.12v-1.5h2.649V34.64H50.12v-.988h2.649V32.579H50.721L54,27.382Z"/>
          <path id="Path_1276358" data-name="Path 1276358" d="M49.2,19.2a13.08,13.08,0,0,0-4.67.858,13.094,13.094,0,1,0-24.47,0A13.021,13.021,0,0,0,15.4,19.2a13.275,13.275,0,0,0-1.716.112.883.883,0,1,0,.227,1.752,11.526,11.526,0,0,1,1.489-.1,11.325,11.325,0,0,1,9.569,17.39,13.21,13.21,0,0,0-3.509,3.509A11.33,11.33,0,0,1,5.485,26.805a.883.883,0,0,0-1.543-.858A13.1,13.1,0,0,0,20.066,44.536a13.094,13.094,0,1,0,24.47,0,13.1,13.1,0,0,0,9.9-.225.883.883,0,1,0-.707-1.619,11.328,11.328,0,0,1-14.1-16.449,13.215,13.215,0,0,0,3.509-3.509A11.328,11.328,0,0,1,57.27,40.255.883.883,0,0,0,58.528,41.5,13.1,13.1,0,0,0,49.2,19.2Zm-7.335,23.94a11.34,11.34,0,1,1-3.509-3.509A13.208,13.208,0,0,0,41.869,43.143Zm-4.9-6.176a13.089,13.089,0,0,0-9.337,0,13.089,13.089,0,0,0,0-9.337,13.088,13.088,0,0,0,9.337,0,13.092,13.092,0,0,0,0,9.337ZM32.3,26.725a11.28,11.28,0,0,1-6.06-1.761,13.21,13.21,0,0,0-3.508-3.508A11.327,11.327,0,1,1,32.3,26.725Z"/>
          <path id="Path_1276359" data-name="Path 1276359" d="M49.2,23.038A9.261,9.261,0,1,0,58.465,32.3,9.261,9.261,0,0,0,49.2,23.038Zm0,16.755A7.5,7.5,0,1,1,56.7,32.3a7.5,7.5,0,0,1-7.5,7.495Z"/>
          <path id="Path_1276360" data-name="Path 1276360" d="M31.226,50.226h2.519V49.152H31.226V47.39a1.712,1.712,0,0,1,1.66-1.875A1.96,1.96,0,0,1,34.733,46.7l1.217-1.174A3.816,3.816,0,0,0,32.743,43.9a3.2,3.2,0,0,0-3.293,3.381v1.875h-.959v1.073h.959v2.221l-1.13.7v.757h7.96V52.445H31.226Z"/>
          <path id="Path_1276361" data-name="Path 1276361" d="M32.478,11.939a3.235,3.235,0,0,1,2.434,1.145L36.186,11.9a5.169,5.169,0,0,0-3.708-1.589A5.244,5.244,0,0,0,27.611,13.7H26.395v1.016h.959a5.217,5.217,0,0,0-.043.673c0,.157.015.315.029.472h-.945v1.016H27.54a5.265,5.265,0,0,0,4.939,3.607,5.127,5.127,0,0,0,3.707-1.6l-1.262-1.174a3.264,3.264,0,0,1-2.448,1.145,3.41,3.41,0,0,1-3.021-1.975h3.865V15.861H29.157c-.014-.157-.028-.315-.028-.472a3.469,3.469,0,0,1,.071-.673h4.123V13.7H29.574a3.365,3.365,0,0,1,2.9-1.761Z"/>
        </g>
      </g>
    </g>
  </g>
</svg>
