<svg xmlns="http://www.w3.org/2000/svg" xmlns:xlink="http://www.w3.org/1999/xlink" width="90" height="90" viewBox="0 0 90 90">
  <defs>
    <clipPath id="clip-path">
      <rect id="Rectangle_412076" data-name="Rectangle 412076" width="60" height="61" transform="translate(-603.018 -10051)" fill="#fff" stroke="#707070" stroke-width="1"/>
    </clipPath>
  </defs>
  <g id="Group_1204100" data-name="Group 1204100" transform="translate(618.288 10065.54)">
    <g id="Path_1275915" data-name="Path 1275915" transform="translate(-618.288 -10065.54)" fill="#caedb8">
      <path d="M 75 88.5 L 15 88.5 C 11.39401245117188 88.5 8.003874778747559 87.09574890136719 5.454062461853027 84.54593658447266 C 2.904249906539917 81.99612426757812 1.5 78.60598754882812 1.5 75 L 1.5 15 C 1.5 11.39401245117188 2.904249906539917 8.003874778747559 5.454062461853027 5.454062461853027 C 8.003874778747559 2.904249906539917 11.39401245117188 1.5 15 1.5 L 75 1.5 C 78.60598754882812 1.5 81.99612426757812 2.904249906539917 84.54593658447266 5.454062461853027 C 87.09574890136719 8.003874778747559 88.5 11.39401245117188 88.5 15 L 88.5 75 C 88.5 78.60598754882812 87.09574890136719 81.99612426757812 84.54593658447266 84.54593658447266 C 81.99612426757812 87.09574890136719 78.60598754882812 88.5 75 88.5 Z" stroke="none"/>
      <path d="M 15 3 C 11.79468536376953 3 8.781211853027344 4.248214721679688 6.514717102050781 6.514717102050781 C 4.248214721679688 8.781211853027344 3 11.79468536376953 3 15 L 3 75 C 3 78.20531463623047 4.248214721679688 81.21878814697266 6.514717102050781 83.48528289794922 C 8.781211853027344 85.75178527832031 11.79468536376953 87 15 87 L 75 87 C 78.20531463623047 87 81.21878814697266 85.75178527832031 83.48528289794922 83.48528289794922 C 85.75178527832031 81.21878814697266 87 78.20531463623047 87 75 L 87 15 C 87 11.79468536376953 85.75178527832031 8.781211853027344 83.48528289794922 6.514717102050781 C 81.21878814697266 4.248214721679688 78.20531463623047 3 75 3 L 15 3 M 15 0 L 75 0 C 83.28427124023438 0 90 6.715728759765625 90 15 L 90 75 C 90 83.28427124023438 83.28427124023438 90 75 90 L 15 90 C 6.715728759765625 90 0 83.28427124023438 0 75 L 0 15 C 0 6.715728759765625 6.715728759765625 0 15 0 Z" stroke="none" fill="#569338"/>
    </g>
    <g id="Mask_Group_1200911" data-name="Mask Group 1200911" clip-path="url(#clip-path)">
      <g id="clipboard_831141" transform="translate(-603.518 -10051)">
        <g id="Group_1204096" data-name="Group 1204096" transform="translate(0.119 0.119)">
          <path id="Path_1276362" data-name="Path 1276362" d="M10.047,5.981H50.714a2.033,2.033,0,0,1,2.033,2.033V57.831a2.033,2.033,0,0,1-2.033,2.033H10.047a2.033,2.033,0,0,1-2.033-2.033V8.014A2.034,2.034,0,0,1,10.047,5.981Z" fill="#4e342e"/>
          <path id="Path_1276363" data-name="Path 1276363" d="M10.047,5.981H47.664A2.033,2.033,0,0,1,49.7,8.014V57.831a2.033,2.033,0,0,1-2.033,2.033H10.047a2.033,2.033,0,0,1-2.033-2.033V8.014A2.034,2.034,0,0,1,10.047,5.981Z" fill="#795548"/>
          <path id="Path_1276364" data-name="Path 1276364" d="M41.564,10.047h6.1a1.017,1.017,0,0,1,1.017,1.017V54.781A1.017,1.017,0,0,1,47.664,55.8H13.1a1.017,1.017,0,0,1-1.017-1.017V11.064A1.017,1.017,0,0,1,13.1,10.048H41.564Z" fill="#fdd834"/>
          <path id="Path_1276365" data-name="Path 1276365" d="M39.107,10.047H44.7a.977.977,0,0,1,.932,1.017V54.781A.977.977,0,0,1,44.7,55.8H13.013a.977.977,0,0,1-.932-1.017V11.064a.977.977,0,0,1,.932-1.017H39.107Z" fill="#ffeb3a"/>
          <path id="Path_1276366" data-name="Path 1276366" d="M30.381,32.414h7.412a1.017,1.017,0,0,0,.886-1.515L31.267,17.723a1.017,1.017,0,0,0-1.772,0L22.083,30.9a1.017,1.017,0,0,0,.886,1.515h7.412Z" fill="#f44335"/>
          <g id="Group_1204094" data-name="Group 1204094">
            <path id="Path_1276367" data-name="Path 1276367" d="M38.514,2.931v3.05H22.247V2.931A2.039,2.039,0,0,1,24.281.9h12.2A2.039,2.039,0,0,1,38.514,2.931Z" fill="#607d8b"/>
            <path id="Path_1276368" data-name="Path 1276368" d="M41.564,5.981v4.067a2.039,2.039,0,0,1-2.033,2.033h-18.3A2.039,2.039,0,0,1,19.2,10.047V5.981Z" fill="#607d8b"/>
          </g>
          <g id="Group_1204095" data-name="Group 1204095">
            <path id="Path_1276369" data-name="Path 1276369" d="M35.464,2.931v3.05H22.247V2.931A2.039,2.039,0,0,1,24.281.9h9.15A2.039,2.039,0,0,1,35.464,2.931Z" fill="#cfd8dc"/>
            <path id="Path_1276370" data-name="Path 1276370" d="M38.514,5.981v4.067a2.039,2.039,0,0,1-2.033,2.033H21.231A2.039,2.039,0,0,1,19.2,10.047V5.981Z" fill="#cfd8dc"/>
          </g>
        </g>
        <g id="Group_1204097" data-name="Group 1204097">
          <path id="Path_1276371" data-name="Path 1276371" d="M50.833,5.083H39.65V3.05A3.053,3.053,0,0,0,36.6,0H24.4a3.053,3.053,0,0,0-3.05,3.05V5.083H10.167a3.053,3.053,0,0,0-3.05,3.05V57.95A3.053,3.053,0,0,0,10.167,61H50.833a3.053,3.053,0,0,0,3.05-3.05V8.133A3.053,3.053,0,0,0,50.833,5.083Zm-32.346,6.1a3.045,3.045,0,0,0,2.863,2.033h18.3a3.045,3.045,0,0,0,2.863-2.033h5.271V54.9H13.217V11.183Zm4.9-8.133A1.018,1.018,0,0,1,24.4,2.033H36.6A1.018,1.018,0,0,1,37.617,3.05V5.083H23.383ZM22.367,7.117h18.3v3.05a1.018,1.018,0,0,1-1.017,1.017H21.35a1.018,1.018,0,0,1-1.017-1.017V7.117ZM51.85,57.95a1.018,1.018,0,0,1-1.017,1.017H10.167A1.018,1.018,0,0,1,9.15,57.95V8.133a1.018,1.018,0,0,1,1.017-1.017H18.3V9.15H13.217a2.035,2.035,0,0,0-2.033,2.033V54.9a2.035,2.035,0,0,0,2.033,2.033H47.783A2.035,2.035,0,0,0,49.817,54.9V11.183A2.035,2.035,0,0,0,47.783,9.15H42.7V7.117h8.133A1.018,1.018,0,0,1,51.85,8.133V57.95Z"/>
          <path id="Path_1276372" data-name="Path 1276372" d="M23.089,33.55H37.911a2.033,2.033,0,0,0,1.772-3.03L32.272,17.343a2.033,2.033,0,0,0-3.544,0L21.316,30.52a2.033,2.033,0,0,0,1.772,3.03ZM30.5,18.34l7.411,13.176H23.089Z"/>
          <path id="Path_1276373" data-name="Path 1276373" d="M30.5,22.367a1.017,1.017,0,0,0-1.017,1.017v3.05a1.017,1.017,0,0,0,2.033,0v-3.05A1.017,1.017,0,0,0,30.5,22.367Z"/>
          <path id="Path_1276374" data-name="Path 1276374" d="M31.435,29.1a.574.574,0,0,0-.092-.173c-.04-.061-.081-.112-.122-.162A1.021,1.021,0,1,0,30.5,30.5a1.416,1.416,0,0,0,.2-.02.665.665,0,0,0,.183-.061.772.772,0,0,0,.183-.092,1.593,1.593,0,0,0,.152-.122l.122-.152a.774.774,0,0,0,.092-.183.664.664,0,0,0,.061-.183,1.416,1.416,0,0,0,.02-.2,1.574,1.574,0,0,0-.02-.2A.664.664,0,0,0,31.435,29.1Z"/>
          <path id="Path_1276375" data-name="Path 1276375" d="M23.383,35.583a1.017,1.017,0,1,0,0,2.033H37.617a1.017,1.017,0,1,0,0-2.033Z"/>
          <path id="Path_1276376" data-name="Path 1276376" d="M37.617,47.783H23.383a1.017,1.017,0,1,0,0,2.033H37.617a1.017,1.017,0,1,0,0-2.033Z"/>
          <path id="Path_1276377" data-name="Path 1276377" d="M18.3,41.683H42.7a1.017,1.017,0,1,0,0-2.033H18.3a1.017,1.017,0,1,0,0,2.033Z"/>
          <path id="Path_1276378" data-name="Path 1276378" d="M18.3,45.75H42.7a1.017,1.017,0,0,0,0-2.033H18.3a1.017,1.017,0,1,0,0,2.033Z"/>
        </g>
      </g>
    </g>
  </g>
</svg>
