<svg xmlns="http://www.w3.org/2000/svg" xmlns:xlink="http://www.w3.org/1999/xlink" width="90" height="90" viewBox="0 0 90 90">
  <defs>
    <clipPath id="clip-path">
      <rect id="Rectangle_412063" data-name="Rectangle 412063" width="60" height="61" transform="translate(-276.018 -10051)" fill="#fff" stroke="#707070" stroke-width="1"/>
    </clipPath>
  </defs>
  <g id="Group_1204099" data-name="Group 1204099" transform="translate(291.288 10065.54)">
    <g id="Path_1275911" data-name="Path 1275911" transform="translate(-291.288 -10065.54)" fill="#caedb8">
      <path d="M 75 88.5 L 15 88.5 C 11.39401245117188 88.5 8.003874778747559 87.09574890136719 5.454062461853027 84.54593658447266 C 2.904249906539917 81.99612426757812 1.5 78.60598754882812 1.5 75 L 1.5 15 C 1.5 11.39401245117188 2.904249906539917 8.003874778747559 5.454062461853027 5.454062461853027 C 8.003874778747559 2.904249906539917 11.39401245117188 1.5 15 1.5 L 75 1.5 C 78.60598754882812 1.5 81.99612426757812 2.904249906539917 84.54593658447266 5.454062461853027 C 87.09574890136719 8.003874778747559 88.5 11.39401245117188 88.5 15 L 88.5 75 C 88.5 78.60598754882812 87.09574890136719 81.99612426757812 84.54593658447266 84.54593658447266 C 81.99612426757812 87.09574890136719 78.60598754882812 88.5 75 88.5 Z" stroke="none"/>
      <path d="M 15 3 C 11.79468536376953 3 8.781211853027344 4.248214721679688 6.514717102050781 6.514717102050781 C 4.248214721679688 8.781211853027344 3 11.79468536376953 3 15 L 3 75 C 3 78.20531463623047 4.248214721679688 81.21878814697266 6.514717102050781 83.48528289794922 C 8.781211853027344 85.75178527832031 11.79468536376953 87 15 87 L 75 87 C 78.20531463623047 87 81.21878814697266 85.75178527832031 83.48528289794922 83.48528289794922 C 85.75178527832031 81.21878814697266 87 78.20531463623047 87 75 L 87 15 C 87 11.79468536376953 85.75178527832031 8.781211853027344 83.48528289794922 6.514717102050781 C 81.21878814697266 4.248214721679688 78.20531463623047 3 75 3 L 15 3 M 15 0 L 75 0 C 83.28427124023438 0 90 6.715728759765625 90 15 L 90 75 C 90 83.28427124023438 83.28427124023438 90 75 90 L 15 90 C 6.715728759765625 90 0 83.28427124023438 0 75 L 0 15 C 0 6.715728759765625 6.715728759765625 0 15 0 Z" stroke="none" fill="#569338"/>
    </g>
    <g id="Mask_Group_1200912" data-name="Mask Group 1200912" clip-path="url(#clip-path)">
      <g id="options_10983241" transform="translate(-280.032 -10054.526)">
        <g id="Group_1204098" data-name="Group 1204098">
          <path id="Path_1276379" data-name="Path 1276379" d="M63.043,46.472l-5.156,2.977-5.143,2.963V48.691H19.708v3.721l-5.143-2.963L9.409,46.472,14.565,43.5l5.143-2.963v3.721H52.744V40.532L57.887,43.5Z" fill="#ed2024" fill-rule="evenodd"/>
          <path id="Path_1276380" data-name="Path 1276380" d="M63.043,46.472l-5.156,2.977-5.143,2.963V48.691H19.708v3.721l-5.143-2.963L9.409,46.472Z" fill="#b92025" fill-rule="evenodd"/>
          <path id="Path_1276381" data-name="Path 1276381" d="M36.226,63.03A10.047,10.047,0,1,0,26.179,52.983,10.064,10.064,0,0,0,36.226,63.03Z" fill="#ffc60b" fill-rule="evenodd"/>
          <path id="Path_1276382" data-name="Path 1276382" d="M31.229,5.01H12.771L5.01,12.771V35.083A2.195,2.195,0,0,0,7.2,37.276H31.229a2.195,2.195,0,0,0,2.193-2.193V7.2A2.195,2.195,0,0,0,31.229,5.01Z" fill="#b4c98b" fill-rule="evenodd"/>
          <path id="Path_1276383" data-name="Path 1276383" d="M5.01,12.771h5.568a2.195,2.195,0,0,0,2.193-2.193V5.01Z" fill="#718446" fill-rule="evenodd"/>
          <path id="Path_1276384" data-name="Path 1276384" d="M29.807,28.159h4.558v9.13H29.807Zm32.04-5.209V37.276H57.289V15.787h4.558Zm-9.169,1.581H48.133V37.276h4.545Zm-13.714-6.3h4.545V37.276H38.963Z" fill="#6d51a1" fill-rule="evenodd"/>
          <path id="Path_1276385" data-name="Path 1276385" d="M36.226,59.429a6.458,6.458,0,1,0-6.458-6.458A6.465,6.465,0,0,0,36.226,59.429Z" fill="#faa21b" fill-rule="evenodd"/>
          <path id="Path_1276386" data-name="Path 1276386" d="M42.432,54.3A1.635,1.635,0,1,0,40.8,52.664,1.633,1.633,0,0,0,42.432,54.3Z" fill="#feeb90" fill-rule="evenodd"/>
          <path id="Path_1276387" data-name="Path 1276387" d="M29.807,33.037h4.558v4.239H29.807Zm32.04-2.405v6.658H57.289v-9.98h4.558Zm-9.169.731H48.133v5.914h4.545ZM38.963,28.439h4.545v8.837H38.963Z" fill="#362063" fill-rule="evenodd"/>
          <path id="Path_1276388" data-name="Path 1276388" d="M26.405,8.638h2.472a1.747,1.747,0,0,1,1.741,1.741v7.548a1.747,1.747,0,0,1-1.741,1.741H26.405a1.747,1.747,0,0,1-1.741-1.741V10.379a1.756,1.756,0,0,1,1.741-1.741Z" fill="#cedbb3" fill-rule="evenodd"/>
          <path id="Path_1276389" data-name="Path 1276389" d="M25.927,26.073h3.429a1.27,1.27,0,0,0,1.262-1.262V23.017a1.27,1.27,0,0,0-1.262-1.262H25.927a1.27,1.27,0,0,0-1.262,1.262v1.794A1.279,1.279,0,0,0,25.927,26.073Z" fill="#cedbb3" fill-rule="evenodd"/>
        </g>
        <path id="Path_1276390" data-name="Path 1276390" d="M29.807,27.163h2.631V17.369a.95.95,0,0,1-.9-.346l-1.249-1.462a.973.973,0,0,1,.106-1.382.99.99,0,0,1,1.4.106l.5.6.146-.173V7.2a1.214,1.214,0,0,0-1.209-1.209H13.754v4.585a3.2,3.2,0,0,1-3.189,3.189H5.993V35.083A1.214,1.214,0,0,0,7.2,36.292H28.824V28.159a.984.984,0,0,1,.983-1Zm4.611,0a.989.989,0,0,1,.93.983v9.13a.993.993,0,0,1-.983,1H7.2a3.2,3.2,0,0,1-3.189-3.189V12.771a.647.647,0,0,1,.013-.159.049.049,0,0,1,.013-.04v-.027c0-.013,0-.013.013-.027l.013-.04.013-.027.027-.066.027-.066.027-.04.159-.2L12.08,4.319a.973.973,0,0,1,.7-.292H31.229a3.19,3.19,0,0,1,3.189,3.189V12.4L39.1,6.937a.99.99,0,0,1,1.4.106l3.282,3.841a.99.99,0,1,1-1.5,1.289L39.748,9.209l-5.316,6.233V27.163Zm-1.05,1.98H30.791v7.15h2.578ZM62.831,22.95V37.276a.993.993,0,0,1-.983,1H57.3a1,1,0,0,1-1-1V15.787a.984.984,0,0,1,1-.983h4.545a.981.981,0,0,1,.983.983Zm-1.98,13.342V16.784H58.272V36.292ZM51.694,25.528H49.116V36.292h2.578Zm-3.561-1.98h4.558a.984.984,0,0,1,.983,1V37.289a.993.993,0,0,1-.983,1H48.133a.984.984,0,0,1-.983-1V24.545A.976.976,0,0,1,48.133,23.548Zm-9.169-6.3h4.545a.981.981,0,0,1,.983.983V37.276a.993.993,0,0,1-.983,1H38.963a.984.984,0,0,1-.983-1V18.233a.981.981,0,0,1,.983-.983Zm3.561,1.98H39.947V36.292h2.578Zm4.744-1.2a.973.973,0,0,1,.106-1.382,1,1,0,0,1,1.4.106l.266.306.252-.306a.989.989,0,0,1,1.4-.106.962.962,0,0,1,.106,1.382l-1.116,1.289a.99.99,0,0,1-1.4-.106Zm5.688-2.551a.98.98,0,1,1-1.488-1.276l.771-.9a.989.989,0,0,1,1.4-.106.973.973,0,0,1,.106,1.382Zm3.056-3.575a.98.98,0,1,1-1.488-1.276l.89-1.05a.99.99,0,1,1,1.5,1.289Zm3.11-3.654a.98.98,0,1,1-1.488-1.276l1.183-1.382A.973.973,0,0,1,60.2,5.488a.989.989,0,0,1,.106,1.4Zm-12.532,5.94A.98.98,0,1,1,45.1,15.468l-.771-.9a.973.973,0,0,1,.106-1.382.99.99,0,0,1,1.4.106ZM7.761,23.269a.966.966,0,0,1,.89-1.063.985.985,0,0,1,1.076.89c.08.864,1.714,1.369,2.645.611a.908.908,0,0,0,.372-.678c0-.744-.85-.9-1.7-1.076-1.648-.319-3.3-.638-3.3-3a3.093,3.093,0,0,1,2.485-2.9v-.5a.987.987,0,0,1,1.01-.983.976.976,0,0,1,.983,1l-.013.478a3.108,3.108,0,0,1,2.5,2.91.983.983,0,0,1-1.967,0c0-.917-1.688-1.462-2.645-.678a.891.891,0,0,0-.359.678c0,.744.837.9,1.688,1.076,1.648.319,3.3.638,3.3,3a3.132,3.132,0,0,1-2.5,2.91l-.013.492a.983.983,0,0,1-1.967,0V25.94a3.194,3.194,0,0,1-2.485-2.671Zm.718,11.243a.99.99,0,0,1,0-1.98H19.92a.981.981,0,0,1,.983.983.993.993,0,0,1-.983,1Zm0-3.442a.983.983,0,1,1,0-1.967H19.92a.983.983,0,0,1,0,1.967Zm13.143-4.7a.983.983,0,1,1-1.967,0v-.811a.983.983,0,1,1,1.967,0Zm0-3a.983.983,0,1,1-1.967,0v-.771a.983.983,0,1,1,1.967,0Zm0-2.831a.983.983,0,1,1-1.967,0V19.256H17.183a.986.986,0,0,1-.811-1.555l5.382-9.329a.98.98,0,0,1,1.7,0l5.435,9.422a.988.988,0,0,1-.85,1.475H25.581v1.276a.99.99,0,0,1-1.98,0V18.286a.981.981,0,0,1,.983-.983h1.754L22.6,10.844,18.87,17.3h1.754a.981.981,0,0,1,.983.983v2.246ZM23.6,22.6a.981.981,0,0,1,.983-.983.993.993,0,0,1,1,.983v.771a1,1,0,0,1-1,1,.984.984,0,0,1-.983-1Zm0,2.95a.981.981,0,0,1,.983-.983.993.993,0,0,1,1,.983v.811a.99.99,0,0,1-1.98,0ZM7.389,11.787h3.189a1.214,1.214,0,0,0,1.209-1.209V7.389Zm25.05,43.761a.985.985,0,0,1,.89-1.076.966.966,0,0,1,1.063.89c.106,1.09,2.073,1.7,3.2.771a1.182,1.182,0,0,0,.465-.864c0-2.272-5.635-.173-5.635-4.611a3.4,3.4,0,0,1,2.8-3.176v-.664a.991.991,0,0,1,1.023-.983.976.976,0,0,1,.983,1l-.013.638a3.4,3.4,0,0,1,2.817,3.176.99.99,0,1,1-1.98,0c0-1.156-2.047-1.807-3.2-.864a1.139,1.139,0,0,0-.465.864c0,2.272,5.635.173,5.635,4.611a3.4,3.4,0,0,1-2.817,3.176L37.2,59.1a.99.99,0,0,1-1.98,0v-.664a3.369,3.369,0,0,1-2.777-2.884ZM36.226,41.94a11.005,11.005,0,0,1,5.236,1.316H51.748V40.532a.994.994,0,0,1,1.542-.824l10.233,5.914a.986.986,0,0,1-.013,1.714l-10.286,5.94a.983.983,0,0,1-1.475-.85V49.688h-5a11.042,11.042,0,1,1-21.076,0h-5v2.738a.994.994,0,0,1-1.542.824L8.9,47.336a.991.991,0,0,1,.013-1.714L19.2,39.681a.983.983,0,0,1,1.475.85v2.738H30.963a11.045,11.045,0,0,1,5.262-1.329Zm7.867,3.3a11.08,11.08,0,0,1,1.834,2.458h6.817a.993.993,0,0,1,1,.983V50.7l7.336-4.239-7.336-4.239v2.033a.984.984,0,0,1-1,.983ZM26.525,47.708a11.08,11.08,0,0,1,1.834-2.458H19.708a.981.981,0,0,1-.983-.983v-2.02l-7.336,4.239,7.336,4.239V48.7a.981.981,0,0,1,.983-.983h6.817Zm16.106-1.13a9.047,9.047,0,1,0,2.658,6.405,8.984,8.984,0,0,0-2.658-6.405Z" fill="#010101"/>
      </g>
    </g>
  </g>
</svg>
