<svg xmlns="http://www.w3.org/2000/svg" xmlns:xlink="http://www.w3.org/1999/xlink" width="90" height="90" viewBox="0 0 90 90">
  <defs>
    <clipPath id="clip-path">
      <rect id="Rectangle_412021" data-name="Rectangle 412021" width="60" height="61" transform="translate(508.051 939)" fill="#fff" stroke="#707070" stroke-width="1"/>
    </clipPath>
  </defs>
  <g id="Group_1204091" data-name="Group 1204091" transform="translate(-492.781 -924.46)">
    <g id="Path_1275810" data-name="Path 1275810" transform="translate(492.781 924.46)" fill="#caedb8">
      <path d="M 75 88.5 L 15 88.5 C 11.39401245117188 88.5 8.003874778747559 87.09574890136719 5.454062461853027 84.54593658447266 C 2.904249906539917 81.99612426757812 1.5 78.60598754882812 1.5 75 L 1.5 15 C 1.5 11.39401245117188 2.904249906539917 8.003874778747559 5.454062461853027 5.454062461853027 C 8.003874778747559 2.904249906539917 11.39401245117188 1.5 15 1.5 L 75 1.5 C 78.60598754882812 1.5 81.99612426757812 2.904249906539917 84.54593658447266 5.454062461853027 C 87.09574890136719 8.003874778747559 88.5 11.39401245117188 88.5 15 L 88.5 75 C 88.5 78.60598754882812 87.09574890136719 81.99612426757812 84.54593658447266 84.54593658447266 C 81.99612426757812 87.09574890136719 78.60598754882812 88.5 75 88.5 Z" stroke="none"/>
      <path d="M 15 3 C 11.79468536376953 3 8.781211853027344 4.248214721679688 6.514717102050781 6.514717102050781 C 4.248214721679688 8.781211853027344 3 11.79468536376953 3 15 L 3 75 C 3 78.20531463623047 4.248214721679688 81.21878814697266 6.514717102050781 83.48528289794922 C 8.781211853027344 85.75178527832031 11.79468536376953 87 15 87 L 75 87 C 78.20531463623047 87 81.21878814697266 85.75178527832031 83.48528289794922 83.48528289794922 C 85.75178527832031 81.21878814697266 87 78.20531463623047 87 75 L 87 15 C 87 11.79468536376953 85.75178527832031 8.781211853027344 83.48528289794922 6.514717102050781 C 81.21878814697266 4.248214721679688 78.20531463623047 3 75 3 L 15 3 M 15 0 L 75 0 C 83.28427124023438 0 90 6.715728759765625 90 15 L 90 75 C 90 83.28427124023438 83.28427124023438 90 75 90 L 15 90 C 6.715728759765625 90 0 83.28427124023438 0 75 L 0 15 C 0 6.715728759765625 6.715728759765625 0 15 0 Z" stroke="none" fill="#569338"/>
    </g>
    <g id="Mask_Group_1200908" data-name="Mask Group 1200908" clip-path="url(#clip-path)">
      <g id="online-test_3406954" transform="translate(508.051 939.5)">
        <g id="Group_1204076" data-name="Group 1204076">
          <path id="Path_1276299" data-name="Path 1276299" d="M41.364,54.149a13.721,13.721,0,0,1-4.262-9.47H22.9a13.721,13.721,0,0,1-4.262,9.47Z" fill="#2b4d66"/>
        </g>
        <g id="Group_1204077" data-name="Group 1204077">
          <path id="Path_1276300" data-name="Path 1276300" d="M56.754,44.679H3.246A2.368,2.368,0,0,1,.879,42.311V4.43A2.368,2.368,0,0,1,3.246,2.063H56.753A2.368,2.368,0,0,1,59.121,4.43V42.311A2.367,2.367,0,0,1,56.754,44.679Z" fill="#90d8f9"/>
        </g>
        <g id="Group_1204078" data-name="Group 1204078">
          <path id="Path_1276301" data-name="Path 1276301" d="M56.754,2.063H54.5A2.368,2.368,0,0,1,56.872,4.43V42.311A2.368,2.368,0,0,1,54.5,44.679h2.249a2.368,2.368,0,0,0,2.368-2.368V4.43a2.368,2.368,0,0,0-2.368-2.368Z" fill="#75cef9"/>
        </g>
        <g id="Group_1204079" data-name="Group 1204079">
          <path id="Path_1276302" data-name="Path 1276302" d="M14.256-3.738H45.744V46.928H14.256Z" transform="translate(51.595 -8.405) rotate(90)" fill="#ecf4ff"/>
        </g>
        <g id="Group_1204080" data-name="Group 1204080">
          <path id="Path_1276303" data-name="Path 1276303" d="M14.611,57.227V54.859a.71.71,0,0,1,.71-.71H44.679a.71.71,0,0,1,.71.71v2.368a.71.71,0,0,1-.71.71H15.321a.71.71,0,0,1-.71-.71Z" fill="#4a80aa"/>
        </g>
        <g id="Group_1204081" data-name="Group 1204081">
          <path id="Path_1276304" data-name="Path 1276304" d="M44.679,54.149H41.128a.71.71,0,0,1,.71.71v2.368a.71.71,0,0,1-.71.71h3.551a.71.71,0,0,0,.71-.71V54.859A.71.71,0,0,0,44.679,54.149Z" fill="#407093"/>
        </g>
        <g id="Group_1204088" data-name="Group 1204088">
          <g id="Group_1204083" data-name="Group 1204083">
            <g id="Group_1204082" data-name="Group 1204082">
              <path id="Path_1276305" data-name="Path 1276305" d="M8.455,10.7H13.9V15.44H8.455Z" fill="#78d090"/>
            </g>
          </g>
          <g id="Group_1204085" data-name="Group 1204085">
            <g id="Group_1204084" data-name="Group 1204084">
              <path id="Path_1276306" data-name="Path 1276306" d="M8.455,19.228H13.9v4.735H8.455Z" fill="#78d090"/>
            </g>
          </g>
          <g id="Group_1204087" data-name="Group 1204087">
            <g id="Group_1204086" data-name="Group 1204086">
              <path id="Path_1276307" data-name="Path 1276307" d="M8.455,27.751H13.9v4.735H8.455Z" fill="#78d090"/>
            </g>
          </g>
        </g>
        <g id="Group_1204089" data-name="Group 1204089">
          <path id="Path_1276308" data-name="Path 1276308" d="M41.364,22.305l3.054,10.181,2.036-5.09,5.09-2.036Z" fill="#e490b7"/>
        </g>
        <g id="Group_1204090" data-name="Group 1204090">
          <path id="Path_1276309" data-name="Path 1276309" d="M56.754,1.184H3.246A3.25,3.25,0,0,0,0,4.43V42.312a3.25,3.25,0,0,0,3.246,3.246H8.437a.879.879,0,0,0,0-1.758H3.246a1.49,1.49,0,0,1-1.488-1.488V4.43A1.49,1.49,0,0,1,3.246,2.941H56.754A1.49,1.49,0,0,1,58.242,4.43V42.312A1.49,1.49,0,0,1,56.754,43.8H12.539a.879.879,0,0,0,0,1.758h9.427a13.01,13.01,0,0,1-3.687,7.712H15.321a1.591,1.591,0,0,0-1.589,1.589v2.368a1.591,1.591,0,0,0,1.589,1.589H37.182a.879.879,0,0,0,0-1.758H15.49V55.028H44.51v2.031H41.284a.879.879,0,0,0,0,1.758h3.395a1.591,1.591,0,0,0,1.589-1.589V54.859a1.591,1.591,0,0,0-1.589-1.589H41.721a13.086,13.086,0,0,1-3.684-7.712H56.754A3.25,3.25,0,0,0,60,42.312V4.43a3.25,3.25,0,0,0-3.246-3.246ZM39.367,53.27H20.632a14.745,14.745,0,0,0,3.1-7.712H36.266a14.746,14.746,0,0,0,3.1,7.712Z"/>
          <path id="Path_1276310" data-name="Path 1276310" d="M49.487,38.218h5.845a.879.879,0,0,0,.879-.879V5.851a.879.879,0,0,0-.879-.879H4.668a.879.879,0,0,0-.879.879V37.339a.879.879,0,0,0,.879.879H45.386a.879.879,0,0,0,0-1.758H5.546V6.73H54.454v29.73H49.487a.879.879,0,0,0,0,1.758Z"/>
          <path id="Path_1276311" data-name="Path 1276311" d="M14.779,10.7a.879.879,0,0,0-.879-.879H8.455a.879.879,0,0,0-.879.879v4.735a.879.879,0,0,0,.879.879H13.9a.879.879,0,0,0,.879-.879Zm-1.758,3.856H9.334V11.583h3.688Z"/>
          <path id="Path_1276312" data-name="Path 1276312" d="M18.636,16.318H33.315a.879.879,0,0,0,0-1.758H18.636a.879.879,0,1,0,0,1.758Z"/>
          <path id="Path_1276313" data-name="Path 1276313" d="M37.576,9.825H25.5a.879.879,0,1,0,0,1.758H37.576a.879.879,0,0,0,0-1.758Z"/>
          <path id="Path_1276314" data-name="Path 1276314" d="M18.636,11.583h2.723a.879.879,0,1,0,0-1.758H18.636a.879.879,0,0,0,0,1.758Z"/>
          <path id="Path_1276315" data-name="Path 1276315" d="M14.779,19.228a.879.879,0,0,0-.879-.879H8.455a.879.879,0,0,0-.879.879v4.735a.879.879,0,0,0,.879.879H13.9a.879.879,0,0,0,.879-.879Zm-1.758,3.856H9.334V20.106h3.688Z"/>
          <path id="Path_1276316" data-name="Path 1276316" d="M18.636,24.842H33.315a.879.879,0,0,0,0-1.758H18.636a.879.879,0,0,0,0,1.758Z"/>
          <path id="Path_1276317" data-name="Path 1276317" d="M37.576,18.349H25.5a.879.879,0,1,0,0,1.758H37.576a.879.879,0,0,0,0-1.758Z"/>
          <path id="Path_1276318" data-name="Path 1276318" d="M18.636,20.106h2.723a.879.879,0,0,0,0-1.758H18.636a.879.879,0,0,0,0,1.758Z"/>
          <path id="Path_1276319" data-name="Path 1276319" d="M13.9,26.872H8.455a.879.879,0,0,0-.879.879v4.735a.879.879,0,0,0,.879.879H13.9a.879.879,0,0,0,.879-.879V27.751a.879.879,0,0,0-.879-.879Zm-.879,4.735H9.334V28.63h3.688Z"/>
          <path id="Path_1276320" data-name="Path 1276320" d="M18.636,33.365H33.315a.879.879,0,0,0,0-1.758H18.636a.879.879,0,1,0,0,1.758Z"/>
          <path id="Path_1276321" data-name="Path 1276321" d="M38.455,27.751a.879.879,0,0,0-.879-.879H25.5a.879.879,0,1,0,0,1.758H37.576A.879.879,0,0,0,38.455,27.751Z"/>
          <path id="Path_1276322" data-name="Path 1276322" d="M18.636,28.63h2.723a.879.879,0,0,0,0-1.758H18.636a.879.879,0,0,0,0,1.758Z"/>
          <path id="Path_1276323" data-name="Path 1276323" d="M52.423,25.32a.879.879,0,0,0-.625-.8L41.617,21.463a.879.879,0,0,0-1.094,1.094l3.054,10.181a.879.879,0,0,0,.8.625h.039a.879.879,0,0,0,.816-.553l1.9-4.741,4.741-1.9a.879.879,0,0,0,.552-.855ZM46.128,26.58a.879.879,0,0,0-.49.49l-1.1,2.753-1.862-6.206,6.206,1.862Z"/>
        </g>
      </g>
    </g>
  </g>
</svg>
