<svg xmlns="http://www.w3.org/2000/svg" xmlns:xlink="http://www.w3.org/1999/xlink" width="90" height="90" viewBox="0 0 90 90">
  <defs>
    <clipPath id="clip-path">
      <rect id="Rectangle_412090" data-name="Rectangle 412090" width="60" height="61" transform="translate(297.768 8934.615)" fill="#fff" stroke="#707070" stroke-width="1"/>
    </clipPath>
  </defs>
  <g id="Group_1204229" data-name="Group 1204229" transform="translate(-282.5 -8920.075)">
    <g id="Path_1275990" data-name="Path 1275990" transform="translate(282.5 8920.075)" fill="#ffc94a">
      <path d="M 75 88.5 L 15 88.5 C 11.39401245117188 88.5 8.003874778747559 87.09574890136719 5.454062461853027 84.54593658447266 C 2.904249906539917 81.99612426757812 1.5 78.60598754882812 1.5 75 L 1.5 15 C 1.5 11.39401245117188 2.904249906539917 8.003874778747559 5.454062461853027 5.454062461853027 C 8.003874778747559 2.904249906539917 11.39401245117188 1.5 15 1.5 L 75 1.5 C 78.60598754882812 1.5 81.99612426757812 2.904249906539917 84.54593658447266 5.454062461853027 C 87.09574890136719 8.003874778747559 88.5 11.39401245117188 88.5 15 L 88.5 75 C 88.5 78.60598754882812 87.09574890136719 81.99612426757812 84.54593658447266 84.54593658447266 C 81.99612426757812 87.09574890136719 78.60598754882812 88.5 75 88.5 Z" stroke="none"/>
      <path d="M 15 3 C 11.79468536376953 3 8.781211853027344 4.248214721679688 6.514717102050781 6.514717102050781 C 4.248214721679688 8.781211853027344 3 11.79468536376953 3 15 L 3 75 C 3 78.20531463623047 4.248214721679688 81.21878814697266 6.514717102050781 83.48528289794922 C 8.781211853027344 85.75178527832031 11.79468536376953 87 15 87 L 75 87 C 78.20531463623047 87 81.21878814697266 85.75178527832031 83.48528289794922 83.48528289794922 C 85.75178527832031 81.21878814697266 87 78.20531463623047 87 75 L 87 15 C 87 11.79468536376953 85.75178527832031 8.781211853027344 83.48528289794922 6.514717102050781 C 81.21878814697266 4.248214721679688 78.20531463623047 3 75 3 L 15 3 M 15 0 L 75 0 C 83.28427124023438 0 90 6.715728759765625 90 15 L 90 75 C 90 83.28427124023438 83.28427124023438 90 75 90 L 15 90 C 6.715728759765625 90 0 83.28427124023438 0 75 L 0 15 C 0 6.715728759765625 6.715728759765625 0 15 0 Z" stroke="none" fill="#b18c32"/>
    </g>
    <g id="Mask_Group_1200936" data-name="Mask Group 1200936" clip-path="url(#clip-path)">
      <g id="_x36_0_Tax_Optimization" transform="translate(297.647 8934.995)">
        <g id="Group_1204204" data-name="Group 1204204">
          <path id="Path_1276828" data-name="Path 1276828" d="M42.97,18.755,30.343,57.727a2.555,2.555,0,0,1-3.218,1.643L2.514,51.4A2.555,2.555,0,0,1,.871,48.178L13.5,9.206a2.555,2.555,0,0,1,3.218-1.643l24.611,7.973A2.555,2.555,0,0,1,42.97,18.755Z" fill="#f1b2a3"/>
          <path id="Path_1276829" data-name="Path 1276829" d="M42.97,18.754,30.343,57.727a2.556,2.556,0,0,1-3.218,1.643L2.514,51.4A2.556,2.556,0,0,1,.871,48.178l.044-.136A29.288,29.288,0,0,0,35.544,28.576,29.127,29.127,0,0,0,36.43,13.95l4.9,1.586A2.556,2.556,0,0,1,42.97,18.754Z" opacity="0.1"/>
          <path id="Path_1276830" data-name="Path 1276830" d="M37.411,12.983V53.949A2.555,2.555,0,0,1,34.855,56.5H8.985A2.555,2.555,0,0,1,6.43,53.949V12.983a2.555,2.555,0,0,1,2.555-2.555h25.87A2.555,2.555,0,0,1,37.411,12.983Z" fill="#e8f1f8"/>
          <path id="Path_1276831" data-name="Path 1276831" d="M37.411,12.983V53.95A2.556,2.556,0,0,1,34.855,56.5H8.985A2.556,2.556,0,0,1,6.43,53.95v-.143A29.288,29.288,0,0,0,33.373,24.615a29.126,29.126,0,0,0-3.664-14.187h5.146a2.556,2.556,0,0,1,2.555,2.555Z" opacity="0.1"/>
          <path id="Path_1276832" data-name="Path 1276832" d="M59.5,7.393a6.648,6.648,0,0,1-6.648,6.648H44.575l-4.256,3.217a1.077,1.077,0,0,1-1.726-.859V7.393A6.648,6.648,0,0,1,45.241.745h7.607A6.648,6.648,0,0,1,59.5,7.393Z" fill="#4955a1"/>
          <path id="Path_1276833" data-name="Path 1276833" d="M59.5,7.391v0a6.646,6.646,0,0,1-6.646,6.646H44.576L40.318,17.26a1.076,1.076,0,0,1-1.726-.859V11.469a13.783,13.783,0,0,0,4.183.646,13.809,13.809,0,0,0,13.4-10.477A6.639,6.639,0,0,1,59.5,7.391Z" opacity="0.1"/>
          <path id="Path_1276834" data-name="Path 1276834" d="M54.579,50.2a1.859,1.859,0,0,1-1.859,1.859H38.209a1.859,1.859,0,0,1,0-3.718H52.72A1.859,1.859,0,0,1,54.579,50.2Z" fill="#fdcf17"/>
          <path id="Path_1276835" data-name="Path 1276835" d="M52.394,46.482a1.859,1.859,0,0,1-1.859,1.859H36.024a1.859,1.859,0,0,1,0-3.718H50.535A1.859,1.859,0,0,1,52.394,46.482Z" fill="#f78721"/>
          <path id="Path_1276836" data-name="Path 1276836" d="M54.579,42.764a1.859,1.859,0,0,1-1.859,1.859H38.209a1.859,1.859,0,0,1,0-3.718H52.72A1.859,1.859,0,0,1,54.579,42.764Z" fill="#fdcf17"/>
          <path id="Path_1276837" data-name="Path 1276837" d="M54.579,57.636A1.859,1.859,0,0,1,52.72,59.5H38.209a1.859,1.859,0,0,1,0-3.718H52.72A1.859,1.859,0,0,1,54.579,57.636Z" fill="#fdcf17"/>
          <path id="Path_1276838" data-name="Path 1276838" d="M52.394,53.918a1.859,1.859,0,0,1-1.859,1.859H36.024a1.859,1.859,0,1,1,0-3.718H50.535A1.859,1.859,0,0,1,52.394,53.918Z" fill="#f78721"/>
          <path id="Path_1276839" data-name="Path 1276839" d="M54.577,57.634A1.856,1.856,0,0,1,52.722,59.5H38.207a1.854,1.854,0,0,1-1.756-1.263,1.862,1.862,0,0,0,.587.094H51.553a1.856,1.856,0,0,0,1.855-1.861,1.922,1.922,0,0,0-.094-.593,1.863,1.863,0,0,1,1.263,1.761Z" opacity="0.1"/>
          <path id="Path_1276840" data-name="Path 1276840" d="M52.4,53.918a1.865,1.865,0,0,1-1.861,1.861H36.025a1.855,1.855,0,0,1-1.761-1.268,1.751,1.751,0,0,0,.593.1H49.366a1.861,1.861,0,0,0,1.861-1.861,1.748,1.748,0,0,0-.1-.593A1.866,1.866,0,0,1,52.4,53.918Z" opacity="0.1"/>
          <path id="Path_1276841" data-name="Path 1276841" d="M54.577,50.2a1.855,1.855,0,0,1-1.855,1.855H38.207a1.854,1.854,0,0,1-1.756-1.263,1.862,1.862,0,0,0,.587.094H51.553a1.855,1.855,0,0,0,1.855-1.855,1.783,1.783,0,0,0-.1-.6A1.857,1.857,0,0,1,54.577,50.2Z" opacity="0.1"/>
          <path id="Path_1276842" data-name="Path 1276842" d="M52.4,46.481a1.861,1.861,0,0,1-1.861,1.861H36.025a1.855,1.855,0,0,1-1.761-1.268,1.751,1.751,0,0,0,.593.1H49.366a1.863,1.863,0,0,0,1.767-2.448A1.854,1.854,0,0,1,52.4,46.481Z" opacity="0.1"/>
          <path id="Path_1276843" data-name="Path 1276843" d="M52.394,39.039A1.859,1.859,0,0,1,50.535,40.9H36.024a1.859,1.859,0,0,1,0-3.718H50.535A1.859,1.859,0,0,1,52.394,39.039Z" fill="#f78721"/>
          <path id="Path_1276844" data-name="Path 1276844" d="M52.4,39.038A1.861,1.861,0,0,1,50.535,40.9H36.025a1.855,1.855,0,0,1-1.761-1.268,1.751,1.751,0,0,0,.593.1H49.366a1.863,1.863,0,0,0,1.767-2.448A1.854,1.854,0,0,1,52.4,39.038Z" opacity="0.1"/>
          <path id="Path_1276845" data-name="Path 1276845" d="M54.577,42.765a1.86,1.86,0,0,1-1.855,1.861H38.207a1.861,1.861,0,0,1-1.756-1.263,1.862,1.862,0,0,0,.587.094H51.553A1.86,1.86,0,0,0,53.409,41.6a1.783,1.783,0,0,0-.1-.6A1.857,1.857,0,0,1,54.577,42.765Z" opacity="0.1"/>
          <path id="Path_1276846" data-name="Path 1276846" d="M44.2,51.648A7.846,7.846,0,1,1,36.351,43.8,7.845,7.845,0,0,1,44.2,51.648Z" fill="#f78721"/>
          <path id="Path_1276847" data-name="Path 1276847" d="M41.836,51.648a5.486,5.486,0,1,1-5.486-5.486,5.485,5.485,0,0,1,5.486,5.486Z" fill="#fdcf17"/>
          <path id="Path_1276848" data-name="Path 1276848" d="M41.835,51.647a5.485,5.485,0,0,1-10.351,2.534,5.418,5.418,0,0,0,2.53.621A5.488,5.488,0,0,0,39.5,49.314a5.419,5.419,0,0,0-.621-2.53,5.47,5.47,0,0,1,2.954,4.863Z" opacity="0.1"/>
          <path id="Path_1276849" data-name="Path 1276849" d="M20.6,17.9H33.246a.625.625,0,1,0,0-1.25H20.6a.625.625,0,1,0,0,1.25Z"/>
          <path id="Path_1276850" data-name="Path 1276850" d="M20.6,23.294H33.246a.625.625,0,1,0,0-1.25H20.6a.625.625,0,1,0,0,1.25Z"/>
          <path id="Path_1276851" data-name="Path 1276851" d="M10.6,28.693h22.65a.625.625,0,0,0,0-1.25H10.6a.625.625,0,0,0,0,1.25Z"/>
          <path id="Path_1276852" data-name="Path 1276852" d="M10.6,34.091h22.65a.625.625,0,0,0,0-1.25H10.6a.625.625,0,0,0,0,1.25Z"/>
          <path id="Path_1276853" data-name="Path 1276853" d="M10.6,44.889H28.047a.625.625,0,0,0,0-1.25H10.6a.625.625,0,0,0,0,1.25Z"/>
          <path id="Path_1276854" data-name="Path 1276854" d="M25.452,49.038H10.6a.625.625,0,0,0,0,1.25H25.452a.625.625,0,0,0,0-1.25Z"/>
          <path id="Path_1276855" data-name="Path 1276855" d="M15.071,22.279H12.633a.625.625,0,0,0,0,1.25H13.96v.595a.625.625,0,1,0,1.25,0v-.609a2.087,2.087,0,0,0-.14-4.171H14.1a.842.842,0,0,1,0-1.685h2.437a.625.625,0,0,0,0-1.25H15.21v-.6a.625.625,0,1,0-1.25,0v.609a2.087,2.087,0,0,0,.14,4.17h.97a.842.842,0,0,1,0,1.685Z"/>
          <path id="Path_1276856" data-name="Path 1276856" d="M51.485,3.207a.625.625,0,0,0-.854.225l-4.252,7.289a.625.625,0,1,0,1.08.63l4.252-7.289A.625.625,0,0,0,51.485,3.207Z"/>
          <path id="Path_1276857" data-name="Path 1276857" d="M48.115,4.745a1.794,1.794,0,1,0-1.794,1.79A1.8,1.8,0,0,0,48.115,4.745Zm-2.338,0a.544.544,0,1,1,.544.54A.545.545,0,0,1,45.777,4.745Z"/>
          <path id="Path_1276858" data-name="Path 1276858" d="M53.562,10.042a1.794,1.794,0,1,0-1.794,1.79A1.8,1.8,0,0,0,53.562,10.042Zm-1.794.54a.542.542,0,1,1,.544-.54A.543.543,0,0,1,51.768,10.581Z"/>
          <path id="Path_1276859" data-name="Path 1276859" d="M52.848,14.666a7.273,7.273,0,0,0,0-14.546H45.241a7.281,7.281,0,0,0-7.273,7.273v4.928A3.185,3.185,0,0,0,34.858,9.8H25.643L16.908,6.969A3.179,3.179,0,0,0,12.9,9.014l-.254.786H8.982a3.182,3.182,0,0,0-3.175,3.181V30.907L.274,47.984a3.179,3.179,0,0,0,2.047,4l3.486,1.129v.833a3.182,3.182,0,0,0,3.175,3.181H18.2l8.736,2.832a3.151,3.151,0,0,0,3.931-1.873,8.429,8.429,0,0,0,5.488,2.03c11.255,0,16.289,0,16.369,0a2.484,2.484,0,0,0,0-4.968h-.041a2.4,2.4,0,0,0,0-2.469h.043a2.481,2.481,0,0,0,0-4.963h-.043a2.4,2.4,0,0,0,0-2.469h.041a2.484,2.484,0,0,0,0-4.968h-.047a2.455,2.455,0,0,0,.346-1.243,2.487,2.487,0,0,0-2.484-2.484h-12.5v-.55l5.525-17.057A3.164,3.164,0,0,0,43.023,16l1.761-1.331h8.063ZM5.807,51.8l-3.1-1a1.93,1.93,0,0,1-1.241-2.43L5.807,34.963ZM14.089,9.4a1.931,1.931,0,0,1,2.432-1.243L21.59,9.8H13.96ZM8.982,55.881A1.93,1.93,0,0,1,7.057,53.95V12.981A1.93,1.93,0,0,1,8.982,11.05H34.858a1.933,1.933,0,0,1,1.931,1.931V36.555h-.765a2.481,2.481,0,0,0-2.387,1.834.614.614,0,0,0-.392-.149H10.6a.625.625,0,0,0,0,1.25h22.65a.608.608,0,0,0,.329-.107,2.48,2.48,0,0,0,2.449,2.14h.045a2.457,2.457,0,0,0-.343,1.24,2.485,2.485,0,0,0,.044.445,8.447,8.447,0,0,0-6.747,12.674H8.982Zm20.768,1.65a1.928,1.928,0,0,1-2.431,1.243L22.25,57.131h7.629Zm-.621-5.883a7.221,7.221,0,1,1,7.222,7.222,7.229,7.229,0,0,1-7.222-7.222Zm12.756-6.4h8.648a1.234,1.234,0,1,1,0,2.469H43.848A8.516,8.516,0,0,0,41.884,45.25ZM52.72,56.4a1.234,1.234,0,0,1,0,2.468H40.759a8.529,8.529,0,0,0,2.6-2.468Zm-8.666-1.25a8.392,8.392,0,0,0,.7-2.469h5.781a1.234,1.234,0,1,1,0,2.469Zm8.666-6.182a1.231,1.231,0,0,1,0,2.463H44.81a8.419,8.419,0,0,0-.43-2.463Zm0-7.437a1.234,1.234,0,0,1,0,2.468H39.967a8.388,8.388,0,0,0-2.894-.785,1.209,1.209,0,0,1,1.134-1.683ZM50.534,37.8a1.234,1.234,0,0,1,0,2.468H36.024a1.234,1.234,0,1,1,0-2.468ZM42.375,18.564,38.039,31.949V16.883a1.7,1.7,0,0,0,2.656.874l1.333-1.008a1.917,1.917,0,0,1,.347,1.814ZM44.2,13.543,39.942,16.76a.451.451,0,0,1-.724-.36V7.394a6.03,6.03,0,0,1,6.023-6.023h7.607a6.023,6.023,0,0,1,0,12.046H44.575a.625.625,0,0,0-.377.126Z"/>
          <path id="Path_1276860" data-name="Path 1276860" d="M36.008,50.2h1.718a.625.625,0,1,0,0-1.25h-.751V48.72a.625.625,0,0,0-1.25,0v.264a1.657,1.657,0,0,0,.283,3.29h.684a.41.41,0,0,1,0,.82H34.973a.625.625,0,0,0,0,1.25h.751v.235a.625.625,0,1,0,1.25,0v-.264a1.658,1.658,0,0,0-.283-3.291h-.684a.41.41,0,1,1,0-.819Z"/>
          <path id="Path_1276861" data-name="Path 1276861" d="M36.35,45.538a6.111,6.111,0,1,0,6.111,6.11A6.118,6.118,0,0,0,36.35,45.538Zm0,10.972a4.861,4.861,0,1,1,4.861-4.862A4.868,4.868,0,0,1,36.35,56.51Z"/>
        </g>
      </g>
    </g>
  </g>
</svg>
