<svg xmlns="http://www.w3.org/2000/svg" xmlns:xlink="http://www.w3.org/1999/xlink" width="90" height="90" viewBox="0 0 90 90">
  <defs>
    <clipPath id="clip-path">
      <rect id="Rectangle_412209" data-name="Rectangle 412209" width="60" height="61" transform="translate(299.653 5634.314)" fill="#fff" stroke="#707070" stroke-width="1"/>
    </clipPath>
  </defs>
  <g id="Group_1204268" data-name="Group 1204268" transform="translate(-284.386 -5619.774)">
    <g id="Path_1276274" data-name="Path 1276274" transform="translate(284.386 5619.774)" fill="#ffc94a">
      <path d="M 75 88.5 L 15 88.5 C 11.39401245117188 88.5 8.003874778747559 87.09574890136719 5.454062461853027 84.54593658447266 C 2.904249906539917 81.99612426757812 1.5 78.60598754882812 1.5 75 L 1.5 15 C 1.5 11.39401245117188 2.904249906539917 8.003874778747559 5.454062461853027 5.454062461853027 C 8.003874778747559 2.904249906539917 11.39401245117188 1.5 15 1.5 L 75 1.5 C 78.60598754882812 1.5 81.99612426757812 2.904249906539917 84.54593658447266 5.454062461853027 C 87.09574890136719 8.003874778747559 88.5 11.39401245117188 88.5 15 L 88.5 75 C 88.5 78.60598754882812 87.09574890136719 81.99612426757812 84.54593658447266 84.54593658447266 C 81.99612426757812 87.09574890136719 78.60598754882812 88.5 75 88.5 Z" stroke="none"/>
      <path d="M 15 3 C 11.79468536376953 3 8.781211853027344 4.248214721679688 6.514717102050781 6.514717102050781 C 4.248214721679688 8.781211853027344 3 11.79468536376953 3 15 L 3 75 C 3 78.20531463623047 4.248214721679688 81.21878814697266 6.514717102050781 83.48528289794922 C 8.781211853027344 85.75178527832031 11.79468536376953 87 15 87 L 75 87 C 78.20531463623047 87 81.21878814697266 85.75178527832031 83.48528289794922 83.48528289794922 C 85.75178527832031 81.21878814697266 87 78.20531463623047 87 75 L 87 15 C 87 11.79468536376953 85.75178527832031 8.781211853027344 83.48528289794922 6.514717102050781 C 81.21878814697266 4.248214721679688 78.20531463623047 3 75 3 L 15 3 M 15 0 L 75 0 C 83.28427124023438 0 90 6.715728759765625 90 15 L 90 75 C 90 83.28427124023438 83.28427124023438 90 75 90 L 15 90 C 6.715728759765625 90 0 83.28427124023438 0 75 L 0 15 C 0 6.715728759765625 6.715728759765625 0 15 0 Z" stroke="none" fill="#b18c32"/>
    </g>
    <g id="Mask_Group_1200947" data-name="Mask Group 1200947" clip-path="url(#clip-path)">
      <g id="performance_14699785" transform="translate(299.607 5634.817)">
        <g id="Group_1204263" data-name="Group 1204263">
          <path id="Path_1277044" data-name="Path 1277044" d="M58.564,14.44l-1.489-.86a1.094,1.094,0,0,1,0-1.894l1.489-.86a1.105,1.105,0,0,0,.4-1.509L57.2,6.255a1.105,1.105,0,0,0-1.509-.4l-1.489.86a1.094,1.094,0,0,1-1.641-.947V4.044a1.1,1.1,0,0,0-1.1-1.1H47.922a1.1,1.1,0,0,0-1.1,1.1v1.72a1.094,1.094,0,0,1-1.641.947l-1.489-.86a1.1,1.1,0,0,0-1.509.4L40.411,9.316a1.105,1.105,0,0,0,.4,1.509l1.489.86a1.094,1.094,0,0,1,0,1.894l-1.489.86a1.105,1.105,0,0,0-.4,1.509l1.767,3.061a1.1,1.1,0,0,0,1.509.4l1.489-.86a1.094,1.094,0,0,1,1.641.947v1.72a1.1,1.1,0,0,0,1.1,1.1h3.534a1.1,1.1,0,0,0,1.1-1.1V19.5a1.094,1.094,0,0,1,1.641-.947l1.489.86a1.1,1.1,0,0,0,1.509-.4l1.767-3.061A1.1,1.1,0,0,0,58.564,14.44Zm-8.911,1.234a3,3,0,1,1,3-3A3,3,0,0,1,49.652,15.674Z" fill="#9c9c9c"/>
          <path id="Path_1277045" data-name="Path 1277045" d="M58.563,14.44l-1.489-.86a1.094,1.094,0,0,1,0-1.895l1.489-.86a1.105,1.105,0,0,0,.405-1.509L57.2,6.255a1.105,1.105,0,0,0-1.509-.4l-1.489.86a1.094,1.094,0,0,1-1.64-.947V4.044a1.1,1.1,0,0,0-1.1-1.1H47.922a1.1,1.1,0,0,0-.875.431,9.7,9.7,0,0,1,0,18.525,1.1,1.1,0,0,0,.875.431h3.534a1.1,1.1,0,0,0,1.1-1.1V19.5a1.094,1.094,0,0,1,1.64-.948l1.489.86a1.1,1.1,0,0,0,1.509-.4l1.768-3.061A1.105,1.105,0,0,0,58.563,14.44Z" fill="#838383"/>
          <path id="Path_1277046" data-name="Path 1277046" d="M55.748,45.321H4.247A23.327,23.327,0,0,1,27.589,21.98h4.817A23.327,23.327,0,0,1,55.748,45.321Z" fill="#fe76a8"/>
          <path id="Path_1277047" data-name="Path 1277047" d="M55.748,45.321H4.247A23.327,23.327,0,0,1,27.589,21.98h4.817A23.327,23.327,0,0,1,55.748,45.321Z" fill="#fe76a8"/>
          <path id="Path_1277048" data-name="Path 1277048" d="M42.923,24.478,33.782,45.321h-7.57L17.072,24.478a23.239,23.239,0,0,1,10.517-2.5h4.817A23.237,23.237,0,0,1,42.923,24.478Z" fill="#8ac9fe"/>
          <path id="Path_1277049" data-name="Path 1277049" d="M42.924,24.477l-.732,1.67A23.05,23.05,0,0,0,29,21.979h3.4A23.24,23.24,0,0,1,42.924,24.477Z" fill="#60b7ff"/>
          <path id="Path_1277050" data-name="Path 1277050" d="M55.748,45.321H33.782l9.141-20.844A23.339,23.339,0,0,1,55.748,45.321Z" fill="#97da7b"/>
          <path id="Path_1277051" data-name="Path 1277051" d="M52.231,45.321h3.517A23.339,23.339,0,0,0,42.924,24.477l-.733,1.671A23.283,23.283,0,0,1,52.231,45.321Z" fill="#80d261"/>
          <path id="Path_1277052" data-name="Path 1277052" d="M35.717,46.472,33.6,43.65l10.566-8A1.763,1.763,0,0,1,46.636,36h0a1.763,1.763,0,0,1-.354,2.468Z" fill="#f2fbff"/>
          <path id="Path_1277053" data-name="Path 1277053" d="M2.6,52.647A1.723,1.723,0,0,1,.879,50.923V47.045A1.723,1.723,0,0,1,2.6,45.321h54.79a1.723,1.723,0,0,1,1.724,1.724v3.879a1.723,1.723,0,0,1-1.724,1.724Z" fill="#978ecb"/>
          <path id="Path_1277054" data-name="Path 1277054" d="M59.116,47.045v3.879a1.723,1.723,0,0,1-1.724,1.724H53.876A1.724,1.724,0,0,0,55.6,50.923V47.045a1.724,1.724,0,0,0-1.724-1.724h3.517A1.723,1.723,0,0,1,59.116,47.045Z" fill="#8379c1"/>
          <circle id="Ellipse_12534" data-name="Ellipse 12534" cx="8.072" cy="8.072" r="8.072" transform="translate(21.925 40.912)" fill="#ffe177"/>
          <path id="Path_1277055" data-name="Path 1277055" d="M38.07,48.984a8.08,8.08,0,0,1-10.24,7.778,8.076,8.076,0,0,0,0-15.557,8.08,8.08,0,0,1,10.24,7.778Z" fill="#ffd15b"/>
          <g id="Group_1204260" data-name="Group 1204260">
            <path id="Path_1277056" data-name="Path 1277056" d="M14.472,30.545l-.806-.465a.592.592,0,0,1,0-1.025l.806-.465a.6.6,0,0,0,.219-.817l-.956-1.656a.6.6,0,0,0-.817-.219l-.806.465a.592.592,0,0,1-.888-.513v-.931a.6.6,0,0,0-.6-.6H8.714a.6.6,0,0,0-.6.6v.931a.592.592,0,0,1-.888.513L6.422,25.9a.6.6,0,0,0-.817.219l-.956,1.656a.6.6,0,0,0,.219.817l.806.465a.592.592,0,0,1,0,1.025l-.806.465a.6.6,0,0,0-.219.817l.956,1.656a.6.6,0,0,0,.817.219l.806-.465a.592.592,0,0,1,.888.513v.931a.6.6,0,0,0,.6.6h1.913a.6.6,0,0,0,.6-.6v-.931a.592.592,0,0,1,.888-.513l.806.465a.6.6,0,0,0,.817-.219l.956-1.656A.6.6,0,0,0,14.472,30.545Z" fill="#9c9c9c"/>
          </g>
          <g id="Group_1204261" data-name="Group 1204261">
            <path id="Path_1277057" data-name="Path 1277057" d="M14.472,30.545l-.806-.465a.592.592,0,0,1,0-1.025l.806-.465a.6.6,0,0,0,.219-.817l-.956-1.656a.6.6,0,0,0-.817-.219l-.806.465a.592.592,0,0,1-.888-.513v-.931a.6.6,0,0,0-.6-.6H8.714a.6.6,0,0,0-.6.6v.931a.592.592,0,0,1-.888.513L6.422,25.9a.6.6,0,0,0-.817.219l-.956,1.656a.6.6,0,0,0,.219.817l.806.465a.592.592,0,0,1,0,1.025l-.806.465a.6.6,0,0,0-.219.817l.956,1.656a.6.6,0,0,0,.817.219l.806-.465a.592.592,0,0,1,.888.513v.931a.6.6,0,0,0,.6.6h1.913a.6.6,0,0,0,.6-.6v-.931a.592.592,0,0,1,.888-.513l.806.465a.6.6,0,0,0,.817-.219l.956-1.656A.6.6,0,0,0,14.472,30.545Z" fill="#9c9c9c"/>
          </g>
          <g id="Group_1204262" data-name="Group 1204262">
            <path id="Path_1277058" data-name="Path 1277058" d="M14.691,31.362l-.956,1.657a.6.6,0,0,1-.817.219l-.805-.465a.592.592,0,0,0-.888.512v.93a.6.6,0,0,1-.6.6H8.713a.559.559,0,0,1-.189-.032A5.761,5.761,0,0,0,8.3,24.488a.593.593,0,0,1,.412-.166h1.914a.6.6,0,0,1,.6.6v.93a.592.592,0,0,0,.888.513l.805-.465a.6.6,0,0,1,.817.219l.956,1.656a.6.6,0,0,1-.218.817l-.806.465a.592.592,0,0,0,0,1.025l.806.465A.6.6,0,0,1,14.691,31.362Z" fill="#838383"/>
          </g>
        </g>
        <g id="Group_1204267" data-name="Group 1204267">
          <g id="Group_1204264" data-name="Group 1204264">
            <path id="Path_1277059" data-name="Path 1277059" d="M14.472,30.545l-.806-.465a.592.592,0,0,1,0-1.025l.806-.465a.6.6,0,0,0,.219-.817l-.956-1.656a.6.6,0,0,0-.817-.219l-.806.465a.592.592,0,0,1-.888-.513v-.931a.6.6,0,0,0-.6-.6H8.714a.6.6,0,0,0-.6.6v.931a.592.592,0,0,1-.888.513L6.422,25.9a.6.6,0,0,0-.817.219l-.956,1.656a.6.6,0,0,0,.219.817l.806.465a.592.592,0,0,1,0,1.025l-.806.465a.6.6,0,0,0-.219.817l.956,1.656a.6.6,0,0,0,.817.219l.806-.465a.592.592,0,0,1,.888.513v.931a.6.6,0,0,0,.6.6h1.913a.6.6,0,0,0,.6-.6v-.931a.592.592,0,0,1,.888-.513l.806.465a.6.6,0,0,0,.817-.219l.956-1.656A.6.6,0,0,0,14.472,30.545Z" fill="none" stroke="#000" stroke-linecap="round" stroke-linejoin="round" stroke-miterlimit="10" stroke-width="1.758"/>
            <line id="Line_601" data-name="Line 601" transform="translate(9.67 29.585)" fill="none" stroke="#000" stroke-linecap="round" stroke-linejoin="round" stroke-miterlimit="10" stroke-width="1.758"/>
          </g>
          <path id="Path_1277060" data-name="Path 1277060" d="M58.564,14.44l-1.489-.86a1.094,1.094,0,0,1,0-1.894l1.489-.86a1.105,1.105,0,0,0,.4-1.509L57.2,6.255a1.105,1.105,0,0,0-1.509-.4l-1.489.86a1.094,1.094,0,0,1-1.641-.947V4.044a1.1,1.1,0,0,0-1.1-1.1H47.922a1.1,1.1,0,0,0-1.1,1.1v1.72a1.094,1.094,0,0,1-1.641.947l-1.489-.86a1.1,1.1,0,0,0-1.509.4L40.411,9.316a1.105,1.105,0,0,0,.4,1.509l1.489.86a1.094,1.094,0,0,1,0,1.894l-1.489.86a1.105,1.105,0,0,0-.4,1.509l1.767,3.061a1.1,1.1,0,0,0,1.509.4l1.489-.86a1.094,1.094,0,0,1,1.641.947v1.72a1.1,1.1,0,0,0,1.1,1.1h3.534a1.1,1.1,0,0,0,1.1-1.1V19.5a1.094,1.094,0,0,1,1.641-.947l1.489.86a1.1,1.1,0,0,0,1.509-.4l1.767-3.061A1.1,1.1,0,0,0,58.564,14.44Zm-8.911,1.234a3,3,0,1,1,3-3A3,3,0,0,1,49.652,15.674Z" fill="none" stroke="#000" stroke-linecap="round" stroke-linejoin="round" stroke-miterlimit="10" stroke-width="1.758"/>
          <g id="Group_1204265" data-name="Group 1204265">
            <line id="Line_602" data-name="Line 602" y2="3.586" transform="translate(33.688 10.374)" fill="none" stroke="#000" stroke-linecap="round" stroke-linejoin="round" stroke-miterlimit="10" stroke-width="1.758"/>
            <line id="Line_603" data-name="Line 603" x1="3.586" transform="translate(31.895 12.167)" fill="none" stroke="#000" stroke-linecap="round" stroke-linejoin="round" stroke-miterlimit="10" stroke-width="1.758"/>
          </g>
          <path id="Path_1277061" data-name="Path 1277061" d="M34.964,42.62l9.206-6.972a1.763,1.763,0,1,1,2.113,2.823l-9.077,6.874" fill="none" stroke="#000" stroke-linecap="round" stroke-linejoin="round" stroke-miterlimit="10" stroke-width="1.758"/>
          <path id="Path_1277062" data-name="Path 1277062" d="M37.194,45.321h20.2a1.723,1.723,0,0,1,1.724,1.724v3.879a1.723,1.723,0,0,1-1.724,1.724h-20.2" fill="none" stroke="#000" stroke-linecap="round" stroke-linejoin="round" stroke-miterlimit="10" stroke-width="1.758"/>
          <path id="Path_1277063" data-name="Path 1277063" d="M18.557,52.647H2.6A1.723,1.723,0,0,1,.879,50.923V47.045A1.723,1.723,0,0,1,2.6,45.321H22.8" fill="none" stroke="#000" stroke-linecap="round" stroke-linejoin="round" stroke-miterlimit="10" stroke-width="1.758"/>
          <path id="Path_1277064" data-name="Path 1277064" d="M4.248,45.321A23.222,23.222,0,0,1,7.879,32.812" fill="none" stroke="#000" stroke-linecap="round" stroke-linejoin="round" stroke-miterlimit="10" stroke-width="1.758"/>
          <path id="Path_1277065" data-name="Path 1277065" d="M42.924,24.477A23.339,23.339,0,0,1,55.748,45.321" fill="none" stroke="#000" stroke-linecap="round" stroke-linejoin="round" stroke-miterlimit="10" stroke-width="1.758"/>
          <path id="Path_1277066" data-name="Path 1277066" d="M13.9,26.411A23.226,23.226,0,0,1,27.59,21.979h4.816" fill="none" stroke="#000" stroke-linecap="round" stroke-linejoin="round" stroke-miterlimit="10" stroke-width="1.758"/>
          <circle id="Ellipse_12535" data-name="Ellipse 12535" cx="8.072" cy="8.072" r="8.072" transform="translate(21.925 40.912)" fill="none" stroke="#000" stroke-linecap="round" stroke-linejoin="round" stroke-miterlimit="10" stroke-width="1.758"/>
          <g id="Group_1204266" data-name="Group 1204266">
            <path id="Path_1277067" data-name="Path 1277067" d="M31.337,46.015a2.062,2.062,0,0,0-1.937-.349,1.443,1.443,0,0,0-.614,2.376,6.957,6.957,0,0,0,1.908.9c1.91.675,1.2,3.369-.739,3.382a2.6,2.6,0,0,1-1.779-.479" fill="none" stroke="#000" stroke-linecap="round" stroke-linejoin="round" stroke-miterlimit="10" stroke-width="1.758"/>
            <line id="Line_604" data-name="Line 604" y1="0.983" transform="translate(29.955 52.328)" fill="none" stroke="#000" stroke-linecap="round" stroke-linejoin="round" stroke-miterlimit="10" stroke-width="1.758"/>
            <line id="Line_605" data-name="Line 605" y1="0.912" transform="translate(29.955 44.657)" fill="none" stroke="#000" stroke-linecap="round" stroke-linejoin="round" stroke-miterlimit="10" stroke-width="1.758"/>
          </g>
          <path id="Path_1277068" data-name="Path 1277068" d="M39.1,22.952a23.35,23.35,0,0,0-6.689-.972H27.59a23.24,23.24,0,0,0-10.518,2.5l7.958,18.144" fill="none" stroke="#000" stroke-linecap="round" stroke-linejoin="round" stroke-miterlimit="10" stroke-width="1.758"/>
          <line id="Line_606" data-name="Line 606" y1="18.144" x2="7.958" transform="translate(34.966 24.477)" fill="none" stroke="#000" stroke-linecap="round" stroke-linejoin="round" stroke-miterlimit="10" stroke-width="1.758"/>
        </g>
      </g>
    </g>
  </g>
</svg>
