<svg xmlns="http://www.w3.org/2000/svg" xmlns:xlink="http://www.w3.org/1999/xlink" width="90" height="90" viewBox="0 0 90 90">
  <defs>
    <clipPath id="clip-path">
      <rect id="Rectangle_412062" data-name="Rectangle 412062" width="60" height="61" transform="translate(297.768 2806.079)" fill="#fff" stroke="#707070" stroke-width="1"/>
    </clipPath>
  </defs>
  <g id="Group_1204203" data-name="Group 1204203" transform="translate(-282.5 -2791.539)">
    <g id="Path_1275910" data-name="Path 1275910" transform="translate(282.5 2791.539)" fill="#ffc94a">
      <path d="M 75 88.5 L 15 88.5 C 11.39401245117188 88.5 8.003874778747559 87.09574890136719 5.454062461853027 84.54593658447266 C 2.904249906539917 81.99612426757812 1.5 78.60598754882812 1.5 75 L 1.5 15 C 1.5 11.39401245117188 2.904249906539917 8.003874778747559 5.454062461853027 5.454062461853027 C 8.003874778747559 2.904249906539917 11.39401245117188 1.5 15 1.5 L 75 1.5 C 78.60598754882812 1.5 81.99612426757812 2.904249906539917 84.54593658447266 5.454062461853027 C 87.09574890136719 8.003874778747559 88.5 11.39401245117188 88.5 15 L 88.5 75 C 88.5 78.60598754882812 87.09574890136719 81.99612426757812 84.54593658447266 84.54593658447266 C 81.99612426757812 87.09574890136719 78.60598754882812 88.5 75 88.5 Z" stroke="none"/>
      <path d="M 15 3 C 11.79468536376953 3 8.781211853027344 4.248214721679688 6.514717102050781 6.514717102050781 C 4.248214721679688 8.781211853027344 3 11.79468536376953 3 15 L 3 75 C 3 78.20531463623047 4.248214721679688 81.21878814697266 6.514717102050781 83.48528289794922 C 8.781211853027344 85.75178527832031 11.79468536376953 87 15 87 L 75 87 C 78.20531463623047 87 81.21878814697266 85.75178527832031 83.48528289794922 83.48528289794922 C 85.75178527832031 81.21878814697266 87 78.20531463623047 87 75 L 87 15 C 87 11.79468536376953 85.75178527832031 8.781211853027344 83.48528289794922 6.514717102050781 C 81.21878814697266 4.248214721679688 78.20531463623047 3 75 3 L 15 3 M 15 0 L 75 0 C 83.28427124023438 0 90 6.715728759765625 90 15 L 90 75 C 90 83.28427124023438 83.28427124023438 90 75 90 L 15 90 C 6.715728759765625 90 0 83.28427124023438 0 75 L 0 15 C 0 6.715728759765625 6.715728759765625 0 15 0 Z" stroke="none" fill="#b18c32"/>
    </g>
    <g id="Mask_Group_1200932" data-name="Mask Group 1200932" clip-path="url(#clip-path)">
      <g id="performance_17352526" transform="translate(297.768 2806.579)">
        <g id="Group_1204194" data-name="Group 1204194">
          <path id="Path_1276742" data-name="Path 1276742" d="M8.431,15.779a9.212,9.212,0,0,1,18.423,0C26.854,32.558,8.431,32.558,8.431,15.779Z" fill="#fbbd80" fill-rule="evenodd"/>
          <path id="Path_1276743" data-name="Path 1276743" d="M.821,53.432H34.465V44.164A12.119,12.119,0,0,0,22.383,32.082H12.9A12.119,12.119,0,0,0,.82,44.164Z" fill="#69a7ff" fill-rule="evenodd"/>
          <path id="Path_1276744" data-name="Path 1276744" d="M19.49,34.468l.794,11.793-2.631,3.418L15.022,46.26l.791-11.793Z" fill="#ff3d50" fill-rule="evenodd"/>
          <path id="Path_1276745" data-name="Path 1276745" d="M20.779,32.083l-.5,3.747c-.179,1.136-5.126,1.139-5.275,0l-.5-3.747Z" fill="#e32639" fill-rule="evenodd"/>
          <path id="Path_1276746" data-name="Path 1276746" d="M24.828,43.005h6.125v-.894a11.05,11.05,0,1,1,22.1,0v.894H59.18v-.894a17.176,17.176,0,1,0-34.351,0Z" fill="#ffd23b" fill-rule="evenodd"/>
          <path id="Path_1276747" data-name="Path 1276747" d="M48.978,33.541a11.035,11.035,0,0,1,4.076,8.57v.894H59.18v-.894A17.113,17.113,0,0,0,54.24,30.06Z" fill="#45bf64" fill-rule="evenodd"/>
          <path id="Path_1276748" data-name="Path 1276748" d="M24.828,43.005h6.125v-.894a11.034,11.034,0,0,1,4.076-8.57L29.768,30.06a17.113,17.113,0,0,0-4.94,12.052Z" fill="#ff3d50" fill-rule="evenodd"/>
          <path id="Path_1276749" data-name="Path 1276749" d="M43.962,41.5l-3.916-1.05L47.274,21.31Z" fill="#4d6c8f" fill-rule="evenodd"/>
          <path id="Path_1276750" data-name="Path 1276750" d="M42.005,43.586a2.608,2.608,0,1,0-2.611-2.608A2.608,2.608,0,0,0,42.005,43.586Z" fill="#d5e3f2" fill-rule="evenodd"/>
          <path id="Path_1276751" data-name="Path 1276751" d="M11.906,15.779A9.248,9.248,0,0,1,19.38,6.734a9.066,9.066,0,0,0-1.737-.166,9.239,9.239,0,0,0-9.211,9.212c0,9.451,5.843,13.576,10.949,12.381-3.96-.923-7.474-5.053-7.474-12.381Z" fill="#f5ad65" fill-rule="evenodd"/>
          <path id="Path_1276752" data-name="Path 1276752" d="M4.173,46.055a12.131,12.131,0,0,1,10.6-11.992l-.262-1.98H12.9A12.119,12.119,0,0,0,.82,44.165v9.268H4.172Z" fill="#4c8fed" fill-rule="evenodd"/>
          <path id="Path_1276753" data-name="Path 1276753" d="M20.529,33.973h5.2c.375,0,.747.017,1.113.05q.234-.443.5-.867a12,12,0,0,0-4.963-1.073h-1.6Z" fill="#4c8fed" fill-rule="evenodd"/>
          <path id="Path_1276754" data-name="Path 1276754" d="M26.718,42.111a17.106,17.106,0,0,1,2.066-8.178,17.323,17.323,0,0,1,2.153-3.1l-1.169-.774a17.141,17.141,0,0,0-4.94,12.052v.894h1.89Z" fill="#e32639" fill-rule="evenodd"/>
          <path id="Path_1276755" data-name="Path 1276755" d="M30.937,30.834a17.139,17.139,0,0,1,12.012-5.873c-.312-.017-.628-.026-.943-.026a17.165,17.165,0,0,0-14.659,8.222,17.233,17.233,0,0,1,2.422-3.1Z" fill="#deb42a" fill-rule="evenodd"/>
          <path id="Path_1276756" data-name="Path 1276756" d="M45.653,31.2l-.076.452a11,11,0,0,1,3.4,1.887l.993-.658A11,11,0,0,0,45.653,31.2Z" fill="#deb42a" fill-rule="evenodd"/>
          <path id="Path_1276757" data-name="Path 1276757" d="M49.971,32.883l-.993.658a11.024,11.024,0,0,1,4.076,8.57v.894H54.94v-.894a11.034,11.034,0,0,0-4.969-9.228Z" fill="#35ab52" fill-rule="evenodd"/>
          <path id="Path_1276758" data-name="Path 1276758" d="M40.882,40.68a2.606,2.606,0,0,1,1.857-2.2,2.608,2.608,0,1,0-.734,5.109,2.685,2.685,0,0,0,.734-.1,2.612,2.612,0,0,1-1.874-2.5,2.953,2.953,0,0,1,.017-.3Z" fill="#b7cfe8" fill-rule="evenodd"/>
        </g>
        <path id="Path_1276759" data-name="Path 1276759" d="M17.643,29.183a8.967,8.967,0,0,0,6.966-3.444c2.006-2.435,3.066-5.878,3.066-9.958a10.032,10.032,0,1,0-20.064,0c0,4.079,1.06,7.523,3.066,9.958a8.967,8.967,0,0,0,6.966,3.444Zm0-21.793a8.4,8.4,0,0,1,8.391,8.391c0,8.081-4.35,11.761-8.391,11.761S9.252,23.861,9.252,15.78A8.4,8.4,0,0,1,17.643,7.39ZM54.884,29.555a.825.825,0,0,0-.133-.134A17.912,17.912,0,0,0,47.5,24.974l.579-3.529a.82.82,0,0,0-1.554-.477,21.64,21.64,0,0,0-20.967,7.1.821.821,0,1,0,1.247,1.066,20,20,0,0,1,19.13-6.615l-.712,1.886a17.963,17.963,0,0,0-15.969,5.01.82.82,0,0,0-.144.148,18.136,18.136,0,0,0-2.081,2.57,12.724,12.724,0,0,0-4.655-.872H12.9A12.917,12.917,0,0,0,0,44.166v9.265a.82.82,0,0,0,.82.82H34.465a.82.82,0,0,0,.82-.82V44.166a12.767,12.767,0,0,0-2.162-7.127A10.235,10.235,0,0,1,42,31.885c.133,0,.267,0,.4.008L40.03,38.18a3.43,3.43,0,1,0,5.085,1.359l1.107-6.747a10.21,10.21,0,0,1,2.2,1.353.827.827,0,0,0,.073.059,10.235,10.235,0,0,1,3.74,7.909V43a.82.82,0,0,0,.82.82H59.18A.82.82,0,0,0,60,43v-.891a18.023,18.023,0,0,0-5.116-12.559Zm-35.042,3.35-.353,2.659a1.169,1.169,0,0,1-.142.063l-.034.013a5.266,5.266,0,0,1-1.668.225,5.267,5.267,0,0,1-1.664-.216l-.019-.006a1.238,1.238,0,0,1-.163-.07L15.444,32.9Zm-.4,13.1-1.791,2.33L15.861,46l.576-8.576a8.846,8.846,0,0,0,1.068.076h.129a8.9,8.9,0,0,0,1.232-.082Zm14.2-1.838V52.61H28.535V47.418a.82.82,0,1,0-1.641,0V52.61H8.391V47.418a.82.82,0,1,0-1.641,0V52.61H1.641V44.166A11.273,11.273,0,0,1,12.9,32.905h.886l.4,3.033a1.353,1.353,0,0,0,.636.964L14.2,46.2a.82.82,0,0,0,.168.555L17,50.181a.82.82,0,0,0,1.3,0l2.631-3.422A.82.82,0,0,0,21.1,46.2l-.628-9.322a1.363,1.363,0,0,0,.617-.922c0-.007,0-.013,0-.02l.4-3.035h.883a11.1,11.1,0,0,1,3.792.659,17.883,17.883,0,0,0-2.165,8.549V43a.82.82,0,0,0,.82.82h6.126a.82.82,0,0,0,.82-.82v-.891a10.184,10.184,0,0,1,.53-3.253,11.122,11.122,0,0,1,1.341,5.306Zm-2.179-7.513a.819.819,0,0,0-.069.136,11.793,11.793,0,0,0-1.264,5.324v.07H25.648v-.07a16.3,16.3,0,0,1,4.246-10.984l3.8,2.515a11.938,11.938,0,0,0-2.23,3.009ZM42,30.244a11.805,11.805,0,0,0-7,2.294l-3.915-2.59A16.332,16.332,0,0,1,44.639,25.97l-1.63,4.318c-.335-.028-.672-.044-1.007-.044Zm0,12.524a1.787,1.787,0,1,1,1.791-1.787A1.787,1.787,0,0,1,42,42.768Zm2.762-11.228a.1.1,0,0,1,0,.011L43.7,38.005a3.411,3.411,0,0,0-1.683-.452l3.109-8.234Zm4.252.995a11.852,11.852,0,0,0-2.521-1.41l.74-4.511a16.259,16.259,0,0,1,5.692,3.333Zm9.343,9.649H53.874v-.07a11.871,11.871,0,0,0-3.556-8.472l3.795-2.512a16.371,16.371,0,0,1,4.247,10.984Z"/>
      </g>
    </g>
  </g>
</svg>
