<svg xmlns="http://www.w3.org/2000/svg" xmlns:xlink="http://www.w3.org/1999/xlink" width="90" height="90" viewBox="0 0 90 90">
  <defs>
    <clipPath id="clip-path">
      <rect id="Rectangle_412236" data-name="Rectangle 412236" width="60" height="61" transform="translate(1143.551 8742.736)" fill="#fff" stroke="#707070" stroke-width="1"/>
    </clipPath>
  </defs>
  <g id="Group_1204317" data-name="Group 1204317" transform="translate(-1128.301 -8728.236)">
    <g id="Path_1276286" data-name="Path 1276286" transform="translate(1128.301 8728.236)" fill="#caedb8">
      <path d="M 75 88.5 L 15 88.5 C 11.39401245117188 88.5 8.003874778747559 87.09574890136719 5.454062461853027 84.54593658447266 C 2.904249906539917 81.99612426757812 1.5 78.60598754882812 1.5 75 L 1.5 15 C 1.5 11.39401245117188 2.904249906539917 8.003874778747559 5.454062461853027 5.454062461853027 C 8.003874778747559 2.904249906539917 11.39401245117188 1.5 15 1.5 L 75 1.5 C 78.60598754882812 1.5 81.99612426757812 2.904249906539917 84.54593658447266 5.454062461853027 C 87.09574890136719 8.003874778747559 88.5 11.39401245117188 88.5 15 L 88.5 75 C 88.5 78.60598754882812 87.09574890136719 81.99612426757812 84.54593658447266 84.54593658447266 C 81.99612426757812 87.09574890136719 78.60598754882812 88.5 75 88.5 Z" stroke="none"/>
      <path d="M 15 3 C 11.79468536376953 3 8.781211853027344 4.248214721679688 6.514717102050781 6.514717102050781 C 4.248214721679688 8.781211853027344 3 11.79468536376953 3 15 L 3 75 C 3 78.20531463623047 4.248214721679688 81.21878814697266 6.514717102050781 83.48528289794922 C 8.781211853027344 85.75178527832031 11.79468536376953 87 15 87 L 75 87 C 78.20531463623047 87 81.21878814697266 85.75178527832031 83.48528289794922 83.48528289794922 C 85.75178527832031 81.21878814697266 87 78.20531463623047 87 75 L 87 15 C 87 11.79468536376953 85.75178527832031 8.781211853027344 83.48528289794922 6.514717102050781 C 81.21878814697266 4.248214721679688 78.20531463623047 3 75 3 L 15 3 M 15 0 L 75 0 C 83.28427124023438 0 90 6.715728759765625 90 15 L 90 75 C 90 83.28427124023438 83.28427124023438 90 75 90 L 15 90 C 6.715728759765625 90 0 83.28427124023438 0 75 L 0 15 C 0 6.715728759765625 6.715728759765625 0 15 0 Z" stroke="none" fill="#569338"/>
    </g>
    <g id="Mask_Group_1200954" data-name="Mask Group 1200954" clip-path="url(#clip-path)">
      <g id="FILLED_OUTLINE" transform="translate(1141.551 8741.232)">
        <path id="Path_1277170" data-name="Path 1277170" d="M17,45V40A15,15,0,0,1,32,25h0A15,15,0,0,1,47,40v5H61V41A29,29,0,0,0,32,12h0A29,29,0,0,0,3,41v4Z" fill="#269dc2"/>
        <circle id="Ellipse_12544" data-name="Ellipse 12544" cx="9" cy="9" r="9" transform="translate(23 3)" fill="#8bb276"/>
        <path id="Path_1277171" data-name="Path 1277171" d="M24.169,35.5,22.433,34.5A10.945,10.945,0,0,1,31.912,29h.176a10.827,10.827,0,0,1,7.821,3.3L38.476,33.7A8.843,8.843,0,0,0,32.088,31h-.176a8.94,8.94,0,0,0-7.743,4.5Z" fill="#62b8d3"/>
        <path id="Path_1277172" data-name="Path 1277172" d="M23,39.912H21a10.91,10.91,0,0,1,.479-3.205l1.912.587A8.918,8.918,0,0,0,23,39.912Z" fill="#62b8d3"/>
        <rect id="Rectangle_412256" data-name="Rectangle 412256" width="4" height="10" transform="translate(13 49)" fill="#008cb7"/>
        <path id="Path_1277173" data-name="Path 1277173" d="M11,51,9.586,49.586A2,2,0,0,0,8.172,49H5.766a2,2,0,0,0-1.985,1.752l-.5,4A2,2,0,0,0,5.266,57H7l-.553,1.106A2,2,0,0,0,8.236,61H9l2-4h2V51Z" fill="#ffcbb1"/>
        <path id="Path_1277174" data-name="Path 1277174" d="M54,49l-2,4H48l3,3-1,5,4-3,4,3-1-5,3-3H56Z" fill="#f4aa8e"/>
        <path id="Path_1277175" data-name="Path 1277175" d="M38.785,6.091l-7.706,8.348L28.8,11.4l-1.6,1.2,3,4a1,1,0,0,0,.749.4H31a1,1,0,0,0,.735-.322l8.215-8.9a9.016,9.016,0,0,0-1.164-1.688Z" fill="#ccdcc2"/>
        <path id="Path_1277176" data-name="Path 1277176" d="M12.215,19.8q-.731.683-1.414,1.414l9.455,9.455A15.086,15.086,0,0,1,21.6,29.189Z" fill="#00779c"/>
        <path id="Path_1277177" data-name="Path 1277177" d="M39.642,45.889,61,17.4,57.8,15l-3,4-4-3-2.4,3.2,4,3L50,25.4l-2.4-1.8-2.4,3.2,2.4,1.8L36.442,43.49a4.035,4.035,0,0,1-3.706,1.568,8,8,0,1,0,6.414,4.766,3.958,3.958,0,0,1,.492-3.935Zm-4.634,9.516a4,4,0,1,1-.8-5.6,4,4,0,0,1,.8,5.6Z" fill="#9cbd8a"/>
        <path id="Path_1277178" data-name="Path 1277178" d="M31.912,31h.176a8.843,8.843,0,0,1,6.388,2.7L39.909,32.3A10.827,10.827,0,0,0,32.088,29h-.176a10.945,10.945,0,0,0-9.479,5.5l1.736.993A8.94,8.94,0,0,1,31.912,31Z"/>
        <path id="Path_1277179" data-name="Path 1277179" d="M21,39.912h2a8.918,8.918,0,0,1,.391-2.619l-1.912-.587A10.91,10.91,0,0,0,21,39.912Z"/>
        <path id="Path_1277180" data-name="Path 1277180" d="M17,48H13a1,1,0,0,0-1,1v1h-.586l-1.121-1.121A2.98,2.98,0,0,0,8.172,48H5.766a3,3,0,0,0-2.977,2.628l-.5,4A3,3,0,0,0,5.266,58h.141a3,3,0,0,0,2.829,4H9a1,1,0,0,0,.894-.553L11.618,58H12v1a1,1,0,0,0,1,1h4a1,1,0,0,0,1-1V49a1,1,0,0,0-1-1Zm-5,8H11a1,1,0,0,0-.894.553L8.382,60H8.236a1,1,0,0,1-.894-1.447l.553-1.106A1,1,0,0,0,7,56H5.266a1,1,0,0,1-.992-1.124l.5-4A1,1,0,0,1,5.766,50H8.172a.993.993,0,0,1,.707.293l1.414,1.414A1,1,0,0,0,11,52h1Zm4,2H14V50h2Z"/>
        <path id="Path_1277181" data-name="Path 1277181" d="M60,52H56.618l-1.724-3.447a1,1,0,0,0-1.789,0L51.382,52H48a1,1,0,0,0-.707,1.707l2.622,2.622-.9,4.475a1,1,0,0,0,1.581,1L54,59.25l3.4,2.55a1,1,0,0,0,1.581-1l-.9-4.475,2.622-2.622A1,1,0,0,0,60,52Zm-3.707,3.293a1,1,0,0,0-.273.9l.487,2.433L54.6,57.2a1,1,0,0,0-1.2,0l-1.906,1.43.487-2.433a1,1,0,0,0-.273-.9L50.414,54H52a1,1,0,0,0,.894-.553L54,51.236l1.106,2.211A1,1,0,0,0,56,54h1.586Z"/>
        <path id="Path_1277182" data-name="Path 1277182" d="M57,24.406,61.8,18a1,1,0,0,0-.2-1.4l-3.2-2.4a1,1,0,0,0-1.4.2l-2.4,3.2-3.2-2.4a1,1,0,0,0-1.4.2l-.775,1.033A29.813,29.813,0,0,0,41.973,12.7c.016-.231.027-.463.027-.7a9.945,9.945,0,0,0-1.768-5.679,1,1,0,0,0-1.557-.11l-7.6,8.228L28.8,11.4l-1.6,1.2,3,4a1,1,0,0,0,1.535.078l7.492-8.116a8,8,0,1,1-2.783-3.216l1.113-1.662A10,10,0,0,0,22,12c0,.235.011.467.027.7A30.012,30.012,0,0,0,2,41v4a1,1,0,0,0,1,1H17a1,1,0,0,0,1-1V40a14,14,0,0,1,25.641-7.78l-8,10.671a3.051,3.051,0,0,1-2.791,1.175,9,9,0,1,0-1.066,17.942,9.194,9.194,0,0,0,1.092-.065A8.922,8.922,0,0,0,39.009,58.4a9.027,9.027,0,0,0,1.059-8.976,2.959,2.959,0,0,1,.375-2.939h0l5.529-7.375c.018.295.029.59.029.886v5a1,1,0,0,0,1,1H61a1,1,0,0,0,1-1V41a29.771,29.771,0,0,0-5-16.594ZM16,40v4H4V41A27.777,27.777,0,0,1,9.451,24.4,28.553,28.553,0,0,1,11.5,21.919l8.045,8.045A15.923,15.923,0,0,0,16,40ZM32,24a15.945,15.945,0,0,0-11.1,4.487L12.917,20.5a27.781,27.781,0,0,1,9.456-5.8,10,10,0,0,0,19.254,0,27.819,27.819,0,0,1,6.4,3.337L47.6,18.6a1,1,0,0,0,.2,1.4L51,22.4,49.8,24l-1.6-1.2a1,1,0,0,0-1.4.2l-2.4,3.2a1,1,0,0,0,.2,1.4l1.6,1.2-1.3,1.736A16.061,16.061,0,0,0,32,24Zm6.842,21.29h0a4.964,4.964,0,0,0-.61,4.932,7,7,0,1,1-5.611-4.17,5.058,5.058,0,0,0,4.622-1.962L48.4,29.2a1,1,0,0,0-.2-1.4l-1.6-1.2L47.8,25l1.6,1.2a1,1,0,0,0,1.4-.2l2.4-3.2a1,1,0,0,0-.2-1.4L49.8,19,51,17.4l3.2,2.4a1,1,0,0,0,1.4-.2L58,16.4l1.6,1.2ZM60,44H48V40a16.117,16.117,0,0,0-.315-3.174l8.033-10.714A27.784,27.784,0,0,1,60,41Z"/>
        <path id="Path_1277183" data-name="Path 1277183" d="M34.807,49.005a5,5,0,1,0-3.01,9,5.076,5.076,0,0,0,.719-.051,5,5,0,0,0,2.291-8.95Zm-.6,5.8a3,3,0,1,1-2.825-4.769,3.043,3.043,0,0,1,.431-.031,3,3,0,0,1,2.394,4.8Z"/>
      </g>
    </g>
  </g>
</svg>
