<svg xmlns="http://www.w3.org/2000/svg" xmlns:xlink="http://www.w3.org/1999/xlink" width="90" height="90" viewBox="0 0 90 90">
  <defs>
    <clipPath id="clip-path">
      <rect id="Rectangle_412250" data-name="Rectangle 412250" width="60" height="61" transform="translate(7469.25 -7061.281)" fill="#fff" stroke="#707070" stroke-width="1"/>
    </clipPath>
  </defs>
  <g id="Group_1204173" data-name="Group 1204173" transform="translate(-7454.398 7075.781)">
    <g id="Path_1276273" data-name="Path 1276273" transform="translate(7454.398 -7075.781)" fill="#ffc94a">
      <path d="M 75 88.5 L 15 88.5 C 11.39401245117188 88.5 8.003874778747559 87.09574890136719 5.454062461853027 84.54593658447266 C 2.904249906539917 81.99612426757812 1.5 78.60598754882812 1.5 75 L 1.5 15 C 1.5 11.39401245117188 2.904249906539917 8.003874778747559 5.454062461853027 5.454062461853027 C 8.003874778747559 2.904249906539917 11.39401245117188 1.5 15 1.5 L 75 1.5 C 78.60598754882812 1.5 81.99612426757812 2.904249906539917 84.54593658447266 5.454062461853027 C 87.09574890136719 8.003874778747559 88.5 11.39401245117188 88.5 15 L 88.5 75 C 88.5 78.60598754882812 87.09574890136719 81.99612426757812 84.54593658447266 84.54593658447266 C 81.99612426757812 87.09574890136719 78.60598754882812 88.5 75 88.5 Z" stroke="none"/>
      <path d="M 15 3 C 11.79468536376953 3 8.781211853027344 4.248214721679688 6.514717102050781 6.514717102050781 C 4.248214721679688 8.781211853027344 3 11.79468536376953 3 15 L 3 75 C 3 78.20531463623047 4.248214721679688 81.21878814697266 6.514717102050781 83.48528289794922 C 8.781211853027344 85.75178527832031 11.79468536376953 87 15 87 L 75 87 C 78.20531463623047 87 81.21878814697266 85.75178527832031 83.48528289794922 83.48528289794922 C 85.75178527832031 81.21878814697266 87 78.20531463623047 87 75 L 87 15 C 87 11.79468536376953 85.75178527832031 8.781211853027344 83.48528289794922 6.514717102050781 C 81.21878814697266 4.248214721679688 78.20531463623047 3 75 3 L 15 3 M 15 0 L 75 0 C 83.28427124023438 0 90 6.715728759765625 90 15 L 90 75 C 90 83.28427124023438 83.28427124023438 90 75 90 L 15 90 C 6.715728759765625 90 0 83.28427124023438 0 75 L 0 15 C 0 6.715728759765625 6.715728759765625 0 15 0 Z" stroke="none" fill="#b18c32"/>
    </g>
    <g id="Mask_Group_1200927" data-name="Mask Group 1200927" clip-path="url(#clip-path)">
      <g id="target_9910230" transform="translate(7469.563 -7062.411)">
        <path id="Path_1276642" data-name="Path 1276642" d="M18.385,1.816H51.648a4.234,4.234,0,0,0-4.222,4.222V49.2a2.2,2.2,0,0,1-2.2,2.2H7.728c-.312,0,4.222-6.445,4.222-10.239V8.252a6.454,6.454,0,0,1,6.434-6.437Z" fill="#f1f2f2" fill-rule="evenodd"/>
        <path id="Path_1276643" data-name="Path 1276643" d="M47.426,13.018h8.442V6.037a4.222,4.222,0,1,0-8.443,0v6.98Z" fill="#d0d7df" fill-rule="evenodd"/>
        <path id="Path_1276644" data-name="Path 1276644" d="M3.507,40.19h8.442v6.98a4.222,4.222,0,0,1-8.443,0V40.19Z" fill="#d0d7df" fill-rule="evenodd"/>
        <path id="Path_1276645" data-name="Path 1276645" d="M20.7,21.029h4.327v6.883H20.7Z" fill="#ff5a5a" fill-rule="evenodd"/>
        <path id="Path_1276646" data-name="Path 1276646" d="M27.517,18.636h4.327v9.275H27.517Z" fill="#a5dc69" fill-rule="evenodd"/>
        <path id="Path_1276647" data-name="Path 1276647" d="M34.336,15.736h4.327V27.911H34.336Z" fill="#2fb1d4" fill-rule="evenodd"/>
        <circle id="Ellipse_12505" data-name="Ellipse 12505" cx="13.037" cy="13.037" r="13.037" transform="translate(11.53 43.692) rotate(-45)" fill="#ff5a5a"/>
        <circle id="Ellipse_12506" data-name="Ellipse 12506" cx="9.865" cy="9.865" r="9.865" transform="matrix(0.29, -0.957, 0.957, 0.29, 17.675, 50.286)" fill="#fbf3f3"/>
        <circle id="Ellipse_12507" data-name="Ellipse 12507" cx="6.771" cy="6.771" r="6.771" transform="translate(20.869 40.653) rotate(-26.565)" fill="#ff5a5a"/>
        <circle id="Ellipse_12508" data-name="Ellipse 12508" cx="3.699" cy="3.699" r="3.699" transform="matrix(0.29, -0.957, 0.957, 0.29, 25.365, 46.173)" fill="#fbf3f3"/>
        <path id="Path_1276648" data-name="Path 1276648" d="M42.943,36.871,49.2,35.2l-1.686,3.416a.379.379,0,0,0,.129.484l3.169,2.115-6.253,1.675-2.061-1.375-11.942,3.2a1.252,1.252,0,0,1-.648-2.419l11.942-3.2Z" fill="#898890" fill-rule="evenodd"/>
        <path id="Path_1276649" data-name="Path 1276649" d="M19.19,12.359H16.359a.686.686,0,1,1,0-1.373H19.19a.686.686,0,1,1,0,1.373ZM15.671,8.676a.688.688,0,0,1,.688-.686h8.564a.686.686,0,0,1,0,1.373H16.358a.689.689,0,0,1-.688-.686Zm0-3a.688.688,0,0,1,.688-.686h8.517a.686.686,0,1,1,0,1.373H16.358A.687.687,0,0,1,15.671,5.678Zm3.15,12.094a.686.686,0,0,0,.851,1.077l6.968-5.519,6.56.312a.69.69,0,0,0,.51-.192L39.428,7.9V9.233a.688.688,0,0,0,1.375,0V6.277a.688.688,0,0,0-.688-.686H37.158a.686.686,0,1,0,0,1.373h1.263l-5.456,5.295-6.518-.31a.671.671,0,0,0-.459.148Zm2.564,3.943h2.953v5.51H21.384ZM28.2,19.323h2.953v7.9H28.2Zm6.818-2.9h2.958v10.8H35.02Zm5.639,10.8a.686.686,0,0,1,0,1.373H18.7a.686.686,0,1,1,0-1.373h1.31v-6.2a.684.684,0,0,1,.683-.686h4.328a.688.688,0,0,1,.688.686v6.2h1.119V18.637a.686.686,0,0,1,.683-.686h4.328a.687.687,0,0,1,.688.686v8.589h1.119V15.736a.688.688,0,0,1,.688-.686H38.66a.688.688,0,0,1,.688.686V27.225ZM55.183,12.331H48.113V6.037a3.535,3.535,0,1,1,7.071,0ZM42.764,36.207l3.977-1.065V6.037A4.882,4.882,0,0,1,48.248,2.5H18.386a5.759,5.759,0,0,0-5.751,5.749V47.169A4.882,4.882,0,0,1,11.128,50.7H18.18A13.724,13.724,0,1,1,42.04,37.146l.285-.579a.7.7,0,0,1,.439-.359Zm6.4,4.732-4.487,1.2-1.8-1.2a.693.693,0,0,0-.562-.092l-11.942,3.2a.566.566,0,0,1-.291-1.093l11.942-3.2a.676.676,0,0,0,.435-.359l.959-1.942,4.487-1.2-1.016,2.056a1.072,1.072,0,0,0,.365,1.359ZM46.742,49.2a1.512,1.512,0,0,1-1.511,1.509H41.773A13.628,13.628,0,0,0,43.7,43.694q0-.28-.014-.559l.486.323a.687.687,0,0,0,.557.093l2.012-.539V49.2ZM36.368,39.848a7.462,7.462,0,1,0,1.066,3.845v-.116l1.7-.456c.014.19.018.381.018.572a9.166,9.166,0,1,1-1.066-4.3Zm-3.186.856a4.342,4.342,0,0,0-3.206-1.395A4.385,4.385,0,1,0,34.3,44.417l1.755-.47a6.077,6.077,0,1,1-1.077-3.725Zm-4.8,3.29a1.91,1.91,0,0,0,1.843,1.446,1.975,1.975,0,0,0,.506-.066l2.04-.547a3.014,3.014,0,1,1-2.794-4.146,2.982,2.982,0,0,1,1.591.454l-1.839.493a1.9,1.9,0,0,0-1.348,2.366Zm1.595,12.052a12.353,12.353,0,1,1,11.235-17.5l-1.773.475a10.549,10.549,0,1,0,1.09,4.668c0-.311-.018-.624-.042-.934l1.764-.473a12.791,12.791,0,0,1,.08,1.406A12.37,12.37,0,0,1,29.975,56.046ZM4.193,47.17V40.876h7.071V47.17a3.535,3.535,0,1,1-7.071,0ZM51.646,1.129H18.386a7.132,7.132,0,0,0-7.122,7.122V39.5H3.5a.684.684,0,0,0-.683.686v6.98A4.912,4.912,0,0,0,7.73,52.077H19.114a13.712,13.712,0,0,0,21.722,0H45.23A2.884,2.884,0,0,0,48.112,49.2V42.643l2.873-.77a.684.684,0,0,0,.5-.551.677.677,0,0,0-.3-.682l-2.944-1.966L49.81,35.5a.687.687,0,0,0-.8-.967l-.9.241V13.7h7.758a.684.684,0,0,0,.683-.686V6.037a4.907,4.907,0,0,0-4.906-4.908Z" fill="#222124" fill-rule="evenodd"/>
      </g>
    </g>
  </g>
</svg>
