<svg xmlns="http://www.w3.org/2000/svg" xmlns:xlink="http://www.w3.org/1999/xlink" width="90" height="90" viewBox="0 0 90 90">
  <defs>
    <clipPath id="clip-path">
      <rect id="Rectangle_412161" data-name="Rectangle 412161" width="60" height="61" transform="translate(794.929 5752.665)" fill="#fff" stroke="#707070" stroke-width="1"/>
    </clipPath>
  </defs>
  <g id="Group_1204147" data-name="Group 1204147" transform="translate(-779.659 -5738.125)">
    <g id="Path_1276171" data-name="Path 1276171" transform="translate(779.659 5738.125)" fill="#caedb8">
      <path d="M 75 88.5 L 15 88.5 C 11.39401245117188 88.5 8.003874778747559 87.09574890136719 5.454062461853027 84.54593658447266 C 2.904249906539917 81.99612426757812 1.5 78.60598754882812 1.5 75 L 1.5 15 C 1.5 11.39401245117188 2.904249906539917 8.003874778747559 5.454062461853027 5.454062461853027 C 8.003874778747559 2.904249906539917 11.39401245117188 1.5 15 1.5 L 75 1.5 C 78.60598754882812 1.5 81.99612426757812 2.904249906539917 84.54593658447266 5.454062461853027 C 87.09574890136719 8.003874778747559 88.5 11.39401245117188 88.5 15 L 88.5 75 C 88.5 78.60598754882812 87.09574890136719 81.99612426757812 84.54593658447266 84.54593658447266 C 81.99612426757812 87.09574890136719 78.60598754882812 88.5 75 88.5 Z" stroke="none"/>
      <path d="M 15 3 C 11.79468536376953 3 8.781211853027344 4.248214721679688 6.514717102050781 6.514717102050781 C 4.248214721679688 8.781211853027344 3 11.79468536376953 3 15 L 3 75 C 3 78.20531463623047 4.248214721679688 81.21878814697266 6.514717102050781 83.48528289794922 C 8.781211853027344 85.75178527832031 11.79468536376953 87 15 87 L 75 87 C 78.20531463623047 87 81.21878814697266 85.75178527832031 83.48528289794922 83.48528289794922 C 85.75178527832031 81.21878814697266 87 78.20531463623047 87 75 L 87 15 C 87 11.79468536376953 85.75178527832031 8.781211853027344 83.48528289794922 6.514717102050781 C 81.21878814697266 4.248214721679688 78.20531463623047 3 75 3 L 15 3 M 15 0 L 75 0 C 83.28427124023438 0 90 6.715728759765625 90 15 L 90 75 C 90 83.28427124023438 83.28427124023438 90 75 90 L 15 90 C 6.715728759765625 90 0 83.28427124023438 0 75 L 0 15 C 0 6.715728759765625 6.715728759765625 0 15 0 Z" stroke="none" fill="#569338"/>
    </g>
    <g id="Mask_Group_1200920" data-name="Mask Group 1200920" clip-path="url(#clip-path)">
      <g id="calendar_4380749" transform="translate(794.929 5753.165)">
        <path id="Path_1276536" data-name="Path 1276536" d="M49,13v7.72L22.72,51H5a4,4,0,0,1-4-4V13l1-1H48Z" fill="#e6f1ff"/>
        <path id="Path_1276537" data-name="Path 1276537" d="M49,9v4H1V9A4,4,0,0,1,5,5H45A4,4,0,0,1,49,9Z" fill="#4c84c6"/>
        <rect id="Rectangle_412242" data-name="Rectangle 412242" width="4" height="8" rx="2" transform="translate(8 1)" fill="#e6f1ff"/>
        <rect id="Rectangle_412243" data-name="Rectangle 412243" width="4" height="8" rx="2" transform="translate(18 1)" fill="#e6f1ff"/>
        <rect id="Rectangle_412244" data-name="Rectangle 412244" width="4" height="8" rx="2" transform="translate(28 1)" fill="#e6f1ff"/>
        <rect id="Rectangle_412245" data-name="Rectangle 412245" width="4" height="8" rx="2" transform="translate(38 1)" fill="#e6f1ff"/>
        <path id="Path_1276538" data-name="Path 1276538" d="M46.042,19H31.958a3,3,0,0,0-2.121.879l-9.958,9.958A3,3,0,0,0,19,31.958V46.042a3,3,0,0,0,.879,2.121l9.958,9.958A3,3,0,0,0,31.958,59H46.042a3,3,0,0,0,2.121-.879l9.958-9.958A3,3,0,0,0,59,46.042V31.958a3,3,0,0,0-.879-2.121l-9.958-9.958A3,3,0,0,0,46.042,19Z" fill="#cd5f70"/>
        <path id="Path_1276539" data-name="Path 1276539" d="M31.787,54.414l-8.2-8.2A2,2,0,0,1,23,44.8V33.2a2,2,0,0,1,.586-1.414l8.2-8.2A2,2,0,0,1,33.2,23H44.8a2,2,0,0,1,1.414.586l8.2,8.2A2,2,0,0,1,55,33.2V44.8a2,2,0,0,1-.586,1.414l-8.2,8.2A2,2,0,0,1,44.8,55H33.2A2,2,0,0,1,31.787,54.414Z" fill="#e27c8e"/>
        <circle id="Ellipse_12497" data-name="Ellipse 12497" cx="2" cy="2" r="2" transform="translate(37 46)" fill="#fff"/>
        <rect id="Rectangle_412246" data-name="Rectangle 412246" width="4" height="14" rx="2" transform="translate(37 28)" fill="#fff"/>
        <path id="Path_1276540" data-name="Path 1276540" d="M50,20.3V9a5,5,0,0,0-5-5H43V3a3,3,0,1,0-6,0V4H33V3a3,3,0,1,0-6,0V4H23V3a3,3,0,1,0-6,0V4H13V3A3,3,0,1,0,7,3V4H5A5,5,0,0,0,0,9v8a1,1,0,0,0,2,0V14H48v4.53A4.082,4.082,0,0,0,46.04,18H31.96a4.047,4.047,0,0,0-2.83,1.17l-9.96,9.96A4.047,4.047,0,0,0,18,31.96V46.04a4.047,4.047,0,0,0,1.17,2.83L20.3,50H5a3.009,3.009,0,0,1-3-3V21a1,1,0,0,0-2,0V47a5,5,0,0,0,5,5H22.3l6.83,6.83A4.047,4.047,0,0,0,31.96,60H46.04a4.047,4.047,0,0,0,2.83-1.17l9.96-9.96A4.047,4.047,0,0,0,60,46.04V31.96a4.047,4.047,0,0,0-1.17-2.83ZM39,3a1,1,0,0,1,2,0V7a1,1,0,0,1-2,0ZM29,3a1,1,0,0,1,2,0V7a1,1,0,0,1-2,0ZM19,3a1,1,0,0,1,2,0V7a1,1,0,0,1-2,0ZM9,3a1,1,0,0,1,2,0V7A1,1,0,0,1,9,7ZM2,12V9A3.009,3.009,0,0,1,5,6H7V7a3,3,0,0,0,6,0V6h4V7a3,3,0,0,0,6,0V6h4V7a3,3,0,0,0,6,0V6h4V7a3,3,0,0,0,6,0V6h2a3.009,3.009,0,0,1,3,3v3ZM58,46.04a2.006,2.006,0,0,1-.59,1.42l-9.95,9.95a2.006,2.006,0,0,1-1.42.59H31.96a2.006,2.006,0,0,1-1.42-.59l-9.95-9.95A2.006,2.006,0,0,1,20,46.04V31.96a2.006,2.006,0,0,1,.59-1.42l9.95-9.95A2.006,2.006,0,0,1,31.96,20H46.04a2.006,2.006,0,0,1,1.42.59l9.95,9.95A2.006,2.006,0,0,1,58,31.96Z" fill="#373737"/>
        <path id="Path_1276541" data-name="Path 1276541" d="M46.92,22.879A2.982,2.982,0,0,0,44.8,22H33.2a2.982,2.982,0,0,0-2.121.879l-8.2,8.2A2.978,2.978,0,0,0,22,33.2V44.8a2.978,2.978,0,0,0,.879,2.121l8.2,8.2A2.978,2.978,0,0,0,33.2,56H44.8a2.978,2.978,0,0,0,2.121-.879l8.2-8.2A2.982,2.982,0,0,0,56,44.8V33.2a2.982,2.982,0,0,0-.879-2.121ZM54,44.8a1,1,0,0,1-.293.707l-8.2,8.2A1,1,0,0,1,44.8,54H33.2a1,1,0,0,1-.707-.293l-8.2-8.2A1,1,0,0,1,24,44.8V33.2a1,1,0,0,1,.293-.707l8.2-8.2A1,1,0,0,1,33.2,24H44.8a1,1,0,0,1,.707.293l8.2,8.2A1,1,0,0,1,54,33.2Z" fill="#373737"/>
        <path id="Path_1276542" data-name="Path 1276542" d="M39,45a3,3,0,1,0,3,3A3,3,0,0,0,39,45Zm0,4a1,1,0,1,1,1-1A1,1,0,0,1,39,49Z" fill="#373737"/>
        <path id="Path_1276543" data-name="Path 1276543" d="M39,27a3,3,0,0,0-3,3V40a3,3,0,0,0,6,0V30A3,3,0,0,0,39,27Zm1,13a1,1,0,0,1-2,0V30a1,1,0,0,1,2,0Z" fill="#373737"/>
      </g>
    </g>
  </g>
</svg>
