<svg xmlns="http://www.w3.org/2000/svg" xmlns:xlink="http://www.w3.org/1999/xlink" width="90" height="90" viewBox="0 0 90 90">
  <defs>
    <clipPath id="clip-path">
      <rect id="Rectangle_412211" data-name="Rectangle 412211" width="60" height="61" transform="translate(614.653 5634.314)" fill="#fff" stroke="#707070" stroke-width="1"/>
    </clipPath>
  </defs>
  <g id="Group_1204257" data-name="Group 1204257" transform="translate(-599.386 -5619.774)">
    <g id="Path_1276275" data-name="Path 1276275" transform="translate(599.386 5619.774)" fill="#ffc94a">
      <path d="M 75 88.5 L 15 88.5 C 11.39401245117188 88.5 8.003874778747559 87.09574890136719 5.454062461853027 84.54593658447266 C 2.904249906539917 81.99612426757812 1.5 78.60598754882812 1.5 75 L 1.5 15 C 1.5 11.39401245117188 2.904249906539917 8.003874778747559 5.454062461853027 5.454062461853027 C 8.003874778747559 2.904249906539917 11.39401245117188 1.5 15 1.5 L 75 1.5 C 78.60598754882812 1.5 81.99612426757812 2.904249906539917 84.54593658447266 5.454062461853027 C 87.09574890136719 8.003874778747559 88.5 11.39401245117188 88.5 15 L 88.5 75 C 88.5 78.60598754882812 87.09574890136719 81.99612426757812 84.54593658447266 84.54593658447266 C 81.99612426757812 87.09574890136719 78.60598754882812 88.5 75 88.5 Z" stroke="none"/>
      <path d="M 15 3 C 11.79468536376953 3 8.781211853027344 4.248214721679688 6.514717102050781 6.514717102050781 C 4.248214721679688 8.781211853027344 3 11.79468536376953 3 15 L 3 75 C 3 78.20531463623047 4.248214721679688 81.21878814697266 6.514717102050781 83.48528289794922 C 8.781211853027344 85.75178527832031 11.79468536376953 87 15 87 L 75 87 C 78.20531463623047 87 81.21878814697266 85.75178527832031 83.48528289794922 83.48528289794922 C 85.75178527832031 81.21878814697266 87 78.20531463623047 87 75 L 87 15 C 87 11.79468536376953 85.75178527832031 8.781211853027344 83.48528289794922 6.514717102050781 C 81.21878814697266 4.248214721679688 78.20531463623047 3 75 3 L 15 3 M 15 0 L 75 0 C 83.28427124023438 0 90 6.715728759765625 90 15 L 90 75 C 90 83.28427124023438 83.28427124023438 90 75 90 L 15 90 C 6.715728759765625 90 0 83.28427124023438 0 75 L 0 15 C 0 6.715728759765625 6.715728759765625 0 15 0 Z" stroke="none" fill="#b18c32"/>
    </g>
    <g id="Mask_Group_1200946" data-name="Mask Group 1200946" clip-path="url(#clip-path)">
      <g id="expense_18699478" transform="translate(612.653 5632.814)">
        <g id="Group_1204255" data-name="Group 1204255">
          <path id="Path_1277028" data-name="Path 1277028" d="M20.851,8.9c12.392-1.311,18.02,3.4,21.474,10.617a.512.512,0,0,1-.21.668l-2.777,1.567a.512.512,0,0,0,.137.946l8.363,1.925a.512.512,0,0,0,.608-.36l2.141-7.588a.512.512,0,0,0-.714-.6l-1.84.877a.513.513,0,0,1-.678-.233c-4.7-9.356-16.372-12.934-26.748-8.8a.513.513,0,0,0,.244.986Z" fill="#d62733" fill-rule="evenodd"/>
          <path id="Path_1277029" data-name="Path 1277029" d="M20.851,8.9c12.392-1.311,18.019,3.4,21.474,10.617a.512.512,0,0,1-.21.668l-1.483.837a.521.521,0,0,1-.1.076l-1.3.731a.513.513,0,0,0,.241.869l7.592,1.747L49,17.588a.512.512,0,0,0-.714-.6l-1.84.877a.513.513,0,0,1-.678-.233C41.264,8.653,30.33,5,20.285,8.367a.523.523,0,0,0,.014.146.51.51,0,0,0,.552.388Z" fill="#ee2b39" fill-rule="evenodd"/>
          <path id="Path_1277030" data-name="Path 1277030" d="M13.686,26.017h7.187c37.771,40.865-44.958,40.865-7.187,0ZM11.82,13.693H22.739a1.143,1.143,0,0,1,.993.556,1.2,1.2,0,0,1,.077,1.156l-2.936,6.5H13.686l-2.936-6.5a1.2,1.2,0,0,1,.077-1.156,1.143,1.143,0,0,1,.993-.556Z" fill="#c97629" fill-rule="evenodd"/>
        </g>
        <path id="Path_1277031" data-name="Path 1277031" d="M12.684,21.714h8.965a2.093,2.093,0,0,1,0,4.186H12.684a2.093,2.093,0,1,1,0-4.186Z" fill="#ffb336"/>
        <path id="Path_1277032" data-name="Path 1277032" d="M15.454,26.017h5.419c18.39,19.9,8.215,30.1-2.709,30.623-10.924-.522-21.1-10.727-2.709-30.623Zm0-4.108-2.936-6.5a1.2,1.2,0,0,1,.077-1.156,1.143,1.143,0,0,1,.993-.556h9.15a1.143,1.143,0,0,1,.993.556,1.2,1.2,0,0,1,.077,1.156l-2.936,6.5H15.454Z" fill="#ce843e" fill-rule="evenodd"/>
        <path id="Path_1277033" data-name="Path 1277033" d="M14.528,21.714h7.121a2.093,2.093,0,0,1,0,4.186H14.528a2.093,2.093,0,1,1,0-4.186Z" fill="#ffbb4a"/>
        <circle id="Ellipse_12532" data-name="Ellipse 12532" cx="8.84" cy="8.84" r="8.84" transform="matrix(0.922, -0.388, 0.388, 0.922, 5.586, 39)" fill="#fec66f"/>
        <path id="Path_1277034" data-name="Path 1277034" d="M18.187,34.918a8.838,8.838,0,0,1,0,17.557,8.838,8.838,0,0,1,0-17.557Z" fill="#ffce7b" fill-rule="evenodd"/>
        <circle id="Ellipse_12533" data-name="Ellipse 12533" cx="5.897" cy="5.897" r="5.897" transform="translate(41.183 39.043) rotate(-9.378)" fill="#b3b3b3"/>
        <path id="Path_1277035" data-name="Path 1277035" d="M50.118,38.433a5.9,5.9,0,0,1,0,10.95,5.478,5.478,0,0,1,0-10.95Z" fill="#dbdbdb" fill-rule="evenodd"/>
        <path id="Path_1277036" data-name="Path 1277036" d="M57.38,37.851a11.157,11.157,0,0,1,1.514,3.658.546.546,0,0,0,.539.434h1.087a.549.549,0,0,1,.548.49,13.3,13.3,0,0,1,0,2.951.549.549,0,0,1-.548.49H59.432a.546.546,0,0,0-.539.434,11.158,11.158,0,0,1-1.514,3.658.546.546,0,0,0,.074.688l.769.769a.549.549,0,0,1,.041.734,13.356,13.356,0,0,1-2.087,2.087.549.549,0,0,1-.734-.041l-.768-.768a.546.546,0,0,0-.687-.074,11.159,11.159,0,0,1-3.658,1.514.546.546,0,0,0-.434.539V56.5a.549.549,0,0,1-.49.548,13.3,13.3,0,0,1-2.951,0,.549.549,0,0,1-.49-.548V55.411a.546.546,0,0,0-.434-.539,11.16,11.16,0,0,1-3.658-1.514.547.547,0,0,0-.688.074l-.768.768a.549.549,0,0,1-.734.041,13.356,13.356,0,0,1-2.087-2.087.549.549,0,0,1,.041-.734l.768-.768a.546.546,0,0,0,.074-.687,11.159,11.159,0,0,1-1.514-3.658.546.546,0,0,0-.539-.434H35.339a.549.549,0,0,1-.548-.49,13.307,13.307,0,0,1,0-2.951.549.549,0,0,1,.548-.49h1.087a.546.546,0,0,0,.539-.434,11.156,11.156,0,0,1,1.514-3.658.546.546,0,0,0-.074-.688l-.768-.768a.549.549,0,0,1-.041-.734,13.348,13.348,0,0,1,2.087-2.087.549.549,0,0,1,.734.041l.768.768a.546.546,0,0,0,.688.074,11.159,11.159,0,0,1,3.658-1.514.547.547,0,0,0,.434-.539V31.317a.549.549,0,0,1,.49-.548,13.3,13.3,0,0,1,2.951,0,.549.549,0,0,1,.49.548V32.4a.546.546,0,0,0,.434.539,11.16,11.16,0,0,1,3.658,1.514.546.546,0,0,0,.688-.074l.768-.768a.549.549,0,0,1,.734-.041,13.342,13.342,0,0,1,2.087,2.087.549.549,0,0,1-.041.734l-.768.768a.546.546,0,0,0-.074.688Zm-9.451.4a5.657,5.657,0,1,0,5.657,5.657A5.657,5.657,0,0,0,47.929,38.251Z" fill="#3bad4e" fill-rule="evenodd"/>
        <g id="Group_1204256" data-name="Group 1204256">
          <path id="Path_1277037" data-name="Path 1277037" d="M17.168,58.143c-4.436,0-8.872-1.433-11.792-4.3-2.018-1.981-4.19-5.526-3.07-11.165,1.018-5.124,4.55-10.911,10.5-17.2l1.235,1.168C3.654,37.626.931,47.1,6.566,52.631a15.147,15.147,0,0,0,10.6,3.81,15.143,15.143,0,0,0,10.6-3.81c5.637-5.533,2.913-15-7.473-25.985l1.237-1.169c5.949,6.29,9.481,12.078,10.5,17.2,1.12,5.639-1.052,9.184-3.069,11.165-2.921,2.866-7.357,4.3-11.793,4.3Z" fill-rule="evenodd"/>
          <path id="Path_1277038" data-name="Path 1277038" d="M17.168,35.871a7.987,7.987,0,1,0,7.988,7.988A8,8,0,0,0,17.168,35.871Zm0,17.675a9.688,9.688,0,1,1,9.688-9.687A9.7,9.7,0,0,1,17.168,53.546Z" fill-rule="evenodd"/>
          <path id="Path_1277039" data-name="Path 1277039" d="M17.168,50.645a.85.85,0,0,1-.85-.85V48.711a3.517,3.517,0,0,1-1.794-1.026.85.85,0,1,1,1.233-1.171,1.761,1.761,0,0,0,1.88.473A1.221,1.221,0,0,0,18.51,46c.042-.519-.505-.994-1.46-1.272-2.5-.728-2.885-2.2-2.933-2.8A2.814,2.814,0,0,1,15.8,39.25a3.129,3.129,0,0,1,.52-.2V37.922a.85.85,0,0,1,1.7,0v1.091a4.135,4.135,0,0,1,1.944,1.079.85.85,0,0,1-1.17,1.234,1.943,1.943,0,0,0-2.26-.543,1.137,1.137,0,0,0-.722,1.011c.043.516.683,1,1.714,1.3,2.649.77,2.721,2.521,2.679,3.039a2.877,2.877,0,0,1-2,2.455c-.062.022-.124.042-.186.061v1.144a.849.849,0,0,1-.85.85Z" fill-rule="evenodd"/>
          <path id="Path_1277040" data-name="Path 1277040" d="M12.686,22.726a1.243,1.243,0,1,0,0,2.485h8.965a1.243,1.243,0,0,0,0-2.485H12.687Zm8.964,4.185H12.686a2.943,2.943,0,1,1,0-5.886h8.965a2.943,2.943,0,0,1,0,5.886Z" fill-rule="evenodd"/>
          <path id="Path_1277041" data-name="Path 1277041" d="M20.915,22.726a.85.85,0,0,1-.771-1.207l3.31-7.164H10.884l3.31,7.164a.85.85,0,0,1-1.544.713L8.783,13.861a.849.849,0,0,1,.771-1.207H24.782a.851.851,0,0,1,.772,1.207l-3.868,8.371a.849.849,0,0,1-.771.494Z" fill-rule="evenodd"/>
          <path id="Path_1277042" data-name="Path 1277042" d="M40.753,21.718l6.676,1.537,1.718-6.087-1.454.693a.85.85,0,0,1-1.136-.407,16.992,16.992,0,0,0-10.4-8.962,20.611,20.611,0,0,0-11.289-.285A21.185,21.185,0,0,1,35.1,10.162c3.525,1.774,6.135,4.7,8.214,9.214a.849.849,0,0,1-.353,1.1Zm7.275,3.4a.855.855,0,0,1-.191-.022l-9.6-2.209a.85.85,0,0,1-.227-1.569l3.425-1.934c-2.9-5.916-8.01-11.342-22.39-8.854a.85.85,0,0,1-.562-1.578A22.964,22.964,0,0,1,36.673,6.873a18.723,18.723,0,0,1,11.043,9.093l2.393-1.141a.851.851,0,0,1,1.184,1L48.847,24.5a.852.852,0,0,1-.819.62Z" fill-rule="evenodd"/>
          <path id="Path_1277043" data-name="Path 1277043" d="M47.93,38.329a5.741,5.741,0,1,0,5.741,5.741,5.748,5.748,0,0,0-5.741-5.741Zm0,13.183a7.441,7.441,0,1,1,7.442-7.441A7.45,7.45,0,0,1,47.93,51.512ZM58.1,37.553h0ZM46.815,56.391v-.817a1.393,1.393,0,0,0-1.1-1.369,10.27,10.27,0,0,1-3.38-1.4,1.394,1.394,0,0,0-1.748.188l-.577.578c-.285-.238-.562-.491-.825-.754s-.515-.538-.753-.824l.577-.577a1.392,1.392,0,0,0,.188-1.749,10.292,10.292,0,0,1-1.4-3.379,1.392,1.392,0,0,0-1.369-1.1h-.816a12.429,12.429,0,0,1,0-2.23h.816a1.392,1.392,0,0,0,1.369-1.1,10.3,10.3,0,0,1,1.4-3.379,1.393,1.393,0,0,0-.188-1.749l-.577-.577c.238-.285.491-.562.753-.824s.538-.515.825-.754l.577.578a1.394,1.394,0,0,0,1.748.188,10.289,10.289,0,0,1,3.38-1.4,1.392,1.392,0,0,0,1.1-1.369V31.75a12.433,12.433,0,0,1,2.231,0v.816a1.392,1.392,0,0,0,1.1,1.37,10.265,10.265,0,0,1,3.38,1.4,1.393,1.393,0,0,0,1.748-.188l.577-.578c.285.239.563.492.825.754s.515.538.753.823l-.577.578a1.391,1.391,0,0,0-.188,1.748,10.266,10.266,0,0,1,1.4,3.379,1.392,1.392,0,0,0,1.369,1.1h.817a12.452,12.452,0,0,1,0,2.23h-.818a1.392,1.392,0,0,0-1.369,1.1,10.279,10.279,0,0,1-1.4,3.379,1.391,1.391,0,0,0,.188,1.748l.577.578c-.238.286-.492.561-.753.824s-.539.515-.825.754l-.577-.578a1.392,1.392,0,0,0-1.748-.188,10.272,10.272,0,0,1-3.38,1.4,1.39,1.39,0,0,0-1.1,1.369v.818a12.444,12.444,0,0,1-2.231,0Zm1.116,1.75a14.114,14.114,0,0,1-1.571-.087,1.4,1.4,0,0,1-1.246-1.393v-.848a11.982,11.982,0,0,1-3.5-1.448l-.6.6a1.4,1.4,0,0,1-1.866.1A14.384,14.384,0,0,1,37.98,54.02a14.533,14.533,0,0,1-1.048-1.171,1.4,1.4,0,0,1,.1-1.867l.6-.6a11.933,11.933,0,0,1-1.447-3.5H35.34a1.4,1.4,0,0,1-1.393-1.245,14.294,14.294,0,0,1,0-3.141,1.4,1.4,0,0,1,1.393-1.245h.849a11.929,11.929,0,0,1,1.446-3.5l-.6-.6a1.4,1.4,0,0,1-.1-1.867,14.306,14.306,0,0,1,1.048-1.171,14.134,14.134,0,0,1,1.172-1.048,1.4,1.4,0,0,1,1.866.1l.6.6a11.964,11.964,0,0,1,3.5-1.448v-.848a1.4,1.4,0,0,1,1.246-1.393,14.116,14.116,0,0,1,3.14,0,1.4,1.4,0,0,1,1.246,1.393v.848a12,12,0,0,1,3.5,1.448l.6-.6a1.4,1.4,0,0,1,1.866-.1,14.175,14.175,0,0,1,2.22,2.219,1.4,1.4,0,0,1-.1,1.867l-.6.6a11.993,11.993,0,0,1,1.446,3.5h.849A1.4,1.4,0,0,1,61.913,42.5a14.134,14.134,0,0,1,0,3.141,1.4,1.4,0,0,1-1.392,1.245h-.849a11.961,11.961,0,0,1-1.448,3.5l.6.6a1.4,1.4,0,0,1,.1,1.867,14.31,14.31,0,0,1-1.049,1.171,14.121,14.121,0,0,1-1.171,1.048,1.4,1.4,0,0,1-1.866-.1l-.6-.6a11.994,11.994,0,0,1-3.5,1.448v.848A1.4,1.4,0,0,1,49.5,58.054a14.117,14.117,0,0,1-1.569.087Z" fill-rule="evenodd"/>
        </g>
      </g>
    </g>
  </g>
</svg>
