<svg xmlns="http://www.w3.org/2000/svg" xmlns:xlink="http://www.w3.org/1999/xlink" width="90" height="90" viewBox="0 0 90 90">
  <defs>
    <clipPath id="clip-path">
      <rect id="Rectangle_412235" data-name="Rectangle 412235" width="60" height="61" transform="translate(784.559 8742.736)" fill="#fff" stroke="#707070" stroke-width="1"/>
    </clipPath>
  </defs>
  <g id="Group_1204316" data-name="Group 1204316" transform="translate(-769.309 -8728.236)">
    <g id="Path_1276287" data-name="Path 1276287" transform="translate(769.309 8728.236)" fill="#caedb8">
      <path d="M 75 88.5 L 15 88.5 C 11.39401245117188 88.5 8.003874778747559 87.09574890136719 5.454062461853027 84.54593658447266 C 2.904249906539917 81.99612426757812 1.5 78.60598754882812 1.5 75 L 1.5 15 C 1.5 11.39401245117188 2.904249906539917 8.003874778747559 5.454062461853027 5.454062461853027 C 8.003874778747559 2.904249906539917 11.39401245117188 1.5 15 1.5 L 75 1.5 C 78.60598754882812 1.5 81.99612426757812 2.904249906539917 84.54593658447266 5.454062461853027 C 87.09574890136719 8.003874778747559 88.5 11.39401245117188 88.5 15 L 88.5 75 C 88.5 78.60598754882812 87.09574890136719 81.99612426757812 84.54593658447266 84.54593658447266 C 81.99612426757812 87.09574890136719 78.60598754882812 88.5 75 88.5 Z" stroke="none"/>
      <path d="M 15 3 C 11.79468536376953 3 8.781211853027344 4.248214721679688 6.514717102050781 6.514717102050781 C 4.248214721679688 8.781211853027344 3 11.79468536376953 3 15 L 3 75 C 3 78.20531463623047 4.248214721679688 81.21878814697266 6.514717102050781 83.48528289794922 C 8.781211853027344 85.75178527832031 11.79468536376953 87 15 87 L 75 87 C 78.20531463623047 87 81.21878814697266 85.75178527832031 83.48528289794922 83.48528289794922 C 85.75178527832031 81.21878814697266 87 78.20531463623047 87 75 L 87 15 C 87 11.79468536376953 85.75178527832031 8.781211853027344 83.48528289794922 6.514717102050781 C 81.21878814697266 4.248214721679688 78.20531463623047 3 75 3 L 15 3 M 15 0 L 75 0 C 83.28427124023438 0 90 6.715728759765625 90 15 L 90 75 C 90 83.28427124023438 83.28427124023438 90 75 90 L 15 90 C 6.715728759765625 90 0 83.28427124023438 0 75 L 0 15 C 0 6.715728759765625 6.715728759765625 0 15 0 Z" stroke="none" fill="#569338"/>
    </g>
    <g id="Mask_Group_1200953" data-name="Mask Group 1200953" clip-path="url(#clip-path)">
      <g id="diagram_12285020" transform="translate(782.025 8740.703)">
        <path id="Path_1277157" data-name="Path 1277157" d="M35.674,42.5a1.911,1.911,0,0,1-1.748,1.2H9.371A1.912,1.912,0,0,1,7.624,42.5a2.587,2.587,0,0,1,.093-2.47L19.995,19.1a1.851,1.851,0,0,1,3.31,0L35.583,40.03a2.584,2.584,0,0,1,.092,2.47ZM24.8,18.227a3.576,3.576,0,0,0-6.293,0L6.226,39.156a4.285,4.285,0,0,0-.158,4.1,3.649,3.649,0,0,0,3.3,2.172H33.927a3.649,3.649,0,0,0,3.3-2.172,4.287,4.287,0,0,0-.158-4.1L24.8,18.227ZM21.655,40.4a.847.847,0,1,0-.893-.846.87.87,0,0,0,.893.846Zm0-3.42a2.575,2.575,0,1,0,2.62,2.574,2.6,2.6,0,0,0-2.62-2.575Zm.916-11.657a.061.061,0,0,0-.024-.064.066.066,0,0,0-.064-.026l-1.673.018a.065.065,0,0,0-.062.026.063.063,0,0,0-.023.062l.326,8.284a.086.086,0,0,0,.085.082h0l.94-.007a.085.085,0,0,0,.086-.082l.407-8.3Zm-.083-1.818h-.023l-1.674.018A1.815,1.815,0,0,0,19,25.41l.326,8.284a1.807,1.807,0,0,0,1.813,1.743h.014l.943-.007a1.814,1.814,0,0,0,1.8-1.725l.408-8.3a1.815,1.815,0,0,0-1.81-1.9ZM57.715,11.112h-7.09V3.762h7.09Zm.865-9.078H49.761A.865.865,0,0,0,48.9,2.9v9.079a.865.865,0,0,0,.864.864h8.82a.864.864,0,0,0,.864-.864V2.9a.865.865,0,0,0-.864-.864Zm-.864,25.661H50.625V20.345h7.09v7.349Zm.864-9.078H49.761a.865.865,0,0,0-.864.864v9.078a.865.865,0,0,0,.864.864h8.82a.864.864,0,0,0,.864-.864V19.48a.865.865,0,0,0-.864-.864ZM41.819,8.788c0-.84.449-1.376.759-1.376h3.084a.864.864,0,0,0,0-1.728H42.578c-1.372,0-2.488,1.393-2.488,3.1V31.224H36.246a.864.864,0,1,0,0,1.728H40.09V55.39c0,1.712,1.116,3.1,2.488,3.1h3.084a.864.864,0,1,0,0-1.728H42.578c-.31,0-.759-.536-.759-1.376V41.466h3.843a.864.864,0,1,0,0-1.728H41.819V24.884h3.843a.864.864,0,1,0,0-1.728H41.819Zm15.9,35.489h-7.09V36.927h7.09ZM58.58,35.2H49.761a.865.865,0,0,0-.864.864v9.078a.864.864,0,0,0,.864.864h8.82a.864.864,0,0,0,.864-.864V36.063a.865.865,0,0,0-.864-.864ZM57.715,61.3h-7.09v-7.35h7.09v7.35Zm.864-9.078H49.761a.866.866,0,0,0-.864.864v9.079a.864.864,0,0,0,.864.864h8.82a.864.864,0,0,0,.864-.864V53.09a.865.865,0,0,0-.865-.864Z" fill="#282828" fill-rule="evenodd"/>
        <path id="Path_1277158" data-name="Path 1277158" d="M50.625,3.762h7.09v7.349h-7.09Z" fill="#8ac9fe"/>
        <path id="Path_1277159" data-name="Path 1277159" d="M50.625,20.345h7.09v7.349h-7.09Z" fill="#ffe177"/>
        <g id="Group_1204314" data-name="Group 1204314">
          <path id="Path_1277160" data-name="Path 1277160" d="M35.583,40.03,23.3,19.1a1.851,1.851,0,0,0-3.31,0L7.717,40.03a2.587,2.587,0,0,0-.093,2.47,1.911,1.911,0,0,0,1.747,1.195H33.927a1.911,1.911,0,0,0,1.748-1.2,2.584,2.584,0,0,0-.091-2.469ZM21.655,36.981a2.575,2.575,0,1,1-2.622,2.574,2.6,2.6,0,0,1,2.622-2.574ZM24.3,25.409l-.407,8.3a1.814,1.814,0,0,1-1.8,1.726l-.943.007h-.014a1.807,1.807,0,0,1-1.813-1.743L19,25.41a1.815,1.815,0,0,1,1.793-1.886l1.674-.018h.023a1.815,1.815,0,0,1,1.81,1.9Z" fill="#fe646f" fill-rule="evenodd"/>
          <path id="Path_1277161" data-name="Path 1277161" d="M22.166,33.62l.407-8.3a.061.061,0,0,0-.024-.064.066.066,0,0,0-.064-.026l-1.673.018a.065.065,0,0,0-.062.026.063.063,0,0,0-.023.062l.326,8.284a.086.086,0,0,0,.085.082h0l.94-.007a.085.085,0,0,0,.086-.082Z" fill="#eceff1" fill-rule="evenodd"/>
          <path id="Path_1277162" data-name="Path 1277162" d="M22.547,39.556a.893.893,0,1,0-.891.846A.871.871,0,0,0,22.547,39.556Z" fill="#eceff1" fill-rule="evenodd"/>
        </g>
        <path id="Path_1277163" data-name="Path 1277163" d="M50.625,36.927h7.09v7.349h-7.09Z" fill="#6cf5c2"/>
        <path id="Path_1277164" data-name="Path 1277164" d="M50.625,53.955h7.09V61.3h-7.09Z" fill="#fe646f"/>
        <path id="Path_1277165" data-name="Path 1277165" d="M21.649,43.695H33.927a1.911,1.911,0,0,0,1.748-1.2,2.584,2.584,0,0,0-.091-2.47L23.3,19.1a1.891,1.891,0,0,0-1.656-1.022v5.435l.817-.009h.023a1.815,1.815,0,0,1,1.81,1.9l-.408,8.3a1.814,1.814,0,0,1-1.8,1.726l-.445,0v1.547h.006a2.575,2.575,0,1,1,0,5.149H21.65Z" fill="#fe4f5c" fill-rule="evenodd"/>
        <path id="Path_1277166" data-name="Path 1277166" d="M54.17,3.762h3.545v7.349H54.17Z" fill="#60b7ff"/>
        <path id="Path_1277167" data-name="Path 1277167" d="M54.17,20.345h3.545v7.349H54.17Z" fill="#ffd064"/>
        <path id="Path_1277168" data-name="Path 1277168" d="M54.17,36.927h3.545v7.349H54.17Z" fill="#00e499"/>
        <path id="Path_1277169" data-name="Path 1277169" d="M54.17,53.955h3.545V61.3H54.17Z" fill="#fe4f5c"/>
      </g>
    </g>
  </g>
</svg>
