<svg xmlns="http://www.w3.org/2000/svg" xmlns:xlink="http://www.w3.org/1999/xlink" width="90" height="90" viewBox="0 0 90 90">
  <defs>
    <clipPath id="clip-path">
      <rect id="Rectangle_412170" data-name="Rectangle 412170" width="60" height="61" transform="translate(1243.899 6819.004)" fill="#fff" stroke="#707070" stroke-width="1"/>
    </clipPath>
  </defs>
  <g id="Group_1204250" data-name="Group 1204250" transform="translate(-1228.631 -6804.464)">
    <g id="Path_1276176" data-name="Path 1276176" transform="translate(1228.631 6804.464)" fill="#ffc94a">
      <path d="M 75 88.5 L 15 88.5 C 11.39401245117188 88.5 8.003874778747559 87.09574890136719 5.454062461853027 84.54593658447266 C 2.904249906539917 81.99612426757812 1.5 78.60598754882812 1.5 75 L 1.5 15 C 1.5 11.39401245117188 2.904249906539917 8.003874778747559 5.454062461853027 5.454062461853027 C 8.003874778747559 2.904249906539917 11.39401245117188 1.5 15 1.5 L 75 1.5 C 78.60598754882812 1.5 81.99612426757812 2.904249906539917 84.54593658447266 5.454062461853027 C 87.09574890136719 8.003874778747559 88.5 11.39401245117188 88.5 15 L 88.5 75 C 88.5 78.60598754882812 87.09574890136719 81.99612426757812 84.54593658447266 84.54593658447266 C 81.99612426757812 87.09574890136719 78.60598754882812 88.5 75 88.5 Z" stroke="none"/>
      <path d="M 15 3 C 11.79468536376953 3 8.781211853027344 4.248214721679688 6.514717102050781 6.514717102050781 C 4.248214721679688 8.781211853027344 3 11.79468536376953 3 15 L 3 75 C 3 78.20531463623047 4.248214721679688 81.21878814697266 6.514717102050781 83.48528289794922 C 8.781211853027344 85.75178527832031 11.79468536376953 87 15 87 L 75 87 C 78.20531463623047 87 81.21878814697266 85.75178527832031 83.48528289794922 83.48528289794922 C 85.75178527832031 81.21878814697266 87 78.20531463623047 87 75 L 87 15 C 87 11.79468536376953 85.75178527832031 8.781211853027344 83.48528289794922 6.514717102050781 C 81.21878814697266 4.248214721679688 78.20531463623047 3 75 3 L 15 3 M 15 0 L 75 0 C 83.28427124023438 0 90 6.715728759765625 90 15 L 90 75 C 90 83.28427124023438 83.28427124023438 90 75 90 L 15 90 C 6.715728759765625 90 0 83.28427124023438 0 75 L 0 15 C 0 6.715728759765625 6.715728759765625 0 15 0 Z" stroke="none" fill="#b18c32"/>
    </g>
    <g id="Mask_Group_1200942" data-name="Mask Group 1200942" clip-path="url(#clip-path)">
      <g id="Layer_20" data-name="Layer 20" transform="translate(1242.96 6818.563)">
        <circle id="Ellipse_12523" data-name="Ellipse 12523" cx="22.247" cy="22.247" r="22.247" transform="translate(1.935 6.771)" fill="#f7c455"/>
        <circle id="Ellipse_12524" data-name="Ellipse 12524" cx="16.444" cy="16.444" r="16.444" transform="translate(7.738 12.575)" fill="#f8dc73"/>
        <circle id="Ellipse_12525" data-name="Ellipse 12525" cx="13.542" cy="13.542" r="13.542" transform="translate(10.555 15.476)" fill="#fbf290"/>
        <circle id="Ellipse_12526" data-name="Ellipse 12526" cx="13.542" cy="13.542" r="13.542" transform="translate(32.888 28.051)" fill="#94c249"/>
        <path id="Path_1276994" data-name="Path 1276994" d="M46.429,28.051A13.5,13.5,0,0,0,35.8,33.224c0,.049-.008.1-.008.147a17.772,17.772,0,0,0,20.29,17.716,13.537,13.537,0,0,0-9.65-23.036Z" fill="#b4de60"/>
        <path id="Path_1276995" data-name="Path 1276995" d="M41.226,42.194l1.334,1.334,8.1-8.1a2.051,2.051,0,0,1,1.451-.6h0a2.053,2.053,0,0,1,2.052,2.052h0a2.051,2.051,0,0,1-.6,1.451L44.212,47.68a2.335,2.335,0,0,1-1.651.684h0a2.335,2.335,0,0,1-1.651-.684L38.325,45.1a2.051,2.051,0,0,1-.6-1.451h0a2.053,2.053,0,0,1,2.052-2.052h0a2.051,2.051,0,0,1,1.451.6Z" fill="#fff"/>
        <path id="Path_1276996" data-name="Path 1276996" d="M27.084,25.149h1.935a4.845,4.845,0,0,0-3.869-4.74V18.378H23.215V20.41a4.836,4.836,0,0,0,0,9.479v5.723a2.9,2.9,0,0,1-1.935-2.725H19.346a4.845,4.845,0,0,0,3.869,4.74v2.031h1.935V37.627a4.836,4.836,0,0,0,0-9.479V22.425a2.9,2.9,0,0,1,1.935,2.724Zm-5.8,0a2.9,2.9,0,0,1,1.935-2.724v5.448a2.9,2.9,0,0,1-1.935-2.724Zm5.8,7.738a2.9,2.9,0,0,1-1.935,2.724V30.164a2.9,2.9,0,0,1,1.935,2.724Z"/>
        <path id="Path_1276997" data-name="Path 1276997" d="M52.116,33.855a3.039,3.039,0,0,0-2.135.884L42.56,42.16l-.65-.65a3.019,3.019,0,1,0-4.27,4.27l2.585,2.585a3.3,3.3,0,0,0,4.67,0l9.356-9.356a3.019,3.019,0,0,0-2.135-5.154Zm.767,3.786L43.528,47a1.4,1.4,0,0,1-1.935,0l-2.585-2.585a1.085,1.085,0,0,1,1.534-1.534l1.334,1.334a.967.967,0,0,0,1.368,0l8.1-8.1a1.085,1.085,0,0,1,1.534,1.534Z"/>
        <path id="Path_1276998" data-name="Path 1276998" d="M47.316,27.128A23.226,23.226,0,1,0,34.486,49.815,14.5,14.5,0,1,0,47.315,27.128ZM24.182,50.3A21.28,21.28,0,1,1,45.355,27.138a14.4,14.4,0,0,0-3.816.813A17.395,17.395,0,1,0,32.21,44.465,14.362,14.362,0,0,0,33.5,48.145,21.324,21.324,0,0,1,24.182,50.3Zm7.738-8.706c0,.269.026.531.041.8a15.476,15.476,0,1,1,7.685-13.613A14.516,14.516,0,0,0,31.92,41.593ZM46.429,54.168A12.575,12.575,0,1,1,59,41.593,12.575,12.575,0,0,1,46.429,54.168Z"/>
      </g>
    </g>
  </g>
</svg>
