<svg xmlns="http://www.w3.org/2000/svg" xmlns:xlink="http://www.w3.org/1999/xlink" width="90" height="90" viewBox="0 0 90 90">
  <defs>
    <clipPath id="clip-path">
      <rect id="Rectangle_412166" data-name="Rectangle 412166" width="60" height="61" transform="translate(613.899 6819.004)" fill="#fff" stroke="#707070" stroke-width="1"/>
    </clipPath>
  </defs>
  <g id="Group_1204252" data-name="Group 1204252" transform="translate(-598.631 -6804.464)">
    <g id="Path_1276174" data-name="Path 1276174" transform="translate(598.631 6804.464)" fill="#ffc94a">
      <path d="M 75 88.5 L 15 88.5 C 11.39401245117188 88.5 8.003874778747559 87.09574890136719 5.454062461853027 84.54593658447266 C 2.904249906539917 81.99612426757812 1.5 78.60598754882812 1.5 75 L 1.5 15 C 1.5 11.39401245117188 2.904249906539917 8.003874778747559 5.454062461853027 5.454062461853027 C 8.003874778747559 2.904249906539917 11.39401245117188 1.5 15 1.5 L 75 1.5 C 78.60598754882812 1.5 81.99612426757812 2.904249906539917 84.54593658447266 5.454062461853027 C 87.09574890136719 8.003874778747559 88.5 11.39401245117188 88.5 15 L 88.5 75 C 88.5 78.60598754882812 87.09574890136719 81.99612426757812 84.54593658447266 84.54593658447266 C 81.99612426757812 87.09574890136719 78.60598754882812 88.5 75 88.5 Z" stroke="none"/>
      <path d="M 15 3 C 11.79468536376953 3 8.781211853027344 4.248214721679688 6.514717102050781 6.514717102050781 C 4.248214721679688 8.781211853027344 3 11.79468536376953 3 15 L 3 75 C 3 78.20531463623047 4.248214721679688 81.21878814697266 6.514717102050781 83.48528289794922 C 8.781211853027344 85.75178527832031 11.79468536376953 87 15 87 L 75 87 C 78.20531463623047 87 81.21878814697266 85.75178527832031 83.48528289794922 83.48528289794922 C 85.75178527832031 81.21878814697266 87 78.20531463623047 87 75 L 87 15 C 87 11.79468536376953 85.75178527832031 8.781211853027344 83.48528289794922 6.514717102050781 C 81.21878814697266 4.248214721679688 78.20531463623047 3 75 3 L 15 3 M 15 0 L 75 0 C 83.28427124023438 0 90 6.715728759765625 90 15 L 90 75 C 90 83.28427124023438 83.28427124023438 90 75 90 L 15 90 C 6.715728759765625 90 0 83.28427124023438 0 75 L 0 15 C 0 6.715728759765625 6.715728759765625 0 15 0 Z" stroke="none" fill="#b18c32"/>
    </g>
    <g id="Mask_Group_1200941" data-name="Mask Group 1200941" clip-path="url(#clip-path)">
      <g id="approved_3852566" transform="translate(612.931 6818.537)">
        <path id="Path_1276973" data-name="Path 1276973" d="M54.194,1.935a3.871,3.871,0,0,0-3.871,3.871V55.161a4.839,4.839,0,1,1-9.677,0H9.677V5.806a3.871,3.871,0,0,1,3.871-3.871Z" fill="#e2e2e2"/>
        <g id="Group_1204247" data-name="Group 1204247">
          <path id="Path_1276974" data-name="Path 1276974" d="M21.046,16.452H45.484v1.935H21.046Z" fill="#b5b5b5"/>
          <path id="Path_1276975" data-name="Path 1276975" d="M22.86,20.323H45.484v1.935H22.86Z" fill="#b5b5b5"/>
          <path id="Path_1276976" data-name="Path 1276976" d="M23.226,28.065H40.645V30H23.226Z" fill="#b5b5b5"/>
          <path id="Path_1276977" data-name="Path 1276977" d="M29.032,52.258h-.953A3.669,3.669,0,0,1,24.6,49.747a.6.6,0,0,0-1.021-.137L22.4,51.376a1.977,1.977,0,0,1-1.645.882H19.4a1.983,1.983,0,0,1-1.98-1.98.923.923,0,0,0-1.692-.512l-1.374,2.061-1.61-1.074,1.374-2.061a2.859,2.859,0,0,1,5.237,1.586l1.394.045,1.219-1.786a2.509,2.509,0,0,1,4.468.6,1.733,1.733,0,0,0,1.643,1.188h.953Z" fill="#b5b5b5"/>
        </g>
        <g id="Group_1204248" data-name="Group 1204248">
          <path id="Path_1276978" data-name="Path 1276978" d="M42.581,32.894H58.065v6.774H42.581Z" fill="#ccc"/>
          <path id="Path_1276979" data-name="Path 1276979" d="M45.484,60a4.839,4.839,0,0,1-4.839-4.839H3.871A4.839,4.839,0,0,0,8.71,60Z" fill="#ccc"/>
          <path id="Path_1276980" data-name="Path 1276980" d="M50.323,15.484h7.742V5.806a3.871,3.871,0,1,0-7.742,0Z" fill="#ccc"/>
        </g>
        <rect id="Rectangle_412255" data-name="Rectangle 412255" width="19.355" height="7.742" rx="1.935" transform="translate(40.645 25.152)" fill="#3b5892"/>
        <path id="Path_1276981" data-name="Path 1276981" d="M42.581,39.668H58.065A1.935,1.935,0,0,1,60,41.6v1.935H40.645V41.6A1.935,1.935,0,0,1,42.581,39.668Z" fill="#3b5892"/>
        <path id="Path_1276982" data-name="Path 1276982" d="M42.581,43.539v1.935a1.935,1.935,0,0,0,1.935,1.935H56.129a1.935,1.935,0,0,0,1.935-1.935V43.539" fill="#78a0d4"/>
        <path id="Path_1276983" data-name="Path 1276983" d="M21.29,5.806H40.645v5.806H21.29Z" fill="#b5b5b5"/>
        <path id="Path_1276984" data-name="Path 1276984" d="M21.29,7.742H38.71v3.871H21.29Z" fill="#ccc"/>
        <circle id="Ellipse_12522" data-name="Ellipse 12522" cx="11.613" cy="11.613" r="11.613" transform="translate(1.935 12.581)" fill="#4d8c28"/>
        <path id="Path_1276985" data-name="Path 1276985" d="M1.935,24.194A11.6,11.6,0,0,0,21.29,32.832V17.419H4.129a11.543,11.543,0,0,0-2.194,6.774Z" fill="#559b2d"/>
        <path id="Path_1276986" data-name="Path 1276986" d="M6.774,27.1l3.871,3.871,9.677-9.677-1.935-1.935L10.645,27.1,8.71,25.161Z" fill="#f2f2f2"/>
        <path id="Path_1276987" data-name="Path 1276987" d="M40.645,27.313v3.645a1.935,1.935,0,0,0,1.935,1.935H58.065V27.313Z" fill="#4c6cb5"/>
        <path id="Path_1276988" data-name="Path 1276988" d="M40.645,41.6H58.065v1.935H40.645Z" fill="#4c6cb5"/>
        <path id="Path_1276989" data-name="Path 1276989" d="M42.581,34.583H56.538v5.085H42.581Z" fill="#f2f2f2"/>
        <path id="Path_1276990" data-name="Path 1276990" d="M60.968,30.958V27.087a2.9,2.9,0,0,0-2.9-2.9H51.29V16.452h6.774a.968.968,0,0,0,.968-.968V5.806A4.845,4.845,0,0,0,54.194.968H13.548A4.845,4.845,0,0,0,8.71,5.806v6.774a12.581,12.581,0,0,0,0,23.226V54.194H3.871a.968.968,0,0,0-.968.968A5.812,5.812,0,0,0,8.71,60.968H45.484a5.812,5.812,0,0,0,5.806-5.806V48.377h4.839a2.9,2.9,0,0,0,2.9-2.9v-.968H60a.968.968,0,0,0,.968-.968V41.6a2.9,2.9,0,0,0-1.935-2.725V33.683a2.9,2.9,0,0,0,1.935-2.725ZM43.548,38.7V33.861H57.1V38.7ZM59.032,27.087v3.871a.968.968,0,0,1-.968.968H42.581a.968.968,0,0,1-.968-.968V27.087a.968.968,0,0,1,.968-.968H58.065A.968.968,0,0,1,59.032,27.087ZM57.1,5.806v8.71H51.29V5.806a2.9,2.9,0,0,1,5.806,0Zm-46.452,0a2.9,2.9,0,0,1,2.9-2.9h36.8a4.788,4.788,0,0,0-.993,2.9V24.184H42.581a2.9,2.9,0,0,0-2.9,2.9v.977H25.514a12.128,12.128,0,0,0,.451-5.806H45.484V20.323H25.514a12.458,12.458,0,0,0-.816-1.935H45.484V16.452H23.445a12.466,12.466,0,0,0-12.8-4.487ZM2.9,24.194A10.645,10.645,0,1,1,13.548,34.839,10.645,10.645,0,0,1,2.9,24.194ZM8.71,59.032a3.877,3.877,0,0,1-3.748-2.9h34.8a5.8,5.8,0,0,0,1.4,2.9Zm40.645-3.871a3.871,3.871,0,1,1-7.742,0,.968.968,0,0,0-.968-.968h-30V36.423A12.5,12.5,0,0,0,24.7,30h14.98v.958a2.9,2.9,0,0,0,1.935,2.725v5.195A2.9,2.9,0,0,0,39.677,41.6v1.935a.968.968,0,0,0,.968.968h.968v.968a2.9,2.9,0,0,0,2.9,2.9h4.839ZM57.1,45.474a.968.968,0,0,1-.968.968H44.516a.968.968,0,0,1-.968-.968v-.968H57.1Zm1.935-2.9H41.613V41.6a.968.968,0,0,1,.968-.968H58.065a.968.968,0,0,1,.968.968Z"/>
        <path id="Path_1276991" data-name="Path 1276991" d="M21.007,20.606l-1.935-1.935a.968.968,0,0,0-1.368,0l-7.058,7.058L9.394,24.477a.968.968,0,0,0-1.368,0L6.09,26.413a.968.968,0,0,0,0,1.368l3.871,3.871a.968.968,0,0,0,1.368,0l9.677-9.677a.968.968,0,0,0,0-1.368ZM10.645,29.6l-2.5-2.5.567-.567,1.251,1.251a.968.968,0,0,0,1.368,0l7.058-7.058.567.567Z"/>
        <path id="Path_1276992" data-name="Path 1276992" d="M21.29,12.581H40.645a.968.968,0,0,0,.968-.968V5.806a.968.968,0,0,0-.968-.968H21.29a.968.968,0,0,0-.968.968v5.806A.968.968,0,0,0,21.29,12.581Zm.968-5.806H39.677v3.871H22.258Z"/>
        <path id="Path_1276993" data-name="Path 1276993" d="M26.431,49.134a2.509,2.509,0,0,0-4.468-.6l-1.215,1.786-1.394-.045a2.859,2.859,0,0,0-5.237-1.586l-1.374,2.061,1.61,1.074,1.374-2.061a.923.923,0,0,1,1.692.512,1.983,1.983,0,0,0,1.98,1.98h1.349a1.977,1.977,0,0,0,1.645-.882l1.177-1.767a.6.6,0,0,1,1.021.137,3.669,3.669,0,0,0,3.488,2.511h.953V50.323h-.953a1.733,1.733,0,0,1-1.648-1.188Z"/>
      </g>
    </g>
  </g>
</svg>
