<svg xmlns="http://www.w3.org/2000/svg" xmlns:xlink="http://www.w3.org/1999/xlink" width="90" height="90" viewBox="0 0 90 90">
  <defs>
    <clipPath id="clip-path">
      <rect id="Rectangle_412215" data-name="Rectangle 412215" width="60" height="61" transform="translate(1244.653 5634.314)" fill="#fff" stroke="#707070" stroke-width="1"/>
    </clipPath>
  </defs>
  <g id="Group_1204259" data-name="Group 1204259" transform="translate(-1229.386 -5619.774)">
    <g id="Path_1276277" data-name="Path 1276277" transform="translate(1229.386 5619.774)" fill="#ffc94a">
      <path d="M 75 88.5 L 15 88.5 C 11.39401245117188 88.5 8.003874778747559 87.09574890136719 5.454062461853027 84.54593658447266 C 2.904249906539917 81.99612426757812 1.5 78.60598754882812 1.5 75 L 1.5 15 C 1.5 11.39401245117188 2.904249906539917 8.003874778747559 5.454062461853027 5.454062461853027 C 8.003874778747559 2.904249906539917 11.39401245117188 1.5 15 1.5 L 75 1.5 C 78.60598754882812 1.5 81.99612426757812 2.904249906539917 84.54593658447266 5.454062461853027 C 87.09574890136719 8.003874778747559 88.5 11.39401245117188 88.5 15 L 88.5 75 C 88.5 78.60598754882812 87.09574890136719 81.99612426757812 84.54593658447266 84.54593658447266 C 81.99612426757812 87.09574890136719 78.60598754882812 88.5 75 88.5 Z" stroke="none"/>
      <path d="M 15 3 C 11.79468536376953 3 8.781211853027344 4.248214721679688 6.514717102050781 6.514717102050781 C 4.248214721679688 8.781211853027344 3 11.79468536376953 3 15 L 3 75 C 3 78.20531463623047 4.248214721679688 81.21878814697266 6.514717102050781 83.48528289794922 C 8.781211853027344 85.75178527832031 11.79468536376953 87 15 87 L 75 87 C 78.20531463623047 87 81.21878814697266 85.75178527832031 83.48528289794922 83.48528289794922 C 85.75178527832031 81.21878814697266 87 78.20531463623047 87 75 L 87 15 C 87 11.79468536376953 85.75178527832031 8.781211853027344 83.48528289794922 6.514717102050781 C 81.21878814697266 4.248214721679688 78.20531463623047 3 75 3 L 15 3 M 15 0 L 75 0 C 83.28427124023438 0 90 6.715728759765625 90 15 L 90 75 C 90 83.28427124023438 83.28427124023438 90 75 90 L 15 90 C 6.715728759765625 90 0 83.28427124023438 0 75 L 0 15 C 0 6.715728759765625 6.715728759765625 0 15 0 Z" stroke="none" fill="#b18c32"/>
    </g>
    <g id="Mask_Group_1200944" data-name="Mask Group 1200944" clip-path="url(#clip-path)">
      <g id="investment_12134514" transform="translate(1243.669 5633.83)">
        <path id="Path_1277006" data-name="Path 1277006" d="M20.966,7.364V17.426a.7.7,0,0,1-.7.7H16.591a.7.7,0,0,1-.7-.7V7.364H14.018a.565.565,0,0,1-.42-.943l4.411-4.9a.565.565,0,0,1,.84,0l4.411,4.9a.565.565,0,0,1-.42.943Z" fill="#a0d904" fill-rule="evenodd"/>
        <path id="Path_1277007" data-name="Path 1277007" d="M18.634,18.125H16.591a.7.7,0,0,1-.7-.7V7.364H14.018a.565.565,0,0,1-.42-.943L17.612,1.96l4.014,4.461a.565.565,0,0,1-.42.943H19.332V17.426a.7.7,0,0,1-.7.7Z" fill="#baed2c" fill-rule="evenodd"/>
        <circle id="Ellipse_12530" data-name="Ellipse 12530" cx="9.073" cy="9.073" r="9.073" transform="translate(8.855 16.94) rotate(-3.154)" fill="#f9ac00"/>
        <path id="Path_1277008" data-name="Path 1277008" d="M18.146,34.579a9.077,9.077,0,0,1,0-18.145,9.077,9.077,0,0,1,0,18.145Z" fill="#fcdb35" fill-rule="evenodd"/>
        <circle id="Ellipse_12531" data-name="Ellipse 12531" cx="6.659" cy="6.659" r="6.659" transform="translate(11.456 31.824) rotate(-87.135)" fill="#f19a00"/>
        <g id="Group_1204254" data-name="Group 1204254">
          <path id="Path_1277009" data-name="Path 1277009" d="M18.793,18.859a6.657,6.657,0,0,1,0,13.294,6.657,6.657,0,0,1,0-13.294Z" fill="#f9ac00" fill-rule="evenodd"/>
          <path id="Path_1277010" data-name="Path 1277010" d="M58.439,9.06a7.653,7.653,0,0,1-7.867,7.867c0-4.808,2.512-9.013,7.867-7.867Z" fill="#baed2c" fill-rule="evenodd"/>
          <path id="Path_1277011" data-name="Path 1277011" d="M58.439,9.06a7.653,7.653,0,0,1-7.867,7.867A29,29,0,0,1,58.439,9.06Z" fill="#a0d904" fill-rule="evenodd"/>
          <path id="Path_1277012" data-name="Path 1277012" d="M42.7,9.06a7.653,7.653,0,0,0,7.867,7.867c0-4.808-2.512-9.013-7.867-7.867Z" fill="#baed2c" fill-rule="evenodd"/>
          <path id="Path_1277013" data-name="Path 1277013" d="M42.7,9.06a7.653,7.653,0,0,0,7.867,7.867A29,29,0,0,0,42.7,9.06Z" fill="#a0d904" fill-rule="evenodd"/>
          <path id="Path_1277014" data-name="Path 1277014" d="M50.548,1.359a6.536,6.536,0,0,1,0,10.7,6.536,6.536,0,0,1,0-10.7Z" fill="#baed2c" fill-rule="evenodd"/>
          <path id="Path_1277015" data-name="Path 1277015" d="M50.548,1.359a6.536,6.536,0,0,1,0,10.7Z" fill="#a0d904" fill-rule="evenodd"/>
        </g>
        <path id="Path_1277016" data-name="Path 1277016" d="M29.949,27.475h5.339v9.281H29.949Z" fill="#ff5471"/>
        <path id="Path_1277017" data-name="Path 1277017" d="M38.9,23.565h5.339V36.757H38.9Z" fill="#6fbffc"/>
        <path id="Path_1277018" data-name="Path 1277018" d="M47.841,19.98h5.413V36.757H47.841Z" fill="#43f043"/>
        <path id="Path_1277019" data-name="Path 1277019" d="M51.511,19.98h1.743V36.757H51.511Z" fill="#2dd62d"/>
        <path id="Path_1277020" data-name="Path 1277020" d="M42.491,23.565h1.743V36.757H42.491Z" fill="#4eb1fc"/>
        <path id="Path_1277021" data-name="Path 1277021" d="M33.545,27.475h1.743v9.281H33.545Z" fill="#f23353"/>
        <path id="Path_1277022" data-name="Path 1277022" d="M41.3,45.3a2.526,2.526,0,0,0-2.264-3.81c-16.375,0-16.4-13.315-31.72,6.384l8.106,8.5c3.61-3.641,7.9-3.809,12.636-3.526,2.582.154,5.663.527,8.49.465,3.95-.087,6.371-1.159,9.839-3,3.949-2.092,10.813-6.258,12.01-7.832,1.714-2.253-.5-4.374-3.112-2.865-3.074,1.775-11.213,5.656-15.406,6.826A2.956,2.956,0,0,0,41.3,45.3Z" fill="#fdb0a0" fill-rule="evenodd"/>
        <path id="Path_1277023" data-name="Path 1277023" d="M41.3,45.3a2.526,2.526,0,0,0-2.264-3.81c-16.375,0-16.4-13.315-31.72,6.384l6.257,6.559c3.783-3.731,8.267-3.9,13.209-3.607,2.722.163,5.97.556,8.951.49,4.164-.092,6.716-1.222,10.373-3.159,4.122-2.184,11.255-6.511,12.621-8.206-.567-.869-1.937-1.2-3.442-.335-3.074,1.775-11.213,5.656-15.406,6.826A2.956,2.956,0,0,0,41.3,45.3Z" fill="#ffcec0" fill-rule="evenodd"/>
        <path id="Path_1277024" data-name="Path 1277024" d="M41.3,45.3a2.531,2.531,0,0,0-1.069-3.563c.907.993.3,2.4-1.124,2.921a9.909,9.909,0,0,1-3,.45,19.87,19.87,0,0,1-7.844-1.345.985.985,0,1,0-.909,1.749,22.139,22.139,0,0,0,8.8,1.561,11.352,11.352,0,0,0,3.724-.631A2.956,2.956,0,0,0,41.3,45.3Z" fill="#fdb0a0" fill-rule="evenodd"/>
        <path id="Path_1277025" data-name="Path 1277025" d="M2.964,49.043,6.716,45.29a1.9,1.9,0,0,1,2.679,0l8.921,8.921a1.9,1.9,0,0,1,0,2.679l-3.753,3.753Z" fill="#2a93fc" fill-rule="evenodd"/>
        <path id="Path_1277026" data-name="Path 1277026" d="M2.964,49.043,6.716,45.29a1.9,1.9,0,0,1,2.678,0h0l7.026,7.026a1.9,1.9,0,0,1,0,2.679l-3.753,3.752Z" fill="#4eb1fc" fill-rule="evenodd"/>
        <path id="Path_1277027" data-name="Path 1277027" d="M19.642,27.091a.315.315,0,0,0-.1-.288,2.082,2.082,0,0,0-.846-.4c-.145-.042-.31-.08-.484-.122a4.619,4.619,0,0,1-1.8-.706,2.086,2.086,0,0,1-.842-1.495,2,2,0,0,1,.58-1.544,2.74,2.74,0,0,1,1.433-.746v-.453a.847.847,0,0,1,1.695,0V21.8a2.649,2.649,0,0,1,1.835,1.246.847.847,0,1,1-1.491.8,1.234,1.234,0,0,0-.881-.425,1.763,1.763,0,0,0-1.367.288.348.348,0,0,0-.111.247.429.429,0,0,0,.19.279,3.587,3.587,0,0,0,1.152.4c.185.043.375.089.558.141a3.751,3.751,0,0,1,1.53.781,2,2,0,0,1,.628,1.773,2.171,2.171,0,0,1-1.194,1.63,3.227,3.227,0,0,1-.848.275v.438a.847.847,0,1,1-1.695,0V29.2a2.877,2.877,0,0,1-1.958-1.3.847.847,0,0,1,1.486-.814,2.126,2.126,0,0,0,2.259.358.466.466,0,0,0,.271-.352Zm-1.212-7.35A5.765,5.765,0,1,0,24.2,25.507a5.771,5.771,0,0,0-5.766-5.765Zm0,13.225a7.46,7.46,0,1,0-7.459-7.459A7.468,7.468,0,0,0,18.431,32.966Zm0-15.677a8.217,8.217,0,1,0,8.218,8.218,8.227,8.227,0,0,0-8.218-8.218ZM15.894,6.517H14.653l3.777-4.2,3.779,4.2H20.968a.847.847,0,0,0-.847.847v8.377a9.75,9.75,0,0,0-3.379,0V7.364a.847.847,0,0,0-.847-.847Zm2.537,28.9a9.912,9.912,0,0,0,3.384-19.229V8.211h1.028a1.412,1.412,0,0,0,1.05-2.356L19.481.952a1.412,1.412,0,0,0-2.1,0l-4.412,4.9A1.412,1.412,0,0,0,14.02,8.211h1.026v7.978A9.912,9.912,0,0,0,18.43,35.418Zm12.367-7.1h3.644v7.587H30.8Zm8.947-3.91h3.644v11.5H39.744Zm8.946-3.585h3.72V35.909H48.69ZM43.51,9.746a4.9,4.9,0,0,1,3.838.948,7.448,7.448,0,0,1,2.324,5.36A6.755,6.755,0,0,1,43.51,9.746Zm7.039-7.338a5.715,5.715,0,0,0-.847,7.678V7.351a.847.847,0,1,1,1.694,0v2.734a5.717,5.717,0,0,0-.847-7.678Zm7.04,7.338a6.758,6.758,0,0,1-6.162,6.308,7.442,7.442,0,0,1,2.324-5.36,4.625,4.625,0,0,1,3-1,6.765,6.765,0,0,1,.841.054ZM26.738,35.909H29.1V27.475a.847.847,0,0,1,.847-.847H35.29a.847.847,0,0,1,.847.847v8.434H38.05V23.565a.847.847,0,0,1,.847-.847h5.339a.847.847,0,0,1,.846.847V35.909H47V19.98a.847.847,0,0,1,.847-.847H49.7V17.761a8.74,8.74,0,0,1-5.3-2.349,8.685,8.685,0,0,1-2.616-6.376.847.847,0,0,1,.67-.828,7.368,7.368,0,0,1,4.69.38A7.407,7.407,0,0,1,50.063.638a.847.847,0,0,1,.974,0,7.408,7.408,0,0,1,2.915,7.95,7.377,7.377,0,0,1,4.691-.38.846.846,0,0,1,.669.828A8.684,8.684,0,0,1,56.7,15.412a8.743,8.743,0,0,1-5.3,2.349v1.372h1.86a.847.847,0,0,1,.847.847V35.909h2.365a.847.847,0,0,1,0,1.695H26.738a.847.847,0,1,1,0-1.695Zm30.973,6.061c.487-.639.569-1.255.221-1.65s-1.2-.562-2.234.033c-3.008,1.736-11.169,5.658-15.543,6.89a11.545,11.545,0,0,1-4.316.69c-.324,0-.642-.008-.952-.021a20.659,20.659,0,0,1-7.316-1.533.847.847,0,0,1,.783-1.5,19.294,19.294,0,0,0,6.607,1.343c2.933.128,5.029-.377,5.607-1.35a1.677,1.677,0,0,0-1.5-2.529h-.031A30.112,30.112,0,0,1,26.493,39.5c-5.234-2.171-8.149-3.379-15.936,5.741l7.938,7.939c3.13-1.43,6.59-1.366,9.616-1.185.784.047,1.6.112,2.458.181,1.979.159,4.026.324,5.96.282,3.872-.086,6.258-1.2,9.458-2.9,4.513-2.391,10.751-6.311,11.725-7.593ZM17.724,56.287l-3.152,3.152-10.4-10.4L7.327,45.89a1.048,1.048,0,0,1,1.48,0l8.917,8.918a1.047,1.047,0,0,1,0,1.479ZM59.2,39.2c-.822-.933-2.486-1.393-4.353-.315a108.157,108.157,0,0,1-12.414,5.8,3.383,3.383,0,0,0-3.416-4.037,28.289,28.289,0,0,1-11.879-2.709c-2.782-1.154-5.184-2.15-8.027-1.463-2.868.694-5.923,3.072-9.863,7.687a2.743,2.743,0,0,0-3.122.53L2.378,48.443a.849.849,0,0,0,0,1.2L13.973,61.236a.848.848,0,0,0,1.2,0l3.751-3.751a2.718,2.718,0,0,0,.8-1.937,2.762,2.762,0,0,0-.18-.976c2.391-1,5.059-1.086,8.467-.883.767.046,1.571.11,2.422.179a60.811,60.811,0,0,0,6.134.286c4.245-.094,6.8-1.286,10.213-3.094,3.479-1.842,10.9-6.242,12.282-8.065a2.92,2.92,0,0,0,.143-3.8Z" fill-rule="evenodd"/>
      </g>
    </g>
  </g>
</svg>
