<svg xmlns="http://www.w3.org/2000/svg" xmlns:xlink="http://www.w3.org/1999/xlink" width="90" height="90" viewBox="0 0 90 90">
  <defs>
    <clipPath id="clip-path">
      <rect id="Rectangle_412228" data-name="Rectangle 412228" width="60" height="61" transform="translate(403.005 7687.999)" fill="#fff" stroke="#707070" stroke-width="1"/>
    </clipPath>
  </defs>
  <g id="Group_1204181" data-name="Group 1204181" transform="translate(-388.036 -7673.499)">
    <g id="Path_1276282" data-name="Path 1276282" transform="translate(388.036 7673.499)" fill="#caedb8">
      <path d="M 75 88.5 L 15 88.5 C 11.39401245117188 88.5 8.003874778747559 87.09574890136719 5.454062461853027 84.54593658447266 C 2.904249906539917 81.99612426757812 1.5 78.60598754882812 1.5 75 L 1.5 15 C 1.5 11.39401245117188 2.904249906539917 8.003874778747559 5.454062461853027 5.454062461853027 C 8.003874778747559 2.904249906539917 11.39401245117188 1.5 15 1.5 L 75 1.5 C 78.60598754882812 1.5 81.99612426757812 2.904249906539917 84.54593658447266 5.454062461853027 C 87.09574890136719 8.003874778747559 88.5 11.39401245117188 88.5 15 L 88.5 75 C 88.5 78.60598754882812 87.09574890136719 81.99612426757812 84.54593658447266 84.54593658447266 C 81.99612426757812 87.09574890136719 78.60598754882812 88.5 75 88.5 Z" stroke="none"/>
      <path d="M 15 3 C 11.79468536376953 3 8.781211853027344 4.248214721679688 6.514717102050781 6.514717102050781 C 4.248214721679688 8.781211853027344 3 11.79468536376953 3 15 L 3 75 C 3 78.20531463623047 4.248214721679688 81.21878814697266 6.514717102050781 83.48528289794922 C 8.781211853027344 85.75178527832031 11.79468536376953 87 15 87 L 75 87 C 78.20531463623047 87 81.21878814697266 85.75178527832031 83.48528289794922 83.48528289794922 C 85.75178527832031 81.21878814697266 87 78.20531463623047 87 75 L 87 15 C 87 11.79468536376953 85.75178527832031 8.781211853027344 83.48528289794922 6.514717102050781 C 81.21878814697266 4.248214721679688 78.20531463623047 3 75 3 L 15 3 M 15 0 L 75 0 C 83.28427124023438 0 90 6.715728759765625 90 15 L 90 75 C 90 83.28427124023438 83.28427124023438 90 75 90 L 15 90 C 6.715728759765625 90 0 83.28427124023438 0 75 L 0 15 C 0 6.715728759765625 6.715728759765625 0 15 0 Z" stroke="none" fill="#569338"/>
    </g>
    <g id="Mask_Group_1200928" data-name="Mask Group 1200928" clip-path="url(#clip-path)">
      <g id="benefit_9746388" transform="translate(403.005 7688.498)">
        <g id="Group_1204174" data-name="Group 1204174">
          <path id="Path_1276650" data-name="Path 1276650" d="M2.146,26.939H8.178A1.331,1.331,0,0,1,9.5,28.265V51.452a1.331,1.331,0,0,1-1.325,1.325H2.146A1.329,1.329,0,0,1,.82,51.452V28.265a1.329,1.329,0,0,1,1.326-1.326Z" fill="#968c96" fill-rule="evenodd"/>
          <path id="Path_1276651" data-name="Path 1276651" d="M31.216,3.483A1.778,1.778,0,0,1,32.99,5.257v2.8h2.8a1.774,1.774,0,0,1,0,3.548h-2.8v2.807a1.774,1.774,0,1,1-3.548,0V11.608H26.635a1.774,1.774,0,1,1,0-3.548h2.807v-2.8a1.778,1.778,0,0,1,1.774-1.774Z" fill="#25c73b" fill-rule="evenodd"/>
          <path id="Path_1276652" data-name="Path 1276652" d="M20.5,12.732a1.778,1.778,0,0,1,1.774,1.774v2.8h2.807a1.774,1.774,0,0,1,0,3.548H22.27v2.807a1.772,1.772,0,1,1-3.544,0V20.858H15.918a1.774,1.774,0,0,1,0-3.548h2.807v-2.8A1.777,1.777,0,0,1,20.5,12.732Z" fill="#25c73b" fill-rule="evenodd"/>
          <path id="Path_1276653" data-name="Path 1276653" d="M10.039,2.273a1.777,1.777,0,0,1,1.774,1.771V6.851H14.62a1.774,1.774,0,0,1,0,3.548H11.813v2.807a1.774,1.774,0,0,1-3.548,0V10.4H5.458a1.774,1.774,0,0,1,0-3.548H8.265V4.044a1.777,1.777,0,0,1,1.774-1.771Z" fill="#25c73b" fill-rule="evenodd"/>
          <path id="Path_1276654" data-name="Path 1276654" d="M43.331,15.685a3.206,3.206,0,0,1,4.757,0,1.649,1.649,0,0,0,1.767.475,3.2,3.2,0,0,1,4.119,2.379,1.655,1.655,0,0,0,1.3,1.3,3.2,3.2,0,0,1,2.379,4.119,1.649,1.649,0,0,0,.475,1.767,3.206,3.206,0,0,1,0,4.757,1.653,1.653,0,0,0-.475,1.771,3.2,3.2,0,0,1-3.661,4.133,3.2,3.2,0,0,1-4.132,3.661,1.649,1.649,0,0,0-1.767.475,3.206,3.206,0,0,1-4.757,0,1.652,1.652,0,0,0-1.77-.475,3.2,3.2,0,0,1-4.119-2.379,1.655,1.655,0,0,0-1.3-1.3,3.2,3.2,0,0,1-2.379-4.119,1.652,1.652,0,0,0-.475-1.771,3.206,3.206,0,0,1,0-4.757,1.649,1.649,0,0,0,.475-1.767,3.2,3.2,0,0,1,2.379-4.119,1.655,1.655,0,0,0,1.3-1.3,3.2,3.2,0,0,1,4.119-2.379,1.652,1.652,0,0,0,1.77-.475Z" fill="#56a5e6" fill-rule="evenodd"/>
          <path id="Path_1276655" data-name="Path 1276655" d="M45.709,36.411a8.719,8.719,0,1,0-8.72-8.719,8.718,8.718,0,0,0,8.72,8.719Z" fill="#eaf6ff" fill-rule="evenodd"/>
          <path id="Path_1276656" data-name="Path 1276656" d="M7.454,26.939V52.777h.724A1.331,1.331,0,0,0,9.5,51.452V28.265a1.331,1.331,0,0,0-1.325-1.326Z" fill="#877e87" fill-rule="evenodd"/>
          <path id="Path_1276657" data-name="Path 1276657" d="M48.158,16.16a3.281,3.281,0,0,1,.405-.1,1.7,1.7,0,0,1-.475-.372,3.2,3.2,0,0,0-2.379-1.056,3.247,3.247,0,0,0-.85.113,3.171,3.171,0,0,1,1.528.943,1.652,1.652,0,0,0,1.771.475Zm0,23.881a1.652,1.652,0,0,0-1.771.475,3.222,3.222,0,0,1-1.528.943,3.242,3.242,0,0,0,.85.113,3.2,3.2,0,0,0,2.379-1.056,1.635,1.635,0,0,1,.475-.372,3.3,3.3,0,0,1-.405-.1Zm2.588-23.609a3.193,3.193,0,0,1,1.532,2.106,1.655,1.655,0,0,0,1.3,1.3,3.208,3.208,0,0,1,2.379,4.119,1.654,1.654,0,0,0,.472,1.767,3.2,3.2,0,0,1,0,4.757,1.658,1.658,0,0,0-.472,1.771,3.208,3.208,0,0,1-3.664,4.132,3.205,3.205,0,0,1-1.541,3.388,3.328,3.328,0,0,1-.751.312,3.2,3.2,0,0,0,3.993-3.7,3.2,3.2,0,0,0,3.661-4.133,1.653,1.653,0,0,1,.475-1.771,3.206,3.206,0,0,0,0-4.757,1.649,1.649,0,0,1-.475-1.767,3.2,3.2,0,0,0-2.379-4.119,1.655,1.655,0,0,1-1.3-1.3A3.2,3.2,0,0,0,50,16.117a3.342,3.342,0,0,1,.751.316Z" fill="#4d95cf" fill-rule="evenodd"/>
          <path id="Path_1276658" data-name="Path 1276658" d="M46.711,19.4a8.719,8.719,0,0,0,0,17.4c-.179.01-.362.017-.542.017a8.719,8.719,0,1,1,0-17.437C46.349,19.381,46.532,19.384,46.711,19.4Z" fill="#d3dde6" fill-rule="evenodd"/>
        </g>
        <path id="Path_1276659" data-name="Path 1276659" d="M46.529,26.977V23.938a1.582,1.582,0,0,1,.762,1.351.82.82,0,0,0,1.641,0,3.232,3.232,0,0,0-2.4-3.12V21.28a.82.82,0,0,0-1.641,0v.889a3.223,3.223,0,0,0,0,6.236v3.041a1.586,1.586,0,0,1-.764-1.354.82.82,0,1,0-1.641,0,3.23,3.23,0,0,0,2.4,3.12v.893a.82.82,0,0,0,1.641,0v-.893a3.224,3.224,0,0,0,0-6.236Zm-1.641-.337a1.577,1.577,0,0,1,0-2.7Zm1.641,4.806v-2.7a1.578,1.578,0,0,1,0,2.7Zm-.82-13.295a9.541,9.541,0,1,0,9.538,9.54,9.541,9.541,0,0,0-9.538-9.54Zm0,17.44a7.9,7.9,0,1,1,7.9-7.9A7.9,7.9,0,0,1,45.709,35.59Zm1.582-10.3a.82.82,0,1,0,1.641,0,3.232,3.232,0,0,0-2.4-3.12V21.28a.82.82,0,0,0-1.641,0v.889a3.223,3.223,0,0,0,0,6.236v3.041a1.586,1.586,0,0,1-.764-1.354.82.82,0,0,0-1.641,0,3.23,3.23,0,0,0,2.4,3.12v.893a.82.82,0,1,0,1.641,0v-.893a3.224,3.224,0,0,0,0-6.236V23.938a1.582,1.582,0,0,1,.762,1.351Zm-2.4,1.35a1.577,1.577,0,0,1,0-2.7Zm2.4,3.454a1.584,1.584,0,0,1-.762,1.352v-2.7A1.58,1.58,0,0,1,47.291,30.093ZM45.709,18.15a9.541,9.541,0,1,0,9.538,9.54A9.541,9.541,0,0,0,45.709,18.15Zm0,17.44a7.9,7.9,0,1,1,7.9-7.9A7.9,7.9,0,0,1,45.709,35.59Zm1.582-10.3a.82.82,0,1,0,1.641,0,3.232,3.232,0,0,0-2.4-3.12V21.28a.82.82,0,0,0-1.641,0v.889a3.223,3.223,0,0,0,0,6.236v3.041a1.586,1.586,0,0,1-.764-1.354.82.82,0,0,0-1.641,0,3.23,3.23,0,0,0,2.4,3.12v.893a.82.82,0,1,0,1.641,0v-.893a3.224,3.224,0,0,0,0-6.236V23.938a1.582,1.582,0,0,1,.762,1.351Zm-2.4,1.35a1.577,1.577,0,0,1,0-2.7Zm2.4,3.454a1.584,1.584,0,0,1-.762,1.352v-2.7A1.58,1.58,0,0,1,47.291,30.093ZM58.672,24.7a.836.836,0,0,1-.244-.908,4.022,4.022,0,0,0-2.991-5.175.831.831,0,0,1-.661-.664,4.024,4.024,0,0,0-5.171-2.985.844.844,0,0,1-.911-.241,4.022,4.022,0,0,0-5.974,0,.841.841,0,0,1-.909.243,4.023,4.023,0,0,0-5.174,2.982.833.833,0,0,1-.667.667,4.023,4.023,0,0,0-2.986,5.173.836.836,0,0,1-.245.912,4.026,4.026,0,0,0,0,5.973.832.832,0,0,1,.244.909,4.024,4.024,0,0,0,2.991,5.175.831.831,0,0,1,.662.664,4.028,4.028,0,0,0,5.175,2.987.835.835,0,0,1,.907.24,4.016,4.016,0,0,0,5.97,0,.841.841,0,0,1,.913-.244,4.031,4.031,0,0,0,5.257-3.573,4.022,4.022,0,0,0,3.568-5.254.837.837,0,0,1,.246-.911,4.026,4.026,0,0,0,0-5.974Zm-1.1,4.757a2.478,2.478,0,0,0-.707,2.633,2.381,2.381,0,0,1-2.722,3.071.82.82,0,0,0-.963.962,2.387,2.387,0,0,1-3.074,2.726,2.489,2.489,0,0,0-2.634.7,2.374,2.374,0,0,1-3.536,0,2.479,2.479,0,0,0-1.845-.826,2.544,2.544,0,0,0-.785.125,2.388,2.388,0,0,1-3.066-1.77,2.472,2.472,0,0,0-1.927-1.927,2.38,2.38,0,0,1-1.768-3.064,2.475,2.475,0,0,0-.7-2.63,2.386,2.386,0,0,1,0-3.54,2.478,2.478,0,0,0,.707-2.633,2.38,2.38,0,0,1,1.766-3.063A2.472,2.472,0,0,0,38.243,18.3a2.384,2.384,0,0,1,1.14-1.563,2.358,2.358,0,0,1,1.928-.2,2.482,2.482,0,0,0,2.63-.708h0a2.381,2.381,0,0,1,3.536,0,2.489,2.489,0,0,0,2.63.7A2.383,2.383,0,0,1,53.171,18.3,2.471,2.471,0,0,0,55.1,20.224a2.383,2.383,0,0,1,1.772,3.066,2.477,2.477,0,0,0,.7,2.631,2.384,2.384,0,0,1,0,3.539ZM45.709,18.15a9.541,9.541,0,1,0,9.538,9.54A9.541,9.541,0,0,0,45.709,18.15Zm0,17.44a7.9,7.9,0,1,1,7.9-7.9A7.9,7.9,0,0,1,45.709,35.59Zm1.582-10.3a.82.82,0,1,0,1.641,0,3.232,3.232,0,0,0-2.4-3.12V21.28a.82.82,0,0,0-1.641,0v.889a3.223,3.223,0,0,0,0,6.236v3.041a1.586,1.586,0,0,1-.764-1.354.82.82,0,0,0-1.641,0,3.23,3.23,0,0,0,2.4,3.12v.893a.82.82,0,1,0,1.641,0v-.893a3.224,3.224,0,0,0,0-6.236V23.938a1.582,1.582,0,0,1,.762,1.351Zm-2.4,1.35a1.577,1.577,0,0,1,0-2.7Zm2.4,3.454a1.584,1.584,0,0,1-.762,1.352v-2.7A1.58,1.58,0,0,1,47.291,30.093ZM14.619,6.032H12.633V4.045a2.594,2.594,0,0,0-5.188,0V6.032H5.457a2.595,2.595,0,1,0,0,5.189H7.445V13.2a2.594,2.594,0,1,0,5.188,0V11.221h1.986a2.595,2.595,0,0,0,0-5.189Zm0,3.548H11.813a.82.82,0,0,0-.82.82v2.8a.953.953,0,0,1-1.907,0V10.4a.82.82,0,0,0-.82-.82H5.457a.965.965,0,0,1-.949-.954.952.952,0,0,1,.949-.953H8.265a.821.821,0,0,0,.82-.82V4.045a.953.953,0,0,1,1.907,0V6.853a.82.82,0,0,0,.82.82h2.807a.953.953,0,0,1,.95.953A.965.965,0,0,1,14.619,9.58Zm10.458,6.909H23.091V14.507a2.595,2.595,0,1,0-5.189,0v1.983H15.919a2.595,2.595,0,0,0,0,5.189H17.9v1.986a2.595,2.595,0,0,0,5.189,0V21.679h1.986a2.595,2.595,0,0,0,0-5.189Zm0,3.548H22.27a.82.82,0,0,0-.82.82v2.807a.955.955,0,0,1-.954.954.967.967,0,0,1-.954-.954V20.858a.82.82,0,0,0-.82-.82h-2.8a.954.954,0,1,1,0-1.908h2.8a.82.82,0,0,0,.82-.82v-2.8a.954.954,0,0,1,1.908,0v2.8a.82.82,0,0,0,.82.82h2.807a.954.954,0,0,1,0,1.908Zm10.717-12.8H33.81V5.255a2.594,2.594,0,0,0-5.188,0V7.241H26.634a2.595,2.595,0,1,0,0,5.189h1.987v1.986a2.594,2.594,0,0,0,5.188,0V12.43h1.984a2.595,2.595,0,1,0,0-5.189Zm0,3.548h-2.8a.82.82,0,0,0-.82.82v2.807a.965.965,0,0,1-.953.95.953.953,0,0,1-.954-.95V11.61a.82.82,0,0,0-.82-.82H26.634a.953.953,0,0,1,0-1.907h2.808a.821.821,0,0,0,.82-.82V5.255a.952.952,0,0,1,.954-.949.964.964,0,0,1,.953.949V8.063a.821.821,0,0,0,.82.82h2.8a.953.953,0,1,1,0,1.907ZM46.529,26.977V23.938a1.582,1.582,0,0,1,.762,1.351.82.82,0,0,0,1.641,0,3.232,3.232,0,0,0-2.4-3.12V21.28a.82.82,0,0,0-1.641,0v.889a3.223,3.223,0,0,0,0,6.236v3.041a1.586,1.586,0,0,1-.764-1.354.82.82,0,1,0-1.641,0,3.23,3.23,0,0,0,2.4,3.12v.893a.82.82,0,0,0,1.641,0v-.893a3.224,3.224,0,0,0,0-6.236Zm-1.641-.337a1.577,1.577,0,0,1,0-2.7Zm1.641,4.806v-2.7a1.578,1.578,0,0,1,0,2.7ZM5.162,29.877a.82.82,0,0,0-.82.82v.04a.82.82,0,0,0,1.641,0V30.7a.82.82,0,0,0-.82-.82Zm0,0a.82.82,0,0,0-.82.82v.04a.82.82,0,0,0,1.641,0V30.7a.82.82,0,0,0-.82-.82Zm49.38,14.579H54.5L36.86,45.4a5.721,5.721,0,0,0-1.584-4.584L25.089,30.784a7.846,7.846,0,0,0-6.718-2.089l-8.046.75V27.857a2.148,2.148,0,0,0-2.146-2.146H2.146A2.148,2.148,0,0,0,0,27.857V51.043A2.149,2.149,0,0,0,2.146,53.19H8.179a2.149,2.149,0,0,0,2.146-2.147V48.957h3.8L20.34,55.91a7.4,7.4,0,0,0,5.572,2.639,7.568,7.568,0,0,0,1.588-.172l25.613-5.466c.217-.047.442-.09.68-.135,1.754-.336,4.407-.843,4.407-4.257a3.88,3.88,0,0,0-3.657-4.063ZM8.684,51.043a.511.511,0,0,1-.505.505H2.146a.512.512,0,0,1-.505-.505V27.857a.513.513,0,0,1,.505-.505H8.179a.512.512,0,0,1,.505.505Zm44.8.121c-.238.046-.484.093-.718.144L27.157,56.773a5.635,5.635,0,0,1-5.595-1.957L15.1,47.59a.823.823,0,0,0-.612-.273H10.324V31.092l8.2-.764a6.253,6.253,0,0,1,5.414,1.624L34.125,41.988a4.208,4.208,0,0,1,.332,5.31,2.959,2.959,0,0,1-2.149,1.23,2.827,2.827,0,0,1-2.21-.85L23.992,41.66a.82.82,0,1,0-1.152,1.168l6.107,6.02a4.452,4.452,0,0,0,3.482,1.317,4.585,4.585,0,0,0,3.34-1.88,5.469,5.469,0,0,0,.689-1.218l18.105-.97a2.253,2.253,0,0,1,2,2.421c0,1.962-1.111,2.27-3.074,2.645ZM5.162,29.877a.82.82,0,0,0-.82.82v.04a.82.82,0,0,0,1.641,0V30.7a.82.82,0,0,0-.82-.82Z"/>
        <path id="Path_1276660" data-name="Path 1276660" d="M56.558,48.519c0,1.962-1.111,2.27-3.074,2.645-.238.046-.484.093-.718.144L27.157,56.773a5.635,5.635,0,0,1-5.595-1.957L15.1,47.59a.823.823,0,0,0-.612-.273H10.324V31.092l8.2-.764a6.253,6.253,0,0,1,5.414,1.624L34.125,41.988a4.208,4.208,0,0,1,.332,5.31,2.959,2.959,0,0,1-2.149,1.23,2.827,2.827,0,0,1-2.21-.85L23.992,41.66a.82.82,0,1,0-1.152,1.168l6.107,6.02a4.452,4.452,0,0,0,3.482,1.317,4.585,4.585,0,0,0,3.34-1.88,5.469,5.469,0,0,0,.689-1.218l18.105-.97a2.253,2.253,0,0,1,2,2.421Z" fill="#fbbd80"/>
      </g>
    </g>
  </g>
</svg>
