<svg xmlns="http://www.w3.org/2000/svg" xmlns:xlink="http://www.w3.org/1999/xlink" width="90" height="90" viewBox="0 0 90 90">
  <defs>
    <clipPath id="clip-path">
      <rect id="Rectangle_412240" data-name="Rectangle 412240" width="60" height="61" transform="translate(7541.275 -2867.264)" fill="#fff" stroke="#707070" stroke-width="1"/>
    </clipPath>
  </defs>
  <g id="Group_1204321" data-name="Group 1204321" transform="translate(-7526.025 2881.764)">
    <g id="Path_1276289" data-name="Path 1276289" transform="translate(7526.025 -2881.764)" fill="#caedb8">
      <path d="M 75 88.5 L 15 88.5 C 11.39401245117188 88.5 8.003874778747559 87.09574890136719 5.454062461853027 84.54593658447266 C 2.904249906539917 81.99612426757812 1.5 78.60598754882812 1.5 75 L 1.5 15 C 1.5 11.39401245117188 2.904249906539917 8.003874778747559 5.454062461853027 5.454062461853027 C 8.003874778747559 2.904249906539917 11.39401245117188 1.5 15 1.5 L 75 1.5 C 78.60598754882812 1.5 81.99612426757812 2.904249906539917 84.54593658447266 5.454062461853027 C 87.09574890136719 8.003874778747559 88.5 11.39401245117188 88.5 15 L 88.5 75 C 88.5 78.60598754882812 87.09574890136719 81.99612426757812 84.54593658447266 84.54593658447266 C 81.99612426757812 87.09574890136719 78.60598754882812 88.5 75 88.5 Z" stroke="none"/>
      <path d="M 15 3 C 11.79468536376953 3 8.781211853027344 4.248214721679688 6.514717102050781 6.514717102050781 C 4.248214721679688 8.781211853027344 3 11.79468536376953 3 15 L 3 75 C 3 78.20531463623047 4.248214721679688 81.21878814697266 6.514717102050781 83.48528289794922 C 8.781211853027344 85.75178527832031 11.79468536376953 87 15 87 L 75 87 C 78.20531463623047 87 81.21878814697266 85.75178527832031 83.48528289794922 83.48528289794922 C 85.75178527832031 81.21878814697266 87 78.20531463623047 87 75 L 87 15 C 87 11.79468536376953 85.75178527832031 8.781211853027344 83.48528289794922 6.514717102050781 C 81.21878814697266 4.248214721679688 78.20531463623047 3 75 3 L 15 3 M 15 0 L 75 0 C 83.28427124023438 0 90 6.715728759765625 90 15 L 90 75 C 90 83.28427124023438 83.28427124023438 90 75 90 L 15 90 C 6.715728759765625 90 0 83.28427124023438 0 75 L 0 15 C 0 6.715728759765625 6.715728759765625 0 15 0 Z" stroke="none" fill="#569338"/>
    </g>
    <g id="Mask_Group_1200956" data-name="Mask Group 1200956" clip-path="url(#clip-path)">
      <g id="Audit" transform="translate(7536.932 -2871.106)">
        <path id="Path_1277195" data-name="Path 1277195" d="M15.024,9.659H57.951V60.1H15.024Z" fill="#b3b3b3"/>
        <path id="Path_1277196" data-name="Path 1277196" d="M24.683,13.951a9.671,9.671,0,0,1-9.659,9.659V9.659h8.65a9.612,9.612,0,0,1,1.009,4.293Z" fill="#999"/>
        <path id="Path_1277197" data-name="Path 1277197" d="M53.658,13.951v37.6A11.76,11.76,0,0,1,43.615,63.188a11.348,11.348,0,0,1-1.719.129H15.024V13.951Z" fill="#e6e6e6"/>
        <path id="Path_1277198" data-name="Path 1277198" d="M53.658,51.158v.4A11.76,11.76,0,0,1,43.615,63.188,6.915,6.915,0,0,0,45.073,55.8l3.295-.547A6.9,6.9,0,0,0,53.154,52Z" fill="#ccc"/>
        <circle id="Ellipse_12545" data-name="Ellipse 12545" cx="9.659" cy="9.659" r="9.659" transform="translate(33.956 21.438)" fill="#1c75ce"/>
        <circle id="Ellipse_12546" data-name="Ellipse 12546" cx="7.897" cy="7.897" r="7.897" transform="translate(35.717 23.199)" fill="#1964bd"/>
        <path id="Path_1277199" data-name="Path 1277199" d="M50.053,31.1a6.448,6.448,0,0,1-5.784,6.407,6.521,6.521,0,0,1-.655.032,6.439,6.439,0,0,1,0-12.878,6.758,6.758,0,0,1,.8.054A6.421,6.421,0,0,1,50.053,31.1Z" fill="#e6e6e6"/>
        <path id="Path_1277200" data-name="Path 1277200" d="M50.053,31.1a6.448,6.448,0,0,1-5.784,6.407,6.438,6.438,0,0,1,.15-12.792A6.421,6.421,0,0,1,50.053,31.1Z" fill="#f2f2f2"/>
        <path id="Path_1277201" data-name="Path 1277201" d="M54.614,39.825,52.338,42.1,49.2,38.967a9.1,9.1,0,0,0,1.17-.977l.064-.064a10.324,10.324,0,0,0,1.052-1.234Z" fill="#27313a"/>
        <path id="Path_1277202" data-name="Path 1277202" d="M63.027,49.43a2.246,2.246,0,0,1-.44.633,2.15,2.15,0,0,1-3.037,0l-7.587-7.587L53.036,41.4,55,39.439l7.587,7.587a2.169,2.169,0,0,1,.44,2.4Z" fill="#536d78"/>
        <path id="Path_1277203" data-name="Path 1277203" d="M54.614,39.825l-1.2,1.2L50.375,37.99l.064-.064a10.323,10.323,0,0,0,1.052-1.234Z" fill="#36464e"/>
        <path id="Path_1277204" data-name="Path 1277204" d="M63.027,49.43a2.162,2.162,0,0,1-2.4-.44L53.036,41.4,55,39.439l7.587,7.587a2.169,2.169,0,0,1,.44,2.4Z" fill="#5e7b8b"/>
        <circle id="Ellipse_12547" data-name="Ellipse 12547" cx="1.073" cy="1.073" r="1.073" transform="translate(42.542 30.023)" fill="#64b4f6"/>
        <circle id="Ellipse_12548" data-name="Ellipse 12548" cx="1.073" cy="1.073" r="1.073" transform="translate(39.322 30.023)" fill="#64b4f6"/>
        <circle id="Ellipse_12549" data-name="Ellipse 12549" cx="1.073" cy="1.073" r="1.073" transform="translate(19.317 25.756)" fill="#b3b3b3"/>
        <circle id="Ellipse_12550" data-name="Ellipse 12550" cx="1.073" cy="1.073" r="1.073" transform="translate(23.61 30.049)" fill="#b3b3b3"/>
        <circle id="Ellipse_12551" data-name="Ellipse 12551" cx="1.073" cy="1.073" r="1.073" transform="translate(45.761 30.023)" fill="#64b4f6"/>
        <path id="Path_1277205" data-name="Path 1277205" d="M21.463,42.927h3.22V57.951h-3.22Z" fill="#d1302e"/>
        <path id="Path_1277206" data-name="Path 1277206" d="M21.463,42.927h1.073V57.951H21.463Z" fill="#b61d1f"/>
        <path id="Path_1277207" data-name="Path 1277207" d="M27.9,47.219h3.22V57.951H27.9Z" fill="#fbd63b"/>
        <path id="Path_1277208" data-name="Path 1277208" d="M27.9,47.219h1.073V57.951H27.9Z" fill="#f8be31"/>
        <path id="Path_1277209" data-name="Path 1277209" d="M34.341,52.585h3.22v5.366h-3.22Z" fill="#358d3e"/>
        <path id="Path_1277210" data-name="Path 1277210" d="M34.341,52.585h1.073v5.366H34.341Z" fill="#2c7c33"/>
        <path id="Path_1277211" data-name="Path 1277211" d="M39.707,59.024H19.317a1.073,1.073,0,0,1,0-2.146h20.39a1.073,1.073,0,0,1,0,2.146Z" fill="#b3b3b3"/>
        <path id="Path_1277212" data-name="Path 1277212" d="M37.361,45.523l-.222-.311a25.212,25.212,0,0,0-11.8-8.972,1.058,1.058,0,0,0,.307-1.3,1.075,1.075,0,0,0-1.44-.48l-2.146,1.073a1.073,1.073,0,0,0-.48,1.44l1.073,2.146a1.065,1.065,0,0,0,1.947-.861,23.067,23.067,0,0,1,10.8,8.205l.222.311a1.073,1.073,0,1,0,1.746-1.247Z" fill="#1c75ce"/>
        <g id="Group_1204319" data-name="Group 1204319">
          <path id="Path_1277213" data-name="Path 1277213" d="M30.049,20.39H25.756a1.073,1.073,0,0,1,0-2.146h4.293a1.073,1.073,0,0,1,0,2.146Z" fill="#b3b3b3"/>
          <path id="Path_1277214" data-name="Path 1277214" d="M34.341,23.61H25.756a1.073,1.073,0,0,1,0-2.146h8.585a1.073,1.073,0,1,1,0,2.146Z" fill="#b3b3b3"/>
          <path id="Path_1277215" data-name="Path 1277215" d="M20.39,32.2a1.073,1.073,0,0,1-.759-1.832l4.293-4.293a1.073,1.073,0,1,1,1.518,1.518l-4.293,4.293a1.07,1.07,0,0,1-.759.314Z" fill="#b3b3b3"/>
        </g>
        <path id="Path_1277216" data-name="Path 1277216" d="M23.61,13.951a9.662,9.662,0,0,1-8.585,9.594V13.951Z" fill="#ccc"/>
        <path id="Path_1277217" data-name="Path 1277217" d="M22.537,13.951a8.585,8.585,0,1,1-11.3-8.145,8.42,8.42,0,0,1,2.715-.44A8.583,8.583,0,0,1,22.537,13.951Z" fill="#f7a62b"/>
        <path id="Path_1277218" data-name="Path 1277218" d="M22.537,13.951a8.547,8.547,0,0,1-3.724,7.072,8.42,8.42,0,0,1-2.715.44A8.583,8.583,0,0,1,11.236,5.806a8.42,8.42,0,0,1,2.715-.44,8.583,8.583,0,0,1,8.585,8.585Z" fill="#f8be31"/>
        <path id="Path_1277219" data-name="Path 1277219" d="M15.024,12.878V10.732H16.1a1.073,1.073,0,0,0,0-2.146H15.024a1.073,1.073,0,0,0-2.146,0,3.22,3.22,0,0,0,0,6.439v2.146H11.8a1.073,1.073,0,1,0,0,2.146h1.073a1.073,1.073,0,1,0,2.146,0,3.22,3.22,0,0,0,0-6.439ZM11.8,11.8a1.074,1.074,0,0,1,1.073-1.073v2.146A1.074,1.074,0,0,1,11.8,11.8Zm3.22,5.366V15.024a1.073,1.073,0,1,1,0,2.146Z" fill="#fdfde5"/>
        <path id="Path_1277220" data-name="Path 1277220" d="M15.077,19.317a3.22,3.22,0,0,0,0-6.439V10.732H16.15a1.073,1.073,0,0,0,0-2.146H15.077a1.073,1.073,0,1,0-2.146,0,3.22,3.22,0,0,0,0,6.439v2.146H11.857a1.073,1.073,0,0,0,0,2.146H12.93a1.073,1.073,0,0,0,2.146,0ZM11.857,11.8a1.074,1.074,0,0,1,1.073-1.073v2.146A1.074,1.074,0,0,1,11.857,11.8Zm3.22,3.22a1.073,1.073,0,0,1,0,2.146Z"/>
        <path id="Path_1277221" data-name="Path 1277221" d="M43.666,23.584A7.512,7.512,0,1,0,51.179,31.1a7.512,7.512,0,0,0-7.512-7.512Zm0,12.878A5.366,5.366,0,1,1,49.032,31.1a5.366,5.366,0,0,1-5.366,5.366Z"/>
        <path id="Path_1277222" data-name="Path 1277222" d="M63.4,46.273l-4.32-4.32V9.659A1.073,1.073,0,0,0,58,8.585H22.029A9.657,9.657,0,1,0,14,23.61V63.317a1.073,1.073,0,0,0,1.073,1.073H41.949a12.765,12.765,0,0,0,8.471-3.218l7.584,0A1.073,1.073,0,0,0,59.076,60.1V51.016a3.211,3.211,0,0,0,4.32-4.743ZM56.93,10.732V39.807l-1.122-1.122a1.058,1.058,0,0,0-1.024-.263V13.951a1.073,1.073,0,0,0-1.073-1.073H23.6a9.56,9.56,0,0,0-.5-2.146ZM46.088,61.409a8,8,0,0,0,.419-4.745l2.09-.347a7.957,7.957,0,0,0,3.548-1.557,10.74,10.74,0,0,1-6.057,6.65Zm3.649-24.242a8.581,8.581,0,1,1,0-12.142,8.581,8.581,0,0,1,0,12.142Zm1.518,1.518c.128-.129.24-.266.361-.4l1.331,1.336.012.012.19.191-.759.759-1.536-1.537c.134-.121.272-.234.4-.362ZM6.491,13.951A7.512,7.512,0,1,1,14,21.463a7.512,7.512,0,0,1-7.512-7.512ZM16.15,62.244V23.361A9.673,9.673,0,0,0,23.6,15.024H52.638V25.2a10.739,10.739,0,1,0-3.532,15.129l1.885,1.886a1.057,1.057,0,0,0,.264,1.018l1.382,1.382v6.241l-.351.583A5.823,5.823,0,0,1,48.245,54.2l-3.295.547a1.074,1.074,0,0,0-.821,1.457,5.835,5.835,0,0,1-1.012,5.974,10.734,10.734,0,0,1-1.169.067Zm36.216-3.22a12.75,12.75,0,0,0,2.418-7.469V46.766l2.146,2.146V59.024Zm9.513-9.716a1.073,1.073,0,0,1-1.518,0L58.77,47.717l-.019-.019-4.274-4.274-.019-.019-.927-.927,1.518-1.517,6.83,6.83a1.075,1.075,0,0,1,0,1.518Z"/>
        <circle id="Ellipse_12552" data-name="Ellipse 12552" cx="1.073" cy="1.073" r="1.073" transform="translate(42.594 30.023)"/>
        <circle id="Ellipse_12553" data-name="Ellipse 12553" cx="1.073" cy="1.073" r="1.073" transform="translate(39.375 30.023)"/>
        <circle id="Ellipse_12554" data-name="Ellipse 12554" cx="1.073" cy="1.073" r="1.073" transform="translate(19.37 25.756)"/>
        <circle id="Ellipse_12555" data-name="Ellipse 12555" cx="1.073" cy="1.073" r="1.073" transform="translate(23.662 30.049)"/>
        <circle id="Ellipse_12556" data-name="Ellipse 12556" cx="1.073" cy="1.073" r="1.073" transform="translate(45.814 30.023)"/>
        <path id="Path_1277223" data-name="Path 1277223" d="M39.759,56.878H38.686V52.585a1.073,1.073,0,0,0-1.073-1.073h-3.22a1.073,1.073,0,0,0-1.073,1.073v4.293H32.247V47.219a1.073,1.073,0,0,0-1.073-1.073h-3.22a1.073,1.073,0,0,0-1.073,1.073v9.659H25.808V42.927a1.073,1.073,0,0,0-1.073-1.073h-3.22a1.073,1.073,0,0,0-1.073,1.073V56.878H19.369a1.073,1.073,0,0,0,0,2.146h20.39a1.073,1.073,0,1,0,0-2.146Zm-17.171,0V44h1.073V56.878Zm6.439,0V48.293H30.1v8.585Zm6.439,0v-3.22H36.54v3.22Z"/>
        <path id="Path_1277224" data-name="Path 1277224" d="M25.7,34.935a1.075,1.075,0,0,0-1.44-.48l-2.146,1.073a1.073,1.073,0,0,0-.48,1.44L22.7,39.114a1.065,1.065,0,0,0,1.946-.864,23.048,23.048,0,0,1,10.8,8.208l.222.311a1.073,1.073,0,0,0,1.746-1.247l-.222-.311a25.2,25.2,0,0,0-11.8-8.974,1.058,1.058,0,0,0,.3-1.3Z"/>
        <path id="Path_1277225" data-name="Path 1277225" d="M25.808,20.39H30.1a1.073,1.073,0,0,0,0-2.146H25.808a1.073,1.073,0,0,0,0,2.146Z"/>
        <path id="Path_1277226" data-name="Path 1277226" d="M25.808,23.61h8.585a1.073,1.073,0,0,0,0-2.146H25.808a1.073,1.073,0,0,0,0,2.146Z"/>
        <path id="Path_1277227" data-name="Path 1277227" d="M20.442,32.2a1.07,1.07,0,0,0,.759-.314l4.293-4.293a1.073,1.073,0,1,0-1.518-1.518l-4.293,4.293a1.073,1.073,0,0,0,.759,1.832Z"/>
      </g>
    </g>
  </g>
</svg>
