<svg xmlns="http://www.w3.org/2000/svg" xmlns:xlink="http://www.w3.org/1999/xlink" width="90" height="90" viewBox="0 0 90 90">
  <defs>
    <clipPath id="clip-path">
      <rect id="Rectangle_412248" data-name="Rectangle 412248" width="60" height="61" transform="translate(1137.884 4505.436)" fill="#fff" stroke="#707070" stroke-width="1"/>
    </clipPath>
  </defs>
  <g id="Group_1204162" data-name="Group 1204162" transform="translate(-1122.782 -4490.936)">
    <g id="Path_1276271" data-name="Path 1276271" transform="translate(1122.782 4490.936)" fill="#ffc94a">
      <path d="M 75 88.5 L 15 88.5 C 11.39401245117188 88.5 8.003874778747559 87.09574890136719 5.454062461853027 84.54593658447266 C 2.904249906539917 81.99612426757812 1.5 78.60598754882812 1.5 75 L 1.5 15 C 1.5 11.39401245117188 2.904249906539917 8.003874778747559 5.454062461853027 5.454062461853027 C 8.003874778747559 2.904249906539917 11.39401245117188 1.5 15 1.5 L 75 1.5 C 78.60598754882812 1.5 81.99612426757812 2.904249906539917 84.54593658447266 5.454062461853027 C 87.09574890136719 8.003874778747559 88.5 11.39401245117188 88.5 15 L 88.5 75 C 88.5 78.60598754882812 87.09574890136719 81.99612426757812 84.54593658447266 84.54593658447266 C 81.99612426757812 87.09574890136719 78.60598754882812 88.5 75 88.5 Z" stroke="none"/>
      <path d="M 15 3 C 11.79468536376953 3 8.781211853027344 4.248214721679688 6.514717102050781 6.514717102050781 C 4.248214721679688 8.781211853027344 3 11.79468536376953 3 15 L 3 75 C 3 78.20531463623047 4.248214721679688 81.21878814697266 6.514717102050781 83.48528289794922 C 8.781211853027344 85.75178527832031 11.79468536376953 87 15 87 L 75 87 C 78.20531463623047 87 81.21878814697266 85.75178527832031 83.48528289794922 83.48528289794922 C 85.75178527832031 81.21878814697266 87 78.20531463623047 87 75 L 87 15 C 87 11.79468536376953 85.75178527832031 8.781211853027344 83.48528289794922 6.514717102050781 C 81.21878814697266 4.248214721679688 78.20531463623047 3 75 3 L 15 3 M 15 0 L 75 0 C 83.28427124023438 0 90 6.715728759765625 90 15 L 90 75 C 90 83.28427124023438 83.28427124023438 90 75 90 L 15 90 C 6.715728759765625 90 0 83.28427124023438 0 75 L 0 15 C 0 6.715728759765625 6.715728759765625 0 15 0 Z" stroke="none" fill="#b18c32"/>
    </g>
    <g id="Mask_Group_1200925" data-name="Mask Group 1200925" clip-path="url(#clip-path)">
      <g id="cost_12773637" transform="translate(1136.523 4504.575)">
        <g id="Group_1204160" data-name="Group 1204160">
          <g id="Group_1204156" data-name="Group 1204156">
            <path id="Path_1276609" data-name="Path 1276609" d="M49.582,6.885a2.651,2.651,0,0,1,2.646,2.646v48.7a2.652,2.652,0,0,1-2.646,2.649H8.823a2.652,2.652,0,0,1-2.646-2.649V9.531A2.651,2.651,0,0,1,8.823,6.885Z" fill="#837683" fill-rule="evenodd"/>
            <path id="Path_1276610" data-name="Path 1276610" d="M46.165,60.877h3.416a2.652,2.652,0,0,0,2.646-2.649V9.531a2.651,2.651,0,0,0-2.646-2.646H46.165Z" fill="#685e68" fill-rule="evenodd"/>
            <path id="Path_1276611" data-name="Path 1276611" d="M47.354,10.567h-36.3a1.194,1.194,0,0,0-1.192,1.192V56a1.191,1.191,0,0,0,1.192,1.189h36.3A1.193,1.193,0,0,0,48.546,56V11.759a1.2,1.2,0,0,0-1.192-1.192Z" fill="#eceff1" fill-rule="evenodd"/>
            <path id="Path_1276612" data-name="Path 1276612" d="M46.165,57.192h1.189c.038,0,.077,0,.112,0A1.2,1.2,0,0,0,48.546,56V11.759a1.193,1.193,0,0,0-1.081-1.185,1.1,1.1,0,0,0-.112-.007H46.165Z" fill="#d1d1d6" fill-rule="evenodd"/>
            <path id="Path_1276613" data-name="Path 1276613" d="M20.2,5.285h3.775a1.166,1.166,0,0,0,1.091-.718,4.5,4.5,0,0,1,8.269,0,1.166,1.166,0,0,0,1.091.718H38.2a1.2,1.2,0,0,1,1.192,1.192v4.5A1.193,1.193,0,0,1,38.2,12.167h-18a1.19,1.19,0,0,1-1.189-1.189v-4.5A1.193,1.193,0,0,1,20.2,5.285Z" fill="#e3a76f" fill-rule="evenodd"/>
            <path id="Path_1276614" data-name="Path 1276614" d="M37.011,10.978h-18A1.19,1.19,0,0,0,20.2,12.167h18a1.193,1.193,0,0,0,1.192-1.189v-4.5A1.2,1.2,0,0,0,38.2,5.285v4.5a1.2,1.2,0,0,1-1.189,1.192Z" fill="#c48958" fill-rule="evenodd"/>
          </g>
          <g id="Group_1204157" data-name="Group 1204157">
            <path id="Path_1276615" data-name="Path 1276615" d="M40.445,39.659A14.642,14.642,0,0,1,37.963,42.4l6.753,6.62,2.571-2.65Z" fill="#a79ba7" fill-rule="evenodd"/>
            <path id="Path_1276616" data-name="Path 1276616" d="M40.492,39.615a1.7,1.7,0,0,1-.736.985l6.709,6.667.823-.9Z" fill="#837683" fill-rule="evenodd"/>
            <path id="Path_1276617" data-name="Path 1276617" d="M53.269,57.611l2.9-2.992a1.335,1.335,0,0,0-.027-1.882l-8.039-7.8a1.335,1.335,0,0,0-1.882.03l-2.9,2.99a1.335,1.335,0,0,0,.027,1.882l8.039,7.8a1.335,1.335,0,0,0,1.882-.027Z" fill="#f1ba84" fill-rule="evenodd"/>
            <path id="Path_1276618" data-name="Path 1276618" d="M46.915,44.937l8.039,7.8a1.335,1.335,0,0,1,.027,1.882l-2.9,2.992a1.357,1.357,0,0,1-.36.261,1.336,1.336,0,0,0,1.549-.261l2.9-2.992a1.335,1.335,0,0,0-.027-1.882l-8.039-7.8a1.338,1.338,0,0,0-1.522-.234A1.335,1.335,0,0,1,46.915,44.937Z" fill="#e3a76f" fill-rule="evenodd"/>
            <path id="Path_1276619" data-name="Path 1276619" d="M29.478,17.656A14.637,14.637,0,1,1,14.841,32.293,14.636,14.636,0,0,1,29.478,17.656Z" fill="#837683" fill-rule="evenodd"/>
            <path id="Path_1276620" data-name="Path 1276620" d="M29.478,17.656a14.637,14.637,0,0,1,0,29.274c-.239,0-.475-.007-.712-.017a14.637,14.637,0,0,0,0-29.239c.236-.012.473-.017.712-.017Z" fill="#685e68" fill-rule="evenodd"/>
          </g>
          <g id="Group_1204158" data-name="Group 1204158">
            <path id="Path_1276621" data-name="Path 1276621" d="M29.478,21.059A11.235,11.235,0,1,1,18.244,32.293,11.235,11.235,0,0,1,29.478,21.059Z" fill="#ffc338" fill-rule="evenodd"/>
            <path id="Path_1276622" data-name="Path 1276622" d="M29.479,21.059a11.235,11.235,0,1,0,0,22.469c.324,0,.645-.015.962-.042a11.234,11.234,0,0,1,0-22.386c-.317-.027-.638-.041-.962-.041Z" fill="#f5b829" fill-rule="evenodd"/>
          </g>
          <g id="Group_1204159" data-name="Group 1204159">
            <path id="Path_1276623" data-name="Path 1276623" d="M39.507,18.864l4.251,5.006a.309.309,0,0,1-.235.51h-1.98v6.576a.617.617,0,0,1-.617.617H37.618A.617.617,0,0,1,37,30.956V24.38h-1.98a.309.309,0,0,1-.235-.51l4.251-5.006a.309.309,0,0,1,.47,0Z" fill="#8ac9fe" fill-rule="evenodd"/>
            <path id="Path_1276624" data-name="Path 1276624" d="M36.25,24.38h-1.23a.309.309,0,0,1-.235-.51l4.251-5.006a.309.309,0,0,1,.47,0l.38.447L36.015,23.87a.309.309,0,0,0,.235.51Zm2.6,7.192h-1.23A.617.617,0,0,1,37,30.956V24.38h1.23v6.576A.617.617,0,0,0,38.848,31.572Z" fill="#60b7ff" fill-rule="evenodd"/>
            <path id="Path_1276625" data-name="Path 1276625" d="M50.6,39.689l4.251-5.006a.309.309,0,0,0-.235-.51h-1.98V27.6a.617.617,0,0,0-.617-.617H48.708a.617.617,0,0,0-.617.617v6.576h-1.98a.309.309,0,0,0-.235.51l4.251,5.006a.3.3,0,0,0,.235.109.3.3,0,0,0,.235-.109Z" fill="#fe646f" fill-rule="evenodd"/>
            <path id="Path_1276626" data-name="Path 1276626" d="M49.747,39.242l3.872-4.559a.309.309,0,0,0-.235-.51h1.23a.309.309,0,0,1,.235.51L50.6,39.689a.3.3,0,0,1-.235.109.3.3,0,0,1-.235-.109Zm2.886-5.069H51.4V27.6a.617.617,0,0,0-.617-.617h1.23a.617.617,0,0,1,.617.617Z" fill="#fd4755" fill-rule="evenodd"/>
          </g>
        </g>
        <path id="Path_1276627" data-name="Path 1276627" d="M53.163,58.832a3.639,3.639,0,0,1-3.58,3.029H8.828a3.638,3.638,0,0,1-3.633-3.633V9.531A3.637,3.637,0,0,1,8.828,5.9h9.2V5.285a.984.984,0,0,1,.984-.984h5.1a5.484,5.484,0,0,1,10.178,0h5.1a.984.984,0,0,1,.984.984V5.9h9.206a3.637,3.637,0,0,1,3.63,3.63v17a1.594,1.594,0,0,1,.406,1.064v5.592h1a1.279,1.279,0,0,1,1.173.749l0,.006a1.267,1.267,0,0,1-.185,1.368l-.006.007-2.388,2.812V48.524l3.614,3.507a2.318,2.318,0,0,1,.047,3.273h0l-2.9,2.988h0a2.289,2.289,0,0,1-.81.539ZM18.03,7.869h-9.2A1.667,1.667,0,0,0,7.163,9.531v48.7a1.668,1.668,0,0,0,1.666,1.665H49.583a1.666,1.666,0,0,0,1.595-1.2,2.313,2.313,0,0,1-.474-.352l0,0-1.168-1.134a.984.984,0,0,1-.984.972H9.86a.984.984,0,0,1-.984-.984V10.567a.984.984,0,0,1,.984-.984h8.17Zm22.347,0V9.583h8.17a.984.984,0,0,1,.984.984V26h1.713V9.531a1.665,1.665,0,0,0-1.662-1.662Zm0,3.681v.616a.984.984,0,0,1-.984.984H19.014a.984.984,0,0,1-.984-.984v-.616H10.844V56.212h36.72V55.3l-4.9-4.754a2.318,2.318,0,0,1-.484-2.651l-3.258-3.161a15.617,15.617,0,1,1-1.277-25.752l.639-.753,0-.005a1.293,1.293,0,0,1,1.962,0l0,.005,4.251,5.006.006.007a1.267,1.267,0,0,1,.185,1.368l0,.006a1.279,1.279,0,0,1-1.173.749H43.48A15.555,15.555,0,0,1,45.1,32.293q0,.751-.069,1.483a1.276,1.276,0,0,1,1.084-.588h1V27.6a1.594,1.594,0,0,1,.455-1.116V11.551ZM51.245,40.435a1.251,1.251,0,0,1-.881.346,1.238,1.238,0,0,1-.832-.3v4.471l1.713,1.663Zm-3.681-2.247-2.437-2.869-.006-.007a1.333,1.333,0,0,1-.239-.42,15.521,15.521,0,0,1-2.141,5.654l3.385,3.287a2.341,2.341,0,0,1,1.437-.218Zm-4.1,8.206,1.2-1.237-3.083-2.994a15.7,15.7,0,0,1-1.163,1.275ZM36.358,20.5a13.651,13.651,0,1,0,1.989,22.172,13.727,13.727,0,0,0,2.318-2.552,13.685,13.685,0,0,0,1.863-11.848v2.684a1.6,1.6,0,0,1-.832,1.4,12.23,12.23,0,1,1-6.287-10.742Zm3.368,12.057H37.619a1.6,1.6,0,0,1-1.6-1.6V25.364h-1a1.279,1.279,0,0,1-1.173-.749l0-.006a1.267,1.267,0,0,1,.185-1.368l.006-.007.069-.081a10.246,10.246,0,1,0,5.62,9.4Zm7.845,2.6,2.793,3.289,2.793-3.289h-.522a.984.984,0,0,1-.984-.984V27.964H49.077v6.209a.984.984,0,0,1-.984.984ZM20,6.269v4.914H38.41V6.269H33.579a.984.984,0,0,1-.956-.752,3.516,3.516,0,0,0-6.833,0,.984.984,0,0,1-.957.754Zm9.206.557A1.291,1.291,0,1,1,30.5,5.533,1.294,1.294,0,0,1,29.2,6.826Zm23.357,50.1,2.9-2.988a.347.347,0,0,0,0-.49h0l-8.036-7.8a.348.348,0,0,0-.49.007h0l-2.9,2.988,0,0a.342.342,0,0,0,.007.484l0,0,8.033,7.8a.35.35,0,0,0,.489-.007ZM36.48,23.4H37a.984.984,0,0,1,.984.984v6.208h2.574V24.38a.984.984,0,0,1,.984-.984h.522l-2.793-3.29ZM28.5,25.9v-.709a.984.984,0,1,1,1.968,0v.7A4.323,4.323,0,0,1,33.7,28.5a.984.984,0,1,1-1.815.762,2.625,2.625,0,0,0-3.442-1.306,1.693,1.693,0,0,0-1.2,1.646v0a1.442,1.442,0,0,0,.934,1.247,5.39,5.39,0,0,0,1.479.428h0c1.955.322,4.109,1.2,4.389,3.524.278,2.3-1.623,3.6-3.576,3.915V39.4a.984.984,0,1,1-1.968,0v-.7a4.313,4.313,0,0,1-3.573-3.151.984.984,0,0,1,1.909-.475A2.59,2.59,0,0,0,29.6,36.829h0a3.577,3.577,0,0,0,1.9-.542,1.261,1.261,0,0,0,.587-1.245h0a1.721,1.721,0,0,0-1.139-1.373,6.507,6.507,0,0,0-1.614-.445c-1.91-.311-3.955-1.26-4.062-3.524a3.6,3.6,0,0,1,2.449-3.572,4.762,4.762,0,0,1,.777-.23Z" fill-rule="evenodd"/>
      </g>
    </g>
  </g>
</svg>
