<svg xmlns="http://www.w3.org/2000/svg" xmlns:xlink="http://www.w3.org/1999/xlink" width="90" height="90" viewBox="0 0 90 90">
  <defs>
    <clipPath id="clip-path">
      <rect id="Rectangle_412238" data-name="Rectangle 412238" width="60" height="61" transform="translate(7206.275 -2867.264)" fill="#fff" stroke="#707070" stroke-width="1"/>
    </clipPath>
  </defs>
  <g id="Group_1204320" data-name="Group 1204320" transform="translate(-7191.025 2881.764)">
    <g id="Path_1276288" data-name="Path 1276288" transform="translate(7191.025 -2881.764)" fill="#caedb8">
      <path d="M 75 88.5 L 15 88.5 C 11.39401245117188 88.5 8.003874778747559 87.09574890136719 5.454062461853027 84.54593658447266 C 2.904249906539917 81.99612426757812 1.5 78.60598754882812 1.5 75 L 1.5 15 C 1.5 11.39401245117188 2.904249906539917 8.003874778747559 5.454062461853027 5.454062461853027 C 8.003874778747559 2.904249906539917 11.39401245117188 1.5 15 1.5 L 75 1.5 C 78.60598754882812 1.5 81.99612426757812 2.904249906539917 84.54593658447266 5.454062461853027 C 87.09574890136719 8.003874778747559 88.5 11.39401245117188 88.5 15 L 88.5 75 C 88.5 78.60598754882812 87.09574890136719 81.99612426757812 84.54593658447266 84.54593658447266 C 81.99612426757812 87.09574890136719 78.60598754882812 88.5 75 88.5 Z" stroke="none"/>
      <path d="M 15 3 C 11.79468536376953 3 8.781211853027344 4.248214721679688 6.514717102050781 6.514717102050781 C 4.248214721679688 8.781211853027344 3 11.79468536376953 3 15 L 3 75 C 3 78.20531463623047 4.248214721679688 81.21878814697266 6.514717102050781 83.48528289794922 C 8.781211853027344 85.75178527832031 11.79468536376953 87 15 87 L 75 87 C 78.20531463623047 87 81.21878814697266 85.75178527832031 83.48528289794922 83.48528289794922 C 85.75178527832031 81.21878814697266 87 78.20531463623047 87 75 L 87 15 C 87 11.79468536376953 85.75178527832031 8.781211853027344 83.48528289794922 6.514717102050781 C 81.21878814697266 4.248214721679688 78.20531463623047 3 75 3 L 15 3 M 15 0 L 75 0 C 83.28427124023438 0 90 6.715728759765625 90 15 L 90 75 C 90 83.28427124023438 83.28427124023438 90 75 90 L 15 90 C 6.715728759765625 90 0 83.28427124023438 0 75 L 0 15 C 0 6.715728759765625 6.715728759765625 0 15 0 Z" stroke="none" fill="#569338"/>
    </g>
    <g id="Mask_Group_1200955" data-name="Mask Group 1200955" clip-path="url(#clip-path)">
      <g id="stocks_10983230" transform="translate(7202.262 -2870.784)">
        <g id="Group_1204318" data-name="Group 1204318">
          <path id="Path_1277184" data-name="Path 1277184" d="M4.625,6.219H50.551V42.166H4.625Z" fill="#362063" fill-rule="evenodd"/>
          <path id="Path_1277185" data-name="Path 1277185" d="M16.252,49.2h22.7v4.492h-22.7Z" fill="#362063" fill-rule="evenodd"/>
          <path id="Path_1277186" data-name="Path 1277186" d="M18.844,49.2c3.3-1.661,5.236-4,5.847-7.017h5.834q.9,4.525,5.847,7.017Z" fill="#6d51a1" fill-rule="evenodd"/>
          <path id="Path_1277187" data-name="Path 1277187" d="M8.186,9.728H47v28.93H8.186Z" fill="#e6e6e6" fill-rule="evenodd"/>
          <path id="Path_1277188" data-name="Path 1277188" d="M40.12,61.98H55.987l6.671-6.671V36.133a1.894,1.894,0,0,0-1.887-1.887H40.12a1.894,1.894,0,0,0-1.887,1.887v23.96A1.894,1.894,0,0,0,40.12,61.98Z" fill="#bfafd5" fill-rule="evenodd"/>
          <path id="Path_1277189" data-name="Path 1277189" d="M62.658,55.309H57.874A1.894,1.894,0,0,0,55.987,57.2V61.98Z" fill="#6d51a1" fill-rule="evenodd"/>
          <path id="Path_1277190" data-name="Path 1277190" d="M23.442,34.565A10.365,10.365,0,1,0,13.076,24.2,10.379,10.379,0,0,0,23.442,34.565Z" fill="#0390a4" fill-rule="evenodd"/>
          <path id="Path_1277191" data-name="Path 1277191" d="M28.266,15.017a10.406,10.406,0,0,1,5.422,7.561L23.442,24.186Z" fill="#6fccdd" fill-rule="evenodd"/>
          <path id="Path_1277192" data-name="Path 1277192" d="M38.538,15.907v4.824a1.418,1.418,0,0,0,1.409,1.409H41.94a1.418,1.418,0,0,0,1.409-1.409V15.907A1.418,1.418,0,0,0,41.94,14.5H39.947A1.427,1.427,0,0,0,38.538,15.907Z" fill="#fff" fill-rule="evenodd"/>
          <path id="Path_1277193" data-name="Path 1277193" d="M38.538,25.435a1.863,1.863,0,0,0,1.847,1.86h1.1a1.854,1.854,0,0,0,0-3.708H40.4a1.846,1.846,0,0,0-1.86,1.847Z" fill="#fff" fill-rule="evenodd"/>
        </g>
        <path id="Path_1277194" data-name="Path 1277194" d="M36.983,18.658a.983.983,0,0,1,0-1.967h9.4v-6.06H9.555v26.95H37.621V36.04a2.875,2.875,0,0,1,2.87-2.87h5.887V18.658Zm11.375-1.967H49.94V7.123H5.993V41.1H37.621V39.575H8.558a.993.993,0,0,1-1-.983V9.648a1,1,0,0,1,1-1H47.375a.984.984,0,0,1,.983,1Zm3.561,0h3.8a.981.981,0,0,1,.983.983v12.08a.983.983,0,1,1-1.967,0v-11.1H51.92V33.169h9.223a2.875,2.875,0,0,1,2.87,2.87V55.216a.647.647,0,0,1-.013.159.049.049,0,0,1-.013.04l-.013.027v.027l-.013.053-.013.027-.027.066-.027.066-.027.04-.159.2-6.645,6.671a.951.951,0,0,1-.7.292H40.492a2.875,2.875,0,0,1-2.87-2.87V54.591h-21a.981.981,0,0,1-.983-.983V49.116a.981.981,0,0,1,.983-.983h2.352a9.4,9.4,0,0,0,4.784-5.05H5a.981.981,0,0,1-.983-.983V6.14A.981.981,0,0,1,5,5.156H50.924a.993.993,0,0,1,1,.983Zm-1.98,1.967H48.359V33.169H49.94ZM27.282,32.824,22.95,24.585a.99.99,0,0,1,0-.944L27.282,15.4a9.378,9.378,0,1,0,0,17.422Zm-1.953-7.947,3.708,7.043a9.347,9.347,0,0,0,4.146-8.266Zm3.708-8.558-3.429,6.512,7.282-1.143a9.473,9.473,0,0,0-3.854-5.369Zm-5.223-3.561A11.349,11.349,0,1,1,12.465,24.106,11.351,11.351,0,0,1,23.814,12.757Zm19.641,44.85a.983.983,0,0,1,0-1.967h6.14a.983.983,0,1,1,0,1.967Zm0-4.12a.983.983,0,0,1,0-1.967h6.14a.983.983,0,1,1,0,1.967Zm0-4.12a.99.99,0,0,1,0-1.98h6.14a.99.99,0,1,1,0,1.98Zm0-4.12a.983.983,0,1,1,0-1.967h6.14a.983.983,0,1,1,0,1.967Zm0-4.12a.981.981,0,0,1-.983-.983.993.993,0,0,1,.983-1h6.14a1,1,0,0,1,1,1,.984.984,0,0,1-1,.983ZM52.8,48.146a.985.985,0,0,1,.89-1.076.966.966,0,0,1,1.063.89c.106,1.116,2.1,1.714,3.229.784a1.143,1.143,0,0,0,.465-.877c0-2.3-5.674-.186-5.674-4.638A3.417,3.417,0,0,1,55.6,40.04v-.678a.991.991,0,0,1,1.023-.983.976.976,0,0,1,.983,1l-.013.651a3.431,3.431,0,0,1,2.844,3.2.981.981,0,0,1-.983.983.993.993,0,0,1-1-.983c0-1.169-2.06-1.834-3.229-.877a1.143,1.143,0,0,0-.465.877c0,2.3,5.674.186,5.674,4.638a3.444,3.444,0,0,1-2.844,3.2l-.013.664a.983.983,0,1,1-1.967,0V51.07A3.484,3.484,0,0,1,52.8,48.146Zm7.854,8.066H58.246a.9.9,0,0,0-.89.9v2.405Zm-2.405-1.967h3.8V36.053a.913.913,0,0,0-.9-.9H40.492a.9.9,0,0,0-.89.9v23.96a.9.9,0,0,0,.89.89H55.375V57.1a2.873,2.873,0,0,1,2.87-2.857ZM37.621,52.611V50.1H17.608v2.512Zm0-4.492V43.07H32.173a9.35,9.35,0,0,0,4.784,5.05ZM25.834,43.083a10.061,10.061,0,0,1-3.309,5.05H33.409a10.149,10.149,0,0,1-3.309-5.05Z" fill="#010101"/>
      </g>
    </g>
  </g>
</svg>
