<svg xmlns="http://www.w3.org/2000/svg" xmlns:xlink="http://www.w3.org/1999/xlink" width="90" height="90" viewBox="0 0 90 90">
  <defs>
    <clipPath id="clip-path">
      <rect id="Rectangle_412162" data-name="Rectangle 412162" width="60" height="61" transform="translate(1112.179 5752.665)" fill="#fff" stroke="#707070" stroke-width="1"/>
    </clipPath>
  </defs>
  <g id="Group_1204148" data-name="Group 1204148" transform="translate(-1096.909 -5738.125)">
    <g id="Path_1276172" data-name="Path 1276172" transform="translate(1096.909 5738.125)" fill="#caedb8">
      <path d="M 75 88.5 L 15 88.5 C 11.39401245117188 88.5 8.003874778747559 87.09574890136719 5.454062461853027 84.54593658447266 C 2.904249906539917 81.99612426757812 1.5 78.60598754882812 1.5 75 L 1.5 15 C 1.5 11.39401245117188 2.904249906539917 8.003874778747559 5.454062461853027 5.454062461853027 C 8.003874778747559 2.904249906539917 11.39401245117188 1.5 15 1.5 L 75 1.5 C 78.60598754882812 1.5 81.99612426757812 2.904249906539917 84.54593658447266 5.454062461853027 C 87.09574890136719 8.003874778747559 88.5 11.39401245117188 88.5 15 L 88.5 75 C 88.5 78.60598754882812 87.09574890136719 81.99612426757812 84.54593658447266 84.54593658447266 C 81.99612426757812 87.09574890136719 78.60598754882812 88.5 75 88.5 Z" stroke="none"/>
      <path d="M 15 3 C 11.79468536376953 3 8.781211853027344 4.248214721679688 6.514717102050781 6.514717102050781 C 4.248214721679688 8.781211853027344 3 11.79468536376953 3 15 L 3 75 C 3 78.20531463623047 4.248214721679688 81.21878814697266 6.514717102050781 83.48528289794922 C 8.781211853027344 85.75178527832031 11.79468536376953 87 15 87 L 75 87 C 78.20531463623047 87 81.21878814697266 85.75178527832031 83.48528289794922 83.48528289794922 C 85.75178527832031 81.21878814697266 87 78.20531463623047 87 75 L 87 15 C 87 11.79468536376953 85.75178527832031 8.781211853027344 83.48528289794922 6.514717102050781 C 81.21878814697266 4.248214721679688 78.20531463623047 3 75 3 L 15 3 M 15 0 L 75 0 C 83.28427124023438 0 90 6.715728759765625 90 15 L 90 75 C 90 83.28427124023438 83.28427124023438 90 75 90 L 15 90 C 6.715728759765625 90 0 83.28427124023438 0 75 L 0 15 C 0 6.715728759765625 6.715728759765625 0 15 0 Z" stroke="none" fill="#569338"/>
    </g>
    <g id="Mask_Group_1200921" data-name="Mask Group 1200921" clip-path="url(#clip-path)">
      <g id="leverage_4632536" transform="translate(1112.179 5753.165)">
        <g id="Group_1204145" data-name="Group 1204145">
          <g id="Group_1204139" data-name="Group 1204139">
            <path id="Path_1276544" data-name="Path 1276544" d="M31.49,37.4,5.09,29.865a1.936,1.936,0,0,1,.716-3.735,2,2,0,0,1,.716.135l3.126.89a12.842,12.842,0,0,0,2.371.677l19.713,5.632-1.19,1.19,1.181,2.284Q31.592,37.171,31.49,37.4Z" fill="#b27946"/>
          </g>
          <g id="Group_1204140" data-name="Group 1204140">
            <path id="Path_1276545" data-name="Path 1276545" d="M14.516,36.774l6.774,9.677H17.419V60H11.613V46.452H7.742Z" fill="#ef7385"/>
          </g>
          <g id="Group_1204141" data-name="Group 1204141">
            <path id="Path_1276546" data-name="Path 1276546" d="M31.49,37.4q.1-.232.232-.465l-1.181-2.284,1.19-1.19,2.923-2.923,2.284,1.181a14.06,14.06,0,0,1,2.923-1.2l.784-2.458h5.806l.784,2.458a14.06,14.06,0,0,1,2.923,1.2l2.284-1.181,4.113,4.113-1.181,2.284a14.06,14.06,0,0,1,1.2,2.923l2.458.784v5.806l-2.458.784a14.06,14.06,0,0,1-1.2,2.923l1.181,2.284-4.113,4.1-2.284-1.171a14.06,14.06,0,0,1-2.923,1.2l-.784,2.458H40.645l-.784-2.458a14.06,14.06,0,0,1-2.923-1.2l-2.284,1.171-4.113-4.1,1.181-2.284a14.06,14.06,0,0,1-1.2-2.923l-2.458-.784V40.645l2.458-.784A13.11,13.11,0,0,1,31.49,37.4Z" fill="#ffc729"/>
          </g>
          <g id="Group_1204142" data-name="Group 1204142">
            <circle id="Ellipse_12498" data-name="Ellipse 12498" cx="9.677" cy="9.677" r="9.677" transform="translate(33.871 33.871)" fill="#fcd770"/>
          </g>
          <g id="Group_1204143" data-name="Group 1204143">
            <path id="Path_1276547" data-name="Path 1276547" d="M14.516.968a13.548,13.548,0,0,1,0,27.1,13.315,13.315,0,0,1-2.5-.232l-2.371-.677A13.545,13.545,0,0,1,14.516.968Z" fill="#ffc729"/>
          </g>
          <g id="Group_1204144" data-name="Group 1204144">
            <circle id="Ellipse_12499" data-name="Ellipse 12499" cx="9.677" cy="9.677" r="9.677" transform="translate(4.839 4.839)" fill="#fcd770"/>
          </g>
        </g>
        <g id="Group_1204146" data-name="Group 1204146">
          <path id="Path_1276548" data-name="Path 1276548" d="M60,47.157V39.939l-2.646-.848a14.575,14.575,0,0,0-.889-2.157l1.27-2.467-5.1-5.1-2.467,1.27a14.411,14.411,0,0,0-2.157-.889l-.85-2.647H39.939l-.848,2.646a14.369,14.369,0,0,0-2.157.889l-2.467-1.27-3.018,3.018L18.1,28.566A14.531,14.531,0,1,0,4.859,25.324a2.9,2.9,0,0,0-.131,5.436l25.406,7.264q-.215.524-.391,1.067L27.1,39.94v7.218l2.646.848a14.489,14.489,0,0,0,.889,2.157l-1.27,2.467,5.1,5.1,2.467-1.269a14.489,14.489,0,0,0,2.157.889L39.94,60h7.218l.848-2.646a14.489,14.489,0,0,0,2.157-.889l2.467,1.269,5.1-5.1-1.27-2.467a14.532,14.532,0,0,0,.889-2.157ZM1.935,14.516A12.613,12.613,0,1,1,12.144,26.865L10.1,26.282A12.592,12.592,0,0,1,1.935,14.516ZM4.907,27.7a.992.992,0,0,1,1.258-.54l3.309.946a14.383,14.383,0,0,0,2.268.648l18.141,5.187-.521.521.8,1.551L5.411,28.947a.97.97,0,0,1-.5-1.243Zm50.877,18.77-.141.5a12.557,12.557,0,0,1-1.115,2.707l-.255.453,1.094,2.124-3.108,3.107-2.124-1.093-.453.255a12.557,12.557,0,0,1-2.707,1.115l-.5.141-.729,2.28H41.352l-.73-2.28-.5-.141a12.557,12.557,0,0,1-2.707-1.115l-.453-.255-2.124,1.093-3.108-3.107,1.094-2.124-.255-.453a12.557,12.557,0,0,1-1.115-2.707l-.141-.5-2.28-.729V41.352l2.28-.73.141-.5a12.474,12.474,0,0,1,1.116-2.707l.254-.454-1.094-2.123,3.108-3.107,2.123,1.093.454-.254a12.534,12.534,0,0,1,2.707-1.116l.5-.141.729-2.28h4.395l.73,2.279.5.141a12.534,12.534,0,0,1,2.707,1.116l.454.254,2.123-1.093,3.108,3.107L54.274,36.96l.254.454a12.474,12.474,0,0,1,1.116,2.707l.141.5,2.28.73v4.395Z"/>
          <path id="Path_1276549" data-name="Path 1276549" d="M43.548,32.9A10.645,10.645,0,1,0,54.194,43.548,10.658,10.658,0,0,0,43.548,32.9Zm0,19.355a8.71,8.71,0,1,1,8.71-8.71A8.719,8.719,0,0,1,43.548,52.258Z"/>
          <path id="Path_1276550" data-name="Path 1276550" d="M42.581,40.645h1.935a.968.968,0,0,1,.968.968h1.935a2.907,2.907,0,0,0-2.9-2.9V36.774H42.581V38.71a2.9,2.9,0,1,0,0,5.806h1.935a.968.968,0,0,1,0,1.935H42.581a.968.968,0,0,1-.968-.968H39.677a2.907,2.907,0,0,0,2.9,2.9v1.935h1.935V48.387a2.9,2.9,0,1,0,0-5.806H42.581a.968.968,0,0,1,0-1.935Z"/>
          <path id="Path_1276551" data-name="Path 1276551" d="M14.516,25.161A10.645,10.645,0,1,0,3.871,14.516,10.658,10.658,0,0,0,14.516,25.161Zm0-19.355a8.71,8.71,0,1,1-8.71,8.71A8.72,8.72,0,0,1,14.516,5.806Z"/>
          <path id="Path_1276552" data-name="Path 1276552" d="M15.484,17.419H13.548a.969.969,0,0,1-.968-.968H10.645a2.907,2.907,0,0,0,2.9,2.9V21.29h1.935V19.355a2.9,2.9,0,0,0,0-5.806H13.548a.968.968,0,0,1,0-1.935h1.935a.969.969,0,0,1,.968.968h1.935a2.907,2.907,0,0,0-2.9-2.9V7.742H13.548V9.677a2.9,2.9,0,1,0,0,5.806h1.935a.968.968,0,0,1,0,1.935Z"/>
          <path id="Path_1276553" data-name="Path 1276553" d="M38.993,21.007l4.555,4.555L48.1,21.007l-1.368-1.368-2.219,2.219V13.548H42.581v8.309l-2.219-2.219Z"/>
          <path id="Path_1276554" data-name="Path 1276554" d="M56.813,17.136l-1.368-1.368-2.219,2.219V9.677H51.29v8.309l-2.219-2.219L47.7,17.136l4.555,4.555Z"/>
          <path id="Path_1276555" data-name="Path 1276555" d="M39.394,17.136l-1.368-1.368-2.219,2.219V9.677H33.871v8.309l-2.219-2.219-1.368,1.368,4.555,4.555Z"/>
          <path id="Path_1276556" data-name="Path 1276556" d="M5.883,47.419h4.762V60h1.935V45.484H9.6l4.915-7.022,4.915,7.022h-2.98V60h1.935V47.419h4.762L14.516,35.086Z"/>
        </g>
      </g>
    </g>
  </g>
</svg>
