<svg xmlns="http://www.w3.org/2000/svg" xmlns:xlink="http://www.w3.org/1999/xlink" width="90" height="90" viewBox="0 0 90 90">
  <defs>
    <clipPath id="clip-path">
      <rect id="Rectangle_412219" data-name="Rectangle 412219" width="60" height="61" transform="translate(614.653 6660.857)" fill="#fff" stroke="#707070" stroke-width="1"/>
    </clipPath>
  </defs>
  <g id="Group_1204312" data-name="Group 1204312" transform="translate(-599.386 -6646.317)">
    <g id="Path_1276279" data-name="Path 1276279" transform="translate(599.386 6646.317)" fill="#ffc94a">
      <path d="M 75 88.5 L 15 88.5 C 11.39401245117188 88.5 8.003874778747559 87.09574890136719 5.454062461853027 84.54593658447266 C 2.904249906539917 81.99612426757812 1.5 78.60598754882812 1.5 75 L 1.5 15 C 1.5 11.39401245117188 2.904249906539917 8.003874778747559 5.454062461853027 5.454062461853027 C 8.003874778747559 2.904249906539917 11.39401245117188 1.5 15 1.5 L 75 1.5 C 78.60598754882812 1.5 81.99612426757812 2.904249906539917 84.54593658447266 5.454062461853027 C 87.09574890136719 8.003874778747559 88.5 11.39401245117188 88.5 15 L 88.5 75 C 88.5 78.60598754882812 87.09574890136719 81.99612426757812 84.54593658447266 84.54593658447266 C 81.99612426757812 87.09574890136719 78.60598754882812 88.5 75 88.5 Z" stroke="none"/>
      <path d="M 15 3 C 11.79468536376953 3 8.781211853027344 4.248214721679688 6.514717102050781 6.514717102050781 C 4.248214721679688 8.781211853027344 3 11.79468536376953 3 15 L 3 75 C 3 78.20531463623047 4.248214721679688 81.21878814697266 6.514717102050781 83.48528289794922 C 8.781211853027344 85.75178527832031 11.79468536376953 87 15 87 L 75 87 C 78.20531463623047 87 81.21878814697266 85.75178527832031 83.48528289794922 83.48528289794922 C 85.75178527832031 81.21878814697266 87 78.20531463623047 87 75 L 87 15 C 87 11.79468536376953 85.75178527832031 8.781211853027344 83.48528289794922 6.514717102050781 C 81.21878814697266 4.248214721679688 78.20531463623047 3 75 3 L 15 3 M 15 0 L 75 0 C 83.28427124023438 0 90 6.715728759765625 90 15 L 90 75 C 90 83.28427124023438 83.28427124023438 90 75 90 L 15 90 C 6.715728759765625 90 0 83.28427124023438 0 75 L 0 15 C 0 6.715728759765625 6.715728759765625 0 15 0 Z" stroke="none" fill="#b18c32"/>
    </g>
    <g id="Mask_Group_1200949" data-name="Mask Group 1200949" clip-path="url(#clip-path)">
      <g id="creation_2974460" transform="translate(613.686 6660.39)">
        <g id="Group_1204286" data-name="Group 1204286">
          <g id="Group_1204274" data-name="Group 1204274">
            <path id="Path_1277090" data-name="Path 1277090" d="M56.129,52.258a3.871,3.871,0,1,1,0,7.742H50.323V52.258Z" fill="#e6e9ed"/>
          </g>
          <g id="Group_1204275" data-name="Group 1204275">
            <path id="Path_1277091" data-name="Path 1277091" d="M5.806,44.516a3.87,3.87,0,0,0-3.871,3.871v-32.9a3.87,3.87,0,0,1,3.871-3.871h5.806v32.9Z" fill="#e6e9ed"/>
          </g>
          <g id="Group_1204276" data-name="Group 1204276">
            <path id="Path_1277092" data-name="Path 1277092" d="M56.129,19.355H11.613V44.516H5.806a3.871,3.871,0,1,0,0,7.742H56.129A3.87,3.87,0,0,1,60,56.129v-32.9A3.87,3.87,0,0,0,56.129,19.355Z" fill="#f0d0b4"/>
          </g>
          <g id="Group_1204277" data-name="Group 1204277">
            <path id="Path_1277093" data-name="Path 1277093" d="M15.484,29.032H29.032v7.742H15.484Z" fill="#b4dd7f"/>
          </g>
          <g id="Group_1204278" data-name="Group 1204278">
            <path id="Path_1277094" data-name="Path 1277094" d="M44.516,30a6.774,6.774,0,1,0,6.774,6.774A6.769,6.769,0,0,0,44.516,30Zm4.81-4.839,5.458,5.458L54.068,32.1a11.2,11.2,0,0,1,.513,1.219l1.548.552v5.806l-1.548.552a11.205,11.205,0,0,1-.513,1.219l.716,1.481-4.113,4.113-1.481-.716a11.2,11.2,0,0,1-1.219.513l-.552,1.548H41.613l-.552-1.548a11.206,11.206,0,0,1-1.219-.513l-1.481.716-4.113-4.113.716-1.481a11.2,11.2,0,0,1-.513-1.219L32.9,39.677V33.871l1.548-.552a11.2,11.2,0,0,1,.513-1.219l-.823-2.371a10.827,10.827,0,0,0,4.568,1.239,12.268,12.268,0,0,0,5.806-1.935l-.484-2.9a20.345,20.345,0,0,0,2.419-.968Z" fill="#ffc729"/>
          </g>
          <g id="Group_1204279" data-name="Group 1204279">
            <path id="Path_1277095" data-name="Path 1277095" d="M44.516,30a6.774,6.774,0,1,1-6.774,6.774A6.769,6.769,0,0,1,44.516,30Zm2.9,6.774a2.9,2.9,0,1,0-2.9,2.9A2.9,2.9,0,0,0,47.419,36.774Z" fill="#fcd770"/>
          </g>
          <g id="Group_1204280" data-name="Group 1204280">
            <path id="Path_1277096" data-name="Path 1277096" d="M44.032,26.129l.484,2.9a12.268,12.268,0,0,1-5.806,1.935,10.827,10.827,0,0,1-4.568-1.239,11.73,11.73,0,0,1-1.239-.7l.484-2.9a17.4,17.4,0,0,0,5.323.968A17.4,17.4,0,0,0,44.032,26.129Z" fill="#aab2bd"/>
          </g>
          <g id="Group_1204281" data-name="Group 1204281">
            <path id="Path_1277097" data-name="Path 1277097" d="M45.629,17.777l.823,7.384a20.344,20.344,0,0,1-2.419.968,17.4,17.4,0,0,1-5.323.968,17.4,17.4,0,0,1-5.323-.968,20.345,20.345,0,0,1-2.419-.968l.823-7.384.387-3.484a22.1,22.1,0,0,1,1.616-6.174,21.389,21.389,0,0,1,.948-1.955l.01.01a5.78,5.78,0,0,0,7.916,0l.01-.01a22.136,22.136,0,0,1,2.565,8.129Z" fill="#ccd1d9"/>
          </g>
          <g id="Group_1204282" data-name="Group 1204282">
            <path id="Path_1277098" data-name="Path 1277098" d="M52.258,25.161H46.452l-.823-7.384a15.219,15.219,0,0,1,3.126,1.577,7.022,7.022,0,0,1,3.5,5.806Z" fill="#ff826e"/>
          </g>
          <g id="Group_1204283" data-name="Group 1204283">
            <path id="Path_1277099" data-name="Path 1277099" d="M42.677,6.165l-.01.01a5.78,5.78,0,0,1-7.916,0l-.01-.01a22.179,22.179,0,0,1,2.381-3.484,2.063,2.063,0,0,1,3.174,0A22.179,22.179,0,0,1,42.677,6.165Z" fill="#ff826e"/>
          </g>
          <g id="Group_1204284" data-name="Group 1204284">
            <path id="Path_1277100" data-name="Path 1277100" d="M31.79,17.777l-.823,7.384H25.161a7.022,7.022,0,0,1,3.5-5.806A14.981,14.981,0,0,1,31.79,17.777Z" fill="#ff826e"/>
          </g>
          <g id="Group_1204285" data-name="Group 1204285">
            <circle id="Ellipse_12539" data-name="Ellipse 12539" cx="2.903" cy="2.903" r="2.903" transform="translate(35.806 13.548)" fill="#69d6f4"/>
          </g>
        </g>
        <g id="Group_1204287" data-name="Group 1204287">
          <path id="Path_1277101" data-name="Path 1277101" d="M56.129,18.387h-7.1a15.688,15.688,0,0,0-2.5-1.3l-.323-2.905A22.835,22.835,0,0,0,41.041,2.059a3.034,3.034,0,0,0-4.663,0,22.829,22.829,0,0,0-5.165,12.125l-.322,2.9a15.627,15.627,0,0,0-2.5,1.3H12.581V10.645H5.806A4.844,4.844,0,0,0,.968,15.484v32.9a4.844,4.844,0,0,0,4.839,4.839H49.355v7.742h6.774a4.844,4.844,0,0,0,4.839-4.839v-32.9a4.844,4.844,0,0,0-4.839-4.839ZM51.2,24.194H47.318l-.541-4.869C48.53,20.2,50.727,21.756,51.2,24.194Zm2,8.335a9.332,9.332,0,0,1,.462,1.108l.151.444,1.347.475v4.436l-1.348.475-.151.444A9.333,9.333,0,0,1,53.2,41.02l-.207.422.618,1.292-3.137,3.137-1.292-.618-.422.207a9.332,9.332,0,0,1-1.108.462l-.444.151-.474,1.347H42.3l-.475-1.348-.444-.151a9.332,9.332,0,0,1-1.108-.462l-.422-.207-1.292.618-3.137-3.137.618-1.292-.207-.422a9.332,9.332,0,0,1-.462-1.108l-.151-.444-1.347-.474V34.556l1.348-.475.151-.444a9.332,9.332,0,0,1,.462-1.108l.179-.363-.255-.736a10.037,10.037,0,0,0,2.735.5A7.739,7.739,0,1,0,45.509,29.1l-.389-2.331c.725-.27,1.271-.512,1.551-.643h2.255l4.687,4.687-.618,1.292ZM38.71,28.065a17.171,17.171,0,0,0,4.549-.687l.194,1.164A10.521,10.521,0,0,1,38.71,30a10.589,10.589,0,0,1-4.743-1.459l.194-1.163A17.171,17.171,0,0,0,38.71,28.065Zm5.806,2.9a5.806,5.806,0,1,1-5.806,5.806A5.812,5.812,0,0,1,44.516,30.968ZM37.866,3.3a1.134,1.134,0,0,1,1.688,0,21.05,21.05,0,0,1,1.863,2.627,4.739,4.739,0,0,1-5.413,0A21,21,0,0,1,37.866,3.3ZM35.083,7.651a6.742,6.742,0,0,0,7.255,0A20.906,20.906,0,0,1,44.282,14.4l1.13,10.172a18.349,18.349,0,0,1-6.7,1.559,18.438,18.438,0,0,1-6.7-1.559L33.137,14.4a20.883,20.883,0,0,1,1.945-6.748ZM30.1,24.194H26.221c.471-2.438,2.668-3.993,4.422-4.869ZM2.9,15.484a2.907,2.907,0,0,1,2.9-2.9h4.839V43.548H5.806a4.813,4.813,0,0,0-2.9.97Zm2.9,35.806a2.9,2.9,0,1,1,0-5.806h6.774V20.323H26.094a7.14,7.14,0,0,0-1.9,4.839v.968h6.555c.281.132.825.373,1.551.643l-.453,2.718.521.346c.043.028.407.267.985.574l.567,1.635c-.076.171-.149.343-.217.516l-1.767.624v7.177l1.767.623q.09.228.19.456l-.809,1.693,5.073,5.073,1.693-.809c.151.067.3.131.456.19l.623,1.767H48.1l.623-1.767q.228-.09.456-.19l1.693.809,5.073-5.073-.809-1.693c.067-.151.131-.3.19-.456l1.767-.623V33.186l-1.767-.623q-.09-.228-.19-.456l.809-1.693-4.286-4.285h1.563v-.968a7.14,7.14,0,0,0-1.9-4.839h4.8a2.907,2.907,0,0,1,2.9,2.9V52.283a4.789,4.789,0,0,0-2.9-.993Zm50.323,7.742H51.29V53.226h4.839a2.9,2.9,0,0,1,0,5.806Z"/>
          <path id="Path_1277102" data-name="Path 1277102" d="M38.71,20.323a3.871,3.871,0,1,0-3.871-3.871A3.875,3.875,0,0,0,38.71,20.323Zm0-5.806a1.935,1.935,0,1,1-1.935,1.935A1.937,1.937,0,0,1,38.71,14.516Z"/>
          <path id="Path_1277103" data-name="Path 1277103" d="M44.516,40.645a3.871,3.871,0,1,0-3.871-3.871A3.875,3.875,0,0,0,44.516,40.645Zm0-5.806a1.935,1.935,0,1,1-1.935,1.935A1.937,1.937,0,0,1,44.516,34.839Z"/>
          <path id="Path_1277104" data-name="Path 1277104" d="M14.516,37.742H30V28.065H14.516ZM16.452,30H28.065v5.806H16.452Z"/>
          <path id="Path_1277105" data-name="Path 1277105" d="M28.065,43.548H30v1.935H28.065Z"/>
          <path id="Path_1277106" data-name="Path 1277106" d="M14.516,43.548H26.129v1.935H14.516Z"/>
          <path id="Path_1277107" data-name="Path 1277107" d="M14.516,39.677H30v1.935H14.516Z"/>
          <path id="Path_1277108" data-name="Path 1277108" d="M14.516,47.419H30v1.935H14.516Z"/>
          <path id="Path_1277109" data-name="Path 1277109" d="M4.839,22.258H6.774v1.935H4.839Z"/>
          <path id="Path_1277110" data-name="Path 1277110" d="M4.839,14.516H6.774v1.935H4.839Z"/>
          <path id="Path_1277111" data-name="Path 1277111" d="M4.839,18.387H6.774v1.935H4.839Z"/>
        </g>
      </g>
    </g>
  </g>
</svg>
