<svg xmlns="http://www.w3.org/2000/svg" xmlns:xlink="http://www.w3.org/1999/xlink" width="90" height="90" viewBox="0 0 90 90">
  <defs>
    <clipPath id="clip-path">
      <rect id="Rectangle_412096" data-name="Rectangle 412096" width="60" height="61" transform="translate(1242.768 8934.615)" fill="#fff" stroke="#707070" stroke-width="1"/>
    </clipPath>
  </defs>
  <g id="Group_1204226" data-name="Group 1204226" transform="translate(-1227.5 -8920.075)">
    <g id="Path_1275993" data-name="Path 1275993" transform="translate(1227.5 8920.075)" fill="#ffc94a">
      <path d="M 75 88.5 L 15 88.5 C 11.39401245117188 88.5 8.003874778747559 87.09574890136719 5.454062461853027 84.54593658447266 C 2.904249906539917 81.99612426757812 1.5 78.60598754882812 1.5 75 L 1.5 15 C 1.5 11.39401245117188 2.904249906539917 8.003874778747559 5.454062461853027 5.454062461853027 C 8.003874778747559 2.904249906539917 11.39401245117188 1.5 15 1.5 L 75 1.5 C 78.60598754882812 1.5 81.99612426757812 2.904249906539917 84.54593658447266 5.454062461853027 C 87.09574890136719 8.003874778747559 88.5 11.39401245117188 88.5 15 L 88.5 75 C 88.5 78.60598754882812 87.09574890136719 81.99612426757812 84.54593658447266 84.54593658447266 C 81.99612426757812 87.09574890136719 78.60598754882812 88.5 75 88.5 Z" stroke="none"/>
      <path d="M 15 3 C 11.79468536376953 3 8.781211853027344 4.248214721679688 6.514717102050781 6.514717102050781 C 4.248214721679688 8.781211853027344 3 11.79468536376953 3 15 L 3 75 C 3 78.20531463623047 4.248214721679688 81.21878814697266 6.514717102050781 83.48528289794922 C 8.781211853027344 85.75178527832031 11.79468536376953 87 15 87 L 75 87 C 78.20531463623047 87 81.21878814697266 85.75178527832031 83.48528289794922 83.48528289794922 C 85.75178527832031 81.21878814697266 87 78.20531463623047 87 75 L 87 15 C 87 11.79468536376953 85.75178527832031 8.781211853027344 83.48528289794922 6.514717102050781 C 81.21878814697266 4.248214721679688 78.20531463623047 3 75 3 L 15 3 M 15 0 L 75 0 C 83.28427124023438 0 90 6.715728759765625 90 15 L 90 75 C 90 83.28427124023438 83.28427124023438 90 75 90 L 15 90 C 6.715728759765625 90 0 83.28427124023438 0 75 L 0 15 C 0 6.715728759765625 6.715728759765625 0 15 0 Z" stroke="none" fill="#b18c32"/>
    </g>
    <g id="Mask_Group_1200939" data-name="Mask Group 1200939" clip-path="url(#clip-path)">
      <g id="loan_2973433" transform="translate(1241.8 8934.147)">
        <g id="Group_1204224" data-name="Group 1204224">
          <g id="Group_1204214" data-name="Group 1204214">
            <path id="Path_1276911" data-name="Path 1276911" d="M17.419,24.194V47.419L1.935,45.484V27.1l3.871-.726,3.871-.726Z" fill="#e6e9ed"/>
          </g>
          <g id="Group_1204215" data-name="Group 1204215">
            <path id="Path_1276912" data-name="Path 1276912" d="M9.677,6.774V25.645l7.742-1.452V47.419l3.871.484V18.387l3.871.726V9.677Z" fill="#ccd1d9"/>
          </g>
          <g id="Group_1204216" data-name="Group 1204216">
            <path id="Path_1276913" data-name="Path 1276913" d="M36.774,21.29v6.455l-2.768,3.223L32.09,33.2a12.756,12.756,0,0,0-2.158,3.571c-.039.1-.068.194-.106.29A12.7,12.7,0,0,0,31.645,49.2L27.1,48.629,21.29,47.9V18.387l3.871.726,3.871.726,3.871.726Z" fill="#ffeaa7"/>
          </g>
          <g id="Group_1204217" data-name="Group 1204217">
            <path id="Path_1276914" data-name="Path 1276914" d="M48.387,19.355v3.871H40.645V19.355h7.742Z" fill="#ffeaa7"/>
          </g>
          <g id="Group_1204218" data-name="Group 1204218">
            <path id="Path_1276915" data-name="Path 1276915" d="M50.323,13.548a9.633,9.633,0,0,1-1.606,5.323l-.329.484H44.516l-.2-.406a16.351,16.351,0,0,1-1.616-5.4,16.109,16.109,0,0,1-.116-1.935,16.289,16.289,0,0,1,6.048.968,5.365,5.365,0,0,1,1.694.968Z" fill="#b4dd7f"/>
          </g>
          <g id="Group_1204219" data-name="Group 1204219">
            <path id="Path_1276916" data-name="Path 1276916" d="M44.313,18.948l.2.406H40.645L38.71,15.484a3.5,3.5,0,0,1,3.135-1.935H42.7A16.351,16.351,0,0,0,44.313,18.948Z" fill="#a0d468"/>
          </g>
          <g id="Group_1204220" data-name="Group 1204220">
            <path id="Path_1276917" data-name="Path 1276917" d="M44.516,46.452h-2.9a14.5,14.5,0,0,0-8.71,2.9L31.645,49.2a12.7,12.7,0,0,1-1.819-12.135c.039-.1.068-.194.106-.29A12.756,12.756,0,0,1,32.09,33.2l1.916-2.235,2.768-3.223,3.871-4.519h7.742L56.942,33.2a12.739,12.739,0,0,1,1.006,15.213,2.6,2.6,0,0,0-1.626.9l-1.742,2.09a7.724,7.724,0,0,1-5.952,2.787H42.213a1.574,1.574,0,0,1-.252-3.126l2.584-.426a2.285,2.285,0,0,0,1.906-2.255,1.95,1.95,0,0,0-1.935-1.935Z" fill="#b4dd7f"/>
          </g>
          <g id="Group_1204221" data-name="Group 1204221">
            <path id="Path_1276918" data-name="Path 1276918" d="M27.1,48.629V60H1.935V45.484l15.484,1.935,3.871.484Z" fill="#4fc1e9"/>
          </g>
          <g id="Group_1204222" data-name="Group 1204222">
            <path id="Path_1276919" data-name="Path 1276919" d="M32.9,49.355V60H27.1V48.629l4.548.571Z" fill="#e6e9ed"/>
          </g>
          <g id="Group_1204223" data-name="Group 1204223">
            <path id="Path_1276920" data-name="Path 1276920" d="M60,50.081a1.562,1.562,0,0,1-.068.474l-.455,1.6A10.81,10.81,0,0,1,49.065,60H32.9V49.355a14.5,14.5,0,0,1,8.71-2.9h2.9a1.95,1.95,0,0,1,1.935,1.935,2.285,2.285,0,0,1-1.906,2.255l-2.584.426a1.574,1.574,0,0,0,.252,3.126h6.416a7.724,7.724,0,0,0,5.952-2.787l1.742-2.09a2.6,2.6,0,0,1,1.626-.9,2.146,2.146,0,0,1,.358-.029A1.7,1.7,0,0,1,60,50.081Z" fill="#f0d0b4"/>
          </g>
        </g>
        <g id="Group_1204225" data-name="Group 1204225">
          <path id="Path_1276921" data-name="Path 1276921" d="M45.484,32.114V30H43.548v1.935H41.613v2.9a2.907,2.907,0,0,0,2.9,2.9.969.969,0,0,1,.968.968v.968h-.968a.969.969,0,0,1-.968-.968v-.968H41.613v.968a2.9,2.9,0,0,0,1.935,2.725v2.114h1.935V41.613h1.935v-2.9a2.907,2.907,0,0,0-2.9-2.9.969.969,0,0,1-.968-.968v-.968h.968a.969.969,0,0,1,.968.968v.968h1.935v-.968A2.9,2.9,0,0,0,45.484,32.114Z"/>
          <path id="Path_1276922" data-name="Path 1276922" d="M4.839,41.613H6.774v1.935H4.839Z"/>
          <path id="Path_1276923" data-name="Path 1276923" d="M8.71,41.613h1.935v1.935H8.71Z"/>
          <path id="Path_1276924" data-name="Path 1276924" d="M12.581,41.613h1.935v1.935H12.581Z"/>
          <path id="Path_1276925" data-name="Path 1276925" d="M4.839,35.806H6.774v1.935H4.839Z"/>
          <path id="Path_1276926" data-name="Path 1276926" d="M8.71,35.806h1.935v1.935H8.71Z"/>
          <path id="Path_1276927" data-name="Path 1276927" d="M12.581,35.806h1.935v1.935H12.581Z"/>
          <path id="Path_1276928" data-name="Path 1276928" d="M4.839,30H6.774v1.935H4.839Z"/>
          <path id="Path_1276929" data-name="Path 1276929" d="M8.71,30h1.935v1.935H8.71Z"/>
          <path id="Path_1276930" data-name="Path 1276930" d="M12.581,30h1.935v1.935H12.581Z"/>
          <path id="Path_1276931" data-name="Path 1276931" d="M59.466,47.7a13.664,13.664,0,0,0-1.792-15.126l-8.319-9.7V19.648l.163-.244a10.527,10.527,0,0,0,1.773-5.856v-.4l-.284-.284c-.226-.227-2.393-2.219-8.426-2.219h-.968v.968c0,.327.01.655.029.981a4.437,4.437,0,0,0-3.8,2.456l-.217.434,2.05,4.1v3.285l-1.935,2.258V20.487l-3.871-.726V10.645H31.935V19.4L30,19.035V14.516H28.065v4.156l-1.935-.363V8.874L20.323,7.785V.968H18.387V7.423L16.452,7.06V2.9H14.516V6.7L8.71,5.608V24.842L6.774,25.2V20.323H4.839v5.245l-3.871.726V60.968h48.1a11.8,11.8,0,0,0,11.342-8.555l.456-1.595a2.652,2.652,0,0,0-1.4-3.12Zm-.434-6.22a11.707,11.707,0,0,1-1.713,6.1,3.528,3.528,0,0,0-1.738,1.118l-1.746,2.1a6.755,6.755,0,0,1-5.2,2.437H42.217a.6.6,0,0,1-.1-1.2L44.7,51.6a3.243,3.243,0,0,0,2.718-3.208,2.907,2.907,0,0,0-2.9-2.9h-2.9a15.576,15.576,0,0,0-8.954,2.865l-.473-.059A11.63,11.63,0,0,1,30,41.477a11.758,11.758,0,0,1,2.828-7.645l8.263-9.639h6.853l8.263,9.639a11.764,11.764,0,0,1,2.827,7.646ZM47.419,20.323v1.935H41.613V20.323Zm1.923-6.3a8.6,8.6,0,0,1-1.435,4.311l-.038.057H45.123A15.5,15.5,0,0,1,43.581,12.6a11.684,11.684,0,0,1,5.761,1.418Zm-7.5.5h.02a17.485,17.485,0,0,0,1.13,3.871H41.243l-1.429-2.859A2.52,2.52,0,0,1,41.841,14.516ZM35.806,27.384,33.564,30H31.935v1.9l-.577.673A13.65,13.65,0,0,0,29.3,35.806h-1.24v1.935h.526a13.632,13.632,0,0,0,1.116,10.239l-7.449-.932v-27.5l13.548,2.54ZM10.645,7.94l13.548,2.54v7.466l-3.871-.726V46.807l-1.935-.242V23.027l-7.742,1.452ZM16.452,25.36V46.323L2.9,44.629V27.9ZM2.9,46.58l23.226,2.9v9.549H2.9ZM28.065,59.032V49.725l3.871.484v8.823ZM59,50.285l-.457,1.6a9.865,9.865,0,0,1-9.48,7.152h-15.2V49.849a13.645,13.645,0,0,1,7.742-2.43h2.9a.969.969,0,0,1,.968.968,1.313,1.313,0,0,1-1.1,1.3l-2.584.431a2.54,2.54,0,0,0,.417,5.045h6.415a8.686,8.686,0,0,0,6.691-3.134l1.745-2.094a1.6,1.6,0,0,1,1.235-.579.73.73,0,0,1,.7.93Z"/>
          <path id="Path_1276932" data-name="Path 1276932" d="M24.194,35.806h1.935v1.935H24.194Z"/>
          <path id="Path_1276933" data-name="Path 1276933" d="M24.194,41.613h1.935v1.935H24.194Z"/>
          <path id="Path_1276934" data-name="Path 1276934" d="M28.065,30H30v1.935H28.065Z"/>
          <path id="Path_1276935" data-name="Path 1276935" d="M24.194,30h1.935v1.935H24.194Z"/>
          <path id="Path_1276936" data-name="Path 1276936" d="M31.935,24.194h1.935v1.935H31.935Z"/>
          <path id="Path_1276937" data-name="Path 1276937" d="M28.065,24.194H30v1.935H28.065Z"/>
          <path id="Path_1276938" data-name="Path 1276938" d="M24.194,24.194h1.935v1.935H24.194Z"/>
          <path id="Path_1276939" data-name="Path 1276939" d="M12.581,18.387h1.935v1.935H12.581Z"/>
          <path id="Path_1276940" data-name="Path 1276940" d="M20.323,12.581h1.935v1.935H20.323Z"/>
          <path id="Path_1276941" data-name="Path 1276941" d="M16.452,12.581h1.935v1.935H16.452Z"/>
          <path id="Path_1276942" data-name="Path 1276942" d="M12.581,12.581h1.935v1.935H12.581Z"/>
          <path id="Path_1276943" data-name="Path 1276943" d="M16.452,18.387h1.935v1.935H16.452Z"/>
        </g>
      </g>
    </g>
  </g>
</svg>
