<svg xmlns="http://www.w3.org/2000/svg" xmlns:xlink="http://www.w3.org/1999/xlink" width="90" height="90" viewBox="0 0 90 90">
  <defs>
    <clipPath id="clip-path">
      <rect id="Rectangle_412063" data-name="Rectangle 412063" width="60" height="61" transform="translate(4213.179 -5869.335)" fill="#fff" stroke="#707070" stroke-width="1"/>
    </clipPath>
  </defs>
  <g id="Group_1204154" data-name="Group 1204154" transform="translate(-4197.909 5883.875)">
    <g id="Path_1275911" data-name="Path 1275911" transform="translate(4197.909 -5883.875)" fill="#caedb8">
      <path d="M 75 88.5 L 15 88.5 C 11.39401245117188 88.5 8.003874778747559 87.09574890136719 5.454062461853027 84.54593658447266 C 2.904249906539917 81.99612426757812 1.5 78.60598754882812 1.5 75 L 1.5 15 C 1.5 11.39401245117188 2.904249906539917 8.003874778747559 5.454062461853027 5.454062461853027 C 8.003874778747559 2.904249906539917 11.39401245117188 1.5 15 1.5 L 75 1.5 C 78.60598754882812 1.5 81.99612426757812 2.904249906539917 84.54593658447266 5.454062461853027 C 87.09574890136719 8.003874778747559 88.5 11.39401245117188 88.5 15 L 88.5 75 C 88.5 78.60598754882812 87.09574890136719 81.99612426757812 84.54593658447266 84.54593658447266 C 81.99612426757812 87.09574890136719 78.60598754882812 88.5 75 88.5 Z" stroke="none"/>
      <path d="M 15 3 C 11.79468536376953 3 8.781211853027344 4.248214721679688 6.514717102050781 6.514717102050781 C 4.248214721679688 8.781211853027344 3 11.79468536376953 3 15 L 3 75 C 3 78.20531463623047 4.248214721679688 81.21878814697266 6.514717102050781 83.48528289794922 C 8.781211853027344 85.75178527832031 11.79468536376953 87 15 87 L 75 87 C 78.20531463623047 87 81.21878814697266 85.75178527832031 83.48528289794922 83.48528289794922 C 85.75178527832031 81.21878814697266 87 78.20531463623047 87 75 L 87 15 C 87 11.79468536376953 85.75178527832031 8.781211853027344 83.48528289794922 6.514717102050781 C 81.21878814697266 4.248214721679688 78.20531463623047 3 75 3 L 15 3 M 15 0 L 75 0 C 83.28427124023438 0 90 6.715728759765625 90 15 L 90 75 C 90 83.28427124023438 83.28427124023438 90 75 90 L 15 90 C 6.715728759765625 90 0 83.28427124023438 0 75 L 0 15 C 0 6.715728759765625 6.715728759765625 0 15 0 Z" stroke="none" fill="#569338"/>
    </g>
    <g id="Mask_Group_1200923" data-name="Mask Group 1200923" clip-path="url(#clip-path)">
      <g id="financial-risk_16119942" transform="translate(4210.646 -5871.369)">
        <path id="Path_1276575" data-name="Path 1276575" d="M52.628,40.318,62.161,56.83a2.443,2.443,0,0,1-2.115,3.664h-14a2.846,2.846,0,0,1-2.825,2.539H5.412a2.845,2.845,0,0,1-2.841-2.841V10.021A2.845,2.845,0,0,1,5.412,7.18H7.718V4.874a2.845,2.845,0,0,1,2.841-2.841H41.276a.7.7,0,0,1,.5.211L51,11.468a.7.7,0,0,1,.211.5V39.2a2.437,2.437,0,0,1,1.417,1.122Z" fill-rule="evenodd"/>
        <path id="Path_1276576" data-name="Path 1276576" d="M44.635,60.495H40.979a2.452,2.452,0,0,1-2.443-2.608H10.559a2.845,2.845,0,0,1-2.841-2.841V8.577H5.412a1.448,1.448,0,0,0-1.444,1.444V60.193a1.448,1.448,0,0,0,1.444,1.444H43.223a1.449,1.449,0,0,0,1.412-1.142Z" fill="#204a5d" fill-rule="evenodd"/>
        <path id="Path_1276577" data-name="Path 1276577" d="M60.955,57.524l-9.532-16.51a1.057,1.057,0,0,0-1.82,0L40.1,57.478a1.042,1.042,0,0,0,.883,1.619H60.046a1.045,1.045,0,0,0,.909-1.574ZM49.644,53.135a1.8,1.8,0,0,1-1.014-1.558l-.367-6.018a2.263,2.263,0,1,1,4.5,0L52.4,51.577a1.905,1.905,0,0,1-2.751,1.558Zm.869.921a2.159,2.159,0,1,1-2.159,2.159A2.161,2.161,0,0,1,50.512,54.056Z" fill="#fba23d" fill-rule="evenodd"/>
        <path id="Path_1276578" data-name="Path 1276578" d="M51.051,55.676a.762.762,0,1,0,0,1.078A.763.763,0,0,0,51.051,55.676Z" fill="#ef6262" fill-rule="evenodd"/>
        <path id="Path_1276579" data-name="Path 1276579" d="M50.73,51.889a.485.485,0,0,0,.274-.4l.367-6.01a.87.87,0,1,0-1.717,0l.367,6.013a.476.476,0,0,0,.709.4Z" fill="#ef6262" fill-rule="evenodd"/>
        <path id="Path_1276580" data-name="Path 1276580" d="M48.826,11.27,41.974,4.418V9.826a1.448,1.448,0,0,0,1.444,1.444Z" fill="#204a5d" fill-rule="evenodd"/>
        <path id="Path_1276581" data-name="Path 1276581" d="M39.061,56.49,48.4,40.318A2.428,2.428,0,0,1,49.814,39.2V12.667h-6.4a2.846,2.846,0,0,1-2.841-2.841V3.43H10.559A1.448,1.448,0,0,0,9.115,4.875V55.046a1.448,1.448,0,0,0,1.444,1.444h28.5ZM36.745,31.056a2.075,2.075,0,0,1,.941,3.653C51.2,52.448,32.6,58.551,25.265,52.186a7.589,7.589,0,0,1-2.222-3.221.7.7,0,0,1-.514.224H20.8a.7.7,0,0,1-.5-.211l-.78-.78a.7.7,0,0,1-.2-.494V46.488a9.056,9.056,0,0,1-2.231-.926l-.862.862a.7.7,0,0,1-.494.2H14.616a.7.7,0,0,1-.5-.211L12.9,45.2a.7.7,0,0,1-.2-.494V43.6a.7.7,0,0,1,.211-.5l.856-.856a9.054,9.054,0,0,1-.926-2.231H11.618a.7.7,0,0,1-.5-.211l-.78-.78a.7.7,0,0,1-.2-.494v-1.73a.7.7,0,0,1,.211-.5l.78-.78a.7.7,0,0,1,.494-.2h1.217a9.053,9.053,0,0,1,.926-2.231l-.862-.862a.7.7,0,0,1-.2-.494V30.612a.7.7,0,0,1,.211-.5l1.217-1.217a.7.7,0,0,1,.494-.2h1.111a.7.7,0,0,1,.5.211l.856.856a9.059,9.059,0,0,1,2.231-.926V27.613a.7.7,0,0,1,.211-.5l.78-.78a.7.7,0,0,1,.494-.2h1.73a.7.7,0,0,1,.5.211l.78.78a.7.7,0,0,1,.2.494v1.216a8.752,8.752,0,0,1,2.212.9l.924-.875a1.828,1.828,0,0,1-.07-1.621,1.2,1.2,0,0,1,1.654-.4c.99.607,1.281-.087,2.092-.131.768-.042,1,.5,1.765-.011a1.692,1.692,0,0,1,1.989.068c.185.143.651-.147.912-.341A1.2,1.2,0,0,1,37.4,27.3a6.733,6.733,0,0,1-.66,3.757Zm-3.86-18.2a.7.7,0,1,1-.988-.988c.394-.394,3.15-3.181,3.321-3.3a.7.7,0,0,1,.768,0c.17.12,2.928,2.908,3.321,3.3a.7.7,0,0,1-.988.988L36.3,10.836v9.523a2.711,2.711,0,0,1-2.707,2.706H25.272a2.969,2.969,0,1,1,0-1.4h8.323A1.313,1.313,0,0,0,34.9,20.359V10.836l-2.019,2.019Zm-2.6,1.229a2.969,2.969,0,1,1-2.969,2.969,2.973,2.973,0,0,1,2.969-2.969ZM25.146,8.6a.7.7,0,0,1,.988.988l-1.162,1.162,1.162,1.162a.7.7,0,0,1-.988.988l-1.162-1.162L22.822,12.9a.7.7,0,1,1-.988-.988L23,10.749,21.835,9.587a.7.7,0,1,1,.988-.988l1.162,1.162Z" fill="#e1e1e1" fill-rule="evenodd"/>
        <path id="Path_1276582" data-name="Path 1276582" d="M30.439,31.025h4.623a4.465,4.465,0,0,0,.97-3.285,1.929,1.929,0,0,1-2.3.125c-.347-.268-.5.309-1.51.428-.948.111-1.147-.319-1.45-.156a2.607,2.607,0,0,1-2.356.1,5.075,5.075,0,0,0,2.027,2.786Z" fill="#c09044" fill-rule="evenodd"/>
        <path id="Path_1276583" data-name="Path 1276583" d="M36.282,35.172H29.4c-6.818,7.978-6.306,13.29-3.226,15.961,3.195,2.771,9.056,2.8,12.38.161C41.828,48.692,42.681,43.364,36.282,35.172Zm-3.745,1.875a6.876,6.876,0,1,1-6.876,6.876A6.876,6.876,0,0,1,32.537,37.046Z" fill="#d4bb78" fill-rule="evenodd"/>
        <path id="Path_1276584" data-name="Path 1276584" d="M27.768,34.954a2.074,2.074,0,0,1,.617-3.906l-.617-.857-.973.923a.7.7,0,0,1-.889.059,7.615,7.615,0,0,0-2.695-1.1.7.7,0,0,1-.594-.691V27.9l-.377-.377H21.088l-.377.377v1.482a.7.7,0,0,1-.594.691,7.852,7.852,0,0,0-2.705,1.116.7.7,0,0,1-.925-.056l-1.048-1.048h-.533l-.814.814v.533l1.048,1.048a.7.7,0,0,1,.056.925,7.855,7.855,0,0,0-1.116,2.705.7.7,0,0,1-.691.594H11.907l-.377.377v1.152l.377.377h1.482a.7.7,0,0,1,.691.594A7.855,7.855,0,0,0,15.2,41.911a.7.7,0,0,1-.055.925l-1.048,1.048v.533l.814.814h.533l1.048-1.048a.7.7,0,0,1,.925-.056,7.854,7.854,0,0,0,2.705,1.115.7.7,0,0,1,.594.691v1.482l.377.377H22.24l.425-.425a10.317,10.317,0,0,1,.384-4.147,5.731,5.731,0,1,1,4.038-7.411q.327-.423.681-.856Z" fill="#24809d" fill-rule="evenodd"/>
        <path id="Path_1276585" data-name="Path 1276585" d="M36.383,32.422H28.691a.677.677,0,0,0,0,1.353h7.692a.677.677,0,0,0,0-1.353Z" fill="#844418" fill-rule="evenodd"/>
        <path id="Path_1276586" data-name="Path 1276586" d="M23.647,41.517a23.209,23.209,0,0,1,2.34-4.2,4.334,4.334,0,1,0-2.34,4.2Z" fill="#204a5d" fill-rule="evenodd"/>
        <path id="Path_1276587" data-name="Path 1276587" d="M23.5,21.255a1.573,1.573,0,1,0,0,2.224,1.574,1.574,0,0,0,0-2.224Z" fill="#ef6262" fill-rule="evenodd"/>
        <path id="Path_1276588" data-name="Path 1276588" d="M31.4,15.941a1.573,1.573,0,1,0,0,2.224,1.574,1.574,0,0,0,0-2.224Z" fill="#ef6262" fill-rule="evenodd"/>
        <path id="Path_1276589" data-name="Path 1276589" d="M36.411,40.048a5.479,5.479,0,1,0,0,7.749,5.479,5.479,0,0,0,0-7.749Zm-3.176,8.067a.7.7,0,0,1-1.4,0v-.288a2.356,2.356,0,0,1-1.656-2.249.7.7,0,1,1,1.4,0,.958.958,0,1,0,.958-.958,2.355,2.355,0,0,1-.7-4.6v-.288a.7.7,0,1,1,1.4,0v.288a2.356,2.356,0,0,1,1.656,2.249.7.7,0,0,1-1.4,0,.958.958,0,1,0-.958.957,2.355,2.355,0,0,1,.7,4.6v.288Z" fill="#fba23d" fill-rule="evenodd"/>
      </g>
    </g>
  </g>
</svg>
