<svg xmlns="http://www.w3.org/2000/svg" xmlns:xlink="http://www.w3.org/1999/xlink" width="90" height="90" viewBox="0 0 90 90">
  <defs>
    <clipPath id="clip-path">
      <rect id="Rectangle_412247" data-name="Rectangle 412247" width="60" height="61" transform="translate(822.5 4505.436)" fill="#fff" stroke="#707070" stroke-width="1"/>
    </clipPath>
  </defs>
  <g id="Group_1204161" data-name="Group 1204161" transform="translate(-805.782 -4490.936)">
    <g id="Path_1276243" data-name="Path 1276243" transform="translate(805.782 4490.936)" fill="#ffc94a">
      <path d="M 75 88.5 L 15 88.5 C 11.39401245117188 88.5 8.003874778747559 87.09574890136719 5.454062461853027 84.54593658447266 C 2.904249906539917 81.99612426757812 1.5 78.60598754882812 1.5 75 L 1.5 15 C 1.5 11.39401245117188 2.904249906539917 8.003874778747559 5.454062461853027 5.454062461853027 C 8.003874778747559 2.904249906539917 11.39401245117188 1.5 15 1.5 L 75 1.5 C 78.60598754882812 1.5 81.99612426757812 2.904249906539917 84.54593658447266 5.454062461853027 C 87.09574890136719 8.003874778747559 88.5 11.39401245117188 88.5 15 L 88.5 75 C 88.5 78.60598754882812 87.09574890136719 81.99612426757812 84.54593658447266 84.54593658447266 C 81.99612426757812 87.09574890136719 78.60598754882812 88.5 75 88.5 Z" stroke="none"/>
      <path d="M 15 3 C 11.79468536376953 3 8.781211853027344 4.248214721679688 6.514717102050781 6.514717102050781 C 4.248214721679688 8.781211853027344 3 11.79468536376953 3 15 L 3 75 C 3 78.20531463623047 4.248214721679688 81.21878814697266 6.514717102050781 83.48528289794922 C 8.781211853027344 85.75178527832031 11.79468536376953 87 15 87 L 75 87 C 78.20531463623047 87 81.21878814697266 85.75178527832031 83.48528289794922 83.48528289794922 C 85.75178527832031 81.21878814697266 87 78.20531463623047 87 75 L 87 15 C 87 11.79468536376953 85.75178527832031 8.781211853027344 83.48528289794922 6.514717102050781 C 81.21878814697266 4.248214721679688 78.20531463623047 3 75 3 L 15 3 M 15 0 L 75 0 C 83.28427124023438 0 90 6.715728759765625 90 15 L 90 75 C 90 83.28427124023438 83.28427124023438 90 75 90 L 15 90 C 6.715728759765625 90 0 83.28427124023438 0 75 L 0 15 C 0 6.715728759765625 6.715728759765625 0 15 0 Z" stroke="none" fill="#b18c32"/>
    </g>
    <g id="Mask_Group_1200924" data-name="Mask Group 1200924" clip-path="url(#clip-path)">
      <g id="distribution_2104128" transform="translate(820.5 4503.936)">
        <ellipse id="Ellipse_12501" data-name="Ellipse 12501" cx="5" cy="3" rx="5" ry="3" transform="translate(51 14.046)" fill="#b3e9ff"/>
        <ellipse id="Ellipse_12502" data-name="Ellipse 12502" cx="5" cy="3" rx="5" ry="3" transform="translate(27 14.046)" fill="#b3e9ff"/>
        <ellipse id="Ellipse_12503" data-name="Ellipse 12503" cx="5" cy="3" rx="5" ry="3" transform="translate(51 45)" fill="#b3e9ff"/>
        <path id="Path_1276590" data-name="Path 1276590" d="M52.745,35.766a4.626,4.626,0,0,0-.323,4.449L56,47.954l3.578-7.739a4.624,4.624,0,0,0-.323-4.449,3.83,3.83,0,0,0-6.51,0Z" fill="#ef476f"/>
        <path id="Path_1276591" data-name="Path 1276591" d="M52.745,4.812a4.626,4.626,0,0,0-.323,4.449L56,17l3.578-7.739a4.624,4.624,0,0,0-.323-4.449,3.83,3.83,0,0,0-6.51,0Z" fill="#ef476f"/>
        <path id="Path_1276592" data-name="Path 1276592" d="M28.745,4.812a4.626,4.626,0,0,0-.323,4.449L32,17l3.578-7.739a4.624,4.624,0,0,0-.323-4.449,3.83,3.83,0,0,0-6.51,0Z" fill="#ef476f"/>
        <path id="Path_1276593" data-name="Path 1276593" d="M29,36h6v6H29Z" fill="#ffed80"/>
        <path id="Path_1276594" data-name="Path 1276594" d="M33.979,46.039,29,46.116V50h3.528a1,1,0,0,0,.8-.4l1.47-1.961A1,1,0,0,0,33.979,46.039Z" fill="#ffcd94"/>
        <path id="Path_1276595" data-name="Path 1276595" d="M23.026,46.116a5.931,5.931,0,0,1-3.66-1.274A8.575,8.575,0,0,0,14.026,43l-6,.051A4.834,4.834,0,0,0,3,47.836V61H17.992V50.293l5,.707L29,50.293V46.116Z" fill="#e8e8e8"/>
        <path id="Path_1276596" data-name="Path 1276596" d="M12,43H10L9,50l2,5,2-5Z" fill="#2e6893"/>
        <circle id="Ellipse_12504" data-name="Ellipse 12504" cx="6" cy="6" r="6" transform="translate(5 31)" fill="#ffcd94"/>
        <path id="Path_1276597" data-name="Path 1276597" d="M11.026,35a6.029,6.029,0,0,0,4.46,2,5.53,5.53,0,0,0,1.529-.21,5.992,5.992,0,0,0-11.978,0A5.54,5.54,0,0,0,6.566,37a6.029,6.029,0,0,0,4.46-2Z" fill="#3f3f3f"/>
        <path id="Path_1276598" data-name="Path 1276598" d="M31,6h2V8H31Z"/>
        <path id="Path_1276599" data-name="Path 1276599" d="M55,6h2V8H55Z"/>
        <path id="Path_1276600" data-name="Path 1276600" d="M55,36.955h2v2H55Z"/>
        <g id="Group_1204155" data-name="Group 1204155">
          <path id="Path_1276601" data-name="Path 1276601" d="M3,62H17.992a1,1,0,0,0,1-1V51.444l3.86.546a1.1,1.1,0,0,0,.257,0l6.008-.708A.987.987,0,0,0,29.692,51h2.835a2.015,2.015,0,0,0,1.6-.8l1.47-1.96a2,2,0,0,0-1.633-3.2l-4.979.076H23.027a4.963,4.963,0,0,1-3.043-1.061,9.686,9.686,0,0,0-4.237-1.9,7,7,0,1,0-9.324.1A5.783,5.783,0,0,0,2,47.836V61a1,1,0,0,0,1,1ZM34,47.039,32.527,49H30V47.1ZM11.972,49.877,11,52.308l-.972-2.431.835-5.85.273,0ZM11.026,42a5.005,5.005,0,0,1-4.9-4.03c.147.01.293.03.442.03a7.025,7.025,0,0,0,4.46-1.622A7.025,7.025,0,0,0,15.486,38c.149,0,.294-.02.442-.03a5.006,5.006,0,0,1-4.9,4.03Zm0-10a5.007,5.007,0,0,1,4.891,3.971c-.143.013-.285.029-.431.029a5.062,5.062,0,0,1-3.721-1.673,1.032,1.032,0,0,0-1.479,0A5.058,5.058,0,0,1,6.566,36c-.146,0-.288-.016-.431-.029A5.007,5.007,0,0,1,11.026,32ZM8.034,44.051l.807-.007L8.01,49.858a1,1,0,0,0,.061.513l2,5a1,1,0,0,0,1.858,0l2-5a1,1,0,0,0,.061-.513l-.836-5.851L14.031,44a7.456,7.456,0,0,1,4.718,1.629,6.972,6.972,0,0,0,4.277,1.487H28V49.4l-5,.588L18.132,49.3a1,1,0,0,0-1.14.99V60H4V47.867a3.854,3.854,0,0,1,4.034-3.816Z" fill="#383737"/>
          <path id="Path_1276602" data-name="Path 1276602" d="M28,42a1,1,0,0,0,1,1h6a1,1,0,0,0,1-1V36a1,1,0,0,0-1-1H29a1,1,0,0,0-1,1Zm2-5h4v4H30Z" fill="#383737"/>
          <path id="Path_1276603" data-name="Path 1276603" d="M36.089,4.26a4.829,4.829,0,0,0-8.178,0,5.619,5.619,0,0,0-.4,5.42l1.758,3.8C27.279,14.138,26,15.473,26,17.045c0,2.243,2.636,4,6,4s6-1.757,6-4c0-1.572-1.279-2.907-3.273-3.562l1.758-3.8A5.62,5.62,0,0,0,36.089,4.26ZM36,17.045c0,.944-1.71,2-4,2s-4-1.056-4-2c0-.694.873-1.379,2.117-1.735l.975,2.109a1,1,0,0,0,1.816,0l.975-2.109C35.127,15.666,36,16.351,36,17.045Zm-1.33-8.2L32,14.617,29.33,8.842a3.609,3.609,0,0,1,.25-3.479,2.83,2.83,0,0,1,4.84,0,3.608,3.608,0,0,1,.25,3.479Z" fill="#383737"/>
          <path id="Path_1276604" data-name="Path 1276604" d="M58.727,13.483l1.758-3.8a5.619,5.619,0,0,0-.4-5.42,4.829,4.829,0,0,0-8.178,0,5.619,5.619,0,0,0-.4,5.42l1.758,3.8C51.279,14.138,50,15.473,50,17.045c0,2.243,2.636,4,6,4s6-1.757,6-4C62,15.473,60.721,14.138,58.727,13.483ZM53.58,5.363a2.83,2.83,0,0,1,4.84,0,3.609,3.609,0,0,1,.25,3.479L56,14.617,53.33,8.842a3.608,3.608,0,0,1,.25-3.479ZM56,19.045c-2.29,0-4-1.056-4-2,0-.694.873-1.379,2.117-1.735l.975,2.109a1,1,0,0,0,1.816,0l.975-2.109C59.127,15.666,60,16.351,60,17.045,60,17.99,58.29,19.045,56,19.045Z" fill="#383737"/>
          <path id="Path_1276605" data-name="Path 1276605" d="M58.727,44.438l1.758-3.8a5.619,5.619,0,0,0-.4-5.42,4.829,4.829,0,0,0-8.178,0,5.619,5.619,0,0,0-.4,5.42l1.758,3.8C51.279,45.093,50,46.428,50,48c0,2.243,2.636,4,6,4s6-1.757,6-4c0-1.572-1.279-2.907-3.273-3.562ZM53.58,36.317a2.83,2.83,0,0,1,4.84,0,3.608,3.608,0,0,1,.25,3.479L56,45.571,53.33,39.8A3.606,3.606,0,0,1,53.58,36.317ZM56,50c-2.29,0-4-1.056-4-2,0-.694.873-1.379,2.117-1.736l.975,2.11a1,1,0,0,0,1.816,0l.975-2.11C59.127,46.621,60,47.306,60,48,60,48.944,58.29,50,56,50Z" fill="#383737"/>
          <path id="Path_1276606" data-name="Path 1276606" d="M33,33V27l1.2,1.6,1.6-1.2-3-4a1.036,1.036,0,0,0-1.6,0l-3,4,1.6,1.2L31,27v6Z" fill="#383737"/>
          <path id="Path_1276607" data-name="Path 1276607" d="M44.6,35.2l-1.2,1.6L45,38H38v2h7l-1.6,1.2,1.2,1.6,4-3a1,1,0,0,0,0-1.6Z" fill="#383737"/>
          <path id="Path_1276608" data-name="Path 1276608" d="M38.1,34.707l8.485-8.485L46.3,28.2l1.979.283.707-4.95A1,1,0,0,0,47.857,22.4l-4.95.707.283,1.979,1.98-.283-8.485,8.485Z" fill="#383737"/>
        </g>
      </g>
    </g>
  </g>
</svg>
