<svg xmlns="http://www.w3.org/2000/svg" xmlns:xlink="http://www.w3.org/1999/xlink" width="90" height="90" viewBox="0 0 90 90">
  <defs>
    <clipPath id="clip-path">
      <rect id="Rectangle_412217" data-name="Rectangle 412217" width="60" height="61" transform="translate(299.653 6660.857)" fill="#fff" stroke="#707070" stroke-width="1"/>
    </clipPath>
  </defs>
  <g id="Group_1204313" data-name="Group 1204313" transform="translate(-284.386 -6646.317)">
    <g id="Path_1276278" data-name="Path 1276278" transform="translate(284.386 6646.317)" fill="#ffc94a">
      <path d="M 75 88.5 L 15 88.5 C 11.39401245117188 88.5 8.003874778747559 87.09574890136719 5.454062461853027 84.54593658447266 C 2.904249906539917 81.99612426757812 1.5 78.60598754882812 1.5 75 L 1.5 15 C 1.5 11.39401245117188 2.904249906539917 8.003874778747559 5.454062461853027 5.454062461853027 C 8.003874778747559 2.904249906539917 11.39401245117188 1.5 15 1.5 L 75 1.5 C 78.60598754882812 1.5 81.99612426757812 2.904249906539917 84.54593658447266 5.454062461853027 C 87.09574890136719 8.003874778747559 88.5 11.39401245117188 88.5 15 L 88.5 75 C 88.5 78.60598754882812 87.09574890136719 81.99612426757812 84.54593658447266 84.54593658447266 C 81.99612426757812 87.09574890136719 78.60598754882812 88.5 75 88.5 Z" stroke="none"/>
      <path d="M 15 3 C 11.79468536376953 3 8.781211853027344 4.248214721679688 6.514717102050781 6.514717102050781 C 4.248214721679688 8.781211853027344 3 11.79468536376953 3 15 L 3 75 C 3 78.20531463623047 4.248214721679688 81.21878814697266 6.514717102050781 83.48528289794922 C 8.781211853027344 85.75178527832031 11.79468536376953 87 15 87 L 75 87 C 78.20531463623047 87 81.21878814697266 85.75178527832031 83.48528289794922 83.48528289794922 C 85.75178527832031 81.21878814697266 87 78.20531463623047 87 75 L 87 15 C 87 11.79468536376953 85.75178527832031 8.781211853027344 83.48528289794922 6.514717102050781 C 81.21878814697266 4.248214721679688 78.20531463623047 3 75 3 L 15 3 M 15 0 L 75 0 C 83.28427124023438 0 90 6.715728759765625 90 15 L 90 75 C 90 83.28427124023438 83.28427124023438 90 75 90 L 15 90 C 6.715728759765625 90 0 83.28427124023438 0 75 L 0 15 C 0 6.715728759765625 6.715728759765625 0 15 0 Z" stroke="none" fill="#b18c32"/>
    </g>
    <g id="Mask_Group_1200948" data-name="Mask Group 1200948" clip-path="url(#clip-path)">
      <g id="goverment_9934694" transform="translate(298.443 6660.147)">
        <g id="Group_1204273" data-name="Group 1204273">
          <g id="Group_1204269" data-name="Group 1204269">
            <path id="Path_1277069" data-name="Path 1277069" d="M26.014,11.728,26.3,3.039h.964c3.6-2.08,5.484,2.159,9.224,0v8.689c-3.574,2.064-5.078-2.394-9.224,0Z" fill="#8ac9fe" fill-rule="evenodd"/>
            <path id="Path_1277070" data-name="Path 1277070" d="M26.014,11.728l.04-1.219h1.211c4.146-2.394,5.65,2.064,9.224,0v1.219c-3.574,2.064-5.078-2.394-9.224,0Z" fill="#60b7ff" fill-rule="evenodd"/>
            <path id="Path_1277071" data-name="Path 1277071" d="M26.259,1.951a1.166,1.166,0,0,1,1.163,1.163v18.66H25.1V3.114a1.166,1.166,0,0,1,1.163-1.163Z" fill="#837683" fill-rule="evenodd"/>
          </g>
          <g id="Group_1204270" data-name="Group 1204270">
            <path id="Path_1277072" data-name="Path 1277072" d="M41.073,28.438h4.807V58.181H41.073Zm-17.217,0h4.807V58.181H23.855Zm-17.217,0h4.807V58.181H6.638Z" fill="#9facba" fill-rule="evenodd"/>
            <path id="Path_1277073" data-name="Path 1277073" d="M44.5,28.438h1.383V58.181H44.5Zm-17.217,0h1.383V58.181H27.279Zm-17.217,0h1.383V58.181H10.062Z" fill="#8d9ca8" fill-rule="evenodd"/>
            <path id="Path_1277074" data-name="Path 1277074" d="M5.3,58.893H47.222a1.034,1.034,0,0,0,1.031-1.031V55.2a1.034,1.034,0,0,0-1.031-1.031H5.3A1.034,1.034,0,0,0,4.264,55.2v2.665A1.034,1.034,0,0,0,5.3,58.893Z" fill="#8d9ca8" fill-rule="evenodd"/>
            <path id="Path_1277075" data-name="Path 1277075" d="M45.839,58.893h1.383a1.034,1.034,0,0,0,1.031-1.031V55.2a1.034,1.034,0,0,0-1.031-1.031H45.839A1.034,1.034,0,0,1,46.87,55.2v2.665A1.034,1.034,0,0,1,45.839,58.893Z" fill="#8192a5" fill-rule="evenodd"/>
            <path id="Path_1277076" data-name="Path 1277076" d="M3.025,57.318H49.492a.827.827,0,0,1,.825.825v1.5a.827.827,0,0,1-.825.825H3.025a.827.827,0,0,1-.825-.825v-1.5a.827.827,0,0,1,.825-.825Z" fill="#8192a5" fill-rule="evenodd"/>
            <path id="Path_1277077" data-name="Path 1277077" d="M48.109,57.318h1.383a.827.827,0,0,1,.825.825v1.5a.827.827,0,0,1-.825.825H48.109a.827.827,0,0,0,.825-.825v-1.5A.827.827,0,0,0,48.109,57.318Z" fill="#65788e" fill-rule="evenodd"/>
            <path id="Path_1277078" data-name="Path 1277078" d="M26.259,14.443l24.058,14v1.757a1.046,1.046,0,0,1-1.044,1.044H3.244A1.046,1.046,0,0,1,2.2,30.195V28.438Z" fill="#8d9ca8" fill-rule="evenodd"/>
            <path id="Path_1277079" data-name="Path 1277079" d="M26.259,14.443l24.058,14v1.757a1.046,1.046,0,0,1-1.044,1.044H47.891a1.046,1.046,0,0,0,1.044-1.044V28.438L25.567,14.845Z" fill="#8192a5" fill-rule="evenodd"/>
            <path id="Path_1277080" data-name="Path 1277080" d="M26.259,14.443l24.058,14H2.2Z" fill="#8192a5" fill-rule="evenodd"/>
            <path id="Path_1277081" data-name="Path 1277081" d="M26.259,14.443l24.058,14H48.934L25.567,14.845Z" fill="#65788e" fill-rule="evenodd"/>
            <circle id="Ellipse_12536" data-name="Ellipse 12536" cx="2.974" cy="2.974" r="2.974" transform="translate(22.048 22.472) rotate(-45)" fill="#eceff1"/>
            <path id="Path_1277082" data-name="Path 1277082" d="M26.259,19.5a3,3,0,0,1,.516.045,2.975,2.975,0,0,0,0,5.86,2.975,2.975,0,1,1-.516-5.9Z" fill="#d1d1d6" fill-rule="evenodd"/>
          </g>
          <g id="Group_1204271" data-name="Group 1204271">
            <path id="Path_1277083" data-name="Path 1277083" d="M33.857,25.146H56.08A1.223,1.223,0,0,1,57.3,26.366V50.048a1.223,1.223,0,0,1-1.219,1.219H33.857a1.223,1.223,0,0,1-1.219-1.219V26.366a1.223,1.223,0,0,1,1.219-1.219Z" fill="#6cf5c2" fill-rule="evenodd"/>
            <path id="Path_1277084" data-name="Path 1277084" d="M55.785,25.146h.3A1.223,1.223,0,0,1,57.3,26.366V50.048a1.223,1.223,0,0,1-1.219,1.219H33.857a1.223,1.223,0,0,1-1.219-1.219v-.341H54.566a1.223,1.223,0,0,0,1.219-1.219V25.146Z" fill="#00e499" fill-rule="evenodd"/>
          </g>
          <g id="Group_1204272" data-name="Group 1204272">
            <path id="Path_1277085" data-name="Path 1277085" d="M53.511,49.9l-4.139.213v9.653a.364.364,0,0,0,.539.319l3.6-1.978,3.6,1.978a.364.364,0,0,0,.539-.319V50.109Z" fill="#8ac9fe" fill-rule="evenodd"/>
            <path id="Path_1277086" data-name="Path 1277086" d="M53.511,49.9l-.607.031,3.532.182v9.6l.674.37a.364.364,0,0,0,.539-.319V50.109ZM49.372,59.71,52.9,57.769l.607.333-3.6,1.978a.364.364,0,0,1-.539-.319V59.71Z" fill="#60b7ff" fill-rule="evenodd"/>
            <circle id="Ellipse_12537" data-name="Ellipse 12537" cx="6.708" cy="6.708" r="6.708" transform="translate(46.803 40.174)" fill="#ffe177"/>
            <path id="Path_1277087" data-name="Path 1277087" d="M53.511,40.175a6.708,6.708,0,1,1,0,13.416c-.2,0-.407-.01-.607-.028a6.708,6.708,0,0,0,0-13.361c.2-.018.4-.028.607-.028Z" fill="#ffd064" fill-rule="evenodd"/>
            <circle id="Ellipse_12538" data-name="Ellipse 12538" cx="2.219" cy="2.219" r="2.219" transform="translate(51.27 44.709) rotate(-1.26)" fill="#eceff1"/>
            <path id="Path_1277088" data-name="Path 1277088" d="M53.511,44.664a2.231,2.231,0,0,1,.44.044,2.219,2.219,0,0,0,0,4.349,2.218,2.218,0,1,1-.44-4.393Z" fill="#d1d1d6" fill-rule="evenodd"/>
          </g>
        </g>
        <path id="Path_1277089" data-name="Path 1277089" d="M53.5,48.166a1.253,1.253,0,1,1,1.251-1.253A1.254,1.254,0,0,1,53.5,48.166Zm0-4.457a3.2,3.2,0,1,0,3.2,3.2A3.205,3.205,0,0,0,53.5,43.709ZM56.682,58.82l-2.714-1.491a.979.979,0,0,0-.941,0L50.319,58.82V53.937a7.684,7.684,0,0,0,6.364,0V58.82ZM3.161,58.293H48.367v1.2H3.161Zm2.066-3.152H47.266v1.2H5.227ZM7.6,32.213h2.858V53.191H7.6ZM3.161,30.194v-.782H31.652v.85H3.23a.073.073,0,0,1-.069-.068ZM26.246,2.926a.19.19,0,0,1,.189.187V13.487a.98.98,0,0,0-.379,0V3.112a.19.19,0,0,1,.189-.187Zm5.182,1.039a6.4,6.4,0,0,0,4.074.528v6.628a3.5,3.5,0,0,1-2.9-.355,6.159,6.159,0,0,0-4.223-.569V3.586a4.182,4.182,0,0,1,3.047.379Zm1.2,20.206a.975.975,0,0,0-.976.975v2.316H5.8L26.246,15.571l14.782,8.6h-8.4ZM56.309,39.732V26.121H33.6V50.291H46.566a7.572,7.572,0,0,1-.717-2.4H36.4a.975.975,0,1,1,0-1.95h9.451a7.555,7.555,0,0,1,.717-2.4H36.4a.976.976,0,1,1,0-1.951H47.926a7.7,7.7,0,0,1,8.384-1.853ZM42.032,52.241H44.89v.95H42.032ZM29.626,32.213h2.026V51.266a.975.975,0,0,0,.976.975h7.454v.95H29.626Zm-4.809,0h2.858V53.191H24.817Zm-1.951,0V53.191H12.405V32.213ZM48.367,53.2a1.1,1.1,0,0,0-.126-.009h-1.4v-.95h1.085c.143.146.287.288.442.423Zm10.891-6.287A5.761,5.761,0,1,0,53.5,52.677,5.767,5.767,0,0,0,59.259,46.912Zm1.951,0a7.7,7.7,0,0,0-2.949-6.06V25.146a.975.975,0,0,0-.976-.975H44.907L28.381,14.558V12.252a4.009,4.009,0,0,1,3.472.313,6.9,6.9,0,0,0,2.708.7,4.744,4.744,0,0,0,2.4-.691.983.983,0,0,0,.488-.845V3.04a.976.976,0,0,0-1.463-.845c-1.486.857-2.536.456-3.868-.052a6.073,6.073,0,0,0-4.269-.437,2.138,2.138,0,0,0-3.747,1.407V14.558L1.7,27.6a.979.979,0,0,0-.488.842v1.757a2.022,2.022,0,0,0,2.02,2.019H5.651V53.191h-1.4a.975.975,0,0,0-.976.976v2.176H2.185a.975.975,0,0,0-.976.976v3.151a.975.975,0,0,0,.976.975H50.3a.979.979,0,0,0,.976-.926L53.5,59.3l3.69,2.027a.978.978,0,0,0,1.446-.854V52.664A7.705,7.705,0,0,0,61.21,46.912ZM35.422,29.5a.975.975,0,0,1,.976-.976H53.5a.976.976,0,0,1,0,1.951H36.4a.975.975,0,0,1-.975-.976Zm0,4.354a.975.975,0,0,1,.976-.976H53.5a.975.975,0,1,1,0,1.95H36.4a.975.975,0,0,1-.975-.975Zm0,4.353a.975.975,0,0,1,.976-.975H53.5a.975.975,0,1,1,0,1.951H36.4a.976.976,0,0,1-.975-.976ZM28.243,22.471a2,2,0,1,0-2,2A2,2,0,0,0,28.243,22.471Zm-5.951,0a3.951,3.951,0,1,0,3.954-3.95A3.956,3.956,0,0,0,22.292,22.471Z" fill-rule="evenodd"/>
      </g>
    </g>
  </g>
</svg>
